# Alias OBJ Model File
# Exported from SketchUp, (c) 2000-2012 Trimble Navigation Limited
# File units = millimeters

mtllib 4.mtl

g Mesh1 ___533_1 Model

usemtl _
v 220.362 13.0308 -121.788
vt 0.610141 1.10096
vn 0.334293 0.942469 -2.6558e-16
v 220.362 13.0308 -39.6893
vt 0.610141 0.279975
v 249.128 2.82741 -11.6929
vt 0 1.07624e-05
v 249.127 2.82766 -149.784
vt 1.49254e-05 1.38092
f 1/1/1 2/2/1 3/3/1 4/4/1 

v 219.359 10.2034 -121.788
vt 2.20082 0
vn -0.942469 0.334293 7.66047e-16
v 219.359 10.2034 -39.6893
vt 0.55967 0
vt 0.55967 0.03
vt 2.20082 0.03
f 5/5/2 6/6/2 2/7/2 1/8/2 

vt -0.610141 0.279975
vn -0.334293 -0.942469 2.6558e-16
vt -0.610141 1.10096
v 248.124 0.000249598 -149.784
vt -1.49254e-05 1.38092
v 248.125 6.22346e-21 -11.6929
f 6/9/3 5/10/3 7/11/3 8/3/3 

vt 1.86595 0
vn -0.637072 0.225969 -0.736938
vt 1.03803 0
vt 1.03803 0.03
vt 1.86595 0.03
f 7/12/4 5/13/4 1/14/4 4/15/4 

vt -2.15141e-05 0
vn 0.942469 -0.334293 -5.40691e-06
vt -2.76046 0
vt -2.76046 0.03
vt -2.15141e-05 0.03
f 8/16/5 7/17/5 4/18/5 3/19/5 

vt 0.827951 0
vn -0.637068 0.225967 0.736942
vt 1.45426e-05 0
vt 1.45426e-05 0.03
vt 0.827951 0.03
f 6/20/6 8/21/6 3/22/6 2/23/6 

g Mesh2 ___507_1 Model

v 217.472 13.7193 -122.412
vt -2.72159 0.03
vn 0.268105 -3.80181e-33 -0.96339
v 217.883 13.7193 -122.253
vt -2.73041 0.03
vn 0.448766 -4.43104e-33 -0.893649
v 217.883 10.7193 -122.253
vt -2.73041 5.87745e-33
v 217.472 10.7193 -122.412
vt -2.72159 5.87745e-33
f 9/24/7 10/25/8 11/26/8 12/27/7 

v 209.539 13.7193 -39.1643
vt 3.40435 -8.06464e-35
vn 4.52066e-33 1 -2.68821e-33
v 216.852 13.7193 -39.1643
vt 3.55054 -8.06464e-35
v 217.308 13.7193 -39.2096
vt 3.55966 0.000452529
v 217.733 13.7193 -39.3394
vt 3.56816 0.00175135
v 218.119 13.7193 -39.5451
vt 3.57587 0.00380832
v 218.457 13.7193 -39.8178
vt 3.58262 0.00653529
v 218.737 13.7193 -40.1487
vt 3.58822 0.00984411
v 218.952 13.7193 -40.529
vt 3.59251 0.0136466
v 219.091 13.7193 -40.9498
vt 3.59531 0.0178547
v 219.148 13.7193 -41.4023
vt 3.59643 0.0223802
v 219.148 13.7193 -44.0036
vt 3.59645 0.0483928
v 219.148 13.7193 -52.1051
vt 3.59645 0.129408
v 219.148 13.7193 -64.06
vt 3.59645 0.248957
v 219.148 13.7193 -78.1069
vt 3.59645 0.389426
v 219.148 13.7193 -92.4841
vt 3.59645 0.533198
v 219.148 13.7193 -105.43
vt 3.59645 0.662656
v 219.148 13.7193 -115.183
vt 3.59645 0.760186
v 219.148 13.7193 -119.981
vt 3.59645 0.808171
v 219.123 13.7193 -120.545
vt 3.59594 0.813806
v 219.013 13.7193 -120.979
vt 3.59375 0.818144
v 218.826 13.7193 -121.375
vt 3.59 0.822109
v 218.569 13.7193 -121.726
vt 3.58486 0.825613
v 218.252 13.7193 -122.021
vt 3.57852 0.828568
vt 3.57115 0.830887
vt 3.56293 0.83248
v 217.026 13.7193 -122.49
vt 3.55402 0.833261
v 213.9 13.7193 -122.497
vt 3.49152 0.833325
v 198.619 13.7193 -122.497
vt 3.18606 0.833325
v 173.778 13.7193 -122.497
vt 2.68948 0.833325
v 143.298 13.7193 -122.497
vt 2.0802 0.833325
v 111.102 13.7193 -122.497
vt 1.43661 0.833325
v 81.1131 13.7193 -122.497
vt 0.837121 0.833325
v 57.2524 13.7193 -122.497
vt 0.360145 0.833325
v 43.4426 13.7193 -122.497
vt 0.0840873 0.833325
v 41.3012 13.7193 -122.485
vt 0.0412825 0.83321
v 40.8596 13.7193 -122.397
vt 0.0324533 0.832324
v 40.4529 13.7193 -122.228
vt 0.0243247 0.830635
v 40.0902 13.7193 -121.987
vt 0.0170729 0.828232
v 39.7801 13.7193 -121.685
vt 0.0108741 0.825203
v 39.5315 13.7193 -121.328
vt 0.00590446 0.821636
v 39.3532 13.7193 -120.926
vt 0.00234025 0.81762
v 39.254 13.7193 -120.489
vt 0.000357663 0.813242
v 39.2361 13.7193 -119.713
vt -2.71104e-34 0.805485
v 39.2361 13.7193 -114.199
vt -2.71104e-34 0.750343
v 39.2361 13.7193 -103.95
vt -2.71104e-34 0.647859
v 39.2361 13.7193 -90.7291
vt -2.71104e-34 0.515648
v 39.2361 13.7193 -76.2969
vt -2.71104e-34 0.371326
v 39.2361 13.7193 -62.4152
vt -2.71104e-34 0.232508
v 39.2361 13.7193 -50.8455
vt -2.71104e-34 0.116812
v 39.2361 13.7193 -43.3496
vt -2.71104e-34 0.0418528
v 39.239 13.7193 -41.3443
vt 5.79144e-05 0.0218002
v 39.3062 13.7193 -40.8953
vt 0.00140197 0.0173095
v 39.4559 13.7193 -40.479
vt 0.00439372 0.0131473
v 39.6792 13.7193 -40.1045
vt 0.00885695 0.0094017
v 39.9672 13.7193 -39.7804
vt 0.0146155 0.00616079
v 40.3113 13.7193 -39.5156
vt 0.021493 0.00351275
v 40.7025 13.7193 -39.3189
vt 0.0293135 0.00154573
v 41.1321 13.7193 -39.1991
vt 0.0379006 0.000347873
v 41.6557 13.7193 -39.1643
vt 0.0483677 -8.06464e-35
v 50.6852 13.7193 -39.1643
vt 0.228867 -8.06464e-35
v 71.2364 13.7193 -39.1643
vt 0.639687 -8.06464e-35
v 99.3872 13.7193 -39.1643
vt 1.20242 -8.06464e-35
v 131.215 13.7193 -39.1643
vt 1.83866 -8.06464e-35
v 162.798 13.7193 -39.1643
vt 2.47 9.02389e-16
v 190.213 13.7193 -39.1643
vt 3.01803 9.02389e-16
f 13/28/9 14/29/9 15/30/9 16/31/9 17/32/9 18/33/9 19/34/9 20/35/9 21/36/9 22/37/9 23/38/9 24/39/9 25/40/9 26/41/9 27/42/9 28/43/9 29/44/9 30/45/9 31/46/9 32/47/9 33/48/9 34/49/9 35/50/9 10/51/9 9/52/9 36/53/9 37/54/9 38/55/9 39/56/9 40/57/9 41/58/9 42/59/9 43/60/9 44/61/9 45/62/9 46/63/9 47/64/9 48/65/9 49/66/9 50/67/9 51/68/9 52/69/9 53/70/9 54/71/9 55/72/9 56/73/9 57/74/9 58/75/9 59/76/9 60/77/9 61/78/9 62/79/9 63/80/9 64/81/9 65/82/9 66/83/9 67/84/9 68/85/9 69/86/9 70/87/9 71/88/9 72/89/9 73/90/9 74/91/9 75/92/9 

vt 3.55054 0.03
vn 0.0494482 2.46139e-33 0.998777
vt 3.40435 0.03
vn -2.33471e-15 2.68821e-33 1
v 209.539 10.7193 -39.1643
vt 3.40435 0
v 216.852 10.7193 -39.1643
vt 3.55054 0
f 14/93/10 13/94/11 76/95/11 77/96/10 

vt 3.01803 0.03
v 190.213 10.7193 -39.1643
vt 3.01803 2.1377e-47
vt 3.40435 2.1377e-47
f 13/94/11 75/97/11 78/98/11 76/99/11 

vt 2.47 0.03
vn 1.42861e-15 2.68821e-33 1
v 162.798 10.7193 -39.1643
vt 2.47 2.42581e-48
vt 3.01803 2.42581e-48
f 75/97/11 74/100/12 79/101/12 78/102/11 

vt 1.83866 0.03
v 131.215 10.7193 -39.1643
vt 1.83866 -7.06474e-48
vt 2.47 -7.06474e-48
f 74/100/12 73/103/12 80/104/12 79/105/12 

vt 1.20242 0.03
vn 0 2.68821e-33 1
v 99.3872 10.7193 -39.1643
vt 1.20242 0
vt 1.83866 0
f 73/103/12 72/106/13 81/107/13 80/108/12 

vt 0.639687 0.03
v 71.2364 10.7193 -39.1643
vt 0.639687 0
f 72/106/13 71/109/13 82/110/13 81/107/13 

vt 0.228867 0.03
v 50.6852 10.7193 -39.1643
vt 0.228867 0
f 71/109/13 70/111/13 83/112/13 82/110/13 

vt 0.0483677 0.03
vn -0.0331635 2.83665e-33 0.99945
v 41.6557 10.7193 -39.1643
vt 0.0483677 0
f 70/111/13 69/113/14 84/114/14 83/112/13 

vt 0.0482613 0.03
vt 0.0377711 0.03
vn -0.168335 3.41084e-33 0.98573
v 41.1321 10.7193 -39.1991
vt 0.0377711 4.78297e-36
vt 0.0482613 4.78297e-36
f 69/115/14 68/116/15 85/117/15 84/118/14 

vt 0.036321 0.03
vt 0.0274063 0.03
vn -0.3606 4.1375e-33 0.932721
v 40.7025 10.7193 -39.3189
vt 0.0274063 2.06453e-35
vt 0.036321 2.06453e-35
f 68/119/15 67/120/16 86/121/16 85/122/15 

vt 0.0248014 0.03
vt 0.0160481 0.03
vn -0.531969 4.68113e-33 0.846764
v 40.3113 10.7193 -39.5156
vt 0.0160481 3.53187e-35
vt 0.0248014 3.53187e-35
f 67/123/16 66/124/17 87/125/17 86/126/16 

vt 0.0127494 0.03
vt 0.00407064 0.03
vn -0.68169 5.0485e-33 0.731641
v 39.9672 10.7193 -39.7804
vt 0.00407064 4.56575e-35
vt 0.0127494 4.56575e-35
f 66/127/17 65/128/18 88/129/18 87/130/17 

vt 0.000504952 0.03
vt -0.00816294 0.03
vn -0.8068 5.23553e-33 0.590825
v 39.6792 10.7193 -40.1045
vt -0.00816294 4.93627e-35
vt 0.000504952 4.93627e-35
f 65/131/18 64/132/19 89/133/19 88/134/18 

vt -0.0116085 0.03
vt -0.0203254 0.03
vn -0.904172 5.23577e-33 0.427168
v 39.4559 10.7193 -40.479
vt -0.0203254 4.53358e-35
vt -0.0116085 4.53358e-35
f 64/135/19 63/136/20 90/137/20 89/138/19 

vt -0.0232446 0.03
vt -0.0320864 0.03
vn -0.969675 5.04057e-33 0.244399
v 39.3062 10.7193 -40.8953
vt -0.0320864 3.36507e-35
vt -0.0232446 3.36507e-35
f 63/139/20 62/140/21 91/141/21 90/142/20 

vt -0.0340127 0.03
vt -0.0430896 0.03
vn -0.997186 4.70946e-33 0.0749628
v 39.239 10.7193 -41.3443
vt -0.0430896 1.58566e-35
vt -0.0340127 1.58566e-35
f 62/143/21 61/144/22 92/145/22 91/146/21 

vt -0.0435785 0.03
vt -0.0836636 0.03
vn -1 4.5226e-33 0.000722392
v 39.2361 10.7193 -43.3496
vt -0.0836636 2.73591e-37
vt -0.0435785 2.73591e-37
f 61/147/22 60/148/23 93/149/23 92/150/22 

vt -0.0836637 0.03
vt -0.233508 0.03
vn -1 4.52066e-33 -0
v 39.2361 10.7193 -50.8455
vt -0.233508 0
vt -0.0836637 0
f 60/151/23 59/152/24 94/153/24 93/154/23 

vt -0.464784 0.03
v 39.2361 10.7193 -62.4152
vt -0.464784 0
f 59/152/24 58/155/24 95/156/24 94/153/24 

vt -0.74228 0.03
v 39.2361 10.7193 -76.2969
vt -0.74228 0
f 58/155/24 57/157/24 96/158/24 95/156/24 

vt -1.03078 0.03
v 39.2361 10.7193 -90.7291
vt -1.03078 0
f 57/157/24 56/159/24 97/160/24 96/158/24 

vt -1.29507 0.03
v 39.2361 10.7193 -103.95
vt -1.29507 0
f 56/159/24 55/161/24 98/162/24 97/160/24 

vt -1.49994 0.03
v 39.2361 10.7193 -114.199
vt -1.49994 0
f 55/161/24 54/163/24 99/164/24 98/162/24 

vt -1.61016 0.03
vn -0.999934 4.48936e-33 -0.0115297
v 39.2361 10.7193 -119.713
vt -1.61016 0
f 54/163/24 53/165/25 100/166/25 99/164/24 

vt -1.60974 0.03
vt -1.62525 0.03
vn -0.992454 4.15693e-33 -0.122615
v 39.254 10.7193 -120.489
vt -1.62525 -8.27874e-35
vt -1.60974 -8.27874e-35
f 53/167/25 52/168/26 101/169/26 100/170/25 

vt -1.58557 0.03
vt -1.59454 0.03
vn -0.949143 3.44438e-33 -0.314846
v 39.3532 10.7193 -120.926
vt -1.59454 -6.84831e-34
vt -1.58557 -6.84831e-34
f 52/171/26 51/172/27 102/173/27 101/174/26 

vt -1.49479 0.03
vt -1.50357 0.03
vn -0.871148 2.6182e-33 -0.49102
v 39.5315 10.7193 -121.328
vt -1.50357 -1.00562e-33
vt -1.49479 -1.00562e-33
f 51/175/27 50/176/28 103/177/28 102/178/27 

vt -1.35081 0.03
vt -1.3595 0.03
vn -0.762948 1.7112e-33 -0.64646
v 39.7801 10.7193 -121.685
vt -1.3595 -1.01496e-33
vt -1.35081 -1.01496e-33
f 50/179/28 49/180/29 104/181/29 103/182/28 

vt -1.16042 0.03
vt -1.16909 0.03
vn -0.628282 7.48859e-34 -0.777986
v 40.0902 10.7193 -121.987
vt -1.16909 -7.2479e-34
vt -1.16042 -7.2479e-34
f 49/183/29 48/184/30 105/185/30 104/186/29 

vt -0.92853 0.03
vt -0.937228 0.03
vn -0.470053 -2.47772e-34 -0.882638
v 40.4529 10.7193 -122.228
vt -0.937228 -1.75092e-34
vt -0.92853 -1.75092e-34
f 48/187/30 47/188/31 106/189/31 105/190/30 

vt -0.659361 0.03
vt -0.668163 0.03
vn -0.291592 -1.2532e-33 -0.956543
v 40.8596 10.7193 -122.397
vt -0.668163 5.70756e-34
vt -0.659361 5.70756e-34
f 47/191/31 46/192/32 107/193/32 106/194/31 

vt -0.359303 0.03
vt -0.368308 0.03
vn -0.10157 -2.21515e-33 -0.994828
v 41.3012 10.7193 -122.485
vt -0.368308 1.4191e-33
vt -0.359303 1.4191e-33
f 46/195/32 45/196/33 108/197/33 107/198/32 

vt -0.0502244 0.03
vt -0.0930298 0.03
vn -0.00268451 -2.67607e-33 -0.999996
v 43.4426 10.7193 -122.497
vt -0.0930298 2.21926e-33
vt -0.0502244 2.21926e-33
f 45/199/33 44/200/34 109/201/34 108/202/33 

vt -0.0840873 0.03
vt -0.360145 0.03
vn 0 -2.68821e-33 -1
v 57.2524 10.7193 -122.497
vt -0.360145 2.24016e-33
vt -0.0840873 2.24016e-33
f 44/203/34 43/204/35 110/205/35 109/206/34 

vt -0.837121 0.03
v 81.1131 10.7193 -122.497
vt -0.837121 2.24016e-33
f 43/204/35 42/207/35 111/208/35 110/205/35 

vt -1.43661 0.03
v 111.102 10.7193 -122.497
vt -1.43661 2.24016e-33
f 42/207/35 41/209/35 112/210/35 111/208/35 

vt -2.0802 0.03
v 143.298 10.7193 -122.497
vt -2.0802 2.24016e-33
f 41/209/35 40/211/35 113/212/35 112/210/35 

vt -2.68948 0.03
v 173.778 10.7193 -122.497
vt -2.68948 2.24016e-33
f 40/211/35 39/213/35 114/214/35 113/212/35 

vt -3.18606 0.03
v 198.619 10.7193 -122.497
vt -3.18606 2.24016e-33
f 39/213/35 38/215/35 115/216/35 114/214/35 

vt -3.49152 0.03
vn 0.00103832 -2.6929e-33 -0.999999
v 213.9 10.7193 -122.497
vt -3.49152 2.24016e-33
f 38/215/35 37/217/36 116/218/36 115/216/35 

vt -3.48806 0.03
vt -3.55056 0.03
vn 0.0876244 -3.07399e-33 -0.996154
v 217.026 10.7193 -122.49
vt -3.55056 2.25775e-33
vt -3.48806 2.25775e-33
f 37/219/36 36/220/37 117/221/37 116/222/36 

vt -3.21335 0.03
vt -3.22239 0.03
vt -3.22239 3.86492e-33
vt -3.21335 3.86492e-33
f 36/223/37 9/224/7 12/225/7 117/226/37 

vt -3.55054 -2.15848e-65
vn -4.52066e-33 -1 2.68821e-33
vt -3.40435 -2.0696e-65
vt -3.01803 9.02389e-16
vt -2.47 9.02389e-16
vt -1.83866 -1.11777e-65
vt -1.20242 -7.30985e-66
vt -0.639687 -3.88884e-66
vt -0.228867 -1.39135e-66
vt -0.0483677 -2.94041e-67
vt -0.0379006 0.000347873
vt -0.0293135 0.00154573
vt -0.021493 0.00351275
vt -0.0146155 0.00616079
vt -0.00885695 0.0094017
vt -0.00439372 0.0131473
vt -0.00140197 0.0173095
vt -5.79144e-05 0.0218002
vt 0 0.0418528
vt 0 0.116812
vt 0 0.232508
vt 0 0.371326
vt 0 0.515648
vt 0 0.647859
vt 0 0.750343
vt 0 0.805485
vt -0.000357663 0.813242
vt -0.00234025 0.81762
vt -0.00590446 0.821636
vt -0.0108741 0.825203
vt -0.0170729 0.828232
vt -0.0243247 0.830635
vt -0.0324533 0.832324
vt -0.0412825 0.83321
vt -0.0840873 0.833325
vt -0.360145 0.833325
vt -0.837121 0.833325
vt -1.43661 0.833325
vt -2.0802 0.833325
vt -2.68948 0.833325
vt -3.18606 0.833325
vt -3.49152 0.833325
vt -3.55402 0.833261
vt -3.56293 0.83248
vt -3.57115 0.830887
v 218.252 10.7193 -122.021
vt -3.57852 0.828568
v 218.569 10.7193 -121.726
vt -3.58486 0.825613
v 218.826 10.7193 -121.375
vt -3.59 0.822109
v 219.013 10.7193 -120.979
vt -3.59375 0.818144
v 219.123 10.7193 -120.545
vt -3.59594 0.813806
v 219.148 10.7193 -119.981
vt -3.59645 0.808171
v 219.148 10.7193 -115.183
vt -3.59645 0.760186
v 219.148 10.7193 -105.43
vt -3.59645 0.662656
v 219.148 10.7193 -92.4841
vt -3.59645 0.533198
v 219.148 10.7193 -78.1069
vt -3.59645 0.389426
v 219.148 10.7193 -64.06
vt -3.59645 0.248957
v 219.148 10.7193 -52.1051
vt -3.59645 0.129408
v 219.148 10.7193 -44.0036
vt -3.59645 0.0483928
v 219.148 10.7193 -41.4023
vt -3.59643 0.0223802
v 219.091 10.7193 -40.9498
vt -3.59531 0.0178547
v 218.952 10.7193 -40.529
vt -3.59251 0.0136466
v 218.737 10.7193 -40.1487
vt -3.58822 0.00984411
v 218.457 10.7193 -39.8178
vt -3.58262 0.00653529
v 218.119 10.7193 -39.5451
vt -3.57587 0.00380832
v 217.733 10.7193 -39.3394
vt -3.56816 0.00175135
v 217.308 10.7193 -39.2096
vt -3.55966 0.000452529
f 77/227/38 76/228/38 78/229/38 79/230/38 80/231/38 81/232/38 82/233/38 83/234/38 84/235/38 85/236/38 86/237/38 87/238/38 88/239/38 89/240/38 90/241/38 91/242/38 92/243/38 93/244/38 94/245/38 95/246/38 96/247/38 97/248/38 98/249/38 99/250/38 100/251/38 101/252/38 102/253/38 103/254/38 104/255/38 105/256/38 106/257/38 107/258/38 108/259/38 109/260/38 110/261/38 111/262/38 112/263/38 113/264/38 114/265/38 115/266/38 116/267/38 117/268/38 12/269/38 11/270/38 118/271/38 119/272/38 120/273/38 121/274/38 122/275/38 123/276/38 124/277/38 125/278/38 126/279/38 127/280/38 128/281/38 129/282/38 130/283/38 131/284/38 132/285/38 133/286/38 134/287/38 135/288/38 136/289/38 137/290/38 138/291/38 

vt -2.13906 0.03
vt -2.14777 0.03
vn 0.609735 -4.8871e-33 -0.792605
vt -2.14777 7.74567e-33
vt -2.13906 7.74567e-33
f 10/292/8 35/293/39 118/294/39 11/295/8 

vt -1.48886 0.03
vt -1.49752 0.03
vn 0.747497 -5.16486e-33 -0.664265
vt -1.49752 9.22175e-33
vt -1.48886 9.22175e-33
f 35/296/39 34/297/40 119/298/40 118/299/39 

vt -0.787573 0.03
vt -0.796257 0.03
vn 0.859187 -5.25955e-33 -0.511661
vt -0.796257 1.01281e-32
vt -0.787573 1.01281e-32
f 34/300/40 33/301/41 120/302/41 119/303/40 

vt -0.0496484 0.03
vt -0.0584165 0.03
vn 0.941199 -5.16306e-33 -0.337853
vt -0.0584165 1.0341e-32
vt -0.0496484 1.0341e-32
f 33/304/41 32/305/42 121/306/42 120/307/41 

vt 0.705636 0.03
vt 0.696693 0.03
vn 0.989295 -4.86455e-33 -0.145929
vt 0.696693 9.7972e-33
vt 0.705636 9.7972e-33
f 32/308/42 31/309/43 122/310/43 121/311/42 

vt 1.46153 0.03
vt 1.45025 0.03
vn 0.999741 -4.58065e-33 -0.0227517
vt 1.45025 8.50671e-33
vt 1.46153 8.50671e-33
f 31/312/43 30/313/44 123/314/44 122/315/43 

vt 1.61553 0.03
vt 1.51961 0.03
vn 1 -4.52066e-33 -0
vt 1.51961 8.13323e-33
vt 1.61553 8.13323e-33
f 30/316/44 29/317/45 124/318/45 123/319/44 

vt 1.32465 0.03
vt 1.32465 8.13323e-33
f 29/317/45 28/320/45 125/321/45 124/318/45 

vt 1.06586 0.03
vt 1.06586 8.13323e-33
f 28/320/45 27/322/45 126/323/45 125/321/45 

vt 0.778463 0.03
vt 0.778463 8.13323e-33
f 27/322/45 26/324/45 127/325/45 126/323/45 

vt 0.497666 0.03
vt 0.497666 8.13323e-33
f 26/324/45 25/326/45 128/327/45 127/325/45 

vt 0.258686 0.03
vt 0.258686 8.13323e-33
f 25/326/45 24/328/45 129/329/45 128/327/45 

vt 0.0967372 0.03
vn 1 -4.52028e-33 0.000139771
vt 0.0967372 8.13323e-33
f 24/328/45 23/330/46 130/331/46 129/329/45 

vt 0.0977426 0.03
vt 0.0457434 0.03
vn 0.998076 -4.34529e-33 0.0619998
vt 0.0457434 8.13181e-33
vt 0.0977426 8.13181e-33
f 23/332/46 22/333/47 131/334/47 130/335/46 

vt 0.488496 0.03
vt 0.47938 0.03
vn 0.975389 -3.81668e-33 0.22049
vt 0.47938 7.40505e-33
vt 0.488496 7.40505e-33
f 22/336/47 21/337/48 132/338/48 131/339/47 

vt 1.16768 0.03
vt 1.15881 0.03
vn 0.914198 -3.04333e-33 0.405268
vt 1.15881 5.85575e-33
vt 1.16768 5.85575e-33
f 21/340/48 20/341/49 133/342/49 132/343/48 

vt 1.78916 0.03
vt 1.78043 0.03
vn 0.820563 -2.17302e-33 0.571556
vt 1.78043 4.07723e-33
vt 1.78916 4.07723e-33
f 20/344/49 19/345/50 134/346/50 133/347/49 

vt 2.33509 0.03
vt 2.32641 0.03
vn 0.698732 -1.23563e-33 0.715384
vt 2.32641 2.33122e-33
vt 2.33509 2.33122e-33
f 19/348/50 18/349/51 135/350/51 134/351/50 

vt 2.79499 0.03
vt 2.78631 0.03
vn 0.551936 -2.53449e-34 0.833887
vt 2.78631 8.4079e-34
vt 2.79499 8.4079e-34
f 18/352/51 17/353/52 136/354/52 135/355/51 

vt 3.15898 0.03
vt 3.15024 0.03
vn 0.383075 7.51396e-34 0.923717
vt 3.15024 -2.056e-34
vt 3.15898 -2.056e-34
f 17/356/52 16/357/53 137/358/53 136/359/52 

vt 3.41357 0.03
vt 3.40468 0.03
vn 0.196394 1.74803e-33 0.980525
vt 3.40468 -6.49898e-34
vt 3.41357 -6.49898e-34
f 16/360/53 15/361/54 138/362/54 137/363/53 

vt 3.54234 0.03
vt 3.53318 0.03
vt 3.53318 -3.90977e-34
vt 3.54234 -3.90977e-34
f 15/364/54 14/365/10 77/366/10 138/367/54 

g Mesh3 ___534_1 Model

v 220.364 15.9808 -125.795
vt -0.998027 0.03
vn 0.106625 0.98861 -0.106217
v 218.838 16.3128 -124.275
vt -1.0416 0.03
vn 0.112051 0.987413 -0.111622
v 220.955 16.3128 -122.15
vt -1.0416 0
v 222.481 15.9808 -123.67
vt -0.998027 0
f 139/368/55 140/369/56 141/370/56 142/371/55 

v 220.762 8.5126 -126.192
vt 0.962443 0.0302044
vn -0.705749 3.23052e-16 -0.708462
v 217.337 9.69247 -122.78
vt 1.06054 0.0384311
v 217.415 10.7663 -122.858
vt 1.05992 0.0492212
v 217.586 13.1287 -123.028
vt 1.05855 0.0729594
v 217.758 15.4912 -123.199
vt 1.05719 0.0966976
v 217.836 16.565 -123.277
vt 1.05657 0.107488
v 218.124 16.4804 -123.563
vt 1.04835 0.106941
vt 1.028 0.106008
vt 0.984566 0.104274
v 223.088 15.4028 -128.508
vt 0.907083 0.101326
v 225.899 14.8424 -131.309
vt 0.827153 0.098643
v 228.127 14.448 -133.529
vt 0.763871 0.0970125
v 229.699 14.2013 -135.094
vt 0.719287 0.0961771
v 230.539 14.0843 -135.932
vt 0.695453 0.0958794
v 230.597 14.0864 -135.989
vt 0.693848 0.09596
v 230.65 14.107 -136.042
vt 0.692379 0.0962199
v 230.697 14.1444 -136.089
vt 0.691111 0.0966413
v 230.735 14.1971 -136.127
vt 0.690107 0.0972067
v 230.837 14.379 -136.228
vt 0.687522 0.0991256
v 231.06 14.7792 -136.45
vt 0.681835 0.103347
v 231.282 15.1794 -136.672
vt 0.676148 0.107569
v 231.389 15.3701 -136.778
vt 0.673433 0.109581
v 231.405 15.3943 -136.794
vt 0.673001 0.109839
v 231.543 15.5541 -136.932
vt 0.669355 0.111576
v 231.731 15.8027 -137.118
vt 0.664449 0.114249
v 231.831 16.0523 -137.218
vt 0.661998 0.116841
v 231.707 16.2151 -137.095
vt 0.665717 0.118337
v 231.475 16.3434 -136.864
vt 0.672425 0.119377
v 231.321 16.5533 -136.711
vt 0.677064 0.121312
v 231.24 16.8447 -136.629
vt 0.679791 0.124133
v 231.225 17.2172 -136.614
vt 0.680761 0.127833
v 231.322 17.6579 -136.712
vt 0.678656 0.132328
v 231.575 18.0494 -136.963
vt 0.672127 0.136494
v 231.973 18.3124 -137.36
vt 0.661307 0.139529
v 232.508 18.3679 -137.893
vt 0.646329 0.140636
v 232.994 18.1677 -138.377
vt 0.632361 0.139142
v 233.286 17.7702 -138.668
vt 0.623569 0.135479
v 233.436 17.2556 -138.817
vt 0.618583 0.130501
v 233.498 16.7039 -138.879
vt 0.616032 0.125064
v 233.443 16.1436 -138.824
vt 0.616768 0.119419
v 233.297 15.6139 -138.679
vt 0.620093 0.113985
v 233.197 15.2109 -138.58
vt 0.622307 0.109863
v 233.28 15.0307 -138.662
vt 0.619714 0.108152
v 233.408 14.9937 -138.789
vt 0.616071 0.107915
v 233.555 14.928 -138.936
vt 0.611828 0.107412
v 233.71 14.8445 -139.09
vt 0.607339 0.106739
v 233.861 14.754 -139.241
vt 0.602961 0.105993
v 233.947 14.6607 -139.327
vt 0.600401 0.10515
v 233.986 14.5342 -139.365
vt 0.599133 0.103929
v 233.974 14.4011 -139.353
vt 0.599272 0.10259
v 233.909 14.2876 -139.288
vt 0.600931 0.101391
v 233.774 14.1392 -139.153
vt 0.604525 0.0997704
v 233.639 13.9668 -139.019
vt 0.608067 0.097912
v 233.519 13.7761 -138.9
vt 0.611166 0.0958859
v 233.428 13.5726 -138.809
vt 0.613429 0.0937624
v 233.364 13.341 -138.746
vt 0.614876 0.0913863
v 233.33 13.1206 -138.712
vt 0.615509 0.0891531
v 233.318 12.9218 -138.7
vt 0.615556 0.0871586
v 233.321 12.7551 -138.702
vt 0.615241 0.0854989
v 233.336 12.6673 -138.718
vt 0.614673 0.0846387
v 233.372 12.5917 -138.753
vt 0.613566 0.0839218
v 233.424 12.5335 -138.805
vt 0.612017 0.0833947
v 233.489 12.4976 -138.87
vt 0.610125 0.083104
v 234.91 12.0735 -140.285
vt 0.569524 0.0803432
v 237.382 11.4787 -142.749
vt 0.499075 0.0769679
v 240.343 11.0395 -145.698
vt 0.415128 0.0756479
v 243.227 11.082 -148.571
vt 0.334031 0.0790527
v 246.528 11.7532 -151.859
vt 0.242123 0.0891591
v 249.996 12.6684 -155.314
vt 0.145868 0.101872
v 252.767 13.4761 -158.074
vt 0.0690671 0.112792
v 253.977 13.8248 -159.28
vt 0.0355198 0.117521
v 254.243 13.5814 -159.545
vt 0.0276842 0.115368
v 254.642 13.0179 -159.942
vt 0.015652 0.11016
v 254.999 12.3901 -160.298
vt 0.00467366 0.104269
v 255.142 11.9537 -160.441
vt 0 0.100065
v 255.026 11.7231 -160.325
vt 0.00293476 0.0976441
v 254.761 11.5871 -160.061
vt 0.010197 0.096014
v 254.408 11.6137 -159.709
vt 0.0201602 0.0959147
v 254.029 11.8707 -159.332
vt 0.0311979 0.0980862
v 253.751 12.1069 -159.055
vt 0.0393767 0.100154
v 253.51 12.2204 -158.814
vt 0.0463284 0.101037
v 253.319 12.2511 -158.624
vt 0.0517393 0.101145
v 253.192 12.2389 -158.498
vt 0.0552955 0.100893
v 253.169 12.2318 -158.475
vt 0.0559343 0.100798
v 253.147 12.2212 -158.453
vt 0.0565337 0.10067
v 253.127 12.2074 -158.432
vt 0.0570955 0.100511
v 253.107 12.1906 -158.413
vt 0.0576218 0.100323
v 252.778 11.8679 -158.086
vt 0.0663951 0.0967646
v 252.167 11.2408 -157.477
vt 0.0826756 0.0898794
v 251.352 10.3578 -156.665
vt 0.104318 0.0802302
v 250.412 9.267 -155.728
vt 0.129179 0.0683796
v 249.854 8.53155 -155.172
vt 0.143813 0.0604676
v 248.309 6.81276 -153.634
vt 0.184753 0.0417294
v 245.975 4.84201 -151.308
vt 0.247554 0.0196619
v 243.047 3.35068 -148.392
vt 0.327769 0.00176159
v 237.253 3.77468 -142.619
vt 0.491451 0
v 228.612 6.01766 -134.012
vt 0.737877 0.0134375
f 143/372/57 144/373/57 145/374/57 146/375/57 147/376/57 148/377/57 149/378/57 140/379/57 139/380/57 150/381/57 151/382/57 152/383/57 153/384/57 154/385/57 155/386/57 156/387/57 157/388/57 158/389/57 159/390/57 160/391/57 161/392/57 162/393/57 163/394/57 164/395/57 165/396/57 166/397/57 167/398/57 168/399/57 169/400/57 170/401/57 171/402/57 172/403/57 173/404/57 174/405/57 175/406/57 176/407/57 177/408/57 178/409/57 179/410/57 180/411/57 181/412/57 182/413/57 183/414/57 184/415/57 185/416/57 186/417/57 187/418/57 188/419/57 189/420/57 190/421/57 191/422/57 192/423/57 193/424/57 194/425/57 195/426/57 196/427/57 197/428/57 198/429/57 199/430/57 200/431/57 201/432/57 202/433/57 203/434/57 204/435/57 205/436/57 206/437/57 207/438/57 208/439/57 209/440/57 210/441/57 211/442/57 212/443/57 213/444/57 214/445/57 215/446/57 216/447/57 217/448/57 218/449/57 219/450/57 220/451/57 221/452/57 222/453/57 223/454/57 224/455/57 225/456/57 226/457/57 227/458/57 228/459/57 229/460/57 230/461/57 231/462/57 232/463/57 233/464/57 234/465/57 235/466/57 236/467/57 237/468/57 

vt 1.05865 0.03
vn -0.167987 -0.971482 0.167343
vt 0.959181 0.03
vn -0.161809 -0.973569 0.16119
v 222.879 8.5126 -124.066
vt 0.959181 0
v 219.454 9.69247 -120.655
vt 1.05865 0
f 144/469/58 143/470/59 238/471/59 239/472/58 

vt 0.960812 0.03
vt 0.733759 0.03
vn -0.14191 -0.979733 0.141366
v 230.729 6.01766 -131.887
vt 0.733759 0
vt 0.960812 0
f 143/473/59 237/474/60 240/475/60 238/476/59 

vt 0.736443 0.03
vt 0.488557 0.03
vn -0.082586 -0.993182 0.0822697
v 239.37 3.77468 -140.494
vt 0.488557 0
vt 0.736443 0
f 237/477/60 236/478/61 241/479/61 240/480/60 

vt 0.491338 0.03
vt 0.327618 0.03
vn -0.0366772 -0.998659 0.0365367
v 245.164 3.35068 -146.266
vt 0.327618 0
vt 0.491338 0
f 236/481/61 235/482/62 242/483/62 241/484/61 

vt 0.297903 0.03
vn 0.240456 -0.94064 -0.239535
vt 0.210068 0.03
vn 0.303472 -0.903611 -0.30231
v 248.093 4.84201 -149.183
vt 0.210068 0
vt 0.297903 0
f 235/485/63 234/486/64 243/487/64 242/488/63 

vt 0.17998 0.03
vt 0.103235 0.03
vn 0.402001 -0.823423 -0.400462
v 250.427 6.81276 -151.508
vt 0.103235 0
vt 0.17998 0
f 234/489/64 233/490/65 244/491/65 243/492/64 

vt 0.0799996 0.03
vt 0.0245096 0.03
vn 0.461419 -0.758823 -0.459652
v 251.971 8.53155 -153.047
vt 0.0245096 0
vt 0.0799996 0
f 233/493/65 232/494/66 245/495/66 244/496/65 

vt 0.00895042 0.03
vt -0.0125975 0.03
vn 0.466845 -0.752182 -0.465057
v 252.529 9.267 -153.603
vt -0.0125975 0
vt 0.00895042 0
f 232/497/66 231/498/67 246/499/67 245/500/66 

vt -0.000776435 0.03
vt -0.0351165 0.03
vn 0.440672 -0.783007 -0.438985
v 253.47 10.3578 -154.54
vt -0.0351165 0
vt -0.000776435 0
f 231/501/67 230/502/68 247/503/68 246/504/67 

vt -0.0288293 0.03
vt -0.0578202 0.03
vn 0.423986 -0.801153 -0.422362
v 254.285 11.2408 -155.351
vt -0.0578202 0
vt -0.0288293 0
f 230/505/68 229/506/69 248/507/69 247/508/68 

vt -0.0528576 0.03
vt -0.0741762 0.03
vn 0.410625 -0.814901 -0.409052
v 254.896 11.8679 -155.96
vt -0.0741762 0
vt -0.0528576 0
f 229/509/69 228/510/70 249/511/70 248/512/69 

vt -0.0702462 0.03
vt -0.0815408 0.03
vn 0.386841 -0.837766 -0.38536
v 255.224 12.1906 -156.288
vt -0.0815408 0
vt -0.0702462 0
f 228/513/70 227/514/71 250/515/71 249/516/70 

vt -0.0697393 0.03
vt -0.0703861 0.03
vn 0.336333 -0.880128 -0.335045
v 255.244 12.2074 -156.307
vt -0.0703861 0
vt -0.0697393 0
f 227/517/71 226/518/72 251/519/72 250/520/71 

vt -0.0493453 0.03
vt -0.049991 0.03
vn 0.266824 -0.926366 -0.265802
v 255.265 12.2212 -156.328
vt -0.049991 0
vt -0.0493453 0
f 226/521/72 225/522/73 252/523/73 251/524/72 

vt -0.0270298 0.03
vt -0.0276815 0.03
vn 0.190607 -0.963128 -0.189877
v 255.286 12.2318 -156.349
vt -0.0276815 0
vt -0.0270298 0
f 225/525/73 224/526/74 253/527/74 252/528/73 

vt -0.00357321 0.03
vt -0.00423938 0.03
vn 0.0996299 -0.990062 -0.0992484
v 255.309 12.2389 -156.372
vt -0.00423938 0
vt -0.00357321 0
f 224/529/74 223/530/75 254/531/75 253/532/74 

vt 0.026417 0.03
vt 0.0228251 0.03
vn -0.0162364 -0.999737 0.0161742
v 255.436 12.2511 -156.499
vt 0.0228251 0
vt 0.026417 0
f 223/533/75 222/534/76 255/535/76 254/536/75 

vt 0.0598165 0.03
vt 0.0544013 0.03
vn -0.152958 -0.976415 0.152372
v 255.627 12.2204 -156.689
vt 0.0544013 0
vt 0.0598165 0
f 222/537/76 221/538/77 256/539/77 255/540/76 

vt 0.0945722 0.03
vt 0.0874003 0.03
vn -0.296324 -0.908326 0.295189
v 255.868 12.1069 -156.929
vt 0.0874003 0
vt 0.0945722 0
f 221/541/77 220/542/78 257/543/78 256/544/77 

vt 0.125458 0.03
vt 0.116293 0.03
vn -0.336329 -0.880131 0.335041
v 256.147 11.8707 -157.206
vt 0.116293 0
vt 0.125458 0
f 220/545/78 219/546/79 258/547/79 257/548/78 

vt 0.100796 0.03
vt 0.0889355 0.03
vn -0.306886 -0.901311 0.305711
v 256.526 11.6137 -157.584
vt 0.0889355 0
vt 0.100796 0
f 219/549/79 218/550/80 259/551/80 258/552/79 

vt 0.0163356 0.03
vn -0.0377969 -0.998576 0.0376522
vt 0.00637043 0.03
v 256.878 11.5871 -157.935
vt 0.00637043 0
vt 0.0163356 0
f 218/553/81 217/554/81 260/555/81 259/556/81 

vt -0.0692705 0.03
vn 0.241915 -0.939895 -0.240988
vt -0.0772303 0.03
v 257.143 11.7231 -158.199
vt -0.0772303 0
vt -0.0692705 0
f 217/557/82 216/558/82 261/559/82 260/560/82 

vt -0.165375 0.03
vn 0.577234 -0.579783 -0.575024
vt -0.171034 0.03
v 257.26 11.9537 -158.315
vt -0.171034 0
vt -0.165375 0
f 216/561/83 215/562/83 262/563/83 261/564/83 

vt -0.174812 0.03
vn 0.642703 0.42074 -0.640242
vt -0.184428 0.03
vn 0.601887 0.527479 -0.599582
v 257.116 12.3901 -158.172
vt -0.184428 0
vt -0.174812 0
f 215/565/84 214/566/85 263/567/85 262/568/84 

vt -0.155652 0.03
vt -0.171752 0.03
vn 0.527636 0.66733 -0.525615
v 256.759 13.0179 -157.816
vt -0.171752 0
vt -0.155652 0
f 214/569/85 213/570/86 264/571/86 263/572/85 

vt -0.15592 0.03
vt -0.171831 0.03
vn 0.446043 0.776925 -0.444335
v 256.361 13.5814 -157.419
vt -0.171831 0
vt -0.15592 0
f 213/573/86 212/574/87 265/575/87 264/576/86 

vt -0.135275 0.03
vt -0.144215 0.03
vn 0.385583 0.838921 -0.384106
v 256.095 13.8248 -157.155
vt -0.144215 0
vt -0.135275 0
f 212/577/87 211/578/88 266/579/88 265/580/87 

vt 0.0295179 0.03
vn -0.141663 0.979804 0.14112
vt -0.00533536 0.03
vn -0.142466 0.979572 0.14192
v 254.884 13.4761 -155.949
vt -0.00533536 0
vt 0.0295179 0
f 211/581/89 210/582/90 267/583/90 266/584/89 

vt -0.00478981 0.03
vt -0.0846329 0.03
vn -0.13674 0.981197 0.136217
v 252.113 12.6684 -153.188
vt -0.0846329 0
vt -0.00478981 0
f 210/585/90 209/586/91 268/587/91 267/588/90 

vt -0.0890502 0.03
vt -0.188603 0.03
vn -0.115632 0.98659 0.115189
v 248.645 11.7532 -149.734
vt -0.188603 0
vt -0.0890502 0
f 209/589/91 208/590/92 269/591/92 268/592/91 

vt -0.198213 0.03
vt -0.292316 0.03
vn -0.0543191 0.997056 0.0541111
v 245.344 11.082 -146.445
vt -0.292316 0
vt -0.198213 0
f 208/593/92 207/594/93 270/595/93 269/596/92 

vt -0.319645 0.03
vt -0.401028 0.03
vn 0.0333922 0.998889 -0.0332644
v 242.46 11.0395 -143.572
vt -0.401028 0
vt -0.319645 0
f 207/597/93 206/598/94 271/599/94 270/600/93 

vt -0.419674 0.03
vt -0.503663 0.03
vn 0.0965848 0.990663 -0.0962149
v 239.5 11.4787 -140.623
vt -0.503663 0
vt -0.419674 0
f 206/601/94 205/602/95 272/603/95 271/604/94 

vt -0.511471 0.03
vt -0.582241 0.03
vn 0.132821 0.982269 -0.132313
v 237.027 12.0735 -138.16
vt -0.582241 0
vt -0.511471 0
f 205/605/95 204/606/96 273/607/96 272/608/95 

vt -0.585966 0.03
vt -0.626941 0.03
vn 0.202497 0.958282 -0.201721
v 235.606 12.4976 -136.745
vt -0.626941 0
vt -0.585966 0
f 204/609/96 203/610/97 274/611/97 273/612/96 

vt -0.632009 0.03
vt -0.633989 0.03
vn 0.352631 0.867325 -0.351281
v 235.541 12.5335 -136.68
vt -0.633989 0
vt -0.632009 0
f 203/613/97 202/614/98 275/615/98 274/616/97 

vt -0.599797 0.03
vt -0.601671 0.03
vn 0.522043 0.676036 -0.520044
v 235.489 12.5917 -136.628
vt -0.601671 0
vt -0.599797 0
f 202/617/98 201/618/99 276/619/99 275/620/98 

vt -0.507914 0.03
vt -0.509726 0.03
vn 0.648341 0.403138 -0.645858
v 235.454 12.6673 -136.593
vt -0.509726 0
vt -0.507914 0
f 201/621/99 200/622/100 277/623/100 276/624/99 

vt -0.353213 0.03
vt -0.355024 0.03
vn 0.702171 0.132963 -0.699483
v 235.438 12.7551 -136.577
vt -0.355024 0
vt -0.353213 0
f 200/625/100 199/626/101 278/627/101 277/628/100 

vt -0.228342 0.03
vt -0.231674 0.03
vn 0.708105 -0.0317428 -0.705393
v 235.435 12.9218 -136.575
vt -0.231674 0
vt -0.228342 0
f 199/629/101 198/630/102 279/631/102 278/632/101 

vt -0.167066 0.03
vt -0.171053 0.03
vn 0.700547 -0.149057 -0.697865
v 235.447 13.1206 -136.586
vt -0.171053 0
vt -0.167066 0
f 198/633/102 197/634/103 280/635/103 279/636/102 

vt -0.0899482 0.03
vt -0.0944572 0.03
vn 0.678546 -0.287523 -0.675948
v 235.481 13.341 -136.62
vt -0.0944572 0
vt -0.0899482 0
f 197/637/103 196/638/104 281/639/104 280/640/103 

vt 0.00440898 0.03
vt -0.000556207 0.03
vn 0.632897 -0.449382 -0.630474
v 235.545 13.5726 -136.684
vt -0.000556207 0
vt 0.00440898 0
f 196/641/104 195/642/105 282/643/105 281/644/104 

vt 0.123236 0.03
vt 0.118426 0.03
vn 0.566238 -0.600999 -0.56407
v 235.636 13.7761 -136.774
vt 0.118426 0
vt 0.123236 0
f 195/645/105 194/646/106 283/647/106 282/648/105 

vt 0.219101 0.03
vt 0.214002 0.03
vn 0.503359 -0.703702 -0.501431
v 235.756 13.9668 -136.894
vt 0.214002 0
vt 0.219101 0
f 194/649/106 193/650/107 284/651/107 283/652/106 

vt 0.277937 0.03
vt 0.272804 0.03
vn 0.455361 -0.76608 -0.453617
v 235.891 14.1392 -137.028
vt 0.272804 0
vt 0.277937 0
f 193/653/107 192/654/108 285/655/108 284/656/107 

vt 0.315531 0.03
vt 0.310693 0.03
vn 0.496206 -0.713751 -0.494306
v 236.026 14.2876 -137.163
vt 0.310693 0
vt 0.315531 0
f 192/657/108 191/658/109 286/659/109 285/660/108 

vt 0.175567 0.03
vt 0.172652 0.03
vn 0.551282 -0.628092 -0.549171
v 236.091 14.4011 -137.228
vt 0.172652 0
vt 0.175567 0
f 191/661/109 190/662/110 287/663/110 286/664/109 

vt -0.173865 0.03
vn 0.702938 -0.124628 -0.700247
vt -0.176547 0.03
v 236.103 14.5342 -137.239
vt -0.176547 0
vt -0.173865 0
f 190/665/111 189/666/111 288/667/111 287/668/111 

vt -0.460563 0.03
vn 0.65092 0.394771 -0.648428
vt -0.463313 0.03
v 236.064 14.6607 -137.201
vt -0.463313 0
vt -0.460563 0
f 189/669/112 188/670/112 289/671/112 288/672/112 

vt -0.61714 0.03
vn 0.431584 0.793029 -0.429931
vt -0.620203 0.03
vn 0.357175 0.863613 -0.355808
v 235.978 14.754 -137.115
vt -0.620203 0
vt -0.61714 0
f 188/673/113 187/674/114 290/675/114 289/676/113 

vt -0.639076 0.03
vt -0.643702 0.03
vn 0.264814 0.927514 -0.2638
v 235.827 14.8445 -136.965
vt -0.643702 0
vt -0.639076 0
f 187/677/114 186/678/115 291/679/115 290/680/114 

vt -0.643026 0.03
vt -0.647712 0.03
vn 0.233025 0.944359 -0.232132
v 235.672 14.928 -136.81
vt -0.647712 0
vt -0.643026 0
f 186/681/115 185/682/116 292/683/116 291/684/115 

vt -0.644846 0.03
vt -0.649206 0.03
vn 0.178186 0.967855 -0.177503
v 235.525 14.9937 -136.664
vt -0.649206 0
vt -0.644846 0
f 185/685/116 184/686/117 293/687/117 292/688/116 

vt -0.638739 0.03
vt -0.642412 0.03
vn 0.142534 0.979553 -0.141989
v 235.397 15.0307 -136.537
vt -0.642412 0
vt -0.638739 0
f 184/689/117 183/690/118 294/691/118 293/692/117 

vt -0.546669 0.03
vn 0.594394 0.544143 -0.592118
vt -0.550962 0.03
v 235.315 15.2109 -136.454
vt -0.550962 0
vt -0.546669 0
f 183/693/119 182/694/119 295/695/119 294/696/119 

vt -0.0506051 0.03
vn 0.668891 -0.32953 -0.666329
vt -0.0591384 0.03
vn 0.664765 -0.345763 -0.66222
v 235.414 15.6139 -136.553
vt -0.0591384 0
vt -0.0506051 0
f 182/697/120 181/698/121 296/699/121 295/700/120 

vt -0.0364129 0.03
vt -0.0477721 0.03
vn 0.685663 -0.251645 -0.683038
v 235.56 16.1436 -136.699
vt -0.0477721 0
vt -0.0364129 0
f 181/701/121 180/702/122 297/703/122 296/704/121 

vt -0.198053 0.03
vt -0.209361 0.03
vn 0.708431 0.0093686 -0.705718
v 235.615 16.7039 -136.754
vt -0.209361 0
vt -0.198053 0
f 180/705/122 179/706/123 298/707/123 297/708/122 

vt -0.384133 0.03
vt -0.395298 0.03
vn 0.681993 0.27079 -0.679381
v 235.553 17.2556 -136.692
vt -0.395298 0
vt -0.384133 0
f 179/709/123 178/710/124 299/711/124 298/712/123 

vt -0.510356 0.03
vt -0.521485 0.03
vn 0.654931 0.381325 -0.652423
v 235.403 17.7702 -136.542
vt -0.521485 0
vt -0.510356 0
f 178/713/124 177/714/125 300/715/125 299/716/124 

vt -0.652472 0.03
vn 0.492038 0.719478 -0.490153
vt -0.663913 0.03
v 235.111 18.1677 -136.252
vt -0.663913 0
vt -0.652472 0
f 177/717/126 176/718/126 301/719/126 300/720/126 

vt -0.676539 0.03
vn 0.198466 0.95996 -0.197706
vt -0.690822 0.03
v 234.625 18.3679 -135.767
vt -0.690822 0
vt -0.676539 0
f 176/721/127 175/722/127 302/723/127 301/724/127 

vt -0.598335 0.03
vn -0.0518701 0.997316 0.0516715
vt -0.613476 0.03
v 234.09 18.3124 -135.234
vt -0.613476 0
vt -0.598335 0
f 175/725/128 174/726/128 303/727/128 302/728/128 

vt -0.440371 0.03
vn -0.300344 0.905691 0.299194
vt -0.452777 0.03
v 233.692 18.0494 -134.838
vt -0.452777 0
vt -0.440371 0
f 174/729/129 173/730/129 304/731/129 303/732/129 

vt -0.200016 0.03
vn -0.523996 0.673019 0.52199
vt -0.210598 0.03
v 233.44 17.6579 -134.586
vt -0.210598 0
vt -0.200016 0
f 173/733/130 172/734/130 305/735/130 304/736/130 

vt 0.102842 0.03
vn -0.676125 0.298672 0.673536
vt 0.0936121 0.03
v 233.342 17.2172 -134.489
vt 0.0936121 0
vt 0.102842 0
f 172/737/131 171/738/131 306/739/131 305/740/131 

vt 0.341905 0.03
vn -0.707306 -0.0570922 0.704598
vt 0.334447 0.03
vn -0.691834 -0.215384 0.689185
v 233.357 16.8447 -134.504
vt 0.334447 0
vt 0.341905 0
f 171/741/132 170/742/133 307/743/133 306/744/132 

vt 0.519301 0.03
vt 0.513037 0.03
vn -0.658697 -0.368176 0.656174
v 233.439 16.5533 -134.585
vt 0.513037 0
vt 0.519301 0
f 170/745/133 169/746/134 308/747/134 307/748/133 

vt 0.675325 0.03
vn -0.492304 -0.719115 0.490419
vt 0.669285 0.03
v 233.593 16.3434 -134.739
vt 0.669285 0
vt 0.675325 0
f 169/749/135 168/750/135 309/751/135 308/752/135 

vt 0.71293 0.03
vn -0.258754 -0.930916 0.257763
vt 0.705908 0.03
v 233.824 16.2151 -134.969
vt 0.705908 0
vt 0.71293 0
f 168/753/136 167/754/136 310/755/136 309/756/136 

vt 0.66704 0.03
vn -0.483183 -0.731337 0.481333
vt 0.662268 0.03
v 233.948 16.0523 -135.093
vt 0.662268 0
vt 0.66704 0
f 167/757/137 166/758/137 311/759/137 310/760/137 

vt -0.0718714 0.03
vn -0.616552 0.492578 0.614191
vt -0.0776044 0.03
vn -0.557253 0.617505 0.555119
v 233.848 15.8027 -134.993
vt -0.0776044 0
vt -0.0718714 0
f 166/761/138 165/762/139 312/763/139 311/764/138 

vt -0.281168 0.03
vt -0.288422 0.03
vn -0.467757 0.751052 0.465966
v 233.661 15.5541 -134.806
vt -0.288422 0
vt -0.281168 0
f 165/765/139 164/766/140 313/767/140 312/768/139 

vt -0.330971 0.03
vt -0.336005 0.03
vn -0.479789 0.735775 0.477951
v 233.523 15.3943 -134.669
vt -0.336005 0
vt -0.330971 0
f 164/769/140 163/770/141 314/771/141 313/772/140 

vt -0.263715 0.03
vt -0.264388 0.03
vn -0.533212 0.65844 0.53117
v 233.506 15.3701 -134.653
vt -0.264388 0
vt -0.263715 0
f 163/773/141 162/774/142 315/775/142 314/776/141 

vt -0.195233 0.03
vt -0.200086 0.03
vn -0.556764 0.618382 0.554632
v 233.4 15.1794 -134.547
vt -0.200086 0
vt -0.195233 0
f 162/777/142 161/778/143 316/779/143 315/780/142 

vt -0.199526 0.03
vt -0.209703 0.03
vn -0.556944 0.618059 0.554812
v 233.177 14.7792 -134.324
vt -0.209703 0
vt -0.199526 0
f 161/781/143 160/782/144 317/783/144 316/784/143 

vt -0.219879 0.03
v 232.954 14.379 -134.102
vt -0.219879 0
f 160/782/144 159/785/144 318/786/144 317/783/144 

vt -0.224505 0.03
vn -0.526514 0.669093 0.524498
v 232.853 14.1971 -134.002
vt -0.224505 0
f 159/785/144 158/787/145 319/788/145 318/786/144 

vt -0.313092 0.03
vt -0.314604 0.03
vn -0.42424 0.800885 0.422615
v 232.814 14.1444 -133.963
vt -0.314604 0
vt -0.313092 0
f 158/789/145 157/790/146 320/791/146 319/792/145 

vt -0.468826 0.03
vt -0.470349 0.03
vn -0.269214 0.924987 0.268183
v 232.767 14.107 -133.916
vt -0.470349 0
vt -0.468826 0
f 157/793/146 156/794/147 321/795/147 320/796/146 

vt -0.588626 0.03
vt -0.590184 0.03
vn -0.10357 0.989257 0.103173
v 232.714 14.0864 -133.863
vt -0.590184 0
vt -0.588626 0
f 156/797/147 155/798/148 322/799/148 321/800/147 

vt -0.671204 0.03
vt -0.672817 0.03
vn 0.0253118 0.999362 -0.0252149
v 232.657 14.0843 -133.806
vt -0.672817 0
vt -0.671204 0
f 155/801/148 154/802/149 323/803/149 322/804/148 

vt -0.700021 0.03
vt -0.723862 0.03
vn 0.0739041 0.994544 -0.0736211
v 231.816 14.2013 -132.969
vt -0.723862 0
vt -0.700021 0
f 154/805/149 153/806/150 324/807/150 323/808/149 

vt -0.725979 0.03
vt -0.770594 0.03
vn 0.0832305 0.993075 -0.0829117
v 230.244 14.448 -131.403
vt -0.770594 0
vt -0.725979 0
f 153/809/150 152/810/151 325/811/151 324/812/150 

vt -0.772834 0.03
vt -0.836201 0.03
vn 0.0936202 0.99123 -0.0932617
v 228.016 14.8424 -129.183
vt -0.836201 0
vt -0.772834 0
f 152/813/151 151/814/152 326/815/152 325/816/151 

vt -0.838499 0.03
vt -0.918609 0.03
vn 0.102202 0.98954 -0.10181
v 225.205 15.4028 -126.383
vt -0.918609 0
vt -0.838499 0
f 151/817/152 150/818/153 327/819/153 326/820/152 

vt -0.919833 0.03
vt -0.99754 0.03
vt -0.99754 0
vt -0.919833 0
f 150/821/153 139/822/55 142/823/55 327/824/153 

vt -1.06054 0.0384311
vn 0.705749 -3.23052e-16 0.708462
vt -0.962443 0.0302044
vt -0.737877 0.0134375
vt -0.491451 0
vt -0.327769 0.00176159
vt -0.247554 0.0196619
vt -0.184753 0.0417294
vt -0.143813 0.0604676
vt -0.129179 0.0683796
vt -0.104318 0.0802302
vt -0.0826756 0.0898794
vt -0.0663951 0.0967646
vt -0.0576218 0.100323
vt -0.0570955 0.100511
vt -0.0565337 0.10067
vt -0.0559343 0.100798
vt -0.0552955 0.100893
vt -0.0517393 0.101145
vt -0.0463284 0.101037
vt -0.0393767 0.100154
vt -0.0311979 0.0980862
vt -0.0201602 0.0959147
vt -0.010197 0.096014
vt -0.00293476 0.0976441
vt -0.00467366 0.104269
vt -0.015652 0.11016
vt -0.0276842 0.115368
vt -0.0355198 0.117521
vt -0.0690671 0.112792
vt -0.145868 0.101872
vt -0.242123 0.0891591
vt -0.334031 0.0790527
vt -0.415128 0.0756479
vt -0.499075 0.0769679
vt -0.569524 0.0803432
vt -0.610125 0.083104
vt -0.612017 0.0833947
vt -0.613566 0.0839218
vt -0.614673 0.0846387
vt -0.615241 0.0854989
vt -0.615556 0.0871586
vt -0.615509 0.0891531
vt -0.614876 0.0913863
vt -0.613429 0.0937624
vt -0.611166 0.0958859
vt -0.608067 0.097912
vt -0.604525 0.0997704
vt -0.600931 0.101391
vt -0.599272 0.10259
vt -0.599133 0.103929
vt -0.600401 0.10515
vt -0.602961 0.105993
vt -0.607339 0.106739
vt -0.611828 0.107412
vt -0.616071 0.107915
vt -0.619714 0.108152
vt -0.622307 0.109863
vt -0.620093 0.113985
vt -0.616768 0.119419
vt -0.616032 0.125064
vt -0.618583 0.130501
vt -0.623569 0.135479
vt -0.632361 0.139142
vt -0.646329 0.140636
vt -0.661307 0.139529
vt -0.672127 0.136494
vt -0.678656 0.132328
vt -0.680761 0.127833
vt -0.679791 0.124133
vt -0.677064 0.121312
vt -0.672425 0.119377
vt -0.665717 0.118337
vt -0.661998 0.116841
vt -0.664449 0.114249
vt -0.669355 0.111576
vt -0.673001 0.109839
vt -0.673433 0.109581
vt -0.676148 0.107569
vt -0.681835 0.103347
vt -0.687522 0.0991256
vt -0.690107 0.0972067
vt -0.691111 0.0966413
vt -0.692379 0.0962199
vt -0.693848 0.09596
vt -0.695453 0.0958794
vt -0.719287 0.0961771
vt -0.763871 0.0970125
vt -0.827153 0.098643
vt -0.907083 0.101326
vt -0.984566 0.104274
vt -1.028 0.106008
v 220.241 16.4804 -121.438
vt -1.04835 0.106941
v 219.953 16.565 -121.152
vt -1.05657 0.107488
v 219.875 15.4912 -121.074
vt -1.05719 0.0966976
v 219.704 13.1287 -120.903
vt -1.05855 0.0729594
v 219.532 10.7663 -120.732
vt -1.05992 0.0492212
f 239/825/154 238/826/154 240/827/154 241/828/154 242/829/154 243/830/154 244/831/154 245/832/154 246/833/154 247/834/154 248/835/154 249/836/154 250/837/154 251/838/154 252/839/154 253/840/154 254/841/154 255/842/154 256/843/154 257/844/154 258/845/154 259/846/154 260/847/154 261/848/154 262/446/154 263/849/154 264/850/154 265/851/154 266/852/154 267/853/154 268/854/154 269/855/154 270/856/154 271/857/154 272/858/154 273/859/154 274/860/154 275/861/154 276/862/154 277/863/154 278/864/154 279/865/154 280/866/154 281/867/154 282/868/154 283/869/154 284/870/154 285/871/154 286/872/154 287/873/154 288/874/154 289/875/154 290/876/154 291/877/154 292/878/154 293/879/154 294/880/154 295/881/154 296/882/154 297/883/154 298/884/154 299/885/154 300/886/154 301/887/154 302/888/154 303/889/154 304/890/154 305/891/154 306/892/154 307/893/154 308/894/154 309/895/154 310/896/154 311/897/154 312/898/154 313/899/154 314/900/154 315/901/154 316/902/154 317/903/154 318/904/154 319/905/154 320/906/154 321/907/154 322/908/154 323/909/154 324/910/154 325/911/154 326/912/154 327/913/154 142/914/154 141/915/154 328/916/154 329/917/154 330/918/154 331/919/154 332/920/154 

vt -1.04305 0.03
vt -1.06349 0.03
vn 0.130373 0.982922 -0.129874
vt -1.06349 0
vt -1.04305 0
f 140/921/56 149/922/155 328/923/155 141/924/56 

vt -1.06737 0.03
vt -1.07566 0.03
vn 0.144517 0.978974 -0.143963
vt -1.07566 0
vt -1.06737 0
f 149/925/155 148/926/156 329/927/156 328/928/155 

vt 0.184347 0.03
vn -0.704772 0.101933 0.702073
vt 0.162769 0.03
vt 0.162769 0
vt 0.184347 0
f 148/929/157 147/930/157 330/931/157 329/932/157 

vt 0.115296 0.03
vt 0.115296 0
f 147/930/157 146/933/157 331/934/157 330/931/157 

vt 0.0678238 0.03
vt 0.0678238 0
f 146/933/157 145/935/157 332/936/157 331/934/157 

vt 0.0462454 0.03
vt 0.0462454 0
f 145/935/157 144/937/157 239/938/157 332/936/157 

g Mesh4 ___533_2 Model

v 9.25686 2.82766 -149.784
vn -0.334293 0.942469 3.13314e-17
v 9.25615 2.82741 -11.6929
v 38.0225 13.0308 -39.6893
v 38.0225 13.0308 -121.788
f 333/4/158 334/3/158 335/2/158 336/1/158 

vn -0.942469 -0.334293 -5.40691e-06
v 10.2597 0.000249598 -149.784
v 10.259 9.02389e-14 -11.6929
f 334/19/159 333/18/159 337/17/159 338/16/159 

vn 0.637072 0.225969 -0.736938
v 39.0254 10.2034 -121.788
f 333/15/160 336/14/160 339/13/160 337/12/160 

vn 0.942469 0.334293 -7.10343e-17
v 39.0254 10.2034 -39.6893
f 336/8/161 335/7/161 340/6/161 339/5/161 

vn 0.637068 0.225967 0.736942
f 335/23/162 334/22/162 338/21/162 340/20/162 

vn 0.334293 -0.942469 -3.13314e-17
f 338/3/163 337/11/163 339/10/163 340/9/163 

g Mesh5 ___532_1 Model

v 215.619 13.6487 -123.703
vt 4.09698 0.321557
vn 7.21362e-16 0.956379 -0.292127
v 246.89 4.25517 -154.456
vt 4.72208 9.02389e-16
v 10.6679 4.25517 -154.456
vt 3.84876e-06 9.02389e-16
v 41.9381 13.6487 -123.703
vt 0.625096 0.321557
f 341/939/164 342/940/164 343/941/164 344/942/164 

v 215.619 10.7796 -122.826
vt -2.39547 0
vn 0.716907 0.203662 0.666758
v 246.89 1.38603 -153.579
vt -3.29209 0
vt -3.29209 0.03
vt -2.39547 0.03
f 345/943/165 346/944/165 342/945/165 341/946/165 

vt -4.72208 9.02389e-16
vn -7.21362e-16 -0.956379 0.292127
vt -4.09698 0.321557
v 41.9381 10.7796 -122.826
vt -0.625096 0.321557
v 10.6679 1.38603 -153.579
vt -3.84876e-06 9.02389e-16
f 346/947/166 345/948/166 347/949/166 348/950/166 

vt -0.625096 0
vn -1.00361e-15 0.292127 0.956379
vt -4.09698 0
vt -4.09698 0.03
vt -0.625096 0.03
f 347/951/167 345/952/167 341/953/167 344/954/167 

vt -2.68323e-06 0
vn -0.716909 0.203662 0.666756
vt -0.896619 0
vt -0.896619 0.03
vt -2.68323e-06 0.03
f 348/955/168 347/956/168 344/957/168 343/958/168 

vt 4.72208 0
vn 1.52318e-15 -0.292127 -0.956379
vt 3.84876e-06 0
vt 3.84876e-06 0.03
vt 4.72208 0.03
f 346/959/169 348/960/169 343/961/169 342/962/169 

g Mesh6 ___534_2 Model

v 37.9395 15.9724 -35.6851
vn -0.108252 0.988257 0.107837
v 39.5118 16.3092 -37.2514
vn -0.113836 0.987006 0.1134
v 37.3946 16.3092 -39.3768
v 35.8223 15.9724 -37.8105
f 349/368/170 350/369/171 351/370/171 352/371/170 

v 37.5184 8.50182 -35.2656
vn 0.705749 -4.58067e-16 0.708462
v 41.0472 9.69247 -38.7809
v 40.9686 10.7662 -38.7026
v 40.7956 13.1285 -38.5303
v 40.6227 15.4908 -38.358
v 40.5441 16.5646 -38.2797
v 40.2477 16.4791 -37.9844
v 35.134 15.386 -32.8903
v 32.238 14.8168 -30.0054
v 29.9426 14.4153 -27.7188
v 28.3238 14.1638 -26.1062
v 27.4576 14.0442 -25.2433
v 27.3988 14.0461 -25.1847
v 27.344 14.0665 -25.1301
v 27.2956 14.1038 -25.0819
v 27.2561 14.1564 -25.0426
v 27.152 14.338 -24.9389
v 26.9231 14.7375 -24.7109
v 26.6942 15.1371 -24.4828
v 26.5849 15.3276 -24.3739
v 26.5678 15.3517 -24.3569
v 26.4261 15.5111 -24.2157
v 26.2336 15.7591 -24.024
v 26.1309 16.0085 -23.9217
v 26.2585 16.1717 -24.0489
v 26.4973 16.3007 -24.2867
v 26.6562 16.5112 -24.445
v 26.7408 16.8029 -24.5293
v 26.7569 17.1754 -24.5453
v 26.657 17.6159 -24.4458
v 26.3977 18.0067 -24.1875
v 25.988 18.2686 -23.7794
v 25.437 18.3224 -23.2304
v 24.9362 18.1207 -22.7316
v 24.6352 17.7222 -22.4317
v 24.4795 17.207 -22.2766
v 24.4148 16.655 -22.2122
v 24.4709 16.0949 -22.2681
v 24.6201 15.5655 -22.4167
v 24.7221 15.1627 -22.5183
v 24.6366 14.9823 -22.4331
v 24.5052 14.9449 -22.3022
v 24.3533 14.8787 -22.1509
v 24.1934 14.7947 -21.9916
v 24.0379 14.7037 -21.8367
v 23.9491 14.6101 -21.7482
v 23.9092 14.4835 -21.7085
v 23.9212 14.3504 -21.7205
v 23.9879 14.2371 -21.7869
v 24.1271 14.0891 -21.9256
v 24.2657 13.9171 -22.0637
v 24.389 13.7267 -22.1865
v 24.4825 13.5235 -22.2796
v 24.5475 13.292 -22.3443
v 24.5821 13.0716 -22.3788
v 24.5941 12.8729 -22.3908
v 24.5913 12.7062 -22.388
v 24.5751 12.6183 -22.3719
v 24.5385 12.5426 -22.3354
v 24.4848 12.4842 -22.2819
v 24.4175 12.448 -22.2148
v 22.9537 12.0195 -20.7566
v 20.4064 11.417 -18.2192
v 17.3571 10.9686 -15.1815
v 14.387 11.0021 -12.2228
v 10.9885 11.6632 -8.83733
v 7.41834 12.5679 -5.28079
v 4.56566 13.3672 -2.43904
v 3.31981 13.7121 -1.19796
v 3.04572 13.4679 -0.924915
v 2.63469 12.9031 -0.515463
v 2.26558 12.2741 -0.14777
v 2.11725 11.8372 2.22045e-15
v 2.23665 11.6068 -0.118946
v 2.5095 11.4717 -0.390748
v 2.87273 11.4993 -0.752594
v 3.26331 11.7576 -1.14167
v 3.55033 11.9947 -1.4276
v 3.79884 12.1089 -1.67515
v 3.99526 12.1402 -1.87082
v 4.12604 12.1284 -2.0011
v 4.14979 12.1214 -2.02476
v 4.17227 12.1109 -2.04715
v 4.19355 12.0971 -2.06835
v 4.21369 12.0804 -2.08841
v 4.55155 11.7586 -2.42498
v 5.17998 11.1334 -3.05101
v 6.01798 10.2527 -3.8858
v 6.98454 9.16464 -4.84866
v 7.55838 8.43079 -5.4203
v 9.14606 6.7165 -7.0019
v 11.5469 4.75265 -9.39352
v 14.5601 3.27014 -12.3952
v 20.5282 3.71213 -18.3405
v 29.4299 5.9822 -27.2081
f 353/372/172 354/373/172 355/374/172 356/375/172 357/376/172 358/377/172 359/378/172 350/379/172 349/380/172 360/381/172 361/382/172 362/383/172 363/384/172 364/385/172 365/386/172 366/387/172 367/388/172 368/389/172 369/390/172 370/391/172 371/392/172 372/393/172 373/394/172 374/395/172 375/396/172 376/397/172 377/398/172 378/399/172 379/400/172 380/401/172 381/402/172 382/403/172 383/404/172 384/405/172 385/406/172 386/407/172 387/408/172 388/409/172 389/410/172 390/411/172 391/412/172 392/413/172 393/414/172 394/415/172 395/416/172 396/417/172 397/418/172 398/419/172 399/420/172 400/421/172 401/422/172 402/423/172 403/424/172 404/425/172 405/426/172 406/427/172 407/428/172 408/429/172 409/430/172 410/431/172 411/432/172 412/433/172 413/434/172 414/435/172 415/436/172 416/437/172 417/438/172 418/439/172 419/440/172 420/441/172 421/442/172 422/443/172 423/444/172 424/445/172 425/446/172 426/447/172 427/448/172 428/449/172 429/450/172 430/451/172 431/452/172 432/453/172 433/454/172 434/455/172 435/456/172 436/457/172 437/458/172 438/459/172 439/460/172 440/461/172 441/462/172 442/463/172 443/464/172 444/465/172 445/466/172 446/467/172 447/468/172 

vn 0.171349 -0.970311 -0.170692
vn 0.165003 -0.9725 -0.164371
v 35.4012 8.50182 -37.391
v 38.93 9.69247 -40.9063
f 354/469/173 353/470/174 448/471/174 449/472/173 

vn 0.144551 -0.978964 -0.143998
v 27.3126 5.9822 -29.3334
f 353/473/174 447/474/175 450/475/175 448/476/174 

vn 0.0835036 -0.993029 -0.0831839
v 18.411 3.71213 -20.4659
f 447/477/175 446/478/176 451/479/176 450/480/175 

vn 0.0362208 -0.998692 -0.0360821
v 12.4428 3.27014 -14.5206
f 446/481/176 445/482/177 452/483/177 451/484/176 

vn -0.247842 -0.936813 0.246893
vn -0.311629 -0.898063 0.310435
v 9.42962 4.75265 -11.5189
f 445/485/178 444/486/179 453/487/179 452/488/178 

vn -0.410403 -0.815123 0.408832
v 7.02881 6.7165 -9.12729
f 444/489/179 443/490/180 454/491/180 453/492/179 

vn -0.469313 -0.749115 0.467516
v 5.44113 8.43079 -7.54568
f 443/493/180 442/494/181 455/495/181 454/496/180 

vn -0.474666 -0.742366 0.472848
v 4.8673 9.16464 -6.97405
f 442/497/181 441/498/182 456/499/182 455/500/181 

vn -0.448804 -0.77375 0.447086
v 3.90073 10.2527 -6.01118
f 441/501/182 440/502/183 457/503/183 456/504/182 

vn -0.432261 -0.792294 0.430606
v 3.06274 11.1334 -5.17639
f 440/505/183 439/506/184 458/507/184 457/508/183 

vn -0.418985 -0.806377 0.417381
v 2.43431 11.7586 -4.55037
f 439/509/184 438/510/185 459/511/185 458/512/184 

vn -0.39529 -0.829871 0.393776
v 2.09644 12.0804 -4.2138
f 438/513/185 437/514/186 460/515/186 459/516/185 

vn -0.344711 -0.873646 0.343391
v 2.07631 12.0971 -4.19374
f 437/517/186 436/518/187 461/519/187 460/520/186 

vn -0.274585 -0.921837 0.273533
v 2.05502 12.1109 -4.17254
f 436/521/187 435/522/188 462/523/188 461/524/187 

vn -0.197102 -0.96052 0.196347
v 2.03254 12.1214 -4.15014
f 435/525/188 434/526/189 463/527/189 462/528/188 

vn -0.103996 -0.989167 0.103598
v 2.00879 12.1284 -4.12649
f 434/529/189 433/530/190 464/531/190 463/532/189 

vn 0.0151677 -0.999771 -0.0151096
v 1.87802 12.1402 -3.99621
f 433/533/190 432/534/191 465/535/191 464/536/190 

vn 0.155908 -0.975485 -0.155311
v 1.68159 12.1089 -3.80054
f 432/537/191 431/538/192 466/539/192 465/540/191 

vn 0.302625 -0.904177 -0.301466
v 1.43308 11.9947 -3.55298
f 431/541/192 430/542/193 467/543/193 466/544/192 

vn 0.343254 -0.874788 -0.34194
v 1.14606 11.7576 -3.26706
f 430/545/193 429/546/194 468/547/194 467/548/193 

vn 0.313368 -0.896856 -0.312168
v 0.755487 11.4993 -2.87798
f 429/549/194 428/550/195 469/551/195 468/552/194 

vn 0.0373741 -0.998608 -0.037231
v 0.39225 11.4717 -2.51613
f 428/553/196 427/554/196 470/555/196 469/556/196 

vn -0.249323 -0.936029 0.248368
v 0.119403 11.6068 -2.24433
f 427/557/197 426/558/197 471/559/197 470/560/197 

vn -0.582531 -0.56913 0.5803
v -1.13354e-13 11.8372 -2.12539
f 426/561/198 425/562/198 472/563/198 471/564/198 

vn -0.646367 0.409407 0.643891
vn -0.607058 0.515537 0.604733
v 0.148338 12.2741 -2.27316
f 425/565/199 424/566/200 473/567/200 472/568/199 

vn -0.534563 0.656253 0.532516
v 0.517444 12.9031 -2.64085
f 424/569/200 423/570/201 474/571/201 473/572/200 

vn -0.453665 0.768082 0.451927
v 0.92847 13.4679 -3.0503
f 423/573/201 422/574/202 475/575/202 474/576/201 

vn -0.393023 0.832014 0.391518
v 1.20256 13.7121 -3.32334
f 422/577/202 421/578/203 476/579/203 475/580/202 

vn 0.147082 0.978212 -0.146519
vn 0.147904 0.977965 -0.147338
v 2.44842 13.3672 -4.56443
f 421/581/204 420/582/205 477/583/205 476/584/204 

vn 0.142042 0.979695 -0.141498
v 5.30109 12.5679 -7.40618
f 420/585/205 419/586/206 478/587/206 477/588/205 

vn 0.120412 0.985451 -0.119951
v 8.8713 11.6632 -10.9627
f 419/589/206 418/590/207 479/591/207 478/592/206 

vn 0.0574487 0.996707 -0.0572287
v 12.2698 11.0021 -14.3482
f 418/593/207 417/594/208 480/595/208 479/596/207 

vn -0.0328373 0.998925 0.0327115
v 15.2399 10.9686 -17.3069
f 417/597/208 416/598/209 481/599/209 480/600/208 

vn -0.0979169 0.990403 0.0975419
v 18.2892 11.417 -20.3445
f 416/601/209 415/602/210 482/603/210 481/604/209 

vn -0.135205 0.98162 0.134688
v 20.8364 12.0195 -22.882
f 415/605/210 414/606/211 483/607/211 482/608/210 

vn -0.206761 0.956466 0.205969
v 22.3002 12.448 -24.3402
f 414/609/211 413/610/212 484/611/212 483/612/211 

vn -0.35976 0.861472 0.358382
v 22.3676 12.4842 -24.4073
f 413/613/212 412/614/213 485/615/213 484/616/212 

vn -0.529057 0.665084 0.527031
v 22.4213 12.5426 -24.4608
f 412/617/213 411/618/214 486/619/214 485/620/213 

vn -0.651762 0.391996 0.649266
v 22.4578 12.6183 -24.4972
f 411/621/214 410/622/215 487/623/215 486/624/214 

vn -0.702711 0.127157 0.70002
v 22.474 12.7062 -24.5134
f 410/625/215 409/626/216 488/627/216 487/628/215 

vn -0.708077 -0.0329512 0.705366
v 22.4769 12.8729 -24.5162
f 409/629/216 408/630/217 489/631/217 488/632/216 

vn -0.70078 -0.146867 0.698096
v 22.4649 13.0716 -24.5042
f 408/633/217 407/634/218 490/635/218 489/636/217 

vn -0.67979 -0.28161 0.677187
v 22.4302 13.292 -24.4697
f 407/637/218 406/638/219 491/639/219 490/640/218 

vn -0.636156 -0.440118 0.63372
v 22.3652 13.5235 -24.4049
f 406/641/219 405/642/220 492/643/220 491/644/219 

vn -0.571877 -0.590266 0.569687
v 22.2718 13.7267 -24.3119
f 405/645/220 404/646/221 493/647/221 492/648/220 

vn -0.510566 -0.69328 0.508611
v 22.1485 13.9171 -24.189
f 404/649/221 403/650/222 494/651/222 493/652/221 

vn -0.463331 -0.756498 0.461557
v 22.0099 14.0891 -24.051
f 403/653/222 402/654/223 495/655/223 494/656/222 

vn -0.503551 -0.703429 0.501622
v 21.8706 14.2371 -23.9123
f 402/657/223 401/658/224 496/659/224 495/660/223 

vn -0.557354 -0.617324 0.555219
v 21.804 14.3504 -23.8459
f 401/661/224 400/662/225 497/663/225 496/664/224 

vn -0.70307 -0.123138 0.700378
v 21.792 14.4835 -23.8339
f 400/665/226 399/666/226 498/667/226 497/668/226 

vn -0.654226 0.383728 0.651721
v 21.8318 14.6101 -23.8736
f 399/669/227 398/670/227 499/671/227 498/672/227 

vn -0.439211 0.784641 0.437529
vn -0.364355 0.857616 0.36296
v 21.9206 14.7037 -23.9621
f 398/673/228 397/674/229 500/675/229 499/676/228 

vn -0.270512 0.924233 0.269476
v 22.0762 14.7947 -24.117
f 397/677/229 396/678/230 501/679/230 500/680/229 

vn -0.238027 0.94187 0.237115
v 22.2361 14.8787 -24.2763
f 396/681/230 395/682/231 502/683/231 501/684/230 

vn -0.181821 0.966507 0.181125
v 22.388 14.9449 -24.4276
f 395/685/231 394/686/232 503/687/232 502/688/231 

vn -0.145193 0.978774 0.144637
v 22.5193 14.9823 -24.5585
f 394/689/232 393/690/233 504/691/233 503/692/232 

vn -0.599798 0.532199 0.597501
v 22.6049 15.1627 -24.6437
f 393/693/234 392/694/234 505/695/234 504/696/234 

vn -0.67058 -0.322617 0.668012
vn -0.666643 -0.338484 0.66409
v 22.5029 15.5655 -24.5421
f 392/697/235 391/698/236 506/699/236 505/700/235 

vn -0.686575 -0.246644 0.683946
v 22.3537 16.0949 -24.3934
f 391/701/236 390/702/237 507/703/237 506/704/236 

vn -0.708445 0.00697123 0.705732
v 22.2976 16.655 -24.3376
f 390/705/237 389/706/238 508/707/238 507/708/237 

vn -0.683758 0.26177 0.68114
v 22.3622 17.207 -24.402
f 389/709/238 388/710/239 509/711/239 508/712/238 

vn -0.658056 0.370451 0.655536
v 22.5179 17.7222 -24.5571
f 388/713/239 387/714/240 510/715/240 509/716/239 

vn -0.499413 0.709281 0.497501
v 22.819 18.1207 -24.857
f 387/717/241 386/718/241 511/719/241 510/720/241 

vn -0.202629 0.958226 0.201853
v 23.3197 18.3224 -25.3558
f 386/721/242 385/722/242 512/723/242 511/724/242 

vn 0.0549305 0.99699 -0.0547201
v 23.8708 18.2686 -25.9048
f 385/725/243 384/726/243 513/727/243 512/728/243 

vn 0.308473 0.900231 -0.307292
v 24.2805 18.0067 -26.3129
f 384/729/244 383/730/244 514/731/244 513/732/244 

vn 0.530761 0.662373 -0.528729
v 24.5398 17.6159 -26.5712
f 383/733/245 382/734/245 515/735/245 514/736/245 

vn 0.677481 0.292486 -0.674886
v 24.6397 17.1754 -26.6707
f 382/737/246 381/738/246 516/739/246 515/740/246 

vn 0.707453 -0.0533402 -0.704744
vn 0.693034 -0.207556 -0.69038
v 24.6236 16.8029 -26.6547
f 381/741/247 380/742/248 517/743/248 516/744/247 

vn 0.661647 -0.357482 -0.659113
v 24.5389 16.5112 -26.5704
f 380/745/248 379/746/249 518/747/249 517/748/248 

vn 0.499677 -0.708911 -0.497764
v 24.3801 16.3007 -26.4121
f 379/749/250 378/750/250 519/751/250 518/752/250 

vn 0.264325 -0.927792 -0.263313
v 24.1413 16.1717 -26.1742
f 378/753/251 377/754/251 520/755/251 519/756/251 

vn 0.490634 -0.721386 -0.488755
v 24.0137 16.0085 -26.0471
f 377/757/252 376/758/252 521/759/252 520/760/252 

vn 0.620462 0.482698 -0.618086
vn 0.563156 0.606741 -0.561
v 24.1163 15.7591 -26.1494
f 376/761/253 375/762/254 522/763/254 521/764/253 

vn 0.475565 0.741219 -0.473744
v 24.3088 15.5111 -26.3411
f 375/765/254 374/766/255 523/767/255 522/768/254 

vn 0.487416 0.725718 -0.48555
v 24.4506 15.3517 -26.4823
f 374/769/255 373/770/256 524/771/256 523/772/255 

vn 0.539756 0.647729 -0.537689
v 24.4676 15.3276 -26.4993
f 373/773/256 372/774/257 525/775/257 524/776/256 

vn 0.562682 0.607617 -0.560527
v 24.5769 15.1371 -26.6082
f 372/777/257 371/778/258 526/779/258 525/780/257 

vn 0.562857 0.607294 -0.560701
v 24.8059 14.7375 -26.8363
f 371/781/258 370/782/259 527/783/259 526/784/258 

v 25.0348 14.338 -27.0643
f 370/782/259 369/785/259 528/786/259 527/783/259 

vn 0.53322 0.658427 -0.531178
v 25.1389 14.1564 -27.168
f 369/785/259 368/787/260 529/788/260 528/786/259 

vn 0.432513 0.792019 -0.430857
v 25.1784 14.1038 -27.2073
f 368/789/260 367/790/261 530/791/261 529/792/260 

vn 0.277005 0.920393 -0.275944
v 25.2267 14.0665 -27.2555
f 367/793/261 366/794/262 531/795/262 530/796/261 

vn 0.10804 0.988304 -0.107626
v 25.2815 14.0461 -27.3101
f 366/797/262 365/798/263 532/799/263 531/800/262 

vn -0.0245146 0.999401 0.0244208
v 25.3404 14.0442 -27.3687
f 365/801/263 364/802/264 533/803/264 532/804/263 

vn -0.0745632 0.994446 0.0742776
v 26.2065 14.1638 -28.2316
f 364/805/264 363/806/265 534/807/265 533/808/264 

vn -0.0841673 0.992918 0.083845
v 27.8253 14.4153 -29.8442
f 363/809/265 362/810/266 535/811/266 534/812/265 

vn -0.0948648 0.990995 0.0945016
v 30.1207 14.8168 -32.1308
f 362/813/266 361/814/267 536/815/267 535/816/266 

vn -0.103699 0.98923 0.103302
v 33.0167 15.386 -35.0157
f 361/817/267 360/818/268 537/819/268 536/820/267 

f 360/821/268 349/822/170 352/823/170 537/824/268 

vn -0.705749 4.58067e-16 -0.708462
v 38.1304 16.4791 -40.1098
v 38.4268 16.5646 -40.4051
v 38.5054 15.4908 -40.4834
v 38.6784 13.1285 -40.6557
v 38.8513 10.7662 -40.828
f 449/825/269 448/826/269 450/827/269 451/828/269 452/829/269 453/830/269 454/831/269 455/832/269 456/833/269 457/834/269 458/835/269 459/836/269 460/837/269 461/838/269 462/839/269 463/840/269 464/841/269 465/842/269 466/843/269 467/844/269 468/845/269 469/846/269 470/847/269 471/848/269 472/446/269 473/849/269 474/850/269 475/851/269 476/852/269 477/853/269 478/854/269 479/855/269 480/856/269 481/857/269 482/858/269 483/859/269 484/860/269 485/861/269 486/862/269 487/863/269 488/864/269 489/865/269 490/866/269 491/867/269 492/868/269 493/869/269 494/870/269 495/871/269 496/872/269 497/873/269 498/874/269 499/875/269 500/876/269 501/877/269 502/878/269 503/879/269 504/880/269 505/881/269 506/882/269 507/883/269 508/884/269 509/885/269 510/886/269 511/887/269 512/888/269 513/889/269 514/890/269 515/891/269 516/892/269 517/893/269 518/894/269 519/895/269 520/896/269 521/897/269 522/898/269 523/899/269 524/900/269 525/901/269 526/902/269 527/903/269 528/904/269 529/905/269 530/906/269 531/907/269 532/908/269 533/909/269 534/910/269 535/911/269 536/912/269 537/913/269 352/914/269 351/915/269 538/916/269 539/917/269 540/918/269 541/919/269 542/920/269 

vn -0.132687 0.982305 0.132179
f 350/921/171 359/922/270 538/923/270 351/924/171 

vn -0.147231 0.978167 0.146668
f 359/925/270 358/926/271 539/927/271 538/928/270 

vn 0.704832 0.101099 -0.702133
f 358/929/272 357/930/272 540/931/272 539/932/272 

f 357/930/272 356/933/272 541/934/272 540/931/272 

f 356/933/272 355/935/272 542/936/272 541/934/272 

f 355/935/272 354/937/272 449/938/272 542/936/272 

g Mesh7 ___534_3 Model

v 35.9029 15.9808 -123.67
vn -0.106625 0.98861 -0.106217
v 37.4291 16.3128 -122.15
vn -0.112051 0.987413 -0.111622
v 39.5463 16.3128 -124.275
v 38.0201 15.9808 -125.795
f 543/371/273 544/370/274 545/369/274 546/368/273 

v 38.852 10.7663 -120.732
vn -0.705749 4.60487e-16 0.708462
v 38.6805 13.1287 -120.903
v 38.509 15.4912 -121.074
v 38.4311 16.565 -121.152
v 38.1434 16.4804 -121.438
v 33.1795 15.4028 -126.383
v 30.3682 14.8424 -129.183
v 28.1399 14.448 -131.403
v 26.5684 14.2013 -132.969
v 25.7275 14.0843 -133.806
v 25.6704 14.0864 -133.863
v 25.6171 14.107 -133.916
v 25.5701 14.1444 -133.963
v 25.5317 14.1971 -134.002
v 25.4303 14.379 -134.102
v 25.2074 14.7792 -134.324
v 24.9845 15.1794 -134.547
v 24.8781 15.3701 -134.653
v 24.8615 15.3943 -134.669
v 24.7236 15.5541 -134.806
v 24.5364 15.8027 -134.993
v 24.4363 16.0523 -135.093
v 24.56 16.2151 -134.969
v 24.7916 16.3434 -134.739
v 24.9456 16.5533 -134.585
v 25.0273 16.8447 -134.504
v 25.0424 17.2172 -134.489
v 24.9447 17.6579 -134.586
v 24.6923 18.0494 -134.838
v 24.2941 18.3124 -135.234
v 23.759 18.3679 -135.767
v 23.273 18.1677 -136.252
v 22.9813 17.7702 -136.542
v 22.8309 17.2556 -136.692
v 22.7689 16.7039 -136.754
v 22.8242 16.1436 -136.699
v 22.9699 15.6139 -136.553
v 23.0696 15.2109 -136.454
v 22.9868 15.0307 -136.537
v 22.8593 14.9937 -136.664
v 22.7119 14.928 -136.81
v 22.5567 14.8445 -136.965
v 22.4058 14.754 -137.115
v 22.3197 14.6607 -137.201
v 22.2813 14.5342 -137.239
v 22.2931 14.4011 -137.228
v 22.358 14.2876 -137.163
v 22.4934 14.1392 -137.028
v 22.6283 13.9668 -136.894
v 22.7483 13.7761 -136.774
v 22.8393 13.5726 -136.684
v 22.9028 13.341 -136.62
v 22.9368 13.1206 -136.586
v 22.9487 12.9218 -136.575
v 22.9462 12.7551 -136.577
v 22.9306 12.6673 -136.593
v 22.8952 12.5917 -136.628
v 22.8432 12.5335 -136.68
v 22.7778 12.4976 -136.745
v 21.3571 12.0735 -138.16
v 18.8845 11.4787 -140.623
v 15.9242 11.0395 -143.572
v 13.0401 11.082 -146.445
v 9.73913 11.7532 -149.734
v 6.27099 12.6684 -153.188
v 3.49975 13.4761 -155.949
v 2.28947 13.8248 -157.155
v 2.02368 13.5814 -157.419
v 1.62542 13.0179 -157.816
v 1.26795 12.3901 -158.172
v 1.12457 11.9537 -158.315
v 1.24086 11.7231 -158.199
v 1.50601 11.5871 -157.935
v 1.85868 11.6137 -157.584
v 2.23755 11.8707 -157.206
v 2.5159 12.1069 -156.929
v 2.75703 12.2204 -156.689
v 2.94772 12.2511 -156.499
v 3.07473 12.2389 -156.372
v 3.0978 12.2318 -156.349
v 3.11965 12.2212 -156.328
v 3.14033 12.2074 -156.307
v 3.15991 12.1906 -156.288
v 3.48847 11.8679 -155.96
v 4.09964 11.2408 -155.351
v 4.91469 10.3578 -154.54
v 5.85489 9.267 -153.603
v 6.4132 8.53155 -153.047
v 7.95748 6.81276 -151.508
v 10.2917 4.84201 -149.183
v 13.2198 3.35068 -146.266
v 19.0144 3.77468 -140.494
v 27.6548 6.01766 -131.887
v 35.5052 8.5126 -124.066
v 38.93 9.69247 -120.655
f 547/920/275 548/919/275 549/918/275 550/917/275 551/916/275 544/915/275 543/914/275 552/913/275 553/912/275 554/911/275 555/910/275 556/909/275 557/908/275 558/907/275 559/906/275 560/905/275 561/904/275 562/903/275 563/902/275 564/901/275 565/900/275 566/899/275 567/898/275 568/897/275 569/896/275 570/895/275 571/894/275 572/893/275 573/892/275 574/891/275 575/890/275 576/889/275 577/888/275 578/887/275 579/886/275 580/885/275 581/884/275 582/883/275 583/882/275 584/881/275 585/880/275 586/879/275 587/878/275 588/877/275 589/876/275 590/875/275 591/874/275 592/873/275 593/872/275 594/871/275 595/870/275 596/869/275 597/868/275 598/867/275 599/866/275 600/865/275 601/864/275 602/863/275 603/862/275 604/861/275 605/860/275 606/859/275 607/858/275 608/857/275 609/856/275 610/855/275 611/854/275 612/853/275 613/852/275 614/851/275 615/850/275 616/849/275 617/446/275 618/848/275 619/847/275 620/846/275 621/845/275 622/844/275 623/843/275 624/842/275 625/841/275 626/840/275 627/839/275 628/838/275 629/837/275 630/836/275 631/835/275 632/834/275 633/833/275 634/832/275 635/831/275 636/830/275 637/829/275 638/828/275 639/827/275 640/826/275 641/825/275 

vn 0.704772 0.101933 0.702073
v 40.9692 10.7663 -122.858
v 40.7978 13.1287 -123.028
f 548/934/276 547/936/276 642/935/276 643/933/276 

v 41.0472 9.69247 -122.78
f 547/936/276 641/938/276 644/937/276 642/935/276 

vn 0.167987 -0.971482 0.167343
vn 0.161809 -0.973569 0.16119
v 37.6225 8.5126 -126.192
f 641/472/277 640/471/278 645/470/278 644/469/277 

vn 0.14191 -0.979733 0.141366
v 29.772 6.01766 -134.012
f 640/476/278 639/475/279 646/474/279 645/473/278 

vn 0.082586 -0.993182 0.0822697
v 21.1317 3.77468 -142.619
f 639/480/279 638/479/280 647/478/280 646/477/279 

vn 0.0366772 -0.998659 0.0365367
v 15.3371 3.35068 -148.392
f 638/484/280 637/483/281 648/482/281 647/481/280 

vn -0.240456 -0.94064 -0.239535
vn -0.303472 -0.903611 -0.30231
v 12.4089 4.84201 -151.308
f 637/488/282 636/487/283 649/486/283 648/485/282 

vn -0.402001 -0.823423 -0.400462
v 10.0747 6.81276 -153.634
f 636/492/283 635/491/284 650/490/284 649/489/283 

vn -0.461419 -0.758823 -0.459652
v 8.53045 8.53155 -155.172
f 635/496/284 634/495/285 651/494/285 650/493/284 

vn -0.466845 -0.752182 -0.465057
v 7.97214 9.267 -155.728
f 634/500/285 633/499/286 652/498/286 651/497/285 

vn -0.440672 -0.783007 -0.438985
v 7.03193 10.3578 -156.665
f 633/504/286 632/503/287 653/502/287 652/501/286 

vn -0.423986 -0.801153 -0.422362
v 6.21689 11.2408 -157.477
f 632/508/287 631/507/288 654/506/288 653/505/287 

vn -0.410625 -0.814901 -0.409052
v 5.60572 11.8679 -158.086
f 631/512/288 630/511/289 655/510/289 654/509/288 

vn -0.386841 -0.837766 -0.38536
v 5.27715 12.1906 -158.413
f 630/516/289 629/515/290 656/514/290 655/513/289 

vn -0.336333 -0.880128 -0.335045
v 5.25758 12.2074 -158.432
f 629/520/290 628/519/291 657/518/291 656/517/290 

vn -0.266824 -0.926366 -0.265802
v 5.23689 12.2212 -158.453
f 628/524/291 627/523/292 658/522/292 657/521/291 

vn -0.190607 -0.963128 -0.189877
v 5.21504 12.2318 -158.475
f 627/528/292 626/527/293 659/526/293 658/525/292 

vn -0.0996299 -0.990062 -0.0992484
v 5.19197 12.2389 -158.498
f 626/532/293 625/531/294 660/530/294 659/529/293 

vn 0.0162364 -0.999737 0.0161742
v 5.06497 12.2511 -158.624
f 625/536/294 624/535/295 661/534/295 660/533/294 

vn 0.152958 -0.976415 0.152372
v 4.87428 12.2204 -158.814
f 624/540/295 623/539/296 662/538/296 661/537/295 

vn 0.296324 -0.908326 0.295189
v 4.63315 12.1069 -159.055
f 623/544/296 622/543/297 663/542/297 662/541/296 

vn 0.336329 -0.880131 0.335041
v 4.35479 11.8707 -159.332
f 622/548/297 621/547/298 664/546/298 663/545/297 

vn 0.306886 -0.901311 0.305711
v 3.97592 11.6137 -159.709
f 621/552/298 620/551/299 665/550/299 664/549/298 

vn 0.0377969 -0.998576 0.0376522
v 3.62325 11.5871 -160.061
f 620/556/300 619/555/300 666/554/300 665/553/300 

vn -0.241915 -0.939895 -0.240988
v 3.35811 11.7231 -160.325
f 619/560/301 618/559/301 667/558/301 666/557/301 

vn -0.577234 -0.579783 -0.575024
v 3.24181 11.9537 -160.441
f 618/564/302 617/563/302 668/562/302 667/561/302 

vn -0.642703 0.42074 -0.640242
vn -0.601887 0.527479 -0.599582
v 3.3852 12.3901 -160.298
f 617/568/303 616/567/304 669/566/304 668/565/303 

vn -0.527636 0.66733 -0.525615
v 3.74266 13.0179 -159.942
f 616/572/304 615/571/305 670/570/305 669/569/304 

vn -0.446043 0.776925 -0.444335
v 4.14093 13.5814 -159.545
f 615/576/305 614/575/306 671/574/306 670/573/305 

vn -0.385583 0.838921 -0.384106
v 4.40671 13.8248 -159.28
f 614/580/306 613/579/307 672/578/307 671/577/306 

vn 0.141663 0.979804 0.14112
vn 0.142466 0.979572 0.14192
v 5.617 13.4761 -158.074
f 613/584/308 612/583/309 673/582/309 672/581/308 

vn 0.13674 0.981197 0.136217
v 8.38823 12.6684 -155.314
f 612/588/309 611/587/310 674/586/310 673/585/309 

vn 0.115632 0.98659 0.115189
v 11.8564 11.7532 -151.859
f 611/592/310 610/591/311 675/590/311 674/589/310 

vn 0.0543191 0.997056 0.0541111
v 15.1574 11.082 -148.571
f 610/596/311 609/595/312 676/594/312 675/593/311 

vn -0.0333922 0.998889 -0.0332644
v 18.0415 11.0395 -145.698
f 609/600/312 608/599/313 677/598/313 676/597/312 

vn -0.0965848 0.990663 -0.0962149
v 21.0018 11.4787 -142.749
f 608/604/313 607/603/314 678/602/314 677/601/313 

vn -0.132821 0.982269 -0.132313
v 23.4743 12.0735 -140.285
f 607/608/314 606/607/315 679/606/315 678/605/314 

vn -0.202497 0.958282 -0.201721
v 24.8951 12.4976 -138.87
f 606/612/315 605/611/316 680/610/316 679/609/315 

vn -0.352631 0.867325 -0.351281
v 24.9604 12.5335 -138.805
f 605/616/316 604/615/317 681/614/317 680/613/316 

vn -0.522043 0.676036 -0.520044
v 25.0125 12.5917 -138.753
f 604/620/317 603/619/318 682/618/318 681/617/317 

vn -0.648341 0.403138 -0.645858
v 25.0479 12.6673 -138.718
f 603/624/318 602/623/319 683/622/319 682/621/318 

vn -0.702171 0.132963 -0.699483
v 25.0635 12.7551 -138.702
f 602/628/319 601/627/320 684/626/320 683/625/319 

vn -0.708105 -0.0317428 -0.705393
v 25.066 12.9218 -138.7
f 601/632/320 600/631/321 685/630/321 684/629/320 

vn -0.700547 -0.149057 -0.697865
v 25.054 13.1206 -138.712
f 600/636/321 599/635/322 686/634/322 685/633/321 

vn -0.678546 -0.287523 -0.675948
v 25.02 13.341 -138.746
f 599/640/322 598/639/323 687/638/323 686/637/322 

vn -0.632897 -0.449382 -0.630474
v 24.9566 13.5726 -138.809
f 598/644/323 597/643/324 688/642/324 687/641/323 

vn -0.566238 -0.600999 -0.56407
v 24.8655 13.7761 -138.9
f 597/648/324 596/647/325 689/646/325 688/645/324 

vn -0.503359 -0.703702 -0.501431
v 24.7455 13.9668 -139.019
f 596/652/325 595/651/326 690/650/326 689/649/325 

vn -0.455361 -0.76608 -0.453617
v 24.6107 14.1392 -139.153
f 595/656/326 594/655/327 691/654/327 690/653/326 

vn -0.496206 -0.713751 -0.494306
v 24.4752 14.2876 -139.288
f 594/660/327 593/659/328 692/658/328 691/657/327 

vn -0.551282 -0.628092 -0.549171
v 24.4104 14.4011 -139.353
f 593/664/328 592/663/329 693/662/329 692/661/328 

vn -0.702938 -0.124628 -0.700247
v 24.3985 14.5342 -139.365
f 592/668/330 591/667/330 694/666/330 693/665/330 

vn -0.65092 0.394771 -0.648428
v 24.437 14.6607 -139.327
f 591/672/331 590/671/331 695/670/331 694/669/331 

vn -0.431584 0.793029 -0.429931
vn -0.357175 0.863613 -0.355808
v 24.5231 14.754 -139.241
f 590/676/332 589/675/333 696/674/333 695/673/332 

vn -0.264814 0.927514 -0.2638
v 24.674 14.8445 -139.09
f 589/680/333 588/679/334 697/678/334 696/677/333 

vn -0.233025 0.944359 -0.232132
v 24.8291 14.928 -138.936
f 588/684/334 587/683/335 698/682/335 697/681/334 

vn -0.178186 0.967855 -0.177503
v 24.9765 14.9937 -138.789
f 587/688/335 586/687/336 699/686/336 698/685/335 

vn -0.142534 0.979553 -0.141989
v 25.104 15.0307 -138.662
f 586/692/336 585/691/337 700/690/337 699/689/336 

vn -0.594394 0.544143 -0.592118
v 25.1868 15.2109 -138.58
f 585/696/338 584/695/338 701/694/338 700/693/338 

vn -0.668891 -0.32953 -0.666329
vn -0.664765 -0.345763 -0.66222
v 25.0872 15.6139 -138.679
f 584/700/339 583/699/340 702/698/340 701/697/339 

vn -0.685663 -0.251645 -0.683038
v 24.9415 16.1436 -138.824
f 583/704/340 582/703/341 703/702/341 702/701/340 

vn -0.708431 0.0093686 -0.705718
v 24.8862 16.7039 -138.879
f 582/708/341 581/707/342 704/706/342 703/705/341 

vn -0.681993 0.27079 -0.679381
v 24.9481 17.2556 -138.817
f 581/712/342 580/711/343 705/710/343 704/709/342 

vn -0.654931 0.381325 -0.652423
v 25.0985 17.7702 -138.668
f 580/716/343 579/715/344 706/714/344 705/713/343 

vn -0.492038 0.719478 -0.490153
v 25.3902 18.1677 -138.377
f 579/720/345 578/719/345 707/718/345 706/717/345 

vn -0.198466 0.95996 -0.197706
v 25.8762 18.3679 -137.893
f 578/724/346 577/723/346 708/722/346 707/721/346 

vn 0.0518701 0.997316 0.0516715
v 26.4114 18.3124 -137.36
f 577/728/347 576/727/347 709/726/347 708/725/347 

vn 0.300344 0.905691 0.299194
v 26.8096 18.0494 -136.963
f 576/732/348 575/731/348 710/730/348 709/729/348 

vn 0.523996 0.673019 0.52199
v 27.062 17.6579 -136.712
f 575/736/349 574/735/349 711/734/349 710/733/349 

vn 0.676125 0.298672 0.673536
v 27.1597 17.2172 -136.614
f 574/740/350 573/739/350 712/738/350 711/737/350 

vn 0.707306 -0.0570922 0.704598
vn 0.691834 -0.215384 0.689185
v 27.1446 16.8447 -136.629
f 573/744/351 572/743/352 713/742/352 712/741/351 

vn 0.658697 -0.368176 0.656174
v 27.0628 16.5533 -136.711
f 572/748/352 571/747/353 714/746/353 713/745/352 

vn 0.492304 -0.719115 0.490419
v 26.9089 16.3434 -136.864
f 571/752/354 570/751/354 715/750/354 714/749/354 

vn 0.258754 -0.930916 0.257763
v 26.6772 16.2151 -137.095
f 570/756/355 569/755/355 716/754/355 715/753/355 

vn 0.483183 -0.731337 0.481333
v 26.5535 16.0523 -137.218
f 569/760/356 568/759/356 717/758/356 716/757/356 

vn 0.616552 0.492578 0.614191
vn 0.557253 0.617505 0.555119
v 26.6536 15.8027 -137.118
f 568/764/357 567/763/358 718/762/358 717/761/357 

vn 0.467757 0.751052 0.465966
v 26.8409 15.5541 -136.932
f 567/768/358 566/767/359 719/766/359 718/765/358 

vn 0.479789 0.735775 0.477951
v 26.9787 15.3943 -136.794
f 566/772/359 565/771/360 720/770/360 719/769/359 

vn 0.533212 0.65844 0.53117
v 26.9954 15.3701 -136.778
f 565/776/360 564/775/361 721/774/361 720/773/360 

vn 0.556764 0.618382 0.554632
v 27.1018 15.1794 -136.672
f 564/780/361 563/779/362 722/778/362 721/777/361 

vn 0.556944 0.618059 0.554812
v 27.3247 14.7792 -136.45
f 563/784/362 562/783/363 723/782/363 722/781/362 

v 27.5476 14.379 -136.228
f 562/783/363 561/786/363 724/785/363 723/782/363 

vn 0.526514 0.669093 0.524498
v 27.6489 14.1971 -136.127
f 561/786/363 560/788/364 725/787/364 724/785/363 

vn 0.42424 0.800885 0.422615
v 27.6873 14.1444 -136.089
f 560/792/364 559/791/365 726/790/365 725/789/364 

vn 0.269214 0.924987 0.268183
v 27.7344 14.107 -136.042
f 559/796/365 558/795/366 727/794/366 726/793/365 

vn 0.10357 0.989257 0.103173
v 27.7876 14.0864 -135.989
f 558/800/366 557/799/367 728/798/367 727/797/366 

vn -0.0253118 0.999362 -0.0252149
v 27.8448 14.0843 -135.932
f 557/804/367 556/803/368 729/802/368 728/801/367 

vn -0.0739041 0.994544 -0.0736211
v 28.6856 14.2013 -135.094
f 556/808/368 555/807/369 730/806/369 729/805/368 

vn -0.0832305 0.993075 -0.0829117
v 30.2571 14.448 -133.529
f 555/812/369 554/811/370 731/810/370 730/809/369 

vn -0.0936202 0.99123 -0.0932617
v 32.4855 14.8424 -131.309
f 554/816/370 553/815/371 732/814/371 731/813/370 

vn -0.102202 0.98954 -0.10181
v 35.2967 15.4028 -128.508
f 553/820/371 552/819/372 733/818/372 732/817/371 

f 552/824/372 543/823/273 546/822/273 733/821/372 

vn 0.705749 -4.60487e-16 -0.708462
v 40.2606 16.4804 -123.563
v 40.5483 16.565 -123.277
v 40.6263 15.4912 -123.199
f 646/468/373 647/467/373 648/466/373 649/465/373 650/464/373 651/463/373 652/462/373 653/461/373 654/460/373 655/459/373 656/458/373 657/457/373 658/456/373 659/455/373 660/454/373 661/453/373 662/452/373 663/451/373 664/450/373 665/449/373 666/448/373 667/447/373 668/446/373 669/445/373 670/444/373 671/443/373 672/442/373 673/441/373 674/440/373 675/439/373 676/438/373 677/437/373 678/436/373 679/435/373 680/434/373 681/433/373 682/432/373 683/431/373 684/430/373 685/429/373 686/428/373 687/427/373 688/426/373 689/425/373 690/424/373 691/423/373 692/422/373 693/421/373 694/420/373 695/419/373 696/418/373 697/417/373 698/416/373 699/415/373 700/414/373 701/413/373 702/412/373 703/411/373 704/410/373 705/409/373 706/408/373 707/407/373 708/406/373 709/405/373 710/404/373 711/403/373 712/402/373 713/401/373 714/400/373 715/399/373 716/398/373 717/397/373 718/396/373 719/395/373 720/394/373 721/393/373 722/392/373 723/391/373 724/390/373 725/389/373 726/388/373 727/387/373 728/386/373 729/385/373 730/384/373 731/383/373 732/382/373 733/381/373 546/380/373 545/379/373 734/378/373 735/377/373 736/376/373 643/375/373 642/374/373 644/373/373 645/372/373 

vn -0.130373 0.982922 -0.129874
f 544/924/274 551/923/374 734/922/374 545/921/274 

vn -0.144517 0.978974 -0.143963
f 551/928/374 550/927/375 735/926/375 734/925/374 

f 550/932/276 549/931/276 736/930/276 735/929/276 

f 549/931/276 548/934/276 643/933/276 736/930/276 

g Mesh8 ___532_2 Model

v 41.9381 13.6487 -37.8582
vn 2.7399e-16 0.956379 0.292127
v 10.6679 4.25517 -7.10519
v 246.89 4.25517 -7.10519
v 215.619 13.6487 -37.8582
f 737/942/376 738/941/376 739/940/376 740/939/376 

vn -0.716909 0.203662 -0.666756
v 41.9381 10.7796 -38.7346
v 10.6679 1.38603 -7.98158
f 738/958/377 737/957/377 741/956/377 742/955/377 

vn 4.61012e-16 0.292127 -0.956379
v 215.619 10.7796 -38.7346
f 737/954/378 740/953/378 743/952/378 741/951/378 

vn 0.716907 0.203662 -0.666758
v 246.89 1.38603 -7.98158
f 740/946/379 739/945/379 744/944/379 743/943/379 

vn 5.85551e-17 -0.292127 0.956379
f 739/962/380 738/961/380 742/960/380 744/959/380 

vn -2.7399e-16 -0.956379 -0.292127
f 742/950/381 741/949/381 743/948/381 744/947/381 

g Mesh9 ___534_4 Model

v 222.481 15.9808 -37.8908
vn 0.106625 0.98861 0.106217
v 220.955 16.3128 -39.4111
vn 0.112051 0.987413 0.111622
v 218.838 16.3128 -37.2857
v 220.364 15.9808 -35.7654
f 745/371/382 746/370/383 747/369/383 748/368/382 

v 219.532 10.7663 -40.8286
vn 0.705749 -3.23052e-16 -0.708462
v 219.704 13.1287 -40.6578
v 219.875 15.4912 -40.4869
v 219.953 16.565 -40.4093
v 220.241 16.4804 -40.1227
v 225.205 15.4028 -35.1778
v 228.016 14.8424 -32.3773
v 230.244 14.448 -30.1575
v 231.816 14.2013 -28.592
v 232.657 14.0843 -27.7544
v 232.714 14.0864 -27.6975
v 232.767 14.107 -27.6444
v 232.814 14.1444 -27.5976
v 232.853 14.1971 -27.5593
v 232.954 14.379 -27.4583
v 233.177 14.7792 -27.2363
v 233.4 15.1794 -27.0142
v 233.506 15.3701 -26.9082
v 233.523 15.3943 -26.8917
v 233.661 15.5541 -26.7543
v 233.848 15.8027 -26.5678
v 233.948 16.0523 -26.4681
v 233.824 16.2151 -26.5913
v 233.593 16.3434 -26.8221
v 233.439 16.5533 -26.9754
v 233.357 16.8447 -27.0569
v 233.342 17.2172 -27.0719
v 233.44 17.6579 -26.9746
v 233.692 18.0494 -26.7232
v 234.09 18.3124 -26.3265
v 234.625 18.3679 -25.7934
v 235.111 18.1677 -25.3093
v 235.403 17.7702 -25.0186
v 235.553 17.2556 -24.8688
v 235.615 16.7039 -24.8071
v 235.56 16.1436 -24.8622
v 235.414 15.6139 -25.0073
v 235.315 15.2109 -25.1066
v 235.397 15.0307 -25.0241
v 235.525 14.9937 -24.8971
v 235.672 14.928 -24.7503
v 235.827 14.8445 -24.5957
v 235.978 14.754 -24.4454
v 236.064 14.6607 -24.3597
v 236.103 14.5342 -24.3213
v 236.091 14.4011 -24.3331
v 236.026 14.2876 -24.3978
v 235.891 14.1392 -24.5327
v 235.756 13.9668 -24.667
v 235.636 13.7761 -24.7866
v 235.545 13.5726 -24.8772
v 235.481 13.341 -24.9405
v 235.447 13.1206 -24.9743
v 235.435 12.9218 -24.9863
v 235.438 12.7551 -24.9837
v 235.454 12.6673 -24.9682
v 235.489 12.5917 -24.9329
v 235.541 12.5335 -24.8811
v 235.606 12.4976 -24.816
v 237.027 12.0735 -23.4007
v 239.5 11.4787 -20.9376
v 242.46 11.0395 -17.9886
v 245.344 11.082 -15.1156
v 248.645 11.7532 -11.8272
v 252.113 12.6684 -8.37236
v 254.884 13.4761 -5.61173
v 256.095 13.8248 -4.40609
v 256.361 13.5814 -4.14132
v 256.759 13.0179 -3.74458
v 257.116 12.3901 -3.38848
v 257.26 11.9537 -3.24565
v 257.143 11.7231 -3.36149
v 256.878 11.5871 -3.62562
v 256.526 11.6137 -3.97695
v 256.147 11.8707 -4.35436
v 255.868 12.1069 -4.63165
v 255.627 12.2204 -4.87186
v 255.436 12.2511 -5.06182
v 255.309 12.2389 -5.18834
v 255.286 12.2318 -5.21132
v 255.265 12.2212 -5.23309
v 255.244 12.2074 -5.25369
v 255.224 12.1906 -5.27319
v 254.896 11.8679 -5.6005
v 254.285 11.2408 -6.20932
v 253.47 10.3578 -7.02125
v 252.529 9.267 -7.95785
v 251.971 8.53155 -8.51403
v 250.427 6.81276 -10.0524
v 248.093 4.84201 -12.3777
v 245.164 3.35068 -15.2946
v 239.37 3.77468 -21.067
v 230.729 6.01766 -29.6743
v 222.879 8.5126 -37.4946
v 219.454 9.69247 -40.9063
f 749/920/384 750/919/384 751/918/384 752/917/384 753/916/384 746/915/384 745/914/384 754/913/384 755/912/384 756/911/384 757/910/384 758/909/384 759/908/384 760/907/384 761/906/384 762/905/384 763/904/384 764/903/384 765/902/384 766/901/384 767/900/384 768/899/384 769/898/384 770/897/384 771/896/384 772/895/384 773/894/384 774/893/384 775/892/384 776/891/384 777/890/384 778/889/384 779/888/384 780/887/384 781/886/384 782/885/384 783/884/384 784/883/384 785/882/384 786/881/384 787/880/384 788/879/384 789/878/384 790/877/384 791/876/384 792/875/384 793/874/384 794/873/384 795/872/384 796/871/384 797/870/384 798/869/384 799/868/384 800/867/384 801/866/384 802/865/384 803/864/384 804/863/384 805/862/384 806/861/384 807/860/384 808/859/384 809/858/384 810/857/384 811/856/384 812/855/384 813/854/384 814/853/384 815/852/384 816/851/384 817/850/384 818/849/384 819/446/384 820/848/384 821/847/384 822/846/384 823/845/384 824/844/384 825/843/384 826/842/384 827/841/384 828/840/384 829/839/384 830/838/384 831/837/384 832/836/384 833/835/384 834/834/384 835/833/384 836/832/384 837/831/384 838/830/384 839/829/384 840/828/384 841/827/384 842/826/384 843/825/384 

vn -0.704772 0.101933 -0.702073
v 217.415 10.7663 -38.7032
v 217.586 13.1287 -38.5324
f 750/934/385 749/936/385 844/935/385 845/933/385 

v 217.337 9.69247 -38.7809
f 749/936/385 843/938/385 846/937/385 844/935/385 

vn -0.167987 -0.971482 -0.167343
vn -0.161809 -0.973569 -0.16119
v 220.762 8.5126 -35.3693
f 843/472/386 842/471/387 847/470/387 846/469/386 

vn -0.14191 -0.979733 -0.141366
v 228.612 6.01766 -27.5489
f 842/476/387 841/475/388 848/474/388 847/473/387 

vn -0.082586 -0.993182 -0.0822697
v 237.253 3.77468 -18.9416
f 841/480/388 840/479/389 849/478/389 848/477/388 

vn -0.0366772 -0.998659 -0.0365367
v 243.047 3.35068 -13.1692
f 840/484/389 839/483/390 850/482/390 849/481/389 

vn 0.240456 -0.94064 0.239535
vn 0.303472 -0.903611 0.30231
v 245.975 4.84201 -10.2523
f 839/488/391 838/487/392 851/486/392 850/485/391 

vn 0.402001 -0.823423 0.400462
v 248.309 6.81276 -7.927
f 838/492/392 837/491/393 852/490/393 851/489/392 

vn 0.461419 -0.758823 0.459652
v 249.854 8.53155 -6.38865
f 837/496/393 836/495/394 853/494/394 852/493/393 

vn 0.466845 -0.752182 0.465057
v 250.412 9.267 -5.83247
f 836/500/394 835/499/395 854/498/395 853/497/394 

vn 0.440672 -0.783007 0.438985
v 251.352 10.3578 -4.89587
f 835/504/395 834/503/396 855/502/396 854/501/395 

vn 0.423986 -0.801153 0.422362
v 252.167 11.2408 -4.08394
f 834/508/396 833/507/397 856/506/397 855/505/396 

vn 0.410625 -0.814901 0.409052
v 252.778 11.8679 -3.47511
f 833/512/397 832/511/398 857/510/398 856/509/397 

vn 0.386841 -0.837766 0.38536
v 253.107 12.1906 -3.14781
f 832/516/398 831/515/399 858/514/399 857/513/398 

vn 0.336333 -0.880128 0.335045
v 253.127 12.2074 -3.12831
f 831/520/399 830/519/400 859/518/400 858/517/399 

vn 0.266824 -0.926366 0.265802
v 253.147 12.2212 -3.1077
f 830/524/400 829/523/401 860/522/401 859/521/400 

vn 0.190607 -0.963128 0.189877
v 253.169 12.2318 -3.08593
f 829/528/401 828/527/402 861/526/402 860/525/401 

vn 0.0996299 -0.990062 0.0992484
v 253.192 12.2389 -3.06295
f 828/532/402 827/531/403 862/530/403 861/529/402 

vn -0.0162364 -0.999737 -0.0161742
v 253.319 12.2511 -2.93643
f 827/536/403 826/535/404 863/534/404 862/533/403 

vn -0.152958 -0.976415 -0.152372
v 253.51 12.2204 -2.74648
f 826/540/404 825/539/405 864/538/405 863/537/404 

vn -0.296324 -0.908326 -0.295189
v 253.751 12.1069 -2.50626
f 825/544/405 824/543/406 865/542/406 864/541/405 

vn -0.336329 -0.880131 -0.335041
v 254.029 11.8707 -2.22898
f 824/548/406 823/547/407 866/546/407 865/545/406 

vn -0.306886 -0.901311 -0.305711
v 254.408 11.6137 -1.85156
f 823/552/407 822/551/408 867/550/408 866/549/407 

vn -0.0377969 -0.998576 -0.0376522
v 254.761 11.5871 -1.50024
f 822/556/409 821/555/409 868/554/409 867/553/409 

vn 0.241915 -0.939895 0.240988
v 255.026 11.7231 -1.23611
f 821/560/410 820/559/410 869/558/410 868/557/410 

vn 0.577234 -0.579783 0.575024
v 255.142 11.9537 -1.12026
f 820/564/411 819/563/411 870/562/411 869/561/411 

vn 0.642703 0.42074 0.640242
vn 0.601887 0.527479 0.599582
v 254.999 12.3901 -1.26309
f 819/568/412 818/567/413 871/566/413 870/565/412 

vn 0.527636 0.66733 0.525615
v 254.642 13.0179 -1.61919
f 818/572/413 817/571/414 872/570/414 871/569/413 

vn 0.446043 0.776925 0.444335
v 254.243 13.5814 -2.01593
f 817/576/414 816/575/415 873/574/415 872/573/414 

vn 0.385583 0.838921 0.384106
v 253.977 13.8248 -2.2807
f 816/580/415 815/579/416 874/578/416 873/577/415 

vn -0.141663 0.979804 -0.14112
vn -0.142466 0.979572 -0.14192
v 252.767 13.4761 -3.48635
f 815/584/417 814/583/418 875/582/418 874/581/417 

vn -0.13674 0.981197 -0.136217
v 249.996 12.6684 -6.24697
f 814/588/418 813/587/419 876/586/419 875/585/418 

vn -0.115632 0.98659 -0.115189
v 246.528 11.7532 -9.70184
f 813/592/419 812/591/420 877/590/420 876/589/419 

vn -0.0543191 0.997056 -0.0541111
v 243.227 11.082 -12.9902
f 812/596/420 811/595/421 878/594/421 877/593/420 

vn 0.0333922 0.998889 0.0332644
v 240.343 11.0395 -15.8633
f 811/600/421 810/599/422 879/598/422 878/597/421 

vn 0.0965848 0.990663 0.0962149
v 237.382 11.4787 -18.8122
f 810/604/422 809/603/423 880/602/423 879/601/422 

vn 0.132821 0.982269 0.132313
v 234.91 12.0735 -21.2753
f 809/608/423 808/607/424 881/606/424 880/605/423 

vn 0.202497 0.958282 0.201721
v 233.489 12.4976 -22.6906
f 808/612/424 807/611/425 882/610/425 881/609/424 

vn 0.352631 0.867325 0.351281
v 233.424 12.5335 -22.7557
f 807/616/425 806/615/426 883/614/426 882/613/425 

vn 0.522043 0.676036 0.520044
v 233.372 12.5917 -22.8075
f 806/620/426 805/619/427 884/618/427 883/617/426 

vn 0.648341 0.403138 0.645858
v 233.336 12.6673 -22.8428
f 805/624/427 804/623/428 885/622/428 884/621/427 

vn 0.702171 0.132963 0.699483
v 233.321 12.7551 -22.8583
f 804/628/428 803/627/429 886/626/429 885/625/428 

vn 0.708105 -0.0317428 0.705393
v 233.318 12.9218 -22.8609
f 803/632/429 802/631/430 887/630/430 886/629/429 

vn 0.700547 -0.149057 0.697865
v 233.33 13.1206 -22.8489
f 802/636/430 801/635/431 888/634/431 887/633/430 

vn 0.678546 -0.287523 0.675948
v 233.364 13.341 -22.8151
f 801/640/431 800/639/432 889/638/432 888/637/431 

vn 0.632897 -0.449382 0.630474
v 233.428 13.5726 -22.7519
f 800/644/432 799/643/433 890/642/433 889/641/432 

vn 0.566238 -0.600999 0.56407
v 233.519 13.7761 -22.6612
f 799/648/433 798/647/434 891/646/434 890/645/433 

vn 0.503359 -0.703702 0.501431
v 233.639 13.9668 -22.5416
f 798/652/434 797/651/435 892/650/435 891/649/434 

vn 0.455361 -0.76608 0.453617
v 233.774 14.1392 -22.4073
f 797/656/435 796/655/436 893/654/436 892/653/435 

vn 0.496206 -0.713751 0.494306
v 233.909 14.2876 -22.2724
f 796/660/436 795/659/437 894/658/437 893/657/436 

vn 0.551282 -0.628092 0.549171
v 233.974 14.4011 -22.2077
f 795/664/437 794/663/438 895/662/438 894/661/437 

vn 0.702938 -0.124628 0.700247
v 233.986 14.5342 -22.1959
f 794/668/439 793/667/439 896/666/439 895/665/439 

vn 0.65092 0.394771 0.648428
v 233.947 14.6607 -22.2343
f 793/672/440 792/671/440 897/670/440 896/669/440 

vn 0.431584 0.793029 0.429931
vn 0.357175 0.863613 0.355808
v 233.861 14.754 -22.32
f 792/676/441 791/675/442 898/674/442 897/673/441 

vn 0.264814 0.927514 0.2638
v 233.71 14.8445 -22.4704
f 791/680/442 790/679/443 899/678/443 898/677/442 

vn 0.233025 0.944359 0.232132
v 233.555 14.928 -22.6249
f 790/684/443 789/683/444 900/682/444 899/681/443 

vn 0.178186 0.967855 0.177503
v 233.408 14.9937 -22.7717
f 789/688/444 788/687/445 901/686/445 900/685/444 

vn 0.142534 0.979553 0.141989
v 233.28 15.0307 -22.8988
f 788/692/445 787/691/446 902/690/446 901/689/445 

vn 0.594394 0.544143 0.592118
v 233.197 15.2109 -22.9812
f 787/696/447 786/695/447 903/694/447 902/693/447 

vn 0.668891 -0.32953 0.666329
vn 0.664765 -0.345763 0.66222
v 233.297 15.6139 -22.8819
f 786/700/448 785/699/449 904/698/449 903/697/448 

vn 0.685663 -0.251645 0.683038
v 233.443 16.1436 -22.7368
f 785/704/449 784/703/450 905/702/450 904/701/449 

vn 0.708431 0.0093686 0.705718
v 233.498 16.7039 -22.6817
f 784/708/450 783/707/451 906/706/451 905/705/450 

vn 0.681993 0.27079 0.679381
v 233.436 17.2556 -22.7434
f 783/712/451 782/711/452 907/710/452 906/709/451 

vn 0.654931 0.381325 0.652423
v 233.286 17.7702 -22.8933
f 782/716/452 781/715/453 908/714/453 907/713/452 

vn 0.492038 0.719478 0.490153
v 232.994 18.1677 -23.1839
f 781/720/454 780/719/454 909/718/454 908/717/454 

vn 0.198466 0.95996 0.197706
v 232.508 18.3679 -23.668
f 780/724/455 779/723/455 910/722/455 909/721/455 

vn -0.0518701 0.997316 -0.0516715
v 231.973 18.3124 -24.2011
f 779/728/456 778/727/456 911/726/456 910/725/456 

vn -0.300344 0.905691 -0.299194
v 231.575 18.0494 -24.5978
f 778/732/457 777/731/457 912/730/457 911/729/457 

vn -0.523996 0.673019 -0.52199
v 231.322 17.6579 -24.8492
f 777/736/458 776/735/458 913/734/458 912/733/458 

vn -0.676125 0.298672 -0.673536
v 231.225 17.2172 -24.9465
f 776/740/459 775/739/459 914/738/459 913/737/459 

vn -0.707306 -0.0570922 -0.704598
vn -0.691834 -0.215384 -0.689185
v 231.24 16.8447 -24.9315
f 775/744/460 774/743/461 915/742/461 914/741/460 

vn -0.658697 -0.368176 -0.656174
v 231.321 16.5533 -24.8501
f 774/748/461 773/747/462 916/746/462 915/745/461 

vn -0.492304 -0.719115 -0.490419
v 231.475 16.3434 -24.6967
f 773/752/463 772/751/463 917/750/463 916/749/463 

vn -0.258754 -0.930916 -0.257763
v 231.707 16.2151 -24.4659
f 772/756/464 771/755/464 918/754/464 917/753/464 

vn -0.483183 -0.731337 -0.481333
v 231.831 16.0523 -24.3427
f 771/760/465 770/759/465 919/758/465 918/757/465 

vn -0.616552 0.492578 -0.614191
vn -0.557253 0.617505 -0.555119
v 231.731 15.8027 -24.4424
f 770/764/466 769/763/467 920/762/467 919/761/466 

vn -0.467757 0.751052 -0.465966
v 231.543 15.5541 -24.6289
f 769/768/467 768/767/468 921/766/468 920/765/467 

vn -0.479789 0.735775 -0.477951
v 231.405 15.3943 -24.7663
f 768/772/468 767/771/469 922/770/469 921/769/468 

vn -0.533212 0.65844 -0.53117
v 231.389 15.3701 -24.7828
f 767/776/469 766/775/470 923/774/470 922/773/469 

vn -0.556764 0.618382 -0.554632
v 231.282 15.1794 -24.8889
f 766/780/470 765/779/471 924/778/471 923/777/470 

vn -0.556944 0.618059 -0.554812
v 231.06 14.7792 -25.1109
f 765/784/471 764/783/472 925/782/472 924/781/471 

v 230.837 14.379 -25.333
f 764/783/472 763/786/472 926/785/472 925/782/472 

vn -0.526514 0.669093 -0.524498
v 230.735 14.1971 -25.4339
f 763/786/472 762/788/473 927/787/473 926/785/472 

vn -0.42424 0.800885 -0.422615
v 230.697 14.1444 -25.4722
f 762/792/473 761/791/474 928/790/474 927/789/473 

vn -0.269214 0.924987 -0.268183
v 230.65 14.107 -25.519
f 761/796/474 760/795/475 929/794/475 928/793/474 

vn -0.10357 0.989257 -0.103173
v 230.597 14.0864 -25.5721
f 760/800/475 759/799/476 930/798/476 929/797/475 

vn 0.0253118 0.999362 0.0252149
v 230.539 14.0843 -25.629
f 759/804/476 758/803/477 931/802/477 930/801/476 

vn 0.0739041 0.994544 0.0736211
v 229.699 14.2013 -26.4667
f 758/808/477 757/807/478 932/806/478 931/805/477 

vn 0.0832305 0.993075 0.0829117
v 228.127 14.448 -28.0321
f 757/812/478 756/811/479 933/810/479 932/809/478 

vn 0.0936202 0.99123 0.0932617
v 225.899 14.8424 -30.2519
f 756/816/479 755/815/480 934/814/480 933/813/479 

vn 0.102202 0.98954 0.10181
v 223.088 15.4028 -33.0524
f 755/820/480 754/819/481 935/818/481 934/817/480 

f 754/824/481 745/823/382 748/822/382 935/821/481 

vn -0.705749 3.23052e-16 0.708462
v 218.124 16.4804 -37.9973
v 217.836 16.565 -38.2839
v 217.758 15.4912 -38.3615
f 848/468/482 849/467/482 850/466/482 851/465/482 852/464/482 853/463/482 854/462/482 855/461/482 856/460/482 857/459/482 858/458/482 859/457/482 860/456/482 861/455/482 862/454/482 863/453/482 864/452/482 865/451/482 866/450/482 867/449/482 868/448/482 869/447/482 870/446/482 871/445/482 872/444/482 873/443/482 874/442/482 875/441/482 876/440/482 877/439/482 878/438/482 879/437/482 880/436/482 881/435/482 882/434/482 883/433/482 884/432/482 885/431/482 886/430/482 887/429/482 888/428/482 889/427/482 890/426/482 891/425/482 892/424/482 893/423/482 894/422/482 895/421/482 896/420/482 897/419/482 898/418/482 899/417/482 900/416/482 901/415/482 902/414/482 903/413/482 904/412/482 905/411/482 906/410/482 907/409/482 908/408/482 909/407/482 910/406/482 911/405/482 912/404/482 913/403/482 914/402/482 915/401/482 916/400/482 917/399/482 918/398/482 919/397/482 920/396/482 921/395/482 922/394/482 923/393/482 924/392/482 925/391/482 926/390/482 927/389/482 928/388/482 929/387/482 930/386/482 931/385/482 932/384/482 933/383/482 934/382/482 935/381/482 748/380/482 747/379/482 936/378/482 937/377/482 938/376/482 845/375/482 844/374/482 846/373/482 847/372/482 

vn 0.130373 0.982922 0.129874
f 746/924/383 753/923/483 936/922/483 747/921/383 

vn 0.144517 0.978974 0.143963
f 753/928/483 752/927/484 937/926/484 936/925/483 

f 752/932/385 751/931/385 938/930/385 937/929/385 

f 751/931/385 750/934/385 845/933/385 938/930/385 

