# Alias OBJ Model File
# Exported from SketchUp, (c) 2000-2012 Trimble Navigation Limited
# File units = millimeters

mtllib 9.mtl

g Mesh1 ___542_1 Model

usemtl _
v 86.2518 44.7791 -15.4839
vt 1.32437 0.19758
vn 0 0 1
v 67.8345 44.7791 -15.4839
vt 0.956212 0.19758
v 67.8345 25.0211 -15.4839
vt 0.956212 1.34026e-15
v 86.2518 25.0211 -15.4839
vt 1.32437 1.11466e-15
f 1/1/1 2/2/1 3/3/1 4/4/1 

vt -0.956212 0.03
vn 1.15881e-28 1 -0
vt -1.32437 0.03
v 86.2518 44.7791 -18.4839
vt -1.32437 9.90132e-16
v 67.8345 44.7791 -18.4839
vt -0.956212 8.7743e-17
f 2/5/2 1/6/2 5/7/2 6/8/2 

vt 0.394962 0.03
vn 1 -1.16057e-28 -0
vt 1.07857e-15 0.03
v 86.2518 25.0211 -18.4839
vt 1.07857e-15 1.47108e-16
vt 0.394962 1.0495e-15
f 1/9/3 4/10/3 7/11/3 5/12/3 

vt 1.32437 0.03
vn -1.22492e-15 -1 6.2115e-32
vt 0.956212 0.03
v 67.8345 25.0211 -18.4839
vt 0.956212 5.72461e-31
vt 1.32437 6.00003e-31
f 4/13/4 3/14/4 8/15/4 7/16/4 

vt -1.85653e-15 0.03
vn -1 1.16057e-28 -0
vt -0.394962 0.03
vt -0.394962 1.06214e-16
vt -1.40556e-15 1.06214e-16
f 3/17/5 2/18/5 6/19/5 8/20/5 

vt -0.956212 0.19758
vn 2.44985e-15 2.28361e-15 -1
vt -1.32437 0.19758
vt -1.32437 1.12799e-15
vt -0.956212 1.12799e-15
f 6/21/6 5/22/6 7/23/6 8/24/6 

g Mesh2 ___542_1 Model

v 34.4173 25.0211 -15.4839
vt 0.288201 2.46825e-15
v 52.8345 25.0211 -15.4839
vt 0.656362 2.69385e-15
v 52.8345 44.7791 -15.4839
vt 0.656362 0.19758
v 34.4173 44.7791 -15.4839
vt 0.288201 0.19758
f 9/25/1 10/26/1 11/27/1 12/28/1 

vt 0.656362 0.03
vn -1.17993e-28 -1 -0
vt 0.288201 0.03
v 34.4173 25.0211 -18.4839
vt 0.288201 1.04517e-30
v 52.8345 25.0211 -18.4839
vt 0.656362 1.07271e-30
f 10/29/7 9/30/7 13/31/7 14/32/7 

vt -4.70469e-15 0.03
vn -1 1.18417e-28 -0
v 34.4173 44.7791 -18.4839
vt -0.394962 3.20127e-17
vt -4.70469e-15 3.20127e-17
f 9/33/8 12/18/8 15/34/8 13/35/8 

vt -0.288201 0.03
vn 1.17993e-28 1 -0
vt -0.656362 0.03
v 52.8345 44.7791 -18.4839
vt -0.656362 8.7743e-17
vt -0.288201 8.7743e-17
f 12/36/9 11/37/9 16/38/9 15/39/9 

vn 1 -1.18417e-28 -0
vt 4.82866e-15 0.03
vt 4.82866e-15 7.29073e-17
vt 0.394962 7.29073e-17
f 11/9/10 10/40/10 14/41/10 16/42/10 

vt -0.656362 2.70717e-15
vn 0 0 -1
vt -0.288201 2.48157e-15
vt -0.288201 0.19758
vt -0.656362 0.19758
f 14/43/11 13/44/11 15/45/11 16/46/11 

g Mesh3 ___542_1 Model

v 0 25.0211 -15.4839
vt -0.3998 1.23694e-16
vn -8.41659e-30 -4.56722e-15 1
v 18.4173 25.0211 -15.4839
vt -0.0316391 1.23694e-16
v 18.4173 44.7791 -15.4839
vt -0.0316391 0.19758
v 1.77636e-14 44.7791 -15.4839
vt -0.3998 0.19758
f 17/47/12 18/48/12 19/49/12 20/50/12 

vt -0.0316391 0.03
vt -0.3998 0.03
v 0 25.0211 -18.4839
vt -0.3998 -2.9909e-32
v 18.4173 25.0211 -18.4839
vt -0.0316391 -2.36692e-33
f 18/51/4 17/52/4 21/53/4 22/54/4 

vt -3.55094e-16 0.03
v 1.77636e-14 44.7791 -18.4839
vt -0.394962 -4.44089e-17
vt -3.55094e-16 -4.44089e-17
f 17/55/5 20/18/5 23/56/5 21/57/5 

vt 0.3998 0.03
vn 2.44985e-15 1 -6.2115e-32
vt 0.0316391 0.03
v 18.4173 44.7791 -18.4839
vt 0.0316391 8.7743e-17
vt 0.3998 8.7743e-17
f 20/58/13 19/59/13 24/60/13 23/61/13 

vt 2.81012e-17 0.03
vt 2.81012e-17 -3.5144e-18
vt 0.394962 -3.5144e-18
f 19/9/3 18/62/3 22/63/3 24/64/3 

vt 0.0316391 1.56071e-33
vt 0.3998 1.97215e-32
vt 0.3998 0.19758
vt 0.0316391 0.19758
f 22/65/11 21/66/11 23/67/11 24/68/11 

g Mesh4 ___542_1 Model

v 119.669 44.7791 -15.4839
vt 1.99238 0.19758
v 101.252 44.7791 -15.4839
vt 1.62422 0.19758
v 101.252 25.0211 -15.4839
vt 1.62422 2.69385e-15
v 119.669 25.0211 -15.4839
vt 1.99238 2.91944e-15
f 25/69/1 26/70/1 27/71/1 28/72/1 

vt -1.62422 0.03
vt -1.99238 0.03
v 119.669 44.7791 -18.4839
vt -1.99238 9.90132e-16
v 101.252 44.7791 -18.4839
vt -1.62422 9.90132e-16
f 26/73/2 25/74/2 29/75/2 30/76/2 

vt 4.09301e-15 0.03
v 119.669 25.0211 -18.4839
vt 3.64204e-15 2.2131e-16
vt 0.394962 1.1237e-15
f 25/9/3 28/77/3 31/78/3 29/79/3 

vt 1.99238 0.03
vn -1.15881e-28 -1 -0
vt 1.62422 0.03
v 101.252 25.0211 -18.4839
vt 1.62422 8.81742e-31
vt 1.99238 8.09099e-31
f 28/80/14 27/81/14 32/82/14 31/83/14 

vt -3.96903e-15 0.03
vt -0.394962 1.0828e-15
vt -3.96903e-15 1.80415e-16
f 27/84/5 26/18/5 30/85/5 32/86/5 

vt -1.62422 0.19758
vn 0 4.56722e-15 -1
vt -1.99238 0.19758
vt -1.99238 2.70717e-15
vt -1.62422 2.70717e-15
f 30/87/15 29/88/15 31/89/15 32/90/15 

g Mesh5 ___543_1 Model

v 39.3044 10.8504 -1.19904e-14
vt 0 0.108504
vn -2.22045e-16 -4.44089e-16 1
v 39.3044 4.37872e-14 -1.68754e-14
vt 0 0
v 76.1671 1.10465e-14 -8.88178e-15
vt 0.736887 0
v 76.1671 10.8504 -3.9968e-15
vt 0.736887 0.108504
f 33/91/16 34/92/16 35/93/16 36/94/16 

vt 0 0.03
vn -1 8.88178e-16 -2.22045e-16
vt -0.216899 0.03
v 39.3044 10.8504 -3
vt -0.216899 0
v 39.3044 4.51195e-14 -3
f 34/95/17 33/96/17 37/97/17 38/92/17 

vn 8.88178e-16 1 4.44089e-16
vt -0.736887 0.03
v 76.1671 10.8504 -3
vt -0.736887 0
f 33/95/18 36/98/18 39/99/18 37/92/18 

vt 0.216899 0.03
vn 1 -8.88178e-16 2.22045e-16
v 76.1671 1.23788e-14 -3
vt 0.216899 0
f 36/100/19 35/95/19 40/92/19 39/101/19 

vt 0.736887 0.03
vn -8.88178e-16 -1 -4.44089e-16
f 35/102/20 34/95/20 38/92/20 40/93/20 

vn 2.22045e-16 4.44089e-16 -1
vt -0.736887 0.108504
f 38/92/21 37/91/21 39/103/21 40/99/21 

