# Alias OBJ Model File
# Exported from SketchUp, (c) 2000-2012 Trimble Navigation Limited
# File units = millimeters

mtllib 10.mtl

g Mesh1 ___436_1 Model

usemtl _
v 53.1172 2.81087 -160.086
vt 2.56488 0.459382
vn 5.56149e-16 0.936956 -0.349446
v 53.1172 13.4386 -131.59
vt 2.56488 0.155251
v 79.8777 18.8625 -117.047
vt 2.02994 3.61304e-05
v 154.643 18.8625 -117.047
vt 0.535391 3.61304e-05
v 181.419 13.4386 -131.59
vt 0.000136368 0.155251
v 181.403 2.81087 -160.086
vt 0.000447394 0.459382
f 1/1/1 2/2/1 3/3/1 4/4/1 5/5/1 6/6/1 

v 53.1172 3.55271e-15 -159.037
vt 0.918305 0
vn -1 -2.53776e-16 -2.27195e-15
v 53.1172 10.6278 -130.541
vt 0.310347 0
vt 0.310347 0.03
vt 0.918305 0.03
f 7/7/2 8/8/2 2/9/2 1/10/2 

v 154.643 16.0517 -115.998
vt -0.535391 3.61304e-05
vn -5.56149e-16 -0.936956 0.349446
v 79.8777 16.0517 -115.998
vt -2.02994 3.61304e-05
vt -2.56488 0.155251
vt -2.56488 0.459382
v 181.403 3.55271e-14 -159.037
vt -0.000447394 0.459382
v 181.419 10.6278 -130.541
vt -0.000136368 0.155251
f 9/11/3 10/12/3 8/13/3 7/14/3 11/15/3 12/16/3 

vt 2.02994 0
vn -2.06653e-15 0.349446 0.936956
vt 0.535391 0
vt 0.535391 0.03
vt 2.02994 0.03
f 10/17/4 9/18/4 4/19/4 3/20/4 

vt 0.463158 0
vn 0.501509 0.302324 0.81061
vt -0.155524 0
vt -0.155524 0.03
vt 0.463158 0.03
f 9/21/5 12/22/5 5/23/5 4/24/5 

vt -0.310347 0
vn 1 -0.000178773 -0.000479338
vt -0.918305 0
vt -0.918305 0.03
vt -0.310347 0.03
f 12/25/6 11/26/6 6/27/6 5/28/6 

vt -0.000447394 0
vn 2.2174e-15 -0.349446 -0.936956
vt -2.56488 0
vt -2.56488 0.03
vt -0.000447394 0.03
f 11/29/7 7/30/7 1/31/7 6/32/7 

vt 2.3744 0
vn -0.501727 0.30228 0.810492
vt 1.75599 0
vt 1.75599 0.03
vt 2.3744 0.03
f 8/33/8 10/34/8 3/35/8 2/36/8 

g Mesh2 ___436_2 Model

v 181.403 2.81087 -1.13687e-13
vn 2.09977e-17 0.936956 0.349446
v 181.419 13.4386 -28.4958
v 154.643 18.8625 -43.0387
v 79.8777 18.8625 -43.0387
v 53.1172 13.4386 -28.4958
v 53.1172 2.81087 -2.13163e-14
f 13/6/9 14/5/9 15/4/9 16/3/9 17/2/9 18/1/9 

vn 1 -0.000178773 0.000479338
v 181.403 5.32907e-14 -1.04834
v 181.419 10.6278 -29.5441
f 14/28/10 13/27/10 19/26/10 20/25/10 

vn 7.82523e-16 -0.349446 0.936956
v 53.1172 2.13163e-14 -1.04834
f 13/32/11 18/31/11 21/30/11 19/29/11 

vn -1 -2.53776e-16 7.40527e-16
v 53.1172 10.6278 -29.5441
f 18/10/12 17/9/12 22/8/12 21/7/12 

vn -0.501727 0.30228 -0.810492
v 79.8777 16.0517 -44.0871
f 17/36/13 16/35/13 23/34/13 22/33/13 

vn -6.31651e-16 0.349446 -0.936956
v 154.643 16.0517 -44.0871
f 16/20/14 15/19/14 24/18/14 23/17/14 

vn 0.501509 0.302324 -0.81061
f 15/24/15 14/23/15 20/22/15 24/21/15 

vn -2.09977e-17 -0.936956 -0.349446
f 20/16/16 19/15/16 21/14/16 22/13/16 23/12/16 24/11/16 

g Mesh3 ___426_1 ___427_1 Model

v 148.06 18.692 -113.828
vt 0 0.03
vn 1 0 7.65714e-16
v 148.06 58.796 -113.828
vt -0.801679 0.03
v 148.06 58.796 -110.828
vt -0.801679 0
v 148.06 18.692 -110.828
vt 0 0
f 25/37/17 26/38/17 27/39/17 28/40/17 

v 86.5829 58.796 -113.828
vt 1.16945 0.40104
vn 7.65714e-16 -2.22045e-16 -1
v 115.927 58.796 -113.828
vt 0.582873 0.40104
v 115.927 51.288 -113.828
vt 0.582873 0.32596
v 118.717 51.288 -113.828
vt 0.527101 0.32596
v 118.717 58.796 -113.828
vt 0.527101 0.40104
vt -0.059481 0.40104
vt -0.059481 9.6128e-33
v 142.109 18.692 -113.828
vt 0.059481 9.6128e-33
v 142.109 15.542 -113.828
vt 0.059481 -0.0315
v 129.011 15.542 -113.828
vt 0.321315 -0.0315
v 129.011 18.692 -113.828
vt 0.321315 9.6128e-33
v 105.655 18.692 -113.828
vt 0.788204 9.6128e-33
v 105.655 15.542 -113.828
vt 0.788204 -0.0315
v 92.5339 15.542 -113.828
vt 1.05049 -0.0315
v 92.5339 18.692 -113.828
vt 1.05049 9.6128e-33
v 86.5829 18.692 -113.828
vt 1.16945 9.6128e-33
f 29/41/18 30/42/18 31/43/18 32/44/18 33/45/18 26/46/18 25/47/18 34/48/18 35/49/18 36/50/18 37/51/18 38/52/18 39/53/18 40/54/18 41/55/18 42/56/18 

v 86.5829 58.796 -110.828
vt -1.16945 0
vn -3.5522e-11 1 -2.22045e-16
v 115.927 58.796 -110.828
vt -0.582873 0
vt -0.582873 0.03
vt -1.16945 0.03
f 43/57/19 44/58/19 30/59/19 29/60/19 

vt -1.16945 0.40104
vn -7.65714e-16 2.22045e-16 1
v 86.5829 18.692 -110.828
v 92.5339 18.692 -110.828
vt -1.05049 0
v 92.5339 15.542 -110.828
vt -1.05049 -0.0315
v 105.655 15.542 -110.828
vt -0.788204 -0.0315
v 105.655 18.692 -110.828
vt -0.788204 0
v 129.011 18.692 -110.828
vt -0.321315 0
v 129.011 15.542 -110.828
vt -0.321315 -0.0315
v 142.109 15.542 -110.828
vt -0.059481 -0.0315
v 142.109 18.692 -110.828
vt -0.059481 0
vt 0.059481 0
vt 0.059481 0.40104
v 118.717 58.796 -110.828
vt -0.527101 0.40104
v 118.717 51.288 -110.828
vt -0.527101 0.32596
v 115.927 51.288 -110.828
vt -0.582873 0.32596
vt -0.582873 0.40104
f 43/61/20 45/57/20 46/62/20 47/63/20 48/64/20 49/65/20 50/66/20 51/67/20 52/68/20 53/69/20 28/70/20 27/71/20 54/72/20 55/73/20 56/74/20 44/75/20 

vt 0.801679 0.03
vn -1 0 -7.65714e-16
vt 0.801679 0
f 29/76/21 42/37/21 45/40/21 43/77/21 

vt 1.16945 0.03
vn -1.70023e-31 -1 2.22045e-16
vt 1.05049 0.03
vt 1.05049 0
vt 1.16945 0
f 42/78/22 41/79/22 46/80/22 45/81/22 

vt -0.0629685 0.03
vt -0.0629685 0
f 46/40/21 41/37/21 40/82/21 47/83/21 

vt 0.788204 0
vt 0.788204 0.03
f 48/84/22 47/80/22 40/79/22 39/85/22 

vt 0.0629685 0
vt 0.0629685 0.03
f 38/37/17 49/40/17 48/86/17 39/87/17 

vt 0.321315 0.03
vt 0.321315 0
f 38/85/22 37/88/22 50/89/22 49/84/22 

f 50/40/21 37/37/21 36/82/21 51/83/21 

vt 0.059481 0.03
f 52/70/22 51/89/22 36/88/22 35/90/22 

f 34/37/17 53/40/17 52/86/17 35/87/17 

vt -0.059481 0.03
f 28/69/22 53/70/22 34/90/22 25/91/22 

vt -0.527101 0.03
vn 3.5522e-11 1 -2.22045e-16
vt -0.527101 0
f 33/92/23 54/93/23 27/70/23 26/90/23 

vt 0.651594 0.03
vt 0.651594 0
f 33/76/21 32/94/21 55/95/21 54/77/21 

vn 1.70023e-31 1 -2.22045e-16
f 32/92/24 31/59/24 56/58/24 55/93/24 

vt -0.651594 0.03
vt -0.651594 0
f 31/96/17 30/38/17 44/39/17 56/97/17 

g Mesh4 ___426_2 ___427_2 Model

v 151.06 18.692 -49.3508
vn -1.14857e-15 0 1
v 151.06 58.796 -49.3508
v 148.06 58.796 -49.3508
v 148.06 18.692 -49.3508
f 57/37/25 58/38/25 59/39/25 60/40/25 

v 151.06 58.796 -110.828
vn 1 -2.22045e-16 1.14857e-15
v 151.06 58.796 -81.4845
v 151.06 51.288 -81.4845
v 151.06 51.288 -78.6945
v 151.06 58.796 -78.6945
v 151.06 18.692 -55.3018
v 151.06 15.542 -55.3018
v 151.06 15.542 -68.4001
v 151.06 18.692 -68.4001
v 151.06 18.692 -91.7562
v 151.06 15.542 -91.7562
v 151.06 15.542 -104.877
v 151.06 18.692 -104.877
v 151.06 18.692 -110.828
f 61/41/26 62/42/26 63/43/26 64/44/26 65/45/26 58/46/26 57/47/26 66/48/26 67/49/26 68/50/26 69/51/26 70/52/26 71/53/26 72/54/26 73/55/26 74/56/26 

v 148.06 58.796 -110.828
vn 2.22045e-16 1 -3.5522e-11
v 148.06 58.796 -81.4845
f 75/57/27 76/58/27 62/59/27 61/60/27 

vn -1 2.22045e-16 -1.14857e-15
v 148.06 18.692 -110.828
v 148.06 18.692 -104.877
v 148.06 15.542 -104.877
v 148.06 15.542 -91.7562
v 148.06 18.692 -91.7562
v 148.06 18.692 -68.4001
v 148.06 15.542 -68.4001
v 148.06 15.542 -55.3018
v 148.06 18.692 -55.3018
v 148.06 58.796 -78.6945
v 148.06 51.288 -78.6945
v 148.06 51.288 -81.4845
f 75/61/28 77/57/28 78/62/28 79/63/28 80/64/28 81/65/28 82/66/28 83/67/28 84/68/28 85/69/28 60/70/28 59/71/28 86/72/28 87/73/28 88/74/28 76/75/28 

vn 1.14857e-15 0 -1
f 61/76/29 74/37/29 77/40/29 75/77/29 

vn -2.22045e-16 -1 -2.55034e-31
f 74/78/30 73/79/30 78/80/30 77/81/30 

f 78/40/29 73/37/29 72/82/29 79/83/29 

f 80/84/30 79/80/30 72/79/30 71/85/30 

f 70/37/25 81/40/25 80/86/25 71/87/25 

f 70/85/30 69/88/30 82/89/30 81/84/30 

f 82/40/29 69/37/29 68/82/29 83/83/29 

f 84/70/30 83/89/30 68/88/30 67/90/30 

f 66/37/25 85/40/25 84/86/25 67/87/25 

f 60/69/30 85/70/30 66/90/30 57/91/30 

vn 2.22045e-16 1 3.5522e-11
f 65/92/31 86/93/31 59/70/31 58/90/31 

f 65/76/29 64/94/29 87/95/29 86/77/29 

vn 2.22045e-16 1 2.55034e-31
f 64/92/32 63/59/32 88/58/32 87/93/32 

f 63/96/25 62/38/25 76/39/25 88/97/25 

g Mesh5 ___432_1 Model

v 51.3714 10.6123 -109.645
vt -0.684295 0
vn 2.791e-16 -2.0484e-16 -1
v 0.562438 0.914755 -109.645
vt -1.7183 0
v 1.09424e-12 3.86156 -109.645
vt -1.7183 0.03
v 50.809 13.5592 -109.645
vt -0.684295 0.03
f 89/98/33 90/99/33 91/100/33 92/101/33 

v 51.4286 10.6233 -50.2387
vt -1.71697 0.341737
vn 0.187479 -0.982269 2.53533e-16
v 0.562438 0.914755 -50.2387
vt -1.71697 0.859581
vt -0.529432 0.859581
vt -0.529432 0.342319
v 51.3714 10.6123 -136.13
vt 0 0.342319
v 80.5219 16.1761 -119.289
vt -0.336647 0.0455521
v 80.5219 16.1761 -40.5903
vt -1.90984 0.0455521
v 51.4286 10.6233 -23.7539
vt -2.2464 0.341737
f 93/102/34 94/103/34 90/104/34 89/105/34 95/106/34 96/107/34 97/108/34 98/109/34 

vt 1.7183 0
vn -2.791e-16 2.0484e-16 1
vt 0.683132 0
v 50.8662 13.5701 -50.2387
vt 0.683132 0.03
v 0 3.86156 -50.2387
vt 1.7183 0.03
f 94/110/35 93/111/35 99/112/35 100/113/35 

vt -1.71697 0
vn -0.982269 -0.187479 -2.35747e-16
vt -2.2464 0
v 50.8662 13.5701 -23.7539
vt -2.2464 0.03
vt -1.71697 0.03
f 93/114/36 98/115/36 101/116/36 99/117/36 

vt 1.70401 -7.58714e-14
vn 0.485418 0.0926487 0.869359
vt 1.02297 -7.58714e-14
v 80.5219 19.2303 -40.9157
vt 1.0098 0.03
vt 1.70401 0.03
f 98/118/37 97/119/37 102/120/37 101/121/37 

vt 0.336647 -0.00854008
vn 1 3.21178e-13 2.78808e-16
v 80.5219 19.2303 -118.964
vt 0.343143 0.0220015
vt 1.90333 0.0220015
vt 1.90984 -0.00854008
f 96/122/38 103/123/38 102/124/38 97/125/38 

v 50.809 13.5592 -136.13
vt -0.595145 0.03
vn 0.484794 0.0925295 -0.86972
vt 0.100116 0.03
vt 0.0869551 1.62889e-14
vt -0.595145 1.62889e-14
f 104/126/39 103/127/39 96/128/39 95/129/39 

vt 0.529432 0.342319
vn -0.187479 0.982269 -2.53381e-16
vt 0.529432 0.859581
vt 1.71697 0.859581
vt 1.71697 0.341737
vt 2.2464 0.341737
vt 1.90333 0.0398262
vt 0.343143 0.0398262
vt -9.13443e-21 0.342319
f 92/130/40 91/131/40 100/132/40 99/133/40 101/134/40 102/135/40 103/136/40 104/137/40 

vt -0.529432 0
vn -0.982269 -0.187479 -1.88436e-14
vt -0.529432 0.03
f 90/138/41 94/114/41 100/117/41 91/139/41 

f 95/40/36 89/138/36 92/139/36 104/37/36 

g Mesh6 ___432_2 Model

v 183.928 13.5592 -109.645
vn 4.86614e-16 -2.0484e-16 -1
v 234.737 3.86156 -109.645
v 234.174 0.914755 -109.645
v 183.365 10.6123 -109.645
f 105/101/42 106/100/42 107/99/42 108/98/42 

v 183.928 13.5592 -136.13
vn 0.187479 0.982269 -1.09825e-16
v 154.215 19.2303 -118.964
v 154.215 19.2303 -40.9157
v 183.871 13.5701 -23.7539
v 183.871 13.5701 -50.2387
v 234.737 3.86156 -50.2387
f 109/137/43 110/136/43 111/135/43 112/134/43 113/133/43 114/132/43 106/131/43 105/130/43 

v 183.365 10.6123 -136.13
vn -0.484794 0.0925295 -0.86972
v 154.215 16.1761 -119.289
f 115/129/44 116/128/44 110/127/44 109/126/44 

v 183.308 10.6233 -23.7539
vn -0.187479 -0.982269 1.09978e-16
v 154.215 16.1761 -40.5903
v 234.174 0.914755 -50.2387
v 183.308 10.6233 -50.2387
f 117/109/45 118/108/45 116/107/45 115/106/45 108/105/45 107/104/45 119/103/45 120/102/45 

vn -0.485418 0.0926487 0.869359
f 112/121/46 111/120/46 118/119/46 117/118/46 

vn -1 3.20758e-13 -4.86906e-16
f 118/125/47 111/124/47 110/123/47 116/122/47 

vn 0.982269 -0.187479 5.16389e-16
f 113/117/48 112/116/48 117/115/48 120/114/48 

vn -4.86614e-16 2.0484e-16 1
f 114/113/49 113/112/49 120/111/49 119/110/49 

vn 0.982269 -0.187479 -1.80915e-14
f 106/139/50 114/117/50 119/114/50 107/138/50 

f 109/37/48 105/139/48 108/138/48 115/40/48 

g Mesh7 ___438_1 Model

v 124.815 20.3976 -43.3508
vn -2.95823e-31 -1 -3.88578e-16
v 110.748 20.3976 -43.3508
vt -0.281205 0.03
v 110.748 20.3976 -46.3508
vt -0.281205 0
v 124.815 20.3976 -46.3508
f 121/37/51 122/140/51 123/141/51 124/40/51 

v 110.748 48.3586 -43.3508
vt 0.558939 0.140673
vn 3.88578e-16 -3.88578e-16 1
vt 0 0.140673
v 124.815 48.3586 -43.3508
vt 0.558939 0
f 125/142/52 122/143/52 121/40/52 126/144/52 

vn -1 1.4483e-31 3.88578e-16
vt -0.558939 0.03
v 110.748 48.3586 -46.3508
vt -0.558939 0
f 122/37/53 125/145/53 127/146/53 123/40/53 

vt 0.281205 0.03
vn 2.95823e-31 1 3.88578e-16
v 124.815 48.3586 -46.3508
vt 0.281205 0
f 125/147/54 126/37/54 128/40/54 127/148/54 

vt 0.558939 0.03
vn 1 -1.4483e-31 -3.88578e-16
f 126/149/55 121/37/55 124/40/55 128/144/55 

vn -3.88578e-16 3.88578e-16 -1
vt -0.558939 0.140673
f 123/143/56 127/150/56 128/146/56 124/40/56 

g Mesh8 ___425_1 Model

v 154.056 18.692 -43.1846
vt 1.46917 0
vn 0 1 -0
v 154.056 18.692 -116.68
vt 1.46917 0.734954
v 80.5609 18.692 -116.68
vt 0 0.734954
v 80.5609 18.692 -43.1846
f 129/151/57 130/152/57 131/153/57 132/40/57 

vt 1.46917 0.03
vn 1 0 -0
v 154.056 15.692 -43.1846
v 154.056 15.692 -116.68
f 130/154/58 129/37/58 133/40/58 134/151/58 

vn 0 0 1
v 80.5609 15.692 -43.1846
f 129/154/59 132/37/59 135/40/59 133/151/59 

vn -1 0 -0
vt -1.46917 0.03
v 80.5609 15.692 -116.68
vt -1.46917 0
f 132/37/60 131/155/60 136/156/60 135/40/60 

vn 0 0 -1
f 131/37/61 130/155/61 134/156/61 136/40/61 

vt -1.46917 0.734954
vn 0 -1 -0
f 134/157/62 133/156/62 135/40/62 136/153/62 

g Mesh9 ___426_3 ___427_3 Model

v 86.5829 18.692 -46.3508
vn -1 0 0
v 86.5829 58.796 -46.3508
v 86.5829 58.796 -49.3508
v 86.5829 18.692 -49.3508
f 137/37/63 138/38/63 139/39/63 140/40/63 

v 148.06 58.796 -46.3508
vn -1.60177e-36 -2.22045e-16 1
v 118.717 58.796 -46.3508
v 118.717 51.288 -46.3508
v 115.927 51.288 -46.3508
v 115.927 58.796 -46.3508
v 92.5339 18.692 -46.3508
v 92.5339 15.542 -46.3508
v 105.632 15.542 -46.3508
v 105.632 18.692 -46.3508
v 128.988 18.692 -46.3508
v 128.988 15.542 -46.3508
v 142.109 15.542 -46.3508
v 142.109 18.692 -46.3508
v 148.06 18.692 -46.3508
f 141/41/64 142/42/64 143/43/64 144/44/64 145/45/64 138/46/64 137/47/64 146/48/64 147/49/64 148/50/64 149/51/64 150/52/64 151/53/64 152/54/64 153/55/64 154/56/64 

v 148.06 58.796 -49.3508
vn 3.5522e-11 1 2.22045e-16
v 118.717 58.796 -49.3508
f 155/57/65 156/58/65 142/59/65 141/60/65 

vn 0 2.22045e-16 -1
v 148.06 18.692 -49.3508
v 142.109 18.692 -49.3508
v 142.109 15.542 -49.3508
v 128.988 15.542 -49.3508
v 128.988 18.692 -49.3508
v 105.632 18.692 -49.3508
v 105.632 15.542 -49.3508
v 92.5339 15.542 -49.3508
v 92.5339 18.692 -49.3508
v 115.927 58.796 -49.3508
v 115.927 51.288 -49.3508
v 118.717 51.288 -49.3508
f 155/61/66 157/57/66 158/62/66 159/63/66 160/64/66 161/65/66 162/66/66 163/67/66 164/68/66 165/69/66 140/70/66 139/71/66 166/72/66 167/73/66 168/74/66 156/75/66 

f 141/76/58 154/37/58 157/40/58 155/77/58 

vn 0 -1 -2.22045e-16
f 154/78/67 153/79/67 158/80/67 157/81/67 

f 158/40/58 153/37/58 152/82/58 159/83/58 

f 160/84/67 159/80/67 152/79/67 151/85/67 

f 150/37/63 161/40/63 160/86/63 151/87/63 

f 150/85/67 149/88/67 162/89/67 161/84/67 

f 162/40/58 149/37/58 148/82/58 163/83/58 

f 164/70/67 163/89/67 148/88/67 147/90/67 

f 146/37/63 165/40/63 164/86/63 147/87/63 

f 140/69/67 165/70/67 146/90/67 137/91/67 

vn -3.5522e-11 1 2.22045e-16
f 145/92/68 166/93/68 139/70/68 138/90/68 

f 145/76/58 144/94/58 167/95/58 166/77/58 

vn 0 1 2.22045e-16
f 144/92/69 143/59/69 168/58/69 167/93/69 

f 143/96/63 142/38/63 156/39/63 168/97/63 

g Mesh10 ___426_4 ___427_4 Model

v 83.5829 18.692 -110.828
vn 3.82857e-16 0 -1
v 83.5829 58.796 -110.828
v 86.5829 58.796 -110.828
v 86.5829 18.692 -110.828
f 169/37/70 170/38/70 171/39/70 172/40/70 

v 83.5829 58.796 -49.3508
vn -1 -2.22045e-16 -3.82857e-16
v 83.5829 58.796 -78.6945
v 83.5829 51.288 -78.6945
v 83.5829 51.288 -81.4845
v 83.5829 58.796 -81.4845
v 83.5829 18.692 -104.877
v 83.5829 15.542 -104.877
v 83.5829 15.542 -91.779
v 83.5829 18.692 -91.779
v 83.5829 18.692 -68.4229
v 83.5829 15.542 -68.4229
v 83.5829 15.542 -55.3018
v 83.5829 18.692 -55.3018
v 83.5829 18.692 -49.3508
f 173/41/71 174/42/71 175/43/71 176/44/71 177/45/71 170/46/71 169/47/71 178/48/71 179/49/71 180/50/71 181/51/71 182/52/71 183/53/71 184/54/71 185/55/71 186/56/71 

v 86.5829 58.796 -49.3508
vn -2.22045e-16 1 3.5522e-11
v 86.5829 58.796 -78.6945
f 187/57/72 188/58/72 174/59/72 173/60/72 

vn 1 2.22045e-16 3.82857e-16
v 86.5829 18.692 -49.3508
v 86.5829 18.692 -55.3018
v 86.5829 15.542 -55.3018
v 86.5829 15.542 -68.4229
v 86.5829 18.692 -68.4229
v 86.5829 18.692 -91.779
v 86.5829 15.542 -91.779
v 86.5829 15.542 -104.877
v 86.5829 18.692 -104.877
v 86.5829 58.796 -81.4845
v 86.5829 51.288 -81.4845
v 86.5829 51.288 -78.6945
f 187/61/73 189/57/73 190/62/73 191/63/73 192/64/73 193/65/73 194/66/73 195/67/73 196/68/73 197/69/73 172/70/73 171/71/73 198/72/73 199/73/73 200/74/73 188/75/73 

vn -3.82857e-16 0 1
f 173/76/74 186/37/74 189/40/74 187/77/74 

vn 2.22045e-16 -1 8.50113e-32
f 186/78/75 185/79/75 190/80/75 189/81/75 

f 190/40/74 185/37/74 184/82/74 191/83/74 

f 192/84/75 191/80/75 184/79/75 183/85/75 

f 182/37/70 193/40/70 192/86/70 183/87/70 

f 182/85/75 181/88/75 194/89/75 193/84/75 

f 194/40/74 181/37/74 180/82/74 195/83/74 

f 196/70/75 195/89/75 180/88/75 179/90/75 

f 178/37/70 197/40/70 196/86/70 179/87/70 

f 172/69/75 197/70/75 178/90/75 169/91/75 

vn -2.22045e-16 1 -3.5522e-11
f 177/92/76 198/93/76 171/70/76 170/90/76 

f 177/76/74 176/94/74 199/95/74 198/77/74 

vn -2.22045e-16 1 -8.50113e-32
f 176/92/77 175/59/77 200/58/77 199/93/77 

f 175/96/70 174/38/70 188/39/70 200/97/70 

