# Alias OBJ Model File
# Exported from SketchUp, (c) 2000-2012 Trimble Navigation Limited
# File units = millimeters

mtllib 1.mtl

g Mesh1 ___1312_1 Model

usemtl _
v 500 1.43818e-13 -497
vt -9.995 0
vn 0 -1 -0
v 0 1.43818e-13 -497
vt 0 0
v 0 1.43818e-13 -500
vt 0 0.03
v 500 1.43818e-13 -500
vt -9.995 0.03
f 1/1/1 2/2/1 3/3/1 4/4/1 

vt 9.995 2.56389e-30
vn 2.88321e-16 -1.7785e-15 1
v 500 7.5 -497
vt 9.995 0.075
v 497 7.5 -497
vt 9.93503 0.075
v 497 15 -497
vt 9.93503 0.15
v 375 15 -497
vt 7.49625 0.15
v 375 7.5 -497
vt 7.49625 0.075
v 372 7.5 -497
vt 7.43628 0.075
v 372 15 -497
vt 7.43628 0.15
v 251.5 15 -497
vt 5.02749 0.15
v 251.5 7.5 -497
vt 5.02749 0.075
v 248.5 7.5 -497
vt 4.96752 0.075
v 248.5 15 -497
vt 4.96752 0.15
v 128 15 -497
vt 2.55872 0.15
v 128 7.5 -497
vt 2.55872 0.075
v 125 7.5 -497
vt 2.49875 0.075
v 125 15 -497
vt 2.49875 0.15
v 3 15 -497
vt 0.05997 0.15
v 3 7.5 -497
vt 0.05997 0.075
v 3.60956e-13 7.5 -497
vt 7.2155e-15 0.075
f 1/5/2 5/6/2 6/7/2 7/8/2 8/9/2 9/10/2 10/11/2 11/12/2 12/13/2 13/14/2 14/15/2 15/16/2 16/17/2 17/18/2 18/19/2 19/20/2 20/21/2 21/22/2 22/23/2 2/2/2 

vt 0.05997 0
vn 1 0 -0
v 500 7.5 -500
vt 7.20402e-15 0.075
f 4/24/3 23/22/3 5/25/3 1/2/3 

v 375 15 -500
vt -7.49625 0.15
vn -3.82105e-16 -5.00833e-16 -1
v 497 15 -500
vt -9.93503 0.15
v 497 7.5 -500
vt -9.93503 0.075
vt -9.995 0.075
vt -9.995 1.5025e-17
vt -2.29148e-17 1.5025e-17
v 3.60956e-13 7.5 -500
vt -7.23842e-15 0.075
v 3 7.5 -500
vt -0.05997 0.075
v 3 15 -500
vt -0.05997 0.15
v 125 15 -500
vt -2.49875 0.15
v 125 7.5 -500
vt -2.49875 0.075
v 128 7.5 -500
vt -2.55872 0.075
v 128 15 -500
vt -2.55872 0.15
v 248.5 15 -500
vt -4.96752 0.15
v 248.5 7.5 -500
vt -4.96752 0.075
v 251.5 7.5 -500
vt -5.02749 0.075
v 251.5 15 -500
vt -5.02749 0.15
v 372 15 -500
vt -7.43628 0.15
v 372 7.5 -500
vt -7.43628 0.075
v 375 7.5 -500
vt -7.49625 0.075
f 24/26/4 25/27/4 26/28/4 23/29/4 4/30/4 3/31/4 27/32/4 28/33/4 29/34/4 30/35/4 31/36/4 32/37/4 33/38/4 34/39/4 35/40/4 36/41/4 37/42/4 38/43/4 39/44/4 40/45/4 

vt 9.93503 0.03
vn -2.88931e-16 1 3.61896e-14
vt 7.49625 0.03
vt 7.49625 5.42269e-15
vt 9.93503 5.42269e-15
f 25/46/5 24/47/5 8/48/5 7/49/5 

vt -7.20402e-15 0.075
vn -1 0 -0
vt 1.148e-17 0.15
f 9/50/6 8/51/6 24/34/6 40/33/6 

vt 7.43628 5.40859e-15
vn 0 1 2.40637e-14
vt 7.49625 5.40859e-15
vt 7.43628 0.03
f 10/52/7 9/53/7 40/47/7 39/54/7 

vt 7.20402e-15 0.15
f 11/55/3 10/25/3 39/22/3 38/21/3 

vn 7.31793e-29 1 2.44397e-14
vt 5.02749 0.03
vt 5.02749 3.66021e-15
vt 7.43628 7.26977e-15
f 38/54/8 37/56/8 12/57/8 11/58/8 

f 13/50/6 12/51/6 37/34/6 36/33/6 

vt 4.96752 5.40859e-15
vt 5.02749 5.40859e-15
vt 4.96752 0.03
f 14/59/7 13/60/7 36/56/7 35/61/7 

f 15/55/3 14/25/3 35/22/3 34/21/3 

vt 2.55872 0.03
vt 2.55872 3.66021e-15
vt 4.96752 7.26977e-15
f 34/61/8 33/62/8 16/63/8 15/64/8 

f 17/50/6 16/51/6 33/34/6 32/33/6 

vt 2.49875 5.40859e-15
vt 2.55872 5.40859e-15
vt 2.49875 0.03
f 18/65/7 17/66/7 32/62/7 31/67/7 

f 19/55/3 18/25/3 31/22/3 30/21/3 

vt 2.49875 5.43679e-15
vn -3.00488e-16 1 1.22199e-14
vt 0.05997 0.03
vt 0.05997 1.83298e-15
f 19/68/9 30/67/9 29/69/9 20/70/9 

vn -1 -4.81274e-14 8.01112e-31
vt 1.148e-17 0.075
vt 1.10427e-33 0.15
f 29/34/10 28/33/10 21/71/10 20/72/10 

vt 1.4431e-14 0.03
vn -4.81274e-14 1 -0
vt 1.4431e-14 -5.74285e-18
vt 0.05997 -5.74285e-18
f 27/73/11 22/74/11 21/75/11 28/69/11 

vn -1 4.81274e-14 4.33543e-30
vt -0.05997 6.25959e-45
f 2/2/12 22/71/12 27/33/12 3/76/12 

vt -1.148e-17 0.15
f 7/77/3 6/25/3 26/22/3 25/21/3 

vt 9.93503 7.19927e-15
vn 0 1 4.79394e-14
vt 9.995 7.19927e-15
vt 9.995 0.03
f 6/78/13 5/79/13 23/80/13 26/46/13 

g Mesh2 ___1312_2 Model

v 500 1.43818e-13 -125
v 0 1.43818e-13 -125
v 0 1.43818e-13 -128
v 500 1.43818e-13 -128
f 41/1/1 42/2/1 43/3/1 44/4/1 

v 500 7.5 -125
v 497 7.5 -125
v 497 15 -125
v 375 15 -125
v 375 7.5 -125
v 372 7.5 -125
v 372 15 -125
v 251.5 15 -125
v 251.5 7.5 -125
v 248.5 7.5 -125
v 248.5 15 -125
v 128 15 -125
v 128 7.5 -125
v 125 7.5 -125
v 125 15 -125
v 3 15 -125
v 3 7.5 -125
v 3.60956e-13 7.5 -125
f 41/5/2 45/6/2 46/7/2 47/8/2 48/9/2 49/10/2 50/11/2 51/12/2 52/13/2 53/14/2 54/15/2 55/16/2 56/17/2 57/18/2 58/19/2 59/20/2 60/21/2 61/22/2 62/23/2 42/2/2 

v 500 7.5 -128
f 44/24/3 63/22/3 45/25/3 41/2/3 

v 375 15 -128
v 497 15 -128
v 497 7.5 -128
v 3.60956e-13 7.5 -128
v 3 7.5 -128
v 3 15 -128
v 125 15 -128
v 125 7.5 -128
v 128 7.5 -128
v 128 15 -128
v 248.5 15 -128
v 248.5 7.5 -128
v 251.5 7.5 -128
v 251.5 15 -128
v 372 15 -128
v 372 7.5 -128
v 375 7.5 -128
f 64/26/4 65/27/4 66/28/4 63/29/4 44/30/4 43/31/4 67/32/4 68/33/4 69/34/4 70/35/4 71/36/4 72/37/4 73/38/4 74/39/4 75/40/4 76/41/4 77/42/4 78/43/4 79/44/4 80/45/4 

f 65/46/5 64/47/5 48/48/5 47/49/5 

f 49/50/6 48/51/6 64/34/6 80/33/6 

f 50/52/7 49/53/7 80/47/7 79/54/7 

f 51/55/3 50/25/3 79/22/3 78/21/3 

f 78/54/8 77/56/8 52/57/8 51/58/8 

f 53/50/6 52/51/6 77/34/6 76/33/6 

f 54/59/7 53/60/7 76/56/7 75/61/7 

f 55/55/3 54/25/3 75/22/3 74/21/3 

f 74/61/8 73/62/8 56/63/8 55/64/8 

f 57/50/6 56/51/6 73/34/6 72/33/6 

f 58/65/7 57/66/7 72/62/7 71/67/7 

f 59/55/3 58/25/3 71/22/3 70/21/3 

f 59/68/9 70/67/9 69/69/9 60/70/9 

f 69/34/10 68/33/10 61/71/10 60/72/10 

f 67/73/11 62/74/11 61/75/11 68/69/11 

f 42/2/12 62/71/12 67/33/12 43/76/12 

f 47/77/3 46/25/3 66/22/3 65/21/3 

f 46/78/13 45/79/13 63/80/13 66/46/13 

g Mesh3 ___1312_3 Model

v 500 1.43818e-13 -372
v 0 1.43818e-13 -372
v 0 1.43818e-13 -375
v 500 1.43818e-13 -375
f 81/1/1 82/2/1 83/3/1 84/4/1 

v 500 7.5 -372
v 497 7.5 -372
v 497 15 -372
v 375 15 -372
v 375 7.5 -372
v 372 7.5 -372
v 372 15 -372
v 251.5 15 -372
v 251.5 7.5 -372
v 248.5 7.5 -372
v 248.5 15 -372
v 128 15 -372
v 128 7.5 -372
v 125 7.5 -372
v 125 15 -372
v 3 15 -372
v 3 7.5 -372
v 3.60956e-13 7.5 -372
f 81/5/2 85/6/2 86/7/2 87/8/2 88/9/2 89/10/2 90/11/2 91/12/2 92/13/2 93/14/2 94/15/2 95/16/2 96/17/2 97/18/2 98/19/2 99/20/2 100/21/2 101/22/2 102/23/2 82/2/2 

v 500 7.5 -375
f 84/24/3 103/22/3 85/25/3 81/2/3 

v 375 15 -375
v 497 15 -375
v 497 7.5 -375
v 3.60956e-13 7.5 -375
v 3 7.5 -375
v 3 15 -375
v 125 15 -375
v 125 7.5 -375
v 128 7.5 -375
v 128 15 -375
v 248.5 15 -375
v 248.5 7.5 -375
v 251.5 7.5 -375
v 251.5 15 -375
v 372 15 -375
v 372 7.5 -375
v 375 7.5 -375
f 104/26/4 105/27/4 106/28/4 103/29/4 84/30/4 83/31/4 107/32/4 108/33/4 109/34/4 110/35/4 111/36/4 112/37/4 113/38/4 114/39/4 115/40/4 116/41/4 117/42/4 118/43/4 119/44/4 120/45/4 

f 105/46/5 104/47/5 88/48/5 87/49/5 

f 89/50/6 88/51/6 104/34/6 120/33/6 

f 90/52/7 89/53/7 120/47/7 119/54/7 

f 91/55/3 90/25/3 119/22/3 118/21/3 

f 118/54/8 117/56/8 92/57/8 91/58/8 

f 93/50/6 92/51/6 117/34/6 116/33/6 

f 94/59/7 93/60/7 116/56/7 115/61/7 

f 95/55/3 94/25/3 115/22/3 114/21/3 

f 114/61/8 113/62/8 96/63/8 95/64/8 

f 97/50/6 96/51/6 113/34/6 112/33/6 

f 98/65/7 97/66/7 112/62/7 111/67/7 

f 99/55/3 98/25/3 111/22/3 110/21/3 

f 99/68/9 110/67/9 109/69/9 100/70/9 

f 109/34/10 108/33/10 101/71/10 100/72/10 

f 107/73/11 102/74/11 101/75/11 108/69/11 

f 82/2/12 102/71/12 107/33/12 83/76/12 

f 87/77/3 86/25/3 106/22/3 105/21/3 

f 86/78/13 85/79/13 103/80/13 106/46/13 

g Mesh4 ___1313_1 Model

v 0 15 -0
v 0 15 -500
vt 0 5
v 500 15 -500
vt -9.995 5
v 500 15 -0
f 121/2/1 122/81/1 123/82/1 124/1/1 

v 0 18 -0
v 0 18 -500
f 125/3/6 126/4/6 122/1/6 121/2/6 

vn 0 1 -0
v 74.2848 18 -229.41
vt 1.48495 2.2941
f 125/2/14 127/83/14 126/81/14

v 154.947 18 -70.5
vt 3.0974 0.705
f 127/83/14 125/2/14 128/84/14

v 500 18 -0
vt 9.995 0
f 128/84/14 125/2/14 129/85/14

vn 0 0 1
f 129/80/15 125/3/15 121/2/15 124/85/15 

v 500 18 -500
f 130/80/3 129/3/3 124/2/3 123/85/3 

vt 9.995 5
v 425.715 18 -359.509
vt 8.51005 3.59509
f 130/86/14 131/87/14 129/85/14

v 422.715 18 -359.509
vt 8.45008 3.59509
f 130/86/14 132/88/14 131/87/14

v 394.927 18 -359.509
vt 7.89458 3.59509
f 130/86/14 133/89/14 132/88/14

v 384.249 18 -359.509
vt 7.68115 3.59509
f 130/86/14 134/90/14 133/89/14

v 358.039 18 -392.993
vt 7.15719 3.92993
f 130/86/14 135/91/14 134/90/14

v 352.046 18 -392.993
vt 7.03739 3.92993
f 130/86/14 136/92/14 135/91/14

v 348.046 18 -392.993
vt 6.95743 3.92993
f 130/86/14 137/93/14 136/92/14

v 345.053 18 -429.32
vt 6.8976 4.2932
f 130/86/14 138/94/14 137/93/14

v 325.053 18 -429.32
vt 6.4978 4.2932
f 130/86/14 139/95/14 138/94/14

v 313.053 18 -429.32
vt 6.25792 4.2932
f 130/86/14 140/96/14 139/95/14

v 186.947 18 -429.32
vt 3.73708 4.2932
f 130/86/14 141/97/14 140/96/14

v 174.947 18 -429.32
vt 3.4972 4.2932
f 130/86/14 142/98/14 141/97/14

v 154.947 18 -429.32
vt 3.0974 4.2932
f 130/86/14 143/99/14 142/98/14

f 126/81/14 143/99/14 130/86/14

v 77.2848 18 -359.509
vt 1.54492 3.59509
f 143/99/14 126/81/14 144/100/14

v 74.2848 18 -338.38
vt 1.48495 3.3838
f 144/100/14 126/81/14 145/101/14

f 145/101/14 126/81/14 127/83/14

v 74.2848 18 -232.41
vt 1.48495 2.3241
f 145/101/14 127/83/14 146/102/14

v 77.2848 18 -232.41
vt 1.54492 2.3241
vn 3.73734e-17 1 -6.40343e-16
v 86.8751 18 -229.41
vt 1.73663 2.2941
v 86.8751 18 -232.41
vt 1.73663 2.3241
f 147/103/16 146/102/16 127/83/16 148/104/16 149/105/16 

v 74.2848 18 -248.96
vt 1.48495 2.4896
f 147/103/14 150/106/14 146/102/14

v 77.2848 18 -248.96
vt 1.54492 2.4896
f 150/106/14 147/103/14 151/107/14

f 151/107/14 147/103/14 149/105/14

vn -4.69994e-16 1 8.51925e-17
f 150/106/17 146/102/17 147/103/17 151/107/17 

f 145/101/14 146/102/14 150/106/14

v 74.2848 18 -262.38
vt 1.48495 2.6238
f 145/101/14 150/106/14 152/108/14

v 77.2848 18 -262.38
vt 1.54492 2.6238
f 151/107/14 153/109/14 152/108/14 150/106/14 

f 151/107/14 149/105/14 153/109/14

v 77.2848 18 -324.96
vt 1.54492 3.2496
f 153/109/14 149/105/14 154/110/14

v 77.2848 18 -338.38
vt 1.54492 3.3838
f 154/110/14 149/105/14 155/111/14

v 77.2848 18 -356.509
vt 1.54492 3.56509
f 155/111/14 149/105/14 156/112/14

v 105.073 18 -356.509
vt 2.10042 3.56509
f 156/112/14 149/105/14 157/113/14

v 95.4773 18 -232.41
vt 1.90859 2.3241
f 157/113/14 149/105/14 158/114/14

v 95.4773 18 -229.41
vt 1.90859 2.2941
f 158/114/14 149/105/14 159/115/14

vn 0 1 -9.39989e-16
f 158/114/18 149/105/18 148/104/18 159/115/18 

vn 4.46214e-18 1 1.4233e-17
v 122.875 18 -232.41
vt 2.45627 2.3241
v 131.477 18 -232.41
vt 2.62823 2.3241
v 141.961 18 -232.41
vt 2.83781 2.3241
v 141.961 18 -296.636
vt 2.83781 2.96636
v 141.961 18 -319.468
vt 2.83781 3.19468
v 141.961 18 -356.509
vt 2.83781 3.56509
v 115.751 18 -356.509
vt 2.31385 3.56509
f 156/112/19 155/111/19 154/110/19 153/109/19 151/107/19 147/103/19 149/105/19 158/114/19 160/116/19 161/117/19 162/118/19 163/119/19 164/120/19 165/121/19 166/122/19 157/113/19 

f 144/100/14 155/111/14 156/112/14

f 144/100/14 145/101/14 155/111/14

v 74.2848 18 -359.509
vt 1.48495 3.59509
f 156/112/14 144/100/14 167/123/14 145/101/14 155/111/14 

v 105.073 18 -359.509
vt 2.10042 3.59509
f 168/124/14 144/100/14 156/112/14 157/113/14 

f 143/99/14 144/100/14 168/124/14

v 115.751 18 -359.509
vt 2.31385 3.59509
f 143/99/14 168/124/14 169/125/14

f 169/125/14 168/124/14 166/122/14

f 157/113/14 166/122/14 169/125/14 168/124/14 

v 144.961 18 -356.509
vt 2.89778 3.56509
v 190.073 18 -356.509
vt 3.79957 3.56509
v 190.073 18 -359.509
vt 3.79957 3.59509
v 144.961 18 -359.509
vt 2.89778 3.59509
v 141.961 18 -359.509
vt 2.83781 3.59509
f 166/122/14 165/121/14 170/126/14 171/127/14 172/128/14 173/129/14 174/130/14 169/125/14 

f 166/122/14 160/116/14 165/121/14

f 168/124/14 160/116/14 166/122/14

f 157/113/14 160/116/14 168/124/14

f 157/113/14 158/114/14 160/116/14

vn 1.54724e-30 1 -9.39989e-16
v 122.875 18 -229.41
vt 2.45627 2.2941
f 160/116/20 158/114/20 159/115/20 175/131/20 

v 141.961 18 -106.826
vt 2.83781 1.06826
f 159/115/14 176/132/14 175/131/14

f 159/115/14 128/84/14 176/132/14

f 149/105/14 128/84/14 159/115/14

f 148/104/14 128/84/14 149/105/14

f 127/83/14 128/84/14 148/104/14

v 147.954 18 -106.826
vt 2.95761 1.06826
f 176/132/14 128/84/14 177/133/14

v 151.954 18 -106.826
vt 3.03757 1.06826
f 177/133/14 128/84/14 178/134/14

v 154.947 18 -106.826
vt 3.0974 1.06826
f 128/84/14 179/135/14 178/134/14

v 154.947 18 -73.5
vt 3.0974 0.735
f 179/135/14 128/84/14 180/136/14

v 174.947 18 -70.5
vt 3.4972 0.705
v 174.947 18 -73.5
vt 3.4972 0.735
v 157.947 18 -73.5
vt 3.15737 0.735
f 128/84/14 181/137/14 182/138/14 183/139/14 180/136/14 

f 128/84/14 129/85/14 181/137/14

v 186.947 18 -70.5
vt 3.73708 0.705
f 181/137/14 129/85/14 184/140/14

v 313.053 18 -70.5
vt 6.25792 0.705
f 184/140/14 129/85/14 185/141/14

v 325.053 18 -70.5
vt 6.4978 0.705
f 185/141/14 129/85/14 186/142/14

v 345.053 18 -70.5
vt 6.8976 0.705
f 186/142/14 129/85/14 187/143/14

v 345.053 18 -73.5
vt 6.8976 0.735
f 187/143/14 129/85/14 188/144/14

v 345.053 18 -84.6632
vt 6.8976 0.846632
f 188/144/14 129/85/14 189/145/14

v 345.053 18 -92.6632
vt 6.8976 0.926632
f 189/145/14 129/85/14 190/146/14

v 345.053 18 -106.826
vt 6.8976 1.06826
f 190/146/14 129/85/14 191/147/14

v 348.046 18 -106.826
vt 6.95743 1.06826
f 191/147/14 129/85/14 192/148/14

v 352.046 18 -106.826
vt 7.03739 1.06826
f 192/148/14 129/85/14 193/149/14

v 358.039 18 -106.826
vt 7.15719 1.06826
f 193/149/14 129/85/14 194/150/14

v 358.039 18 -109.826
vt 7.15719 1.09826
f 194/150/14 129/85/14 195/151/14

v 358.039 18 -128.204
vt 7.15719 1.28204
f 195/151/14 129/85/14 196/152/14

v 358.039 18 -141.103
vt 7.15719 1.41103
f 196/152/14 129/85/14 197/153/14

v 358.039 18 -194.204
vt 7.15719 1.94204
f 197/153/14 129/85/14 198/154/14

v 358.039 18 -207.103
vt 7.15719 2.07103
f 198/154/14 129/85/14 199/155/14

v 358.039 18 -229.41
vt 7.15719 2.2941
f 199/155/14 129/85/14 200/156/14

v 368.523 18 -229.41
vt 7.36677 2.2941
f 200/156/14 129/85/14 201/157/14

v 377.125 18 -229.41
vt 7.53873 2.2941
f 201/157/14 129/85/14 202/158/14

v 404.523 18 -229.41
vt 8.08641 2.2941
f 202/158/14 129/85/14 203/159/14

v 413.125 18 -229.41
vt 8.25837 2.2941
f 203/159/14 129/85/14 204/160/14

v 425.715 18 -229.41
vt 8.51005 2.2941
f 204/160/14 129/85/14 205/161/14

v 425.715 18 -232.41
vt 8.51005 2.3241
f 205/161/14 129/85/14 206/162/14

v 425.715 18 -248.96
vt 8.51005 2.4896
f 206/162/14 129/85/14 207/163/14

v 425.715 18 -262.38
vt 8.51005 2.6238
f 207/163/14 129/85/14 208/164/14

v 425.715 18 -324.96
vt 8.51005 3.2496
f 208/164/14 129/85/14 209/165/14

v 425.715 18 -338.38
vt 8.51005 3.3838
f 209/165/14 129/85/14 210/166/14

f 210/166/14 129/85/14 131/87/14

v 422.715 18 -356.509
vt 8.45008 3.56509
v 422.715 18 -338.38
vt 8.45008 3.3838
f 132/88/14 211/167/14 212/168/14 210/166/14 131/87/14 

v 394.927 18 -356.509
vt 7.89458 3.56509
f 132/88/14 133/89/14 213/169/14 211/167/14 

v 384.249 18 -356.509
vt 7.68115 3.56509
f 214/170/14 213/169/14 133/89/14 134/90/14 

vn -4.46214e-18 1 1.4233e-17
v 358.039 18 -356.509
vt 7.15719 3.56509
v 358.039 18 -319.468
vt 7.15719 3.19468
v 358.039 18 -296.636
vt 7.15719 2.96636
v 358.039 18 -232.41
vt 7.15719 2.3241
v 368.523 18 -232.41
vt 7.36677 2.3241
v 377.125 18 -232.41
vt 7.53873 2.3241
v 404.523 18 -232.41
vt 8.08641 2.3241
v 413.125 18 -232.41
vt 8.25837 2.3241
v 422.715 18 -232.41
vt 8.45008 2.3241
v 422.715 18 -248.96
vt 8.45008 2.4896
v 422.715 18 -262.38
vt 8.45008 2.6238
v 422.715 18 -324.96
vt 8.45008 3.2496
f 212/168/21 211/167/21 213/169/21 214/170/21 215/171/21 216/172/21 217/173/21 218/174/21 219/175/21 220/176/21 221/177/21 222/178/21 223/179/21 224/180/21 225/181/21 226/182/21 

v 358.039 18 -359.509
vt 7.15719 3.59509
v 355.039 18 -359.509
vt 7.09722 3.59509
v 309.927 18 -359.509
vt 6.19543 3.59509
v 309.927 18 -356.509
vt 6.19543 3.56509
v 355.039 18 -356.509
vt 7.09722 3.56509
f 215/171/14 214/170/14 134/90/14 227/183/14 228/184/14 229/185/14 230/186/14 231/187/14 

v 358.039 18 -389.993
vt 7.15719 3.89993
f 134/90/14 232/188/14 227/183/14

f 232/188/14 134/90/14 135/91/14

v 352.046 18 -389.993
vt 7.03739 3.89993
v 355.039 18 -389.993
vt 7.09722 3.89993
f 135/91/14 136/92/14 233/189/14 234/190/14 232/188/14 

v 348.046 18 -389.993
vt 6.95743 3.89993
f 235/191/14 233/189/14 136/92/14 137/93/14 

f 235/191/14 228/184/14 233/189/14

v 342.053 18 -389.993
vt 6.83763 3.89993
f 236/192/14 228/184/14 235/191/14

v 325.053 18 -426.32
vt 6.4978 4.2632
f 237/193/14 228/184/14 236/192/14

v 313.053 18 -426.32
vt 6.25792 4.2632
f 238/194/14 228/184/14 237/193/14

f 238/194/14 229/185/14 228/184/14

v 299.249 18 -359.509
vt 5.982 3.59509
f 238/194/14 239/195/14 229/185/14

v 250 18 -359.509
vt 4.9975 3.59509
f 238/194/14 240/196/14 239/195/14

v 200.751 18 -359.509
vt 4.013 3.59509
f 238/194/14 241/197/14 240/196/14

f 238/194/14 172/128/14 241/197/14

v 186.947 18 -426.32
vt 3.73708 4.2632
f 242/198/14 172/128/14 238/194/14

v 174.947 18 -426.32
vt 3.4972 4.2632
f 243/199/14 172/128/14 242/198/14

v 157.947 18 -426.32
vt 3.15737 4.2632
f 244/200/14 172/128/14 243/199/14

v 157.947 18 -415.156
vt 3.15737 4.15156
f 245/201/14 172/128/14 244/200/14

v 157.947 18 -407.156
vt 3.15737 4.07156
f 246/202/14 172/128/14 245/201/14

v 157.947 18 -392.993
vt 3.15737 3.92993
f 247/203/14 172/128/14 246/202/14

v 157.947 18 -389.993
vt 3.15737 3.89993
f 248/204/14 172/128/14 247/203/14

v 151.954 18 -389.993
vt 3.03757 3.89993
f 249/205/14 172/128/14 248/204/14

v 147.954 18 -392.993
vt 2.95761 3.92993
f 250/206/14 172/128/14 249/205/14

v 147.954 18 -389.993
vt 2.95761 3.89993
f 251/207/14 172/128/14 250/206/14

v 144.961 18 -389.993
vt 2.89778 3.89993
f 252/208/14 172/128/14 251/207/14

f 172/128/14 252/208/14 173/129/14

v 141.961 18 -389.993
vt 2.83781 3.89993
f 174/130/14 173/129/14 252/208/14 253/209/14 

v 141.961 18 -392.993
vt 2.83781 3.92993
f 250/206/14 254/210/14 253/209/14 252/208/14 251/207/14 

f 143/99/14 254/210/14 250/206/14

f 143/99/14 169/125/14 254/210/14

f 254/210/14 169/125/14 174/130/14

f 254/210/14 174/130/14 253/209/14

v 151.954 18 -392.993
vt 3.03757 3.92993
f 143/99/14 250/206/14 255/211/14

f 255/211/14 250/206/14 249/205/14

f 251/207/14 249/205/14 255/211/14 250/206/14 

v 154.947 18 -392.993
vt 3.0974 3.92993
f 249/205/14 248/204/14 247/203/14 256/212/14 255/211/14 

v 154.947 18 -407.156
vt 3.0974 4.07156
f 257/213/14 256/212/14 247/203/14 246/202/14 

v 154.947 18 -415.156
vt 3.0974 4.15156
f 258/214/14 256/212/14 257/213/14

v 154.947 18 -426.32
vt 3.0974 4.2632
f 259/215/14 256/212/14 258/214/14

f 256/212/14 259/215/14 255/211/14

f 143/99/14 255/211/14 259/215/14

f 244/200/14 243/199/14 142/98/14 143/99/14 259/215/14 

f 243/199/14 242/198/14 141/97/14 142/98/14 

f 242/198/14 238/194/14 140/96/14 141/97/14 

f 238/194/14 237/193/14 139/95/14 140/96/14 

v 342.053 18 -426.32
vt 6.83763 4.2632
v 345.053 18 -426.32
vt 6.8976 4.2632
f 138/94/14 139/95/14 237/193/14 260/216/14 261/217/14 

f 236/192/14 260/216/14 237/193/14

v 342.053 18 -392.993
vt 6.83763 3.92993
f 260/216/14 236/192/14 262/218/14

v 345.053 18 -392.993
vt 6.8976 3.92993
f 236/192/14 235/191/14 137/93/14 263/219/14 262/218/14 

v 345.053 18 -407.156
vt 6.8976 4.07156
f 137/93/14 264/220/14 263/219/14

v 345.053 18 -415.156
vt 6.8976 4.15156
f 264/220/14 137/93/14 265/221/14

f 265/221/14 137/93/14 261/217/14

f 261/217/14 137/93/14 138/94/14

v 342.053 18 -415.156
vt 6.83763 4.15156
f 260/216/14 266/222/14 265/221/14 261/217/14 

v 342.053 18 -407.156
vt 6.83763 4.07156
f 260/216/14 267/223/14 266/222/14

f 260/216/14 262/218/14 267/223/14

f 263/219/14 264/220/14 267/223/14 262/218/14 

f 264/220/14 265/221/14 266/222/14 267/223/14 

f 245/201/14 244/200/14 259/215/14 258/214/14 

f 258/214/14 246/202/14 245/201/14

f 258/214/14 257/213/14 246/202/14

f 258/214/14 257/213/14 246/202/14 245/201/14 

v 200.645 18 -348.733
vt 4.01089 3.48733
f 241/197/14 172/128/14 268/224/14

v 200.751 18 -356.509
vt 4.013 3.56509
f 171/127/14 269/225/14 241/197/14 172/128/14 

f 241/197/14 268/224/14 269/225/14

v 205.005 18 -163.832
vt 4.09805 1.63832
f 268/224/14 270/226/14 269/225/14

v 200.645 18 -346.743
vt 4.01089 3.46743
f 271/227/14 270/226/14 268/224/14

v 196.005 18 -165.821
vt 3.91814 1.65821
f 272/228/14 270/226/14 271/227/14

v 313.053 18 -73.5
vt 6.25792 0.735
f 272/228/14 273/229/14 270/226/14

v 196.005 18 -163.832
vt 3.91814 1.63832
f 274/230/14 273/229/14 272/228/14

v 186.947 18 -73.5
vt 3.73708 0.735
f 274/230/14 275/231/14 273/229/14

f 274/230/14 182/138/14 275/231/14

v 171.309 18 -163.832
vt 3.42447 1.63832
f 276/232/14 182/138/14 274/230/14

v 157.947 18 -109.826
vt 3.15737 1.09826
f 277/233/14 182/138/14 276/232/14

v 157.947 18 -106.826
vt 3.15737 1.06826
f 278/234/14 182/138/14 277/233/14

v 157.947 18 -92.6632
vt 3.15737 0.926632
f 279/235/14 182/138/14 278/234/14

v 157.947 18 -84.6632
vt 3.15737 0.846632
f 280/236/14 182/138/14 279/235/14

f 182/138/14 280/236/14 183/139/14

v 154.947 18 -84.6632
vt 3.0974 0.846632
f 281/237/14 180/136/14 183/139/14 280/236/14 

f 179/135/14 180/136/14 281/237/14

v 154.947 18 -92.6632
vt 3.0974 0.926632
f 179/135/14 281/237/14 282/238/14

f 280/236/14 279/235/14 282/238/14 281/237/14 

f 279/235/14 278/234/14 179/135/14 282/238/14 

v 151.954 18 -109.826
vt 3.03757 1.09826
f 178/134/14 179/135/14 278/234/14 277/233/14 283/239/14 

v 171.309 18 -346.609
vt 3.42447 3.46609
f 284/240/14 283/239/14 277/233/14

v 147.954 18 -109.826
vt 2.95761 1.09826
f 284/240/14 285/241/14 283/239/14

f 170/126/14 285/241/14 284/240/14

v 144.961 18 -319.468
vt 2.89778 3.19468
f 286/242/14 285/241/14 170/126/14

v 144.961 18 -296.636
vt 2.89778 2.96636
f 287/243/14 285/241/14 286/242/14

v 144.961 18 -229.41
vt 2.89778 2.2941
f 288/244/14 285/241/14 287/243/14

v 144.961 18 -207.103
vt 2.89778 2.07103
f 289/245/14 285/241/14 288/244/14

v 144.961 18 -194.204
vt 2.89778 1.94204
f 290/246/14 285/241/14 289/245/14

v 144.961 18 -141.103
vt 2.89778 1.41103
f 291/247/14 285/241/14 290/246/14

v 144.961 18 -128.204
vt 2.89778 1.28204
f 292/248/14 285/241/14 291/247/14

v 144.961 18 -109.826
vt 2.89778 1.09826
f 285/241/14 292/248/14 293/249/14

v 141.961 18 -128.204
vt 2.83781 1.28204
v 141.961 18 -109.826
vt 2.83781 1.09826
f 294/250/14 295/251/14 293/249/14 292/248/14 

v 141.961 18 -229.41
vt 2.83781 2.2941
f 296/252/14 295/251/14 294/250/14

f 296/252/14 176/132/14 295/251/14

v 131.477 18 -229.41
vt 2.62823 2.2941
f 176/132/14 296/252/14 297/253/14

vn -1.34489e-16 1 -4.69994e-16
f 162/118/22 161/117/22 297/253/22 296/252/22 

f 165/121/14 161/117/14 162/118/14

f 165/121/14 160/116/14 161/117/14

f 161/117/14 160/116/14 297/253/14

f 161/117/18 160/116/18 175/131/18 297/253/18 

f 175/131/14 176/132/14 160/116/14

f 160/116/14 176/132/14 297/253/14

f 165/121/14 162/118/14 163/119/14

f 163/119/14 162/118/14 296/252/14 288/244/14 287/243/14 

v 141.961 18 -207.103
vt 2.83781 2.07103
f 289/245/14 288/244/14 296/252/14 298/254/14 

v 141.961 18 -194.204
vt 2.83781 1.94204
f 296/252/14 299/255/14 298/254/14

v 141.961 18 -141.103
vt 2.83781 1.41103
f 296/252/14 300/256/14 299/255/14

f 296/252/14 294/250/14 300/256/14

f 292/248/14 291/247/14 300/256/14 294/250/14 

f 291/247/14 290/246/14 299/255/14 300/256/14 

f 290/246/14 289/245/14 298/254/14 299/255/14 

f 287/243/14 164/120/14 163/119/14

f 164/120/14 287/243/14 286/242/14

f 164/120/14 163/119/14 287/243/14 286/242/14 

f 165/121/14 163/119/14 164/120/14

f 286/242/14 170/126/14 165/121/14 164/120/14 

f 293/249/14 295/251/14 176/132/14 177/133/14 285/241/14 

f 177/133/14 178/134/14 283/239/14 285/241/14 

f 170/126/14 284/240/14 171/127/14

v 173.299 18 -346.609
vt 3.46424 3.46609
f 171/127/14 284/240/14 301/257/14

v 173.299 18 -312.916
vt 3.46424 3.12916
vn 0 1 -1.67394e-16
v 171.309 18 -312.916
vt 3.42447 3.12916
f 302/258/23 301/257/23 284/240/23 303/259/23 

f 302/258/14 272/228/14 301/257/14

v 173.299 18 -304.274
vt 3.46424 3.04274
f 304/260/14 272/228/14 302/258/14

v 173.299 18 -262.916
vt 3.46424 2.62916
f 305/261/14 272/228/14 304/260/14

v 173.299 18 -254.274
vt 3.46424 2.54274
f 306/262/14 272/228/14 305/261/14

v 173.299 18 -188.916
vt 3.46424 1.88916
f 307/263/14 272/228/14 306/262/14

v 173.299 18 -180.274
vt 3.46424 1.80274
f 308/264/14 272/228/14 307/263/14

v 173.299 18 -165.821
vt 3.46424 1.65821
f 272/228/14 308/264/14 309/265/14

v 171.309 18 -180.274
vt 3.42447 1.80274
v 171.309 18 -165.821
vt 3.42447 1.65821
f 310/266/14 311/267/14 309/265/14 308/264/14 

f 284/240/14 311/267/14 310/266/14

f 284/240/14 276/232/14 311/267/14

f 284/240/14 277/233/14 276/232/14

vn -2.61556e-16 1 2.34372e-15
f 272/228/24 309/265/24 311/267/24 276/232/24 274/230/24 

vn 6.26659e-16 1 2.83471e-15
v 205.005 18 -165.821
vt 4.09805 1.65821
f 274/230/25 270/226/25 312/268/25 272/228/25 

f 312/268/14 269/225/14 270/226/14

v 250 18 -356.509
vt 4.9975 3.56509
f 269/225/14 312/268/14 313/269/14

v 231.005 18 -165.821
vt 4.61779 1.65821
f 313/269/14 312/268/14 314/270/14

vn -2.1692e-16 1 2.83471e-15
v 231.005 18 -163.832
vt 4.61779 1.63832
f 270/226/26 315/271/26 314/270/26 312/268/26 

f 270/226/14 273/229/14 315/271/14

f 315/271/14 273/229/14 314/270/14

v 240.005 18 -163.832
vt 4.7977 1.63832
f 314/270/14 273/229/14 316/272/14

v 250.005 18 -163.832
vt 4.9976 1.63832
f 316/272/14 273/229/14 317/273/14

v 260.005 18 -163.832
vt 5.1975 1.63832
f 317/273/14 273/229/14 318/274/14

v 269.005 18 -163.832
vt 5.37741 1.63832
f 318/274/14 273/229/14 319/275/14

v 295.005 18 -163.832
vt 5.89715 1.63832
f 319/275/14 273/229/14 320/276/14

v 304.005 18 -163.832
vt 6.07706 1.63832
f 320/276/14 273/229/14 321/277/14

v 328.701 18 -163.832
vt 6.57074 1.63832
f 321/277/14 273/229/14 322/278/14

v 325.053 18 -73.5
vt 6.4978 0.735
f 322/278/14 273/229/14 323/279/14

f 323/279/14 273/229/14 185/141/14 186/142/14 

f 273/229/14 275/231/14 184/140/14 185/141/14 

f 275/231/14 182/138/14 181/137/14 184/140/14 

v 342.053 18 -73.5
vt 6.83763 0.735
f 188/144/14 324/280/14 323/279/14 186/142/14 187/143/14 

v 342.053 18 -84.6632
vt 6.83763 0.846632
f 188/144/14 189/145/14 325/281/14 324/280/14 

v 342.053 18 -92.6632
vt 6.83763 0.926632
f 326/282/14 325/281/14 189/145/14 190/146/14 

v 342.053 18 -109.826
vt 6.83763 1.09826
f 327/283/14 325/281/14 326/282/14

f 327/283/14 324/280/14 325/281/14

v 328.701 18 -346.609
vt 6.57074 3.46609
f 327/283/14 328/284/14 324/280/14

f 231/187/14 328/284/14 327/283/14

v 326.712 18 -346.609
vt 6.53096 3.46609
f 231/187/14 329/285/14 328/284/14

v 311.387 18 -348.733
vt 6.22462 3.48733
f 231/187/14 330/286/14 329/285/14

f 230/186/14 330/286/14 231/187/14

v 299.355 18 -348.733
vt 5.98411 3.48733
f 230/186/14 331/287/14 330/286/14

v 299.249 18 -356.509
vt 5.982 3.56509
f 332/288/14 331/287/14 230/186/14

v 299.355 18 -346.743
vt 5.98411 3.46743
f 331/287/14 332/288/14 333/289/14

v 295.005 18 -165.821
vt 5.89715 1.65821
f 332/288/14 334/290/14 333/289/14

v 269.005 18 -165.821
vt 5.37741 1.65821
f 332/288/14 335/291/14 334/290/14

v 260.005 18 -165.821
vt 5.1975 1.65821
f 332/288/14 336/292/14 335/291/14

v 250.005 18 -165.821
vt 4.9976 1.65821
f 332/288/14 337/293/14 336/292/14

f 313/269/14 337/293/14 332/288/14

v 240.005 18 -165.821
vt 4.7977 1.65821
f 313/269/14 338/294/14 337/293/14

f 313/269/14 314/270/14 338/294/14

f 338/294/14 314/270/14 316/272/14

f 315/271/25 316/272/25 338/294/25 314/270/25 

vn 2.81997e-16 1 1.41735e-15
f 316/272/27 317/273/27 337/293/27 338/294/27 

vn -2.81997e-16 1 1.41735e-15
f 317/273/28 318/274/28 336/292/28 337/293/28 

vn -6.26659e-16 1 2.83471e-15
f 318/274/29 319/275/29 335/291/29 336/292/29 

vn 2.1692e-16 1 2.83471e-15
f 319/275/30 320/276/30 334/290/30 335/291/30 

v 304.005 18 -165.821
vt 6.07706 1.65821
f 320/276/29 321/277/29 339/295/29 334/290/29 

v 326.712 18 -165.821
vt 6.53096 1.65821
vn 2.61556e-16 1 2.34372e-15
v 328.701 18 -165.821
vt 6.57074 1.65821
f 340/296/31 339/295/31 321/277/31 322/278/31 341/297/31 

v 311.387 18 -346.743
vt 6.22462 3.46743
f 342/298/14 339/295/14 340/296/14

f 333/289/14 339/295/14 342/298/14

f 333/289/14 334/290/14 339/295/14

f 330/286/14 331/287/14 333/289/14 342/298/14 

f 342/298/14 340/296/14 330/286/14

f 329/285/14 330/286/14 340/296/14

v 326.712 18 -180.274
vt 6.53096 1.80274
f 329/285/14 340/296/14 343/299/14

v 328.701 18 -180.274
vt 6.57074 1.80274
f 341/297/14 344/300/14 343/299/14 340/296/14 

f 341/297/14 324/280/14 344/300/14

f 322/278/14 324/280/14 341/297/14

f 322/278/14 323/279/14 324/280/14

v 328.701 18 -188.916
vt 6.57074 1.88916
f 344/300/14 324/280/14 345/301/14

v 328.701 18 -254.274
vt 6.57074 2.54274
f 345/301/14 324/280/14 346/302/14

v 328.701 18 -262.916
vt 6.57074 2.62916
f 346/302/14 324/280/14 347/303/14

v 328.701 18 -304.274
vt 6.57074 3.04274
f 347/303/14 324/280/14 348/304/14

v 328.701 18 -312.916
vt 6.57074 3.12916
f 348/304/14 324/280/14 349/305/14

f 349/305/14 324/280/14 328/284/14

v 326.712 18 -312.916
vt 6.53096 3.12916
f 329/285/23 350/306/23 349/305/23 328/284/23 

v 326.712 18 -304.274
vt 6.53096 3.04274
f 329/285/14 351/307/14 350/306/14

v 326.712 18 -262.916
vt 6.53096 2.62916
f 329/285/14 352/308/14 351/307/14

v 326.712 18 -254.274
vt 6.53096 2.54274
f 329/285/14 353/309/14 352/308/14

v 326.712 18 -188.916
vt 6.53096 1.88916
f 329/285/14 354/310/14 353/309/14

f 329/285/14 343/299/14 354/310/14

f 344/300/14 345/301/14 354/310/14 343/299/14 

vn 0 1 4.31465e-17
f 345/301/32 346/302/32 353/309/32 354/310/32 

f 352/308/14 353/309/14 346/302/14 347/303/14 

vn 0 1 6.81844e-17
f 347/303/33 348/304/33 351/307/33 352/308/33 

f 350/306/14 351/307/14 348/304/14 349/305/14 

f 313/269/14 332/288/14 239/195/14 240/196/14 

f 332/288/14 230/186/14 229/185/14 239/195/14 

f 269/225/14 313/269/14 240/196/14 241/197/14 

v 348.046 18 -109.826
vt 6.95743 1.09826
f 231/187/14 327/283/14 355/311/14

v 342.053 18 -106.826
vt 6.83763 1.06826
f 191/147/14 192/148/14 355/311/14 327/283/14 356/312/14 

v 352.046 18 -109.826
vt 7.03739 1.09826
f 192/148/14 193/149/14 357/313/14 355/311/14 

v 355.039 18 -109.826
vt 7.09722 1.09826
f 195/151/14 358/314/14 357/313/14 193/149/14 194/150/14 

v 355.039 18 -128.204
vt 7.09722 1.28204
f 195/151/14 196/152/14 359/315/14 358/314/14 

v 355.039 18 -141.103
vt 7.09722 1.41103
f 360/316/14 359/315/14 196/152/14 197/153/14 

f 231/187/14 359/315/14 360/316/14

f 231/187/14 358/314/14 359/315/14

f 231/187/14 357/313/14 358/314/14

f 231/187/14 355/311/14 357/313/14

v 355.039 18 -194.204
vt 7.09722 1.94204
f 231/187/14 360/316/14 361/317/14

f 361/317/14 360/316/14 197/153/14 198/154/14 

v 355.039 18 -207.103
vt 7.09722 2.07103
f 362/318/14 361/317/14 198/154/14 199/155/14 

f 231/187/14 361/317/14 362/318/14

v 355.039 18 -296.636
vt 7.09722 2.96636
f 231/187/14 362/318/14 363/319/14

f 218/174/14 217/173/14 363/319/14 362/318/14 199/155/14 200/156/14 

v 355.039 18 -319.468
vt 7.09722 3.19468
f 217/173/14 216/172/14 364/320/14 363/319/14 

f 231/187/14 364/320/14 216/172/14 215/171/14 

f 231/187/14 363/319/14 364/320/14

vn 1.34489e-16 1 -4.69994e-16
f 219/175/34 218/174/34 200/156/34 201/157/34 

f 220/176/18 219/175/18 201/157/18 202/158/18 

vn -1.54724e-30 1 -9.39989e-16
f 221/177/35 220/176/35 202/158/35 203/159/35 

f 222/178/18 221/177/18 203/159/18 204/160/18 

vn -3.73734e-17 1 -6.40343e-16
f 206/162/36 223/179/36 222/178/36 204/160/36 205/161/36 

vn 4.69994e-16 1 8.51925e-17
f 206/162/37 207/163/37 224/180/37 223/179/37 

f 225/181/14 224/180/14 207/163/14 208/164/14 

f 208/164/14 209/165/14 226/182/14 225/181/14 

f 212/168/14 226/182/14 209/165/14 210/166/14 

f 327/283/14 326/282/14 356/312/14

f 356/312/14 326/282/14 190/146/14 191/147/14 

v 171.309 18 -188.916
vt 3.42447 1.88916
f 284/240/14 310/266/14 365/321/14

f 308/264/14 365/321/14 310/266/14

f 365/321/14 308/264/14 307/263/14

f 365/321/14 310/266/14 308/264/14 307/263/14 

v 171.309 18 -254.274
vt 3.42447 2.54274
f 366/322/32 365/321/32 307/263/32 306/262/32 

f 284/240/14 365/321/14 366/322/14

v 171.309 18 -262.916
vt 3.42447 2.62916
f 284/240/14 366/322/14 367/323/14

f 306/262/14 367/323/14 366/322/14

f 367/323/14 306/262/14 305/261/14

f 306/262/14 305/261/14 367/323/14 366/322/14 

v 171.309 18 -304.274
vt 3.42447 3.04274
f 368/324/33 367/323/33 305/261/33 304/260/33 

f 284/240/14 367/323/14 368/324/14

f 284/240/14 368/324/14 303/259/14

f 304/260/14 303/259/14 368/324/14

f 303/259/14 304/260/14 302/258/14

f 304/260/14 302/258/14 303/259/14 368/324/14 

v 188.613 18 -346.743
vt 3.77038 3.46743
f 301/257/14 272/228/14 369/325/14

f 369/325/14 272/228/14 271/227/14

v 188.613 18 -348.733
vt 3.77038 3.48733
f 268/224/14 370/326/14 369/325/14 271/227/14 

f 171/127/14 370/326/14 268/224/14

f 171/127/14 301/257/14 370/326/14

f 370/326/14 301/257/14 369/325/14

f 171/127/14 268/224/14 172/128/14

f 233/189/14 228/184/14 234/190/14

f 228/184/14 227/183/14 232/188/14 234/190/14 

v 74.2848 18 -324.96
vt 1.48495 3.2496
f 154/110/14 155/111/14 145/101/14 371/327/14 

f 145/101/14 152/108/14 371/327/14

f 153/109/14 371/327/14 152/108/14

f 371/327/14 153/109/14 154/110/14

f 371/327/14 152/108/14 153/109/14 154/110/14 

vn 0 0 -1
f 126/3/38 130/4/38 123/1/38 122/2/38 

g Mesh5 ___1312_4 Model

v 500 0 -0
v 0 0 -0
v 0 0 -3
v 500 0 -3
f 372/1/1 373/2/1 374/3/1 375/4/1 

v 500 7.5 -3.60381e-13
v 497 7.5 -3.60381e-13
v 497 15 5.74285e-16
v 375 15 5.74285e-16
v 375 7.5 -3.60381e-13
v 372 7.5 -3.60381e-13
v 372 15 -3.60381e-13
v 251.5 15 5.74285e-16
v 251.5 7.5 -3.60381e-13
v 248.5 7.5 -3.60381e-13
v 248.5 15 -3.60381e-13
v 128 15 5.74285e-16
v 128 7.5 -3.60381e-13
v 125 7.5 -3.60381e-13
v 125 15 -3.60381e-13
v 3 15 -2.34809e-30
v 3 7.5 5.74285e-16
v 3.60956e-13 7.5 5.74285e-16
f 372/5/2 376/6/2 377/7/2 378/8/2 379/9/2 380/10/2 381/11/2 382/12/2 383/13/2 384/14/2 385/15/2 386/16/2 387/17/2 388/18/2 389/19/2 390/20/2 391/21/2 392/22/2 393/23/2 373/2/2 

v 500 7.5 -3
f 375/24/3 394/22/3 376/25/3 372/2/3 

v 375 15 -3
v 497 15 -3
v 497 7.5 -3
v 3.60956e-13 7.5 -3
v 3 7.5 -3
v 3 15 -3
v 125 15 -3
v 125 7.5 -3
v 128 7.5 -3
v 128 15 -3
v 248.5 15 -3
v 248.5 7.5 -3
v 251.5 7.5 -3
v 251.5 15 -3
v 372 15 -3
v 372 7.5 -3
v 375 7.5 -3
f 395/26/4 396/27/4 397/28/4 394/29/4 375/30/4 374/31/4 398/32/4 399/33/4 400/34/4 401/35/4 402/36/4 403/37/4 404/38/4 405/39/4 406/40/4 407/41/4 408/42/4 409/43/4 410/44/4 411/45/4 

f 396/46/5 395/47/5 379/48/5 378/49/5 

f 380/50/6 379/51/6 395/34/6 411/33/6 

f 381/52/7 380/53/7 411/47/7 410/54/7 

f 382/55/3 381/25/3 410/22/3 409/21/3 

f 409/54/8 408/56/8 383/57/8 382/58/8 

f 384/50/6 383/51/6 408/34/6 407/33/6 

f 385/59/7 384/60/7 407/56/7 406/61/7 

f 386/55/3 385/25/3 406/22/3 405/21/3 

f 405/61/8 404/62/8 387/63/8 386/64/8 

f 388/50/6 387/51/6 404/34/6 403/33/6 

f 389/65/7 388/66/7 403/62/7 402/67/7 

f 390/55/3 389/25/3 402/22/3 401/21/3 

f 390/68/9 401/67/9 400/69/9 391/70/9 

f 400/34/10 399/33/10 392/71/10 391/72/10 

f 398/73/11 393/74/11 392/75/11 399/69/11 

f 373/2/12 393/71/12 398/33/12 374/76/12 

f 378/77/3 377/25/3 397/22/3 396/21/3 

f 377/78/13 376/79/13 394/80/13 397/46/13 

g Mesh6 ___1312_5 Model

v 372 15 -500
vn -0 1 -0
v 372 15 1.14857e-15
v 375 15 -0
v 375 15 -500
f 412/4/39 413/3/39 414/2/39 415/1/39 

v 372 7.5 -375
vn -1 5.00833e-16 7.64962e-16
v 372 7.5 -372
v 372 6.92779e-14 -372
v 372 6.92779e-14 -251.5
v 372 7.5 -251.5
v 372 7.5 -248.5
v 372 6.92779e-14 -248.5
v 372 6.92779e-14 -128
v 372 7.5 -128
v 372 7.5 -125
v 372 6.92779e-14 -125
v 372 1.43885e-13 -3
v 372 7.5 -3
v 372 7.5 -3.59807e-13
v 372 7.5 -500
v 372 7.5 -497
v 372 0 -497
v 372 6.92779e-14 -375
f 416/45/40 417/44/40 418/43/40 419/42/40 420/41/40 421/40/40 422/39/40 423/38/40 424/37/40 425/36/40 426/35/40 427/34/40 428/33/40 429/32/40 413/31/40 412/30/40 430/29/40 431/28/40 432/27/40 433/26/40 

vn 2.40637e-14 -1 -9.21296e-30
v 375 7.5 -375
v 375 7.5 -372
f 417/54/41 416/47/41 434/53/41 435/52/41 

vn 3.82857e-16 -0 1
v 375 1.43885e-13 -375
f 416/33/42 433/34/42 436/51/42 434/50/42 

v 375 1.43885e-13 -497
vn 3.61896e-14 -1 2.88931e-16
f 437/49/43 436/48/43 433/47/43 432/46/43 

vn 1 1.7785e-15 -6.71177e-16
v 375 7.5 -3.60956e-13
v 375 7.5 -3
v 375 1.43885e-13 -3
v 375 1.43885e-13 -125
v 375 7.5 -125
v 375 7.5 -128
v 375 1.43885e-13 -128
v 375 1.43885e-13 -248.5
v 375 7.5 -248.5
v 375 7.5 -251.5
v 375 1.43885e-13 -251.5
v 375 1.43885e-13 -372
v 375 7.5 -497
v 375 7.5 -500
f 414/2/44 438/23/44 439/22/44 440/21/44 441/20/44 442/19/44 443/18/44 444/17/44 445/16/44 446/15/44 447/14/44 448/13/44 449/12/44 435/11/44 434/10/44 436/9/44 437/8/44 450/7/44 451/6/44 415/5/44 

vn 3.82857e-16 -4.81274e-14 1
f 413/76/45 429/33/45 438/71/45 414/2/45 

vn 1.84259e-29 -1 4.81274e-14
f 428/69/46 439/75/46 438/74/46 429/73/46 

vn 3.82857e-16 4.81274e-14 1
f 440/72/47 439/71/47 428/33/47 427/34/47 

vn 1.22199e-14 -1 3.00488e-16
f 440/70/48 427/69/48 426/67/48 441/68/48 

vn -3.82857e-16 0 -1
f 426/21/49 425/22/49 442/25/49 441/55/49 

f 425/67/41 424/62/41 443/66/41 442/65/41 

f 424/33/42 423/34/42 444/51/42 443/50/42 

vn 2.44397e-14 -1 -8.25362e-29
f 445/64/50 444/63/50 423/62/50 422/61/50 

f 422/21/49 421/22/49 446/25/49 445/55/49 

f 421/61/41 420/56/41 447/60/41 446/59/41 

f 420/33/42 419/34/42 448/51/42 447/50/42 

f 449/58/50 448/57/50 419/56/50 418/54/50 

f 418/21/49 417/22/49 435/25/49 449/55/49 

f 432/21/49 431/22/49 450/25/49 437/77/49 

vn 4.79394e-14 -1 -1.83539e-29
f 431/46/51 430/80/51 451/79/51 450/78/51 

f 415/2/49 451/25/49 430/22/49 412/24/49 

g Mesh7 ___1312_6 Model

v 248.5 15 -500
v 248.5 15 1.14857e-15
v 251.5 15 -0
v 251.5 15 -500
f 452/4/39 453/3/39 454/2/39 455/1/39 

v 248.5 7.5 -375
v 248.5 7.5 -372
v 248.5 6.92779e-14 -372
v 248.5 6.92779e-14 -251.5
v 248.5 7.5 -251.5
v 248.5 7.5 -248.5
v 248.5 6.92779e-14 -248.5
v 248.5 6.92779e-14 -128
v 248.5 7.5 -128
v 248.5 7.5 -125
v 248.5 6.92779e-14 -125
v 248.5 1.43885e-13 -3
v 248.5 7.5 -3
v 248.5 7.5 -3.59807e-13
v 248.5 7.5 -500
v 248.5 7.5 -497
v 248.5 0 -497
v 248.5 6.92779e-14 -375
f 456/45/40 457/44/40 458/43/40 459/42/40 460/41/40 461/40/40 462/39/40 463/38/40 464/37/40 465/36/40 466/35/40 467/34/40 468/33/40 469/32/40 453/31/40 452/30/40 470/29/40 471/28/40 472/27/40 473/26/40 

v 251.5 7.5 -375
v 251.5 7.5 -372
f 457/54/41 456/47/41 474/53/41 475/52/41 

v 251.5 1.43885e-13 -375
f 456/33/42 473/34/42 476/51/42 474/50/42 

v 251.5 1.43885e-13 -497
f 477/49/43 476/48/43 473/47/43 472/46/43 

v 251.5 7.5 -3.60956e-13
v 251.5 7.5 -3
v 251.5 1.43885e-13 -3
v 251.5 1.43885e-13 -125
v 251.5 7.5 -125
v 251.5 7.5 -128
v 251.5 1.43885e-13 -128
v 251.5 1.43885e-13 -248.5
v 251.5 7.5 -248.5
v 251.5 7.5 -251.5
v 251.5 1.43885e-13 -251.5
v 251.5 1.43885e-13 -372
v 251.5 7.5 -497
v 251.5 7.5 -500
f 454/2/44 478/23/44 479/22/44 480/21/44 481/20/44 482/19/44 483/18/44 484/17/44 485/16/44 486/15/44 487/14/44 488/13/44 489/12/44 475/11/44 474/10/44 476/9/44 477/8/44 490/7/44 491/6/44 455/5/44 

f 453/76/45 469/33/45 478/71/45 454/2/45 

f 468/69/46 479/75/46 478/74/46 469/73/46 

f 480/72/47 479/71/47 468/33/47 467/34/47 

f 480/70/48 467/69/48 466/67/48 481/68/48 

f 466/21/49 465/22/49 482/25/49 481/55/49 

f 465/67/41 464/62/41 483/66/41 482/65/41 

f 464/33/42 463/34/42 484/51/42 483/50/42 

f 485/64/50 484/63/50 463/62/50 462/61/50 

f 462/21/49 461/22/49 486/25/49 485/55/49 

f 461/61/41 460/56/41 487/60/41 486/59/41 

f 460/33/42 459/34/42 488/51/42 487/50/42 

f 489/58/50 488/57/50 459/56/50 458/54/50 

f 458/21/49 457/22/49 475/25/49 489/55/49 

f 472/21/49 471/22/49 490/25/49 477/77/49 

f 471/46/51 470/80/51 491/79/51 490/78/51 

f 455/2/49 491/25/49 470/22/49 452/24/49 

g Mesh8 ___1312_7 Model

v 5.70211e-13 15 -500
v 7.61613e-13 15 1.14857e-15
v 3 15 -0
v 3 15 -500
f 492/4/39 493/3/39 494/2/39 495/1/39 

v 2.57572e-13 7.5 -375
v 2.5846e-13 7.5 -372
v 2.5846e-13 6.92779e-14 -372
v 6.6569e-13 6.92779e-14 -251.5
v 3.04645e-13 7.5 -251.5
v 3.05977e-13 7.5 -248.5
v 3.05977e-13 6.92779e-14 -248.5
v 7.13207e-13 6.92779e-14 -128
v 3.52163e-13 7.5 -128
v 3.53051e-13 7.5 -125
v 3.53051e-13 6.92779e-14 -125
v 7.60281e-13 1.43885e-13 -3
v 7.60725e-13 7.5 -3
v 7.62057e-13 7.5 -3.59807e-13
v 2.0961e-13 7.5 -500
v 2.10942e-13 7.5 -497
v 5.71987e-13 0 -497
v 6.18616e-13 6.92779e-14 -375
f 496/45/40 497/44/40 498/43/40 499/42/40 500/41/40 501/40/40 502/39/40 503/38/40 504/37/40 505/36/40 506/35/40 507/34/40 508/33/40 509/32/40 493/31/40 492/30/40 510/29/40 511/28/40 512/27/40 513/26/40 

v 3 7.5 -375
v 3 7.5 -372
f 497/54/41 496/47/41 514/53/41 515/52/41 

v 3 1.43885e-13 -375
f 496/33/42 513/34/42 516/51/42 514/50/42 

v 3 1.43885e-13 -497
f 517/49/43 516/48/43 513/47/43 512/46/43 

v 3 7.5 -3.60956e-13
v 3 7.5 -3
v 3 1.43885e-13 -3
v 3 1.43885e-13 -125
v 3 7.5 -125
v 3 7.5 -128
v 3 1.43885e-13 -128
v 3 1.43885e-13 -248.5
v 3 7.5 -248.5
v 3 7.5 -251.5
v 3 1.43885e-13 -251.5
v 3 1.43885e-13 -372
v 3 7.5 -497
v 3 7.5 -500
f 494/2/44 518/23/44 519/22/44 520/21/44 521/20/44 522/19/44 523/18/44 524/17/44 525/16/44 526/15/44 527/14/44 528/13/44 529/12/44 515/11/44 514/10/44 516/9/44 517/8/44 530/7/44 531/6/44 495/5/44 

f 493/76/45 509/33/45 518/71/45 494/2/45 

f 508/69/46 519/75/46 518/74/46 509/73/46 

f 520/72/47 519/71/47 508/33/47 507/34/47 

f 520/70/48 507/69/48 506/67/48 521/68/48 

f 506/21/49 505/22/49 522/25/49 521/55/49 

f 505/67/41 504/62/41 523/66/41 522/65/41 

f 504/33/42 503/34/42 524/51/42 523/50/42 

f 525/64/50 524/63/50 503/62/50 502/61/50 

f 502/21/49 501/22/49 526/25/49 525/55/49 

f 501/61/41 500/56/41 527/60/41 526/59/41 

f 500/33/42 499/34/42 528/51/42 527/50/42 

f 529/58/50 528/57/50 499/56/50 498/54/50 

f 498/21/49 497/22/49 515/25/49 529/55/49 

f 512/21/49 511/22/49 530/25/49 517/77/49 

f 511/46/51 510/80/51 531/79/51 530/78/51 

f 495/2/49 531/25/49 510/22/49 492/24/49 

g Mesh9 ___1312_8 Model

v 497 15 -500
v 497 15 1.14857e-15
v 500 15 -0
v 500 15 -500
f 532/4/39 533/3/39 534/2/39 535/1/39 

v 497 7.5 -375
v 497 7.5 -372
v 497 6.92779e-14 -372
v 497 6.92779e-14 -251.5
v 497 7.5 -251.5
v 497 7.5 -248.5
v 497 6.92779e-14 -248.5
v 497 6.92779e-14 -128
v 497 7.5 -128
v 497 7.5 -125
v 497 6.92779e-14 -125
v 497 1.43885e-13 -3
v 497 7.5 -3
v 497 7.5 -3.59807e-13
v 497 7.5 -500
v 497 7.5 -497
v 497 0 -497
v 497 6.92779e-14 -375
f 536/45/40 537/44/40 538/43/40 539/42/40 540/41/40 541/40/40 542/39/40 543/38/40 544/37/40 545/36/40 546/35/40 547/34/40 548/33/40 549/32/40 533/31/40 532/30/40 550/29/40 551/28/40 552/27/40 553/26/40 

v 500 7.5 -375
v 500 7.5 -372
f 537/54/41 536/47/41 554/53/41 555/52/41 

v 500 1.43885e-13 -375
f 536/33/42 553/34/42 556/51/42 554/50/42 

v 500 1.43885e-13 -497
f 557/49/43 556/48/43 553/47/43 552/46/43 

v 500 7.5 -3.60956e-13
v 500 7.5 -3
v 500 1.43885e-13 -3
v 500 1.43885e-13 -125
v 500 7.5 -125
v 500 7.5 -128
v 500 1.43885e-13 -128
v 500 1.43885e-13 -248.5
v 500 7.5 -248.5
v 500 7.5 -251.5
v 500 1.43885e-13 -251.5
v 500 1.43885e-13 -372
v 500 7.5 -497
v 500 7.5 -500
f 534/2/44 558/23/44 559/22/44 560/21/44 561/20/44 562/19/44 563/18/44 564/17/44 565/16/44 566/15/44 567/14/44 568/13/44 569/12/44 555/11/44 554/10/44 556/9/44 557/8/44 570/7/44 571/6/44 535/5/44 

f 533/76/45 549/33/45 558/71/45 534/2/45 

f 548/69/46 559/75/46 558/74/46 549/73/46 

f 560/72/47 559/71/47 548/33/47 547/34/47 

f 560/70/48 547/69/48 546/67/48 561/68/48 

f 546/21/49 545/22/49 562/25/49 561/55/49 

f 545/67/41 544/62/41 563/66/41 562/65/41 

f 544/33/42 543/34/42 564/51/42 563/50/42 

f 565/64/50 564/63/50 543/62/50 542/61/50 

f 542/21/49 541/22/49 566/25/49 565/55/49 

f 541/61/41 540/56/41 567/60/41 566/59/41 

f 540/33/42 539/34/42 568/51/42 567/50/42 

f 569/58/50 568/57/50 539/56/50 538/54/50 

f 538/21/49 537/22/49 555/25/49 569/55/49 

f 552/21/49 551/22/49 570/25/49 557/77/49 

f 551/46/51 550/80/51 571/79/51 570/78/51 

f 535/2/49 571/25/49 550/22/49 532/24/49 

g Mesh10 ___1312_9 Model

v 125 15 -500
v 125 15 1.14857e-15
v 128 15 -0
v 128 15 -500
f 572/4/39 573/3/39 574/2/39 575/1/39 

v 125 7.5 -375
v 125 7.5 -372
v 125 6.92779e-14 -372
v 125 6.92779e-14 -251.5
v 125 7.5 -251.5
v 125 7.5 -248.5
v 125 6.92779e-14 -248.5
v 125 6.92779e-14 -128
v 125 7.5 -128
v 125 7.5 -125
v 125 6.92779e-14 -125
v 125 1.43885e-13 -3
v 125 7.5 -3
v 125 7.5 -3.59807e-13
v 125 7.5 -500
v 125 7.5 -497
v 125 0 -497
v 125 6.92779e-14 -375
f 576/45/40 577/44/40 578/43/40 579/42/40 580/41/40 581/40/40 582/39/40 583/38/40 584/37/40 585/36/40 586/35/40 587/34/40 588/33/40 589/32/40 573/31/40 572/30/40 590/29/40 591/28/40 592/27/40 593/26/40 

v 128 7.5 -375
v 128 7.5 -372
f 577/54/41 576/47/41 594/53/41 595/52/41 

v 128 1.43885e-13 -375
f 576/33/42 593/34/42 596/51/42 594/50/42 

v 128 1.43885e-13 -497
f 597/49/43 596/48/43 593/47/43 592/46/43 

v 128 7.5 -3.60956e-13
v 128 7.5 -3
v 128 1.43885e-13 -3
v 128 1.43885e-13 -125
v 128 7.5 -125
v 128 7.5 -128
v 128 1.43885e-13 -128
v 128 1.43885e-13 -248.5
v 128 7.5 -248.5
v 128 7.5 -251.5
v 128 1.43885e-13 -251.5
v 128 1.43885e-13 -372
v 128 7.5 -497
v 128 7.5 -500
f 574/2/44 598/23/44 599/22/44 600/21/44 601/20/44 602/19/44 603/18/44 604/17/44 605/16/44 606/15/44 607/14/44 608/13/44 609/12/44 595/11/44 594/10/44 596/9/44 597/8/44 610/7/44 611/6/44 575/5/44 

f 573/76/45 589/33/45 598/71/45 574/2/45 

f 588/69/46 599/75/46 598/74/46 589/73/46 

f 600/72/47 599/71/47 588/33/47 587/34/47 

f 600/70/48 587/69/48 586/67/48 601/68/48 

f 586/21/49 585/22/49 602/25/49 601/55/49 

f 585/67/41 584/62/41 603/66/41 602/65/41 

f 584/33/42 583/34/42 604/51/42 603/50/42 

f 605/64/50 604/63/50 583/62/50 582/61/50 

f 582/21/49 581/22/49 606/25/49 605/55/49 

f 581/61/41 580/56/41 607/60/41 606/59/41 

f 580/33/42 579/34/42 608/51/42 607/50/42 

f 609/58/50 608/57/50 579/56/50 578/54/50 

f 578/21/49 577/22/49 595/25/49 609/55/49 

f 592/21/49 591/22/49 610/25/49 597/77/49 

f 591/46/51 590/80/51 611/79/51 610/78/51 

f 575/2/49 611/25/49 590/22/49 572/24/49 

g Mesh11 ___1312_10 Model

v 500 1.43818e-13 -248.5
v 0 1.43818e-13 -248.5
v 0 1.43818e-13 -251.5
v 500 1.43818e-13 -251.5
f 612/1/1 613/2/1 614/3/1 615/4/1 

v 500 7.5 -248.5
v 497 7.5 -248.5
v 497 15 -248.5
v 375 15 -248.5
v 375 7.5 -248.5
v 372 7.5 -248.5
v 372 15 -248.5
v 251.5 15 -248.5
v 251.5 7.5 -248.5
v 248.5 7.5 -248.5
v 248.5 15 -248.5
v 128 15 -248.5
v 128 7.5 -248.5
v 125 7.5 -248.5
v 125 15 -248.5
v 3 15 -248.5
v 3 7.5 -248.5
v 3.60956e-13 7.5 -248.5
f 612/5/2 616/6/2 617/7/2 618/8/2 619/9/2 620/10/2 621/11/2 622/12/2 623/13/2 624/14/2 625/15/2 626/16/2 627/17/2 628/18/2 629/19/2 630/20/2 631/21/2 632/22/2 633/23/2 613/2/2 

v 500 7.5 -251.5
f 615/24/3 634/22/3 616/25/3 612/2/3 

v 375 15 -251.5
v 497 15 -251.5
v 497 7.5 -251.5
v 3.60956e-13 7.5 -251.5
v 3 7.5 -251.5
v 3 15 -251.5
v 125 15 -251.5
v 125 7.5 -251.5
v 128 7.5 -251.5
v 128 15 -251.5
v 248.5 15 -251.5
v 248.5 7.5 -251.5
v 251.5 7.5 -251.5
v 251.5 15 -251.5
v 372 15 -251.5
v 372 7.5 -251.5
v 375 7.5 -251.5
f 635/26/4 636/27/4 637/28/4 634/29/4 615/30/4 614/31/4 638/32/4 639/33/4 640/34/4 641/35/4 642/36/4 643/37/4 644/38/4 645/39/4 646/40/4 647/41/4 648/42/4 649/43/4 650/44/4 651/45/4 

f 636/46/5 635/47/5 619/48/5 618/49/5 

f 620/50/6 619/51/6 635/34/6 651/33/6 

f 621/52/7 620/53/7 651/47/7 650/54/7 

f 622/55/3 621/25/3 650/22/3 649/21/3 

f 649/54/8 648/56/8 623/57/8 622/58/8 

f 624/50/6 623/51/6 648/34/6 647/33/6 

f 625/59/7 624/60/7 647/56/7 646/61/7 

f 626/55/3 625/25/3 646/22/3 645/21/3 

f 645/61/8 644/62/8 627/63/8 626/64/8 

f 628/50/6 627/51/6 644/34/6 643/33/6 

f 629/65/7 628/66/7 643/62/7 642/67/7 

f 630/55/3 629/25/3 642/22/3 641/21/3 

f 630/68/9 641/67/9 640/69/9 631/70/9 

f 640/34/10 639/33/10 632/71/10 631/72/10 

f 638/73/11 633/74/11 632/75/11 639/69/11 

f 613/2/12 633/71/12 638/33/12 614/76/12 

f 618/77/3 617/25/3 637/22/3 636/21/3 

f 617/78/13 616/79/13 634/80/13 637/46/13 

