# Alias OBJ Model File
# Exported from SketchUp, (c) 2000-2012 Trimble Navigation Limited
# File units = millimeters

mtllib 8.mtl

g Mesh1 ___44_1 Model

usemtl _
v 55.6527 41.5961 -190.826
vt -4.94939e-06 0
vn -1 3.94624e-16 -1.02235e-14
v 55.6527 81.8213 -140.115
vt -1.29391 0
v 55.6527 84.1717 -141.979
vt -1.29391 0.03
v 55.6527 43.9465 -192.69
vt -4.94939e-06 0.03
f 1/1/1 2/2/1 3/3/1 4/4/1 

v 393.776 41.5961 -190.826
vt -6.75909 2.47593e-06
vn -6.66257e-15 -0.783452 0.621453
v 393.776 81.8213 -140.115
vt -6.75909 0.647279
vt -5.5094e-07 0.647279
vt -5.5094e-07 2.47593e-06
f 5/5/2 6/6/2 2/7/2 1/8/2 

vt 1.29391 0
vn 1 -3.94624e-16 1.02235e-14
vt 4.94939e-06 0
v 393.776 43.9465 -192.69
vt 4.94939e-06 0.03
v 393.776 84.1717 -141.979
vt 1.29391 0.03
f 6/9/3 5/10/3 7/11/3 8/12/3 

vt 6.75909 0
vn 7.76435e-15 -0.621453 -0.783452
vt 5.5094e-07 0
vt 5.5094e-07 0.03
vt 6.75909 0.03
f 5/13/4 1/14/4 4/15/4 7/16/4 

vt 6.75909 0.647279
vn 6.66257e-15 0.783452 -0.621453
vt 6.75909 2.47593e-06
vt 5.5094e-07 2.47593e-06
vt 5.5094e-07 0.647279
f 8/17/5 7/18/5 4/19/5 3/20/5 

vt -5.5094e-07 0
vn -7.76435e-15 0.621453 0.783452
vt -6.75909 0
vt -6.75909 0.03
vt -5.5094e-07 0.03
f 2/21/6 6/22/6 8/23/6 3/24/6 

g Mesh2 ___42_1 Model

v 60.0287 44.1881 -84.3085
vt 30.7252 -1.11315
vn 0 0.897065 0.441898
v 0 15.6084 -26.2911
vt 29.5252 -1.7599
v 189.37 15.6084 -26.2911
vt 33.3107 -1.7599
v 189.37 2.6912 -0.0687777
vt 33.3107 -2.05221
v 259.858 2.6912 -0.0687777
vt 34.7198 -2.05221
v 259.858 15.1668 -25.3945
vt 34.7198 -1.7699
v 259.858 15.6084 -26.2911
vt 34.7198 -1.7599
v 449.227 15.6084 -26.2911
vt 38.5053 -1.7599
v 389.199 44.1881 -84.3085
vt 37.3053 -1.11315
f 9/25/7 10/26/7 11/27/7 12/28/7 13/29/7 14/30/7 15/31/7 16/32/7 17/33/7 

vt -17.5072 -1.73472e-17
vn -0.732943 0.300619 -0.610264
vt -19.2711 -1.73472e-17
v 60.0287 41.4969 -85.6342
vt -19.2711 -0.03
v 0 12.9172 -27.6168
vt -17.5072 -0.03
f 10/34/8 9/35/8 18/36/8 19/37/8 

vt -30.7252 -1.73472e-17
vn 1.3707e-16 0.441898 -0.897065
vt -37.3053 -1.73472e-17
v 389.199 41.4969 -85.6342
vt -37.3053 -0.03
vt -30.7252 -0.03
f 9/38/9 17/39/9 20/40/9 18/41/9 

vt -27.0094 -1.73472e-17
vn 0.732943 0.300619 -0.610264
vt -28.7733 -1.73472e-17
v 449.227 12.9172 -27.6168
vt -28.7733 -0.03
vt -27.0094 -0.03
f 17/42/10 16/43/10 21/44/10 20/45/10 

vt 38.5053 -1.73472e-17
vn 0 -0.441898 0.897065
vt 34.7198 -1.73472e-17
v 259.858 12.9172 -27.6168
vt 34.7198 -0.03
vt 38.5053 -0.03
f 16/46/11 15/47/11 22/48/11 21/49/11 

vt -3.51804 -1.73472e-17
vn 1 0 -0
vt -3.53802 -1.73472e-17
v 259.858 12.4756 -26.7202
vt -3.53802 -0.03
vt -3.51804 -0.03
f 15/50/12 14/51/12 23/52/12 22/53/12 

vt -4.10238 -1.73472e-17
v 259.858 9.36057e-15 -1.39447
vt -4.10238 -0.03
f 14/51/12 13/54/12 24/55/12 23/52/12 

vt 33.3107 -1.73472e-17
v 189.37 9.36057e-15 -1.39447
vt 33.3107 -0.03
f 13/47/11 12/56/11 25/57/11 24/48/11 

vt 4.10238 -1.73472e-17
vn -1 0 -0
vt 3.51804 -1.73472e-17
v 189.37 12.9172 -27.6168
vt 3.51804 -0.03
vt 4.10238 -0.03
f 12/58/13 11/59/13 26/60/13 25/61/13 

vn 2.38261e-16 -0.441898 0.897065
vt 29.5252 -1.73472e-17
vt 29.5252 -0.03
f 11/56/14 10/62/14 19/63/14 26/57/14 

vt -29.5252 -1.7599
vn 0 -0.897065 -0.441898
vt -30.7252 -1.11315
vt -37.3053 -1.11315
vt -38.5053 -1.7599
vt -34.7198 -1.7599
vt -34.7198 -1.7699
vt -34.7198 -2.05221
vt -33.3107 -2.05221
vt -33.3107 -1.7599
f 19/64/15 18/65/15 20/66/15 21/67/15 22/68/15 23/69/15 24/70/15 25/71/15 26/72/15 

g Mesh3 ___43_1 Model

v 389.199 43.5186 -193.38
vt 25.0973 -1.22781
vn 3.44064e-12 0.895021 -0.446024
v 449.227 14.6721 -251.265
vt 23.8973 -1.87456
v 1.50328e-09 14.6721 -251.265
vt 32.8773 -1.87456
v 60.0287 43.5186 -193.38
vt 31.6774 -1.22781
f 27/73/16 28/74/16 29/75/16 30/76/16 

vt -13.5106 0
vn 0.732943 0.303426 0.608874
vt -15.2745 0
v 389.199 40.8335 -192.042
vt -15.2745 -0.03
v 449.227 11.987 -249.927
vt -13.5106 -0.03
f 28/77/17 27/78/17 31/79/17 32/80/17 

vt -25.0973 0
vn -2.16443e-11 0.446024 0.895021
vt -31.6774 0
v 60.0287 40.8335 -192.042
vt -31.6774 -0.03
vt -25.0973 -0.03
f 27/81/18 30/82/18 33/83/18 31/84/18 

vt -23.3487 0
vn -0.732943 0.303426 0.608874
vt -25.1126 0
v 1.49294e-09 11.987 -249.927
vt -25.1126 -0.03
vt -23.3487 -0.03
f 30/85/19 29/86/19 34/87/19 33/88/19 

vt 32.8773 0
vn 2.16352e-11 -0.446024 -0.895021
vt 23.8973 0
vt 23.8973 -0.03
vt 32.8773 -0.03
f 29/89/20 28/90/20 32/91/20 34/92/20 

vt -23.8973 -1.87456
vn -3.44064e-12 -0.895021 0.446024
vt -25.0973 -1.22781
vt -31.6774 -1.22781
vt -32.8773 -1.87456
f 32/93/21 31/94/21 33/95/21 34/96/21 

g Mesh4 ___44_2 Model

v 55.6527 43.9465 -83.6103
vn -1 3.94624e-16 -1.33295e-16
v 55.6527 84.1717 -134.321
v 55.6527 81.8213 -136.186
v 55.6527 41.5961 -85.4747
f 35/4/22 36/3/22 37/2/22 38/1/22 

vn 2.26332e-16 0.783452 0.621453
v 393.776 43.9465 -83.6103
v 393.776 84.1717 -134.321
f 36/20/23 35/19/23 39/18/23 40/17/23 

vn -3.49671e-16 -0.621453 0.783452
v 393.776 41.5961 -85.4747
f 39/16/24 35/15/24 38/14/24 41/13/24 

vn -2.26332e-16 -0.783452 -0.621453
v 393.776 81.8213 -136.186
f 38/8/25 37/7/25 42/6/25 41/5/25 

vn 3.49671e-16 0.621453 -0.783452
f 36/24/26 40/23/26 42/22/26 37/21/26 

vn 1 -3.94624e-16 1.33295e-16
f 40/12/27 39/11/27 41/10/27 42/9/27 

