# Alias OBJ Model File
# Exported from SketchUp, (c) 2000-2012 Trimble Navigation Limited
# File units = millimeters

mtllib 2.mtl

g Mesh1 ___263_1 Model

usemtl _
v 279.668 2.2728 -2.75335e-14
vt -0.0454333 0.03
vn -1 0 0
v 279.668 2.59713 -2.70894e-14
vt -0.0519166 0.03
v 279.668 2.59713 -3
vt -0.0519166 0
v 279.668 2.2728 -3
vt -0.0454333 0
f 1/1/1 2/2/1 3/3/1 4/4/1 

v 210.426 3.15 -2.70894e-14
vt 0.334627 0.0315
vn 0 -4.44089e-16 1
v 213.46 3.15 -2.70894e-14
vt 0.395289 0.0315
v 213.46 3.07536 -2.70894e-14
vt 0.395289 0.0307536
v 213.46 2.87786 -2.70894e-14
vt 0.395289 0.0287786
v 213.46 2.59713 -2.70894e-14
vt 0.395289 0.0259713
v 213.46 2.2728 -2.75335e-14
vt 0.395289 0.022728
v 213.46 1.94452 -2.75335e-14
vt 0.395289 0.0194452
v 213.46 1.6519 -2.75335e-14
vt 0.395289 0.016519
v 213.46 1.43458 -2.79776e-14
vt 0.395289 0.0143458
v 213.46 1.3322 -2.79776e-14
vt 0.395289 0.013322
v 213.475 1.11857 -2.79776e-14
vt 0.395584 0.0111857
v 213.533 0.870556 -2.79776e-14
vt 0.396733 0.00870556
v 213.629 0.643879 -2.79776e-14
vt 0.398667 0.00643879
v 213.761 0.443499 -2.84217e-14
vt 0.401298 0.00443499
v 213.923 0.274378 -2.84217e-14
vt 0.404538 0.00274378
v 214.111 0.141478 -2.84217e-14
vt 0.408299 0.00141478
v 214.321 0.0497631 -2.84217e-14
vt 0.412492 0.000497631
v 214.548 0.00419463 -2.84217e-14
vt 0.417029 4.19463e-05
v 214.944 9.02389e-14 -2.84217e-14
vt 0.424951 9.02389e-16
v 216.605 0 -2.84217e-14
vt 0.458144 0
v 219.34 9.02389e-14 -2.84217e-14
vt 0.512816 9.02389e-16
v 222.719 0 -2.84217e-14
vt 0.580376 0
v 226.314 9.02389e-14 -2.84217e-14
vt 0.652231 9.02389e-16
v 229.693 9.02389e-14 -2.84217e-14
vt 0.719791 9.02389e-16
v 232.428 9.02389e-14 -2.84217e-14
vt 0.774463 9.02389e-16
v 234.089 9.02389e-14 -2.84217e-14
vt 0.807655 9.02389e-16
v 234.485 0.00419463 -2.84217e-14
vt 0.815578 4.19463e-05
v 234.712 0.0497631 -2.84217e-14
vt 0.820115 0.000497631
v 234.922 0.141478 -2.84217e-14
vt 0.824308 0.00141478
v 235.11 0.274378 -2.84217e-14
vt 0.828068 0.00274378
v 235.272 0.443499 -2.84217e-14
vt 0.831308 0.00443499
v 235.404 0.643879 -2.79776e-14
vt 0.83394 0.00643879
v 235.501 0.870556 -2.79776e-14
vt 0.835874 0.00870556
v 235.558 1.11857 -2.79776e-14
vt 0.837023 0.0111857
v 235.573 1.3322 -2.79776e-14
vt 0.837318 0.013322
v 235.573 1.43458 -2.79776e-14
vt 0.837318 0.0143458
v 235.573 1.6519 -2.75335e-14
vt 0.837318 0.016519
v 235.573 1.94452 -2.75335e-14
vt 0.837318 0.0194452
v 235.573 2.2728 -2.75335e-14
vt 0.837318 0.022728
v 235.573 2.59713 -2.70894e-14
vt 0.837318 0.0259713
v 235.573 2.87786 -2.70894e-14
vt 0.837318 0.0287786
v 235.573 3.07536 -2.70894e-14
vt 0.837318 0.0307536
v 235.573 3.15 -2.70894e-14
vt 0.837318 0.0315
v 279.668 3.15 -2.70894e-14
vt 1.71879 0.0315
v 279.668 3.07536 -2.70894e-14
vt 1.71879 0.0307536
v 279.668 2.87786 -2.70894e-14
vt 1.71879 0.0287786
vt 1.71879 0.0259713
vt 1.71879 0.022728
v 279.668 1.94452 -2.75335e-14
vt 1.71879 0.0194452
v 279.668 1.6519 -2.75335e-14
vt 1.71879 0.016519
v 279.668 1.43458 -2.79776e-14
vt 1.71879 0.0143458
v 279.668 1.3322 -2.79776e-14
vt 1.71879 0.013322
v 279.683 1.11857 -2.79776e-14
vt 1.71909 0.0111857
v 279.741 0.870556 -2.79776e-14
vt 1.72023 0.00870556
v 279.837 0.643879 -2.79776e-14
vt 1.72217 0.00643879
v 279.969 0.443499 -2.84217e-14
vt 1.7248 0.00443499
v 280.131 0.274378 -2.84217e-14
vt 1.72804 0.00274378
v 280.319 0.141478 -2.84217e-14
vt 1.7318 0.00141478
v 280.529 0.0497631 -2.84217e-14
vt 1.73599 0.000497631
v 280.756 0.00419463 -2.84217e-14
vt 1.74053 4.19463e-05
v 281.152 9.02389e-14 -2.84217e-14
vt 1.74845 9.02389e-16
v 282.813 0 -2.84217e-14
vt 1.78165 0
v 285.548 9.02389e-14 -2.84217e-14
vt 1.83632 9.02389e-16
v 288.927 0 -2.84217e-14
vt 1.90388 0
v 292.522 9.02389e-14 -2.84217e-14
vt 1.97573 9.02389e-16
v 295.902 9.02389e-14 -2.84217e-14
vt 2.04329 9.02389e-16
v 298.637 9.02389e-14 -2.84217e-14
vt 2.09796 9.02389e-16
v 300.297 9.02389e-14 -2.84217e-14
vt 2.13116 9.02389e-16
v 300.693 0.00419463 -2.84217e-14
vt 2.13908 4.19463e-05
v 300.92 0.0497631 -2.84217e-14
vt 2.14362 0.000497631
v 301.13 0.141478 -2.84217e-14
vt 2.14781 0.00141478
v 301.318 0.274378 -2.84217e-14
vt 2.15157 0.00274378
v 301.48 0.443499 -2.84217e-14
vt 2.15481 0.00443499
v 301.612 0.643879 -2.79776e-14
vt 2.15744 0.00643879
v 301.709 0.870556 -2.79776e-14
vt 2.15938 0.00870556
v 301.766 1.11857 -2.79776e-14
vt 2.16052 0.0111857
v 301.781 1.3322 -2.79776e-14
vt 2.16082 0.013322
v 301.781 1.43458 -2.79776e-14
vt 2.16082 0.0143458
v 301.781 1.6519 -2.75335e-14
vt 2.16082 0.016519
v 301.781 1.94452 -2.75335e-14
vt 2.16082 0.0194452
v 301.781 2.2728 -2.75335e-14
vt 2.16082 0.022728
v 301.781 2.59713 -2.70894e-14
vt 2.16082 0.0259713
v 301.781 2.87786 -2.70894e-14
vt 2.16082 0.0287786
v 301.781 3.07536 -2.70894e-14
vt 2.16082 0.0307536
v 301.781 3.15 -2.70894e-14
vt 2.16082 0.0315
v 341.771 3.15 -2.70894e-14
vt 2.96021 0.0315
v 341.771 54.266 -4.44089e-15
vt 2.96021 0.54266
v 208.333 54.266 -4.44089e-15
vt 0.292799 0.54266
v 210.426 52.1735 -5.32907e-15
vt 0.334627 0.521735
v 210.426 50.0811 -6.21725e-15
vt 0.334627 0.500811
f 5/5/2 6/6/2 7/7/2 8/8/2 9/9/2 10/10/2 11/11/2 12/12/2 13/13/2 14/14/2 15/15/2 16/16/2 17/17/2 18/18/2 19/19/2 20/20/2 21/21/2 22/22/2 23/23/2 24/24/2 25/25/2 26/26/2 27/27/2 28/28/2 29/29/2 30/30/2 31/31/2 32/32/2 33/33/2 34/34/2 35/35/2 36/36/2 37/37/2 38/38/2 39/39/2 40/40/2 41/41/2 42/42/2 43/43/2 44/44/2 45/45/2 46/46/2 47/47/2 48/48/2 49/49/2 50/50/2 2/51/2 1/52/2 51/53/2 52/54/2 53/55/2 54/56/2 55/57/2 56/58/2 57/59/2 58/60/2 59/61/2 60/62/2 61/63/2 62/64/2 63/65/2 64/66/2 65/67/2 66/68/2 67/69/2 68/70/2 69/71/2 70/72/2 71/73/2 72/74/2 73/75/2 74/76/2 75/77/2 76/78/2 77/79/2 78/80/2 79/81/2 80/82/2 81/83/2 82/84/2 83/85/2 84/86/2 85/87/2 86/88/2 87/89/2 88/90/2 89/91/2 90/92/2 91/93/2 92/94/2 

vt 0.395289 0.03
vn -1.15973e-12 -1 -4.44089e-16
vt 0.334627 0.03
v 210.426 3.15 -3
vt 0.334627 0
v 213.46 3.15 -3
vt 0.395289 0
f 6/95/3 5/96/3 93/97/3 94/98/3 

vn 2.10237e-13 -1 -4.44089e-16
v 193.686 3.15 -2.70894e-14
vt 1.32383e-14 0.03
v 193.686 3.15 -3
vt 1.32383e-14 0
f 5/96/4 95/99/4 96/100/4 93/97/4 

v 204.686 57.9129 -2.66454e-15
vt 0.219898 0.579129
v 204.714 57.9522 -2.66454e-15
vt 0.220453 0.579522
v 204.787 58.0675 -2.66454e-15
vt 0.221919 0.580675
v 204.891 58.2551 -2.66454e-15
vt 0.223995 0.582551
v 205.011 58.5111 -2.22045e-15
vt 0.226383 0.585111
v 205.131 58.8317 -2.22045e-15
vt 0.228781 0.588317
v 205.236 59.213 -2.22045e-15
vt 0.230892 0.59213
v 205.312 59.6513 -1.77636e-15
vt 0.232413 0.596513
v 205.344 60.1427 -1.77636e-15
vt 0.233047 0.601427
v 205.307 60.6688 -1.33227e-15
vt 0.232297 0.606688
v 205.171 61.1815 -1.33227e-15
vt 0.229584 0.611815
v 204.94 61.6642 -8.88178e-16
vt 0.224963 0.616642
v 204.617 62.1027 -8.88178e-16
vt 0.218517 0.621027
v 204.208 62.4826 -8.88178e-16
vt 0.210329 0.624826
v 203.715 62.7895 -4.44089e-16
vt 0.200482 0.627895
v 203.144 63.0093 -4.44089e-16
vt 0.189057 0.630093
v 202.497 63.1275 -4.44089e-16
vt 0.176138 0.631275
v 201.764 63.1283 -4.44089e-16
vt 0.161486 0.631283
v 201.066 63.0009 -4.44089e-16
vt 0.147524 0.630009
v 200.458 62.7643 -4.44089e-16
vt 0.135379 0.627643
v 199.942 62.4406 -8.88178e-16
vt 0.125061 0.624406
v 199.518 62.0519 -8.88178e-16
vt 0.116581 0.620519
v 199.186 61.6204 -8.88178e-16
vt 0.109951 0.616204
v 198.948 61.1682 -1.33227e-15
vt 0.105182 0.611682
v 198.803 60.7176 -1.33227e-15
vt 0.102284 0.607176
v 198.748 60.2404 -1.77636e-15
vt 0.101188 0.602404
v 198.757 59.6784 -1.77636e-15
vt 0.101371 0.596784
v 198.819 59.1978 -2.22045e-15
vt 0.102606 0.591978
v 198.917 58.7968 -2.22045e-15
vt 0.104562 0.587968
v 199.034 58.4732 -2.66454e-15
vt 0.106907 0.584732
v 199.154 58.225 -2.66454e-15
vt 0.109309 0.58225
v 199.26 58.0502 -2.66454e-15
vt 0.111435 0.580502
v 199.336 57.9469 -2.66454e-15
vt 0.112954 0.579469
v 199.393 57.8806 -2.66454e-15
vt 0.114085 0.578806
v 193.686 52.1735 -5.32907e-15
vt 0 0.521735
vt 0 0.0315
f 5/5/2 92/94/2 91/93/2 90/92/2 97/101/2 98/102/2 99/103/2 100/104/2 101/105/2 102/106/2 103/107/2 104/108/2 105/109/2 106/110/2 107/111/2 108/112/2 109/113/2 110/114/2 111/115/2 112/116/2 113/117/2 114/118/2 115/119/2 116/120/2 117/121/2 118/122/2 119/123/2 120/124/2 121/125/2 122/126/2 123/127/2 124/128/2 125/129/2 126/130/2 127/131/2 128/132/2 129/133/2 130/134/2 131/135/2 95/136/2 

vt -0.0629685 0.03
vt -1.00112 0.03
v 210.426 50.0811 -3
vt -1.00112 0
vt -0.0629685 0
f 5/137/1 92/138/1 132/139/1 93/140/1 

vt -1.04295 0.03
v 210.426 52.1735 -3
vt -1.04295 0
f 92/138/1 91/141/1 133/142/1 132/139/1 

vt -0.500859 0.03
vn -0.707107 -0.707107 -3.14018e-16
vt -0.560013 0.03
v 208.333 54.266 -3
vt -0.560013 0
vt -0.500859 0
f 91/143/5 90/144/5 134/145/5 133/146/5 

vt 0.663111 0.03
vn 0.707107 0.707107 3.14018e-16
vt 0.560013 0.03
vt 0.560013 0
v 204.686 57.9129 -3
vt 0.663111 0
f 97/147/6 90/148/6 134/149/6 135/150/6 

vt -0.292799 0.03
vn -8.1407e-09 1 4.44089e-16
vt -2.96021 0.03
v 341.771 54.266 -3
vt -2.96021 0
vt -0.292799 0
f 90/151/7 89/152/7 136/153/7 134/154/7 

vt 1.08478 0.03
vn 1 0 -0
vt 0.0629685 0.03
v 341.771 3.15 -3
vt 0.0629685 0
vt 1.08478 0
f 89/155/8 88/156/8 137/157/8 136/158/8 

vt 2.96021 0.03
vn 0 -1 -4.44089e-16
vt 2.16082 0.03
v 301.781 3.15 -3
vt 2.16082 0
vt 2.96021 0
f 88/159/9 87/160/9 138/161/9 137/162/9 

vt 0.0614764 0.03
v 301.781 3.07536 -3
vt 0.0614764 0
f 87/156/8 86/163/8 139/164/8 138/157/8 

vt 0.0575284 0.03
v 301.781 2.87786 -3
vt 0.0575284 0
f 86/163/8 85/165/8 140/166/8 139/164/8 

vt 0.0519166 0.03
v 301.781 2.59713 -3
vt 0.0519166 0
f 85/165/8 84/167/8 141/168/8 140/166/8 

vt 0.0454333 0.03
v 301.781 2.2728 -3
vt 0.0454333 0
f 84/167/8 83/169/8 142/170/8 141/168/8 

vt 0.0388709 0.03
v 301.781 1.94452 -3
vt 0.0388709 0
f 83/169/8 82/171/8 143/172/8 142/170/8 

vt 0.0330214 0.03
v 301.781 1.6519 -3
vt 0.0330214 0
f 82/171/8 81/173/8 144/174/8 143/172/8 

vt 0.0286772 0.03
v 301.781 1.43458 -3
vt 0.0286772 0
f 81/173/8 80/175/8 145/176/8 144/174/8 

vt 0.0266306 0.03
v 301.781 1.3322 -3
vt 0.0266306 0
f 80/175/8 79/177/8 146/178/8 145/176/8 

vt 0.175266 0.03
vn 0.997629 -0.0688158 -3.05604e-17
vt 0.170985 0.03
v 301.766 1.11857 -3
vt 0.170985 0
vt 0.175266 0
f 79/179/10 78/180/10 147/181/10 146/182/10 

vt 0.5096 0.03
vn 0.974177 -0.225786 -1.00269e-16
vt 0.504511 0.03
v 301.709 0.870556 -3
vt 0.504511 0
vt 0.5096 0
f 78/183/11 77/184/11 148/185/11 147/186/11 

vt 0.863784 0.03
vn 0.919708 -0.392604 -1.74351e-16
vt 0.858858 0.03
v 301.612 0.643879 -3
vt 0.858858 0
vt 0.863784 0
f 77/187/12 76/188/12 149/189/12 148/190/12 

vt 1.19528 0.03
vn 0.835796 -0.54904 -2.43823e-16
vt 1.19049 0.03
v 301.48 0.443499 -3
vt 1.19049 0
vt 1.19528 0
f 76/191/13 75/192/13 150/193/13 149/194/13 

vt 1.49737 0.03
vn 0.721968 -0.691927 -3.07277e-16
vt 1.49269 0.03
v 301.318 0.274378 -3
vt 1.49269 0
vt 1.49737 0
f 75/195/14 74/196/14 151/197/14 150/198/14 

vt 1.76046 0.03
vn 0.576993 -0.816749 -3.6271e-16
vt 1.75585 0.03
v 301.13 0.141478 -3
vt 1.75585 0
vt 1.76046 0
f 74/199/15 73/200/15 152/201/15 151/202/15 

vt 1.96903 0.03
vn 0.400638 -0.916236 -4.06891e-16
vt 1.96446 0.03
v 300.92 0.0497631 -3
vt 1.96446 0
vt 1.96903 0
f 73/203/16 72/204/16 153/205/16 152/206/16 

vt 2.10187 0.03
vn 0.19685 -0.980434 -4.354e-16
vt 2.09724 0.03
v 300.693 0.00419463 -3
vt 2.09724 0
vt 2.10187 0
f 72/207/17 71/208/17 154/209/17 153/210/17 

vt 2.13896 0.03
vn 0.010583 -0.999944 -4.44064e-16
vt 2.13104 0.03
v 300.297 9.15712e-14 -3
vt 2.13104 0
vt 2.13896 0
f 71/211/18 70/212/18 155/213/18 154/214/18 

vt 2.13116 0.03
vt 2.09796 0.03
v 298.637 9.15712e-14 -3
vt 2.09796 0
vt 2.13116 0
f 70/215/9 69/216/9 156/217/9 155/218/9 

vt 2.04329 0.03
v 295.902 9.15712e-14 -3
vt 2.04329 0
f 69/216/9 68/219/9 157/220/9 156/217/9 

vt 1.97573 0.03
v 292.522 9.15712e-14 -3
vt 1.97573 0
f 68/219/9 67/221/9 158/222/9 157/220/9 

vn 2.51042e-14 -1 -4.44089e-16
vt 1.90388 0.03
v 288.927 1.33227e-15 -3
f 67/221/19 66/223/19 159/68/19 158/222/19 

vn -2.67005e-14 -1 -4.44089e-16
vt 1.83632 0.03
v 285.548 9.15712e-14 -3
vt 1.83632 0
f 66/223/20 65/224/20 160/225/20 159/68/20 

vn 3.29945e-14 -1 -4.44089e-16
vt 1.78165 0.03
v 282.813 1.33227e-15 -3
f 65/224/21 64/226/21 161/66/21 160/225/21 

vn -5.43456e-14 -1 -4.44089e-16
vt 1.74845 0.03
v 281.152 9.15712e-14 -3
vt 1.74845 0
f 64/226/22 63/227/22 162/228/22 161/66/22 

vt 1.74836 0.03
vn -0.010583 -0.999944 -4.44064e-16
vt 1.74043 0.03
v 280.756 0.00419463 -3
vt 1.74043 0
vt 1.74836 0
f 63/229/23 62/230/23 163/231/23 162/232/23 

vt 1.70646 0.03
vn -0.19685 -0.980434 -4.354e-16
vt 1.70183 0.03
v 280.529 0.0497631 -3
vt 1.70183 0
vt 1.70646 0
f 62/233/24 61/234/24 164/235/24 163/236/24 

vt 1.59018 0.03
vn -0.400638 -0.916236 -4.06891e-16
vt 1.58561 0.03
v 280.319 0.141478 -3
vt 1.58561 0
vt 1.59018 0
f 61/237/25 60/238/25 165/239/25 164/240/25 

vt 1.41282 0.03
vn -0.576993 -0.816749 -3.6271e-16
vt 1.40821 0.03
v 280.131 0.274378 -3
vt 1.40821 0
vt 1.41282 0
f 60/241/26 59/242/26 166/243/26 165/244/26 

vt 1.19172 0.03
vn -0.721968 -0.691927 -3.07277e-16
vt 1.18703 0.03
v 279.969 0.443499 -3
vt 1.18703 0
vt 1.19172 0
f 59/245/27 58/246/27 167/247/27 166/248/27 

vt 0.939574 0.03
vn -0.835796 -0.54904 -2.43823e-16
vt 0.934781 0.03
v 279.837 0.643879 -3
vt 0.934781 0
vt 0.939574 0
f 58/249/28 57/250/28 168/251/28 167/252/28 

vt 0.664292 0.03
vn -0.919708 -0.392604 -1.74351e-16
vt 0.659366 0.03
v 279.741 0.870556 -3
vt 0.659366 0
vt 0.664292 0
f 57/253/29 56/254/29 169/255/29 168/256/29 

vt 0.371452 0.03
vn -0.974177 -0.225786 -1.00269e-16
vt 0.366363 0.03
v 279.683 1.11857 -3
vt 0.366363 0
vt 0.371452 0
f 56/257/30 55/258/30 170/259/30 169/260/30 

vt 0.0959931 0.03
vn -0.997629 -0.0688158 -3.05604e-17
vt 0.0917125 0.03
v 279.668 1.3322 -3
vt 0.0917125 0
vt 0.0959931 0
f 55/261/31 54/262/31 171/263/31 170/264/31 

vt -0.0266306 0.03
vt -0.0286772 0.03
v 279.668 1.43458 -3
vt -0.0286772 0
vt -0.0266306 0
f 54/265/1 53/266/1 172/267/1 171/268/1 

vt -0.0330214 0.03
v 279.668 1.6519 -3
vt -0.0330214 0
f 53/266/1 52/269/1 173/270/1 172/267/1 

vt -0.0388709 0.03
v 279.668 1.94452 -3
vt -0.0388709 0
f 52/269/1 51/271/1 174/272/1 173/270/1 

f 51/271/1 1/1/1 4/4/1 174/272/1 

vt -0.395289 0.0315
vn 3.98912e-32 4.44089e-16 -1
vt -0.334627 0.0315
vt -0.334627 0.500811
vt -0.334627 0.521735
vt -0.292799 0.54266
vt -2.96021 0.54266
vt -2.96021 0.0315
vt -2.16082 0.0315
vt -2.16082 0.0307536
vt -2.16082 0.0287786
vt -2.16082 0.0259713
vt -2.16082 0.022728
vt -2.16082 0.0194452
vt -2.16082 0.016519
vt -2.16082 0.0143458
vt -2.16082 0.013322
vt -2.16052 0.0111857
vt -2.15938 0.00870556
vt -2.15744 0.00643879
vt -2.15481 0.00443499
vt -2.15157 0.00274378
vt -2.14781 0.00141478
vt -2.14362 0.000497631
vt -2.13908 4.19463e-05
vt -2.13116 9.02389e-16
vt -2.09796 9.02389e-16
vt -2.04329 9.02389e-16
vt -1.97573 9.02389e-16
vt -1.90388 0
vt -1.83632 9.02389e-16
vt -1.78165 0
vt -1.74845 9.02389e-16
vt -1.74053 4.19463e-05
vt -1.73599 0.000497631
vt -1.7318 0.00141478
vt -1.72804 0.00274378
vt -1.7248 0.00443499
vt -1.72217 0.00643879
vt -1.72023 0.00870556
vt -1.71909 0.0111857
vt -1.71879 0.013322
vt -1.71879 0.0143458
vt -1.71879 0.016519
vt -1.71879 0.0194452
vt -1.71879 0.022728
vt -1.71879 0.0259713
v 279.668 2.87786 -3
vt -1.71879 0.0287786
v 279.668 3.07536 -3
vt -1.71879 0.0307536
v 279.668 3.15 -3
vt -1.71879 0.0315
v 235.573 3.15 -3
vt -0.837318 0.0315
v 235.573 3.07536 -3
vt -0.837318 0.0307536
v 235.573 2.87786 -3
vt -0.837318 0.0287786
v 235.573 2.59713 -3
vt -0.837318 0.0259713
v 235.573 2.2728 -3
vt -0.837318 0.022728
v 235.573 1.94452 -3
vt -0.837318 0.0194452
v 235.573 1.6519 -3
vt -0.837318 0.016519
v 235.573 1.43458 -3
vt -0.837318 0.0143458
v 235.573 1.3322 -3
vt -0.837318 0.013322
v 235.558 1.11857 -3
vt -0.837023 0.0111857
v 235.501 0.870556 -3
vt -0.835874 0.00870556
v 235.404 0.643879 -3
vt -0.83394 0.00643879
v 235.272 0.443499 -3
vt -0.831308 0.00443499
v 235.11 0.274378 -3
vt -0.828068 0.00274378
v 234.922 0.141478 -3
vt -0.824308 0.00141478
v 234.712 0.0497631 -3
vt -0.820115 0.000497631
v 234.485 0.00419463 -3
vt -0.815578 4.19463e-05
v 234.089 9.15712e-14 -3
vt -0.807655 9.02389e-16
v 232.428 9.15712e-14 -3
vt -0.774463 9.02389e-16
v 229.693 9.15712e-14 -3
vt -0.719791 9.02389e-16
v 226.314 9.15712e-14 -3
vt -0.652231 9.02389e-16
v 222.719 1.33227e-15 -3
vt -0.580376 0
v 219.34 9.15712e-14 -3
vt -0.512816 9.02389e-16
v 216.605 1.33227e-15 -3
vt -0.458144 0
v 214.944 9.15712e-14 -3
vt -0.424951 9.02389e-16
v 214.548 0.00419463 -3
vt -0.417029 4.19463e-05
v 214.321 0.0497631 -3
vt -0.412492 0.000497631
v 214.111 0.141478 -3
vt -0.408299 0.00141478
v 213.923 0.274378 -3
vt -0.404538 0.00274378
v 213.761 0.443499 -3
vt -0.401298 0.00443499
v 213.629 0.643879 -3
vt -0.398667 0.00643879
v 213.533 0.870556 -3
vt -0.396733 0.00870556
v 213.475 1.11857 -3
vt -0.395584 0.0111857
v 213.46 1.3322 -3
vt -0.395289 0.013322
v 213.46 1.43458 -3
vt -0.395289 0.0143458
v 213.46 1.6519 -3
vt -0.395289 0.016519
v 213.46 1.94452 -3
vt -0.395289 0.0194452
v 213.46 2.2728 -3
vt -0.395289 0.022728
v 213.46 2.59713 -3
vt -0.395289 0.0259713
v 213.46 2.87786 -3
vt -0.395289 0.0287786
v 213.46 3.07536 -3
vt -0.395289 0.0307536
f 94/273/32 93/274/32 132/275/32 133/276/32 134/277/32 136/278/32 137/279/32 138/280/32 139/281/32 140/282/32 141/283/32 142/284/32 143/285/32 144/286/32 145/287/32 146/288/32 147/289/32 148/290/32 149/291/32 150/292/32 151/293/32 152/294/32 153/295/32 154/296/32 155/297/32 156/298/32 157/299/32 158/300/32 159/301/32 160/302/32 161/303/32 162/304/32 163/305/32 164/306/32 165/307/32 166/308/32 167/309/32 168/310/32 169/311/32 170/312/32 171/313/32 172/314/32 173/315/32 174/316/32 4/317/32 3/318/32 175/319/32 176/320/32 177/321/32 178/322/32 179/323/32 180/324/32 181/325/32 182/326/32 183/327/32 184/328/32 185/329/32 186/330/32 187/331/32 188/332/32 189/333/32 190/334/32 191/335/32 192/336/32 193/337/32 194/338/32 195/339/32 196/340/32 197/341/32 198/342/32 199/343/32 200/344/32 201/345/32 202/346/32 203/347/32 204/348/32 205/349/32 206/350/32 207/351/32 208/352/32 209/353/32 210/354/32 211/355/32 212/356/32 213/357/32 214/358/32 215/359/32 216/360/32 217/361/32 218/362/32 

vn 5.36145e-34 4.44089e-16 -1
v 193.686 52.1735 -3
v 199.393 57.8806 -3
vt -0.114085 0.578806
v 199.336 57.9469 -3
vt -0.112954 0.579469
v 199.26 58.0502 -3
vt -0.111435 0.580502
v 199.154 58.225 -3
vt -0.109309 0.58225
v 199.034 58.4732 -3
vt -0.106907 0.584732
v 198.917 58.7968 -3
vt -0.104562 0.587968
v 198.819 59.1978 -3
vt -0.102606 0.591978
v 198.757 59.6784 -3
vt -0.101371 0.596784
v 198.748 60.2404 -3
vt -0.101188 0.602404
v 198.803 60.7176 -3
vt -0.102284 0.607176
v 198.948 61.1682 -3
vt -0.105182 0.611682
v 199.186 61.6204 -3
vt -0.109951 0.616204
v 199.518 62.0519 -3
vt -0.116581 0.620519
v 199.942 62.4406 -3
vt -0.125061 0.624406
v 200.458 62.7643 -3
vt -0.135379 0.627643
v 201.066 63.0009 -3
vt -0.147524 0.630009
v 201.764 63.1283 -3
vt -0.161486 0.631283
v 202.497 63.1275 -3
vt -0.176138 0.631275
v 203.144 63.0093 -3
vt -0.189057 0.630093
v 203.715 62.7895 -3
vt -0.200482 0.627895
v 204.208 62.4826 -3
vt -0.210329 0.624826
v 204.617 62.1027 -3
vt -0.218517 0.621027
v 204.94 61.6642 -3
vt -0.224963 0.616642
v 205.171 61.1815 -3
vt -0.229584 0.611815
v 205.307 60.6688 -3
vt -0.232297 0.606688
v 205.344 60.1427 -3
vt -0.233047 0.601427
v 205.312 59.6513 -3
vt -0.232413 0.596513
v 205.236 59.213 -3
vt -0.230892 0.59213
v 205.131 58.8317 -3
vt -0.228781 0.588317
v 205.011 58.5111 -3
vt -0.226383 0.585111
v 204.891 58.2551 -3
vt -0.223995 0.582551
v 204.787 58.0675 -3
vt -0.221919 0.580675
v 204.714 57.9522 -3
vt -0.220453 0.579522
vt -0.219898 0.579129
f 132/275/33 93/274/33 96/136/33 219/135/33 220/363/33 221/364/33 222/365/33 223/366/33 224/367/33 225/368/33 226/369/33 227/370/33 228/371/33 229/372/33 230/373/33 231/374/33 232/375/33 233/376/33 234/377/33 235/378/33 236/379/33 237/380/33 238/381/33 239/382/33 240/383/33 241/384/33 242/385/33 243/386/33 244/387/33 245/388/33 246/389/33 247/390/33 248/391/33 249/392/33 250/393/33 251/394/33 252/395/33 135/396/33 134/277/33 133/276/33 

f 95/137/1 131/141/1 219/142/1 96/140/1 

vt -0.737476 0.03
vn -0.707107 0.707107 3.14018e-16
vt -0.898816 0.03
vt -0.898816 0
vt -0.737476 0
f 131/397/34 130/398/34 220/399/34 219/400/34 

vt -0.806052 0.03
vn -0.760661 -0.649149 -2.8828e-16
vt -0.807794 0.03
vn -0.783693 -0.621148 -2.75845e-16
vt -0.807794 0
vt -0.806052 0
f 130/401/35 129/402/36 221/403/36 220/404/35 

vt -0.866376 0.03
vt -0.868941 0.03
vn -0.830744 -0.556654 -2.47204e-16
vt -0.868941 0
vt -0.866376 0
f 129/405/36 128/406/37 222/407/37 221/408/36 

vt -0.933315 0.03
vt -0.937405 0.03
vn -0.878161 -0.478365 -2.12437e-16
vt -0.937405 0
vt -0.933315 0
f 128/409/37 127/410/38 223/411/38 222/412/37 

vt -1 0.03
vt -1.00551 0.03
vn -0.921341 -0.388756 -1.72642e-16
vt -1.00551 0
vt -1 0
f 127/413/38 126/414/39 224/415/39 223/416/38 

vt -1.06249 0.03
vt -1.06937 0.03
vn -0.957231 -0.289323 -1.28485e-16
vt -1.06937 0
vt -1.06249 0
f 126/417/39 125/418/40 225/419/40 224/420/39 

vt -1.11707 0.03
vt -1.12532 0.03
vn -0.983192 -0.182576 -8.10802e-17
vt -1.12532 0
vt -1.11707 0
f 125/421/40 124/422/41 226/423/41 225/424/40 

vt -1.16061 0.03
vt -1.17029 0.03
vn -0.997402 -0.0720296 -3.19876e-17
vt -1.17029 0
vt -1.16061 0
f 124/425/41 123/426/42 227/427/42 226/428/41 

vt -1.19116 0.03
vt -1.2024 0.03
vn -0.998796 0.0490526 2.17837e-17
vt -1.2024 0
vt -1.19116 0
f 123/429/42 122/430/43 228/431/43 227/432/42 

vt -1.20788 0.03
vt -1.21749 0.03
vn -0.977437 0.211225 9.3803e-17
vt -1.21749 0
vt -1.20788 0
f 122/433/43 121/434/44 229/435/44 228/436/43 

vt -1.18675 0.03
vt -1.19622 0.03
vn -0.921686 0.387936 1.72278e-16
vt -1.19622 0
vt -1.18675 0
f 121/437/44 120/438/45 230/439/45 229/440/44 

vt -1.13051 0.03
vt -1.14073 0.03
vn -0.841669 0.539993 2.39805e-16
vt -1.14073 0
vt -1.13051 0
f 120/441/45 119/442/46 231/443/46 230/444/45 

vt -1.04364 0.03
vt -1.05452 0.03
vn -0.737007 0.675885 3.00153e-16
vt -1.05452 0
vt -1.04364 0
f 119/445/46 118/446/47 232/447/47 231/448/46 

vt -0.923977 0.03
vt -0.935479 0.03
vn -0.605971 0.795487 3.53267e-16
vt -0.935479 0
vt -0.923977 0
f 118/449/47 117/450/48 233/451/48 232/452/47 

vt -0.769171 0.03
vt -0.78135 0.03
vn -0.449126 0.893468 3.9678e-16
vt -0.78135 0
vt -0.769171 0
f 117/453/48 116/454/49 234/455/49 233/456/48 

vt -0.581467 0.03
vt -0.594501 0.03
vn -0.272371 0.962192 4.27299e-16
vt -0.594501 0
vt -0.581467 0
f 116/457/49 115/458/50 235/459/50 234/460/49 

vt -0.371012 0.03
vt -0.385204 0.03
vn -0.0895188 0.995985 4.42306e-16
vt -0.385204 0
vt -0.371012 0
f 115/461/50 114/462/51 236/463/51 235/464/50 

vt -0.160154 0.03
vt -0.174806 0.03
vn 0.0908456 0.995865 4.42253e-16
vt -0.174806 0
vt -0.160154 0
f 114/465/51 113/466/52 237/467/52 236/468/51 

vt 0.0537568 0.03
vt 0.0406236 0.03
vn 0.270574 0.962699 4.27524e-16
vt 0.0406236 0
vt 0.0537568 0
f 113/469/52 112/470/53 238/471/53 237/472/52 

vt 0.275596 0.03
vt 0.263356 0.03
vn 0.445912 0.895077 3.97494e-16
vt 0.263356 0
vt 0.275596 0
f 112/473/53 111/474/54 239/475/54 238/476/53 

vt 0.493697 0.03
vt 0.482094 0.03
vn 0.607211 0.794541 3.52847e-16
vt 0.482094 0
vt 0.493697 0
f 111/477/54 110/478/55 240/479/55 239/480/54 

vt 0.695159 0.03
vt 0.683992 0.03
vn 0.746147 0.665781 2.95666e-16
vt 0.683992 0
vt 0.695159 0
f 110/481/55 109/482/56 241/483/56 240/484/55 

vt 0.87066 0.03
vt 0.85978 0.03
vn 0.857529 0.514435 2.28455e-16
vt 0.85978 0
vt 0.87066 0
f 109/485/56 108/486/57 242/487/57 241/488/56 

vt 1.0146 0.03
vt 1.0039 0.03
vn 0.938426 0.345481 1.53424e-16
vt 1.0039 0
vt 1.0146 0
f 108/489/57 107/490/58 243/491/58 242/492/57 

vt 1.12349 0.03
vt 1.11289 0.03
vn 0.986415 0.164271 7.2951e-17
vt 1.11289 0
vt 1.12349 0
f 107/493/58 106/494/59 244/495/59 243/496/58 

vt 1.19319 0.03
vt 1.18264 0.03
vn 0.999994 0.00336283 1.49339e-18
vt 1.18264 0
vt 1.19319 0
f 106/497/59 105/498/60 245/499/60 244/500/59 

vt 1.21476 0.03
vt 1.20492 0.03
vn 0.993022 -0.11793 -5.23714e-17
vt 1.20492 0
vt 1.21476 0
f 105/501/60 104/502/61 246/503/61 245/504/60 

vt 1.21461 0.03
vt 1.20572 0.03
vn 0.975675 -0.219223 -9.73544e-17
vt 1.20572 0
vt 1.21461 0
f 104/505/61 103/506/62 247/507/62 246/508/61 

vt 1.20237 0.03
vt 1.19446 0.03
vn 0.951074 -0.308964 -1.37207e-16
vt 1.19446 0
vt 1.20237 0
f 103/509/62 102/510/63 248/511/63 247/512/62 

vt 1.18162 0.03
vt 1.17478 0.03
vn 0.922095 -0.386963 -1.71846e-16
vt 1.17478 0
vt 1.18162 0
f 102/513/63 101/514/64 249/515/64 248/516/63 

vt 1.15567 0.03
vt 1.15002 0.03
vn 0.891067 -0.453873 -2.0156e-16
vt 1.15002 0
vt 1.15567 0
f 101/517/64 100/518/65 250/519/65 249/520/64 

vt 1.12727 0.03
vt 1.12299 0.03
vn 0.859791 -0.510645 -2.26772e-16
vt 1.12299 0
vt 1.12727 0
f 100/521/65 99/522/66 251/523/66 250/524/65 

vt 1.09868 0.03
vt 1.09595 0.03
vn 0.830571 -0.556913 -2.47319e-16
vt 1.09595 0
vt 1.09868 0
f 99/525/66 98/526/67 252/527/67 251/528/66 

vt 1.07332 0.03
vt 1.07236 0.03
vn 0.816684 -0.577086 -2.56278e-16
vt 1.07236 0
vt 1.07332 0
f 98/529/67 97/530/68 135/531/68 252/532/67 

vt -0.0575284 0.03
vt -0.0575284 0
f 2/2/1 50/533/1 175/534/1 3/3/1 

vt -0.0614764 0.03
vt -0.0614764 0
f 50/533/1 49/535/1 176/536/1 175/534/1 

f 49/535/1 48/137/1 177/140/1 176/536/1 

vt 1.71879 0.03
vt 0.837318 0.03
vt 0.837318 0
vt 1.71879 0
f 48/537/9 47/538/9 178/539/9 177/540/9 

f 47/156/8 46/163/8 179/164/8 178/157/8 

f 46/163/8 45/165/8 180/166/8 179/164/8 

f 45/165/8 44/167/8 181/168/8 180/166/8 

f 44/167/8 43/169/8 182/170/8 181/168/8 

f 43/169/8 42/171/8 183/172/8 182/170/8 

f 42/171/8 41/173/8 184/174/8 183/172/8 

f 41/173/8 40/175/8 185/176/8 184/174/8 

f 40/175/8 39/177/8 186/178/8 185/176/8 

vt 0.0841882 0.03
vt 0.0799075 0.03
vt 0.0799075 0
vt 0.0841882 0
f 39/541/10 38/542/10 187/543/10 186/544/10 

vt 0.210771 0.03
vt 0.205682 0.03
vt 0.205682 0
vt 0.210771 0
f 38/545/11 37/546/11 188/547/11 187/548/11 

vt 0.344172 0.03
vt 0.339246 0.03
vt 0.339246 0
vt 0.344172 0
f 37/549/12 36/550/12 189/551/12 188/552/12 

vt 0.468624 0.03
vt 0.463831 0.03
vt 0.463831 0
vt 0.468624 0
f 36/553/13 35/554/13 190/555/13 189/556/13 

vt 0.581605 0.03
vt 0.576923 0.03
vt 0.576923 0
vt 0.581605 0
f 35/557/14 34/558/14 191/559/14 190/560/14 

vt 0.679489 0.03
vt 0.674885 0.03
vt 0.674885 0
vt 0.679489 0
f 34/561/15 33/562/15 192/563/15 191/564/15 

vt 0.756394 0.03
vt 0.751818 0.03
vt 0.751818 0
vt 0.756394 0
f 33/565/16 32/566/16 193/567/16 192/568/16 

vt 0.804264 0.03
vt 0.799637 0.03
vt 0.799637 0
vt 0.804264 0
f 32/569/17 31/570/17 194/571/17 193/572/17 

vt 0.815533 0.03
vt 0.80761 0.03
vt 0.80761 0
vt 0.815533 0
f 31/573/18 30/574/18 195/575/18 194/576/18 

vt 0.807655 0.03
vt 0.774463 0.03
vt 0.774463 0
vt 0.807655 0
f 30/577/9 29/578/9 196/579/9 195/580/9 

vt 0.719791 0.03
vt 0.719791 0
f 29/578/9 28/581/9 197/582/9 196/579/9 

vt 0.652231 0.03
vt 0.652231 0
f 28/581/9 27/583/9 198/584/9 197/582/9 

vt 0.580376 0.03
f 27/583/19 26/585/19 199/26/19 198/584/19 

vt 0.512816 0.03
vt 0.512816 0
f 26/585/20 25/586/20 200/587/20 199/26/20 

vt 0.458144 0.03
f 25/586/21 24/588/21 201/24/21 200/587/21 

vt 0.424951 0.03
vt 0.424951 0
f 24/588/22 23/589/22 202/590/22 201/24/22 

vt 0.424928 0.03
vt 0.417005 0.03
vt 0.417005 0
vt 0.424928 0
f 23/591/23 22/592/23 203/593/23 202/594/23 

vt 0.408852 0.03
vt 0.404225 0.03
vt 0.404225 0
vt 0.408852 0
f 22/595/24 21/596/24 204/597/24 203/598/24 

vt 0.377542 0.03
vt 0.372965 0.03
vt 0.372965 0
vt 0.377542 0
f 21/599/25 20/600/25 205/601/25 204/602/25 

vt 0.331846 0.03
vt 0.327242 0.03
vt 0.327242 0
vt 0.331846 0
f 20/603/26 19/604/26 206/605/26 205/606/26 

vt 0.275951 0.03
vt 0.271268 0.03
vt 0.271268 0
vt 0.275951 0
f 19/607/27 18/608/27 207/609/27 206/610/27 

vt 0.212919 0.03
vt 0.208126 0.03
vt 0.208126 0
vt 0.212919 0
f 18/611/28 17/612/28 208/613/28 207/614/28 

vt 0.144681 0.03
vt 0.139754 0.03
vt 0.139754 0
vt 0.144681 0
f 17/615/29 16/616/29 209/617/29 208/618/29 

vt 0.0726238 0.03
vt 0.0675347 0.03
vt 0.0675347 0
vt 0.0726238 0
f 16/619/30 15/620/30 210/621/30 209/622/30 

vt 0.00491529 0.03
vt 0.000634675 0.03
vt 0.000634675 0
vt 0.00491529 0
f 15/623/31 14/624/31 211/625/31 210/626/31 

f 14/265/1 13/266/1 212/267/1 211/268/1 

f 13/266/1 12/269/1 213/270/1 212/267/1 

f 12/269/1 11/271/1 214/272/1 213/270/1 

f 11/271/1 10/1/1 215/4/1 214/272/1 

f 10/1/1 9/2/1 216/3/1 215/4/1 

f 9/2/1 8/533/1 217/534/1 216/3/1 

f 8/533/1 7/535/1 218/536/1 217/534/1 

f 7/535/1 6/137/1 94/140/1 218/536/1 

g Mesh2 ___263_2 Model

v 62.1021 2.2728 -3
vn 1 0 0
v 62.1021 2.59713 -3
v 62.1021 2.59713 -2.70894e-14
v 62.1021 2.2728 -2.75335e-14
f 253/4/69 254/3/69 255/2/69 256/1/69 

v 128.31 3.07536 -3
vn -3.98912e-32 4.44089e-16 -1
v 128.31 2.87786 -3
v 128.31 2.59713 -3
v 128.31 2.2728 -3
v 128.31 1.94452 -3
v 128.31 1.6519 -3
v 128.31 1.43458 -3
v 128.31 1.3322 -3
v 128.296 1.11857 -3
v 128.238 0.870556 -3
v 128.141 0.643879 -3
v 128.01 0.443499 -3
v 127.848 0.274378 -3
v 127.66 0.141478 -3
v 127.45 0.0497631 -3
v 127.223 0.00419463 -3
v 126.826 9.15712e-14 -3
v 125.166 1.33227e-15 -3
v 122.431 9.15712e-14 -3
v 119.051 1.33227e-15 -3
v 115.457 9.15712e-14 -3
v 112.077 9.15712e-14 -3
v 109.342 9.15712e-14 -3
v 107.682 9.15712e-14 -3
v 107.285 0.00419463 -3
v 107.058 0.0497631 -3
v 106.849 0.141478 -3
v 106.661 0.274378 -3
v 106.498 0.443499 -3
v 106.367 0.643879 -3
v 106.27 0.870556 -3
v 106.213 1.11857 -3
v 106.198 1.3322 -3
v 106.198 1.43458 -3
v 106.198 1.6519 -3
v 106.198 1.94452 -3
v 106.198 2.2728 -3
v 106.198 2.59713 -3
v 106.198 2.87786 -3
v 106.198 3.07536 -3
v 106.198 3.15 -3
v 62.1021 3.15 -3
v 62.1021 3.07536 -3
v 62.1021 2.87786 -3
v 62.1021 1.94452 -3
v 62.1021 1.6519 -3
v 62.1021 1.43458 -3
v 62.1021 1.3322 -3
v 62.0874 1.11857 -3
v 62.0299 0.870556 -3
v 61.9331 0.643879 -3
v 61.8015 0.443499 -3
v 61.6394 0.274378 -3
v 61.4513 0.141478 -3
v 61.2416 0.0497631 -3
v 61.0146 0.00419463 -3
v 60.6183 9.15712e-14 -3
v 58.9578 1.33227e-15 -3
v 56.2228 9.15712e-14 -3
v 52.8432 1.33227e-15 -3
v 49.2486 9.15712e-14 -3
v 45.8689 9.15712e-14 -3
v 43.134 9.15712e-14 -3
v 41.4735 9.15712e-14 -3
v 41.0772 0.00419463 -3
v 40.8502 0.0497631 -3
v 40.6405 0.141478 -3
v 40.4523 0.274378 -3
v 40.2903 0.443499 -3
v 40.1586 0.643879 -3
v 40.0619 0.870556 -3
v 40.0044 1.11857 -3
v 39.9896 1.3322 -3
v 39.9896 1.43458 -3
v 39.9896 1.6519 -3
v 39.9896 1.94452 -3
v 39.9896 2.2728 -3
v 39.9896 2.59713 -3
v 39.9896 2.87786 -3
v 39.9896 3.07536 -3
v 39.9896 3.15 -3
v 0 3.15 -3
v 0 54.266 -3
v 133.437 54.266 -3
v 131.345 52.1735 -3
v 131.345 50.0811 -3
v 131.345 3.15 -3
v 128.31 3.15 -3
f 257/362/70 258/361/70 259/360/70 260/359/70 261/358/70 262/357/70 263/356/70 264/355/70 265/354/70 266/353/70 267/352/70 268/351/70 269/350/70 270/349/70 271/348/70 272/347/70 273/346/70 274/345/70 275/344/70 276/343/70 277/342/70 278/341/70 279/340/70 280/339/70 281/338/70 282/337/70 283/336/70 284/335/70 285/334/70 286/333/70 287/332/70 288/331/70 289/330/70 290/329/70 291/328/70 292/327/70 293/326/70 294/325/70 295/324/70 296/323/70 297/322/70 298/321/70 299/320/70 300/319/70 254/318/70 253/317/70 301/316/70 302/315/70 303/314/70 304/313/70 305/312/70 306/311/70 307/310/70 308/309/70 309/308/70 310/307/70 311/306/70 312/305/70 313/304/70 314/303/70 315/302/70 316/301/70 317/300/70 318/299/70 319/298/70 320/297/70 321/296/70 322/295/70 323/294/70 324/293/70 325/292/70 326/291/70 327/290/70 328/289/70 329/288/70 330/287/70 331/286/70 332/285/70 333/284/70 334/283/70 335/282/70 336/281/70 337/280/70 338/279/70 339/278/70 340/277/70 341/276/70 342/275/70 343/274/70 344/273/70 

v 128.31 3.07536 -2.70894e-14
v 128.31 2.87786 -2.70894e-14
f 258/534/69 257/536/69 345/535/69 346/533/69 

v 128.31 3.15 -2.70894e-14
f 257/536/69 344/140/69 347/137/69 345/535/69 

vn 1.15973e-12 -1 -4.44089e-16
v 131.345 3.15 -2.70894e-14
f 344/98/71 343/97/71 348/96/71 347/95/71 

vn -2.10237e-13 -1 -4.44089e-16
v 148.085 3.15 -3
v 148.085 3.15 -2.70894e-14
f 343/97/72 349/100/72 350/99/72 348/96/72 

vn -5.36145e-34 4.44089e-16 -1
v 137.084 57.9129 -3
v 137.056 57.9522 -3
v 136.983 58.0675 -3
v 136.879 58.2551 -3
v 136.76 58.5111 -3
v 136.64 58.8317 -3
v 136.534 59.213 -3
v 136.458 59.6513 -3
v 136.426 60.1427 -3
v 136.464 60.6688 -3
v 136.6 61.1815 -3
v 136.831 61.6642 -3
v 137.153 62.1027 -3
v 137.563 62.4826 -3
v 138.056 62.7895 -3
v 138.627 63.0093 -3
v 139.273 63.1275 -3
v 140.006 63.1283 -3
v 140.705 63.0009 -3
v 141.312 62.7643 -3
v 141.828 62.4406 -3
v 142.253 62.0519 -3
v 142.584 61.6204 -3
v 142.823 61.1682 -3
v 142.968 60.7176 -3
v 143.023 60.2404 -3
v 143.014 59.6784 -3
v 142.952 59.1978 -3
v 142.854 58.7968 -3
v 142.737 58.4732 -3
v 142.617 58.225 -3
v 142.51 58.0502 -3
v 142.434 57.9469 -3
v 142.378 57.8806 -3
v 148.085 52.1735 -3
f 341/276/73 340/277/73 351/396/73 352/395/73 353/394/73 354/393/73 355/392/73 356/391/73 357/390/73 358/389/73 359/388/73 360/387/73 361/386/73 362/385/73 363/384/73 364/383/73 365/382/73 366/381/73 367/380/73 368/379/73 369/378/73 370/377/73 371/376/73 372/375/73 373/374/73 374/373/73 375/372/73 376/371/73 377/370/73 378/369/73 379/368/73 380/367/73 381/366/73 382/365/73 383/364/73 384/363/73 385/135/73 349/136/73 343/274/73 342/275/73 

vn 0.707107 -0.707107 -3.14018e-16
v 133.437 54.266 -4.44089e-15
v 131.345 52.1735 -5.32907e-15
f 341/146/74 340/145/74 386/144/74 387/143/74 

v 137.084 57.9129 -2.66454e-15
f 351/150/34 340/149/34 386/148/34 388/147/34 

vn 8.1407e-09 1 4.44089e-16
v 0 54.266 -4.44089e-15
f 340/154/75 339/153/75 389/152/75 386/151/75 

vn -1 0 -0
v 0 3.15 -2.70894e-14
f 339/158/76 338/157/76 390/156/76 389/155/76 

vn -0 -1 -4.44089e-16
v 39.9896 3.15 -2.70894e-14
f 338/162/77 337/161/77 391/160/77 390/159/77 

v 39.9896 3.07536 -2.70894e-14
f 337/157/76 336/164/76 392/163/76 391/156/76 

v 39.9896 2.87786 -2.70894e-14
f 336/164/76 335/166/76 393/165/76 392/163/76 

v 39.9896 2.59713 -2.70894e-14
f 335/166/76 334/168/76 394/167/76 393/165/76 

v 39.9896 2.2728 -2.75335e-14
f 334/168/76 333/170/76 395/169/76 394/167/76 

v 39.9896 1.94452 -2.75335e-14
f 333/170/76 332/172/76 396/171/76 395/169/76 

v 39.9896 1.6519 -2.75335e-14
f 332/172/76 331/174/76 397/173/76 396/171/76 

v 39.9896 1.43458 -2.79776e-14
f 331/174/76 330/176/76 398/175/76 397/173/76 

v 39.9896 1.3322 -2.79776e-14
f 330/176/76 329/178/76 399/177/76 398/175/76 

v 40.0044 1.11857 -2.79776e-14
f 329/182/31 328/181/31 400/180/31 399/179/31 

v 40.0619 0.870556 -2.79776e-14
f 328/186/30 327/185/30 401/184/30 400/183/30 

v 40.1586 0.643879 -2.79776e-14
f 327/190/29 326/189/29 402/188/29 401/187/29 

v 40.2903 0.443499 -2.84217e-14
f 326/194/28 325/193/28 403/192/28 402/191/28 

v 40.4523 0.274378 -2.84217e-14
f 325/198/27 324/197/27 404/196/27 403/195/27 

v 40.6405 0.141478 -2.84217e-14
f 324/202/26 323/201/26 405/200/26 404/199/26 

v 40.8502 0.0497631 -2.84217e-14
f 323/206/25 322/205/25 406/204/25 405/203/25 

v 41.0772 0.00419463 -2.84217e-14
f 322/210/24 321/209/24 407/208/24 406/207/24 

v 41.4735 9.02389e-14 -2.84217e-14
f 321/214/23 320/213/23 408/212/23 407/211/23 

v 43.134 9.02389e-14 -2.84217e-14
f 320/218/77 319/217/77 409/216/77 408/215/77 

v 45.8689 9.02389e-14 -2.84217e-14
f 319/217/77 318/220/77 410/219/77 409/216/77 

v 49.2486 9.02389e-14 -2.84217e-14
f 318/220/77 317/222/77 411/221/77 410/219/77 

vn -2.51042e-14 -1 -4.44089e-16
v 52.8432 0 -2.84217e-14
f 317/222/78 316/68/78 412/223/78 411/221/78 

vn 2.67005e-14 -1 -4.44089e-16
v 56.2228 9.02389e-14 -2.84217e-14
f 316/68/79 315/225/79 413/224/79 412/223/79 

vn -3.29945e-14 -1 -4.44089e-16
v 58.9578 0 -2.84217e-14
f 315/225/80 314/66/80 414/226/80 413/224/80 

vn 5.43456e-14 -1 -4.44089e-16
v 60.6183 9.02389e-14 -2.84217e-14
f 314/66/81 313/228/81 415/227/81 414/226/81 

v 61.0146 0.00419463 -2.84217e-14
f 313/232/18 312/231/18 416/230/18 415/229/18 

v 61.2416 0.0497631 -2.84217e-14
f 312/236/17 311/235/17 417/234/17 416/233/17 

v 61.4513 0.141478 -2.84217e-14
f 311/240/16 310/239/16 418/238/16 417/237/16 

v 61.6394 0.274378 -2.84217e-14
f 310/244/15 309/243/15 419/242/15 418/241/15 

v 61.8015 0.443499 -2.84217e-14
f 309/248/14 308/247/14 420/246/14 419/245/14 

v 61.9331 0.643879 -2.79776e-14
f 308/252/13 307/251/13 421/250/13 420/249/13 

v 62.0299 0.870556 -2.79776e-14
f 307/256/12 306/255/12 422/254/12 421/253/12 

v 62.0874 1.11857 -2.79776e-14
f 306/260/11 305/259/11 423/258/11 422/257/11 

v 62.1021 1.3322 -2.79776e-14
f 305/264/10 304/263/10 424/262/10 423/261/10 

v 62.1021 1.43458 -2.79776e-14
f 304/268/69 303/267/69 425/266/69 424/265/69 

v 62.1021 1.6519 -2.75335e-14
f 303/267/69 302/270/69 426/269/69 425/266/69 

v 62.1021 1.94452 -2.75335e-14
f 302/270/69 301/272/69 427/271/69 426/269/69 

f 301/272/69 253/4/69 256/1/69 427/271/69 

v 131.345 50.0811 -6.21725e-15
v 62.1021 2.87786 -2.70894e-14
v 62.1021 3.07536 -2.70894e-14
v 62.1021 3.15 -2.70894e-14
v 106.198 3.15 -2.70894e-14
v 106.198 3.07536 -2.70894e-14
v 106.198 2.87786 -2.70894e-14
v 106.198 2.59713 -2.70894e-14
v 106.198 2.2728 -2.75335e-14
v 106.198 1.94452 -2.75335e-14
v 106.198 1.6519 -2.75335e-14
v 106.198 1.43458 -2.79776e-14
v 106.198 1.3322 -2.79776e-14
v 106.213 1.11857 -2.79776e-14
v 106.27 0.870556 -2.79776e-14
v 106.367 0.643879 -2.79776e-14
v 106.498 0.443499 -2.84217e-14
v 106.661 0.274378 -2.84217e-14
v 106.849 0.141478 -2.84217e-14
v 107.058 0.0497631 -2.84217e-14
v 107.285 0.00419463 -2.84217e-14
v 107.682 9.02389e-14 -2.84217e-14
v 109.342 9.02389e-14 -2.84217e-14
v 112.077 9.02389e-14 -2.84217e-14
v 115.457 9.02389e-14 -2.84217e-14
v 119.051 0 -2.84217e-14
v 122.431 9.02389e-14 -2.84217e-14
v 125.166 0 -2.84217e-14
v 126.826 9.02389e-14 -2.84217e-14
v 127.223 0.00419463 -2.84217e-14
v 127.45 0.0497631 -2.84217e-14
v 127.66 0.141478 -2.84217e-14
v 127.848 0.274378 -2.84217e-14
v 128.01 0.443499 -2.84217e-14
v 128.141 0.643879 -2.79776e-14
v 128.238 0.870556 -2.79776e-14
v 128.296 1.11857 -2.79776e-14
v 128.31 1.3322 -2.79776e-14
v 128.31 1.43458 -2.79776e-14
v 128.31 1.6519 -2.75335e-14
v 128.31 1.94452 -2.75335e-14
v 128.31 2.2728 -2.75335e-14
v 128.31 2.59713 -2.70894e-14
f 428/94/2 387/93/2 386/92/2 389/91/2 390/90/2 391/89/2 392/88/2 393/87/2 394/86/2 395/85/2 396/84/2 397/83/2 398/82/2 399/81/2 400/80/2 401/79/2 402/78/2 403/77/2 404/76/2 405/75/2 406/74/2 407/73/2 408/72/2 409/71/2 410/70/2 411/69/2 412/68/2 413/67/2 414/66/2 415/65/2 416/64/2 417/63/2 418/62/2 419/61/2 420/60/2 421/59/2 422/58/2 423/57/2 424/56/2 425/55/2 426/54/2 427/53/2 256/52/2 255/51/2 429/50/2 430/49/2 431/48/2 432/47/2 433/46/2 434/45/2 435/44/2 436/43/2 437/42/2 438/41/2 439/40/2 440/39/2 441/38/2 442/37/2 443/36/2 444/35/2 445/34/2 446/33/2 447/32/2 448/31/2 449/30/2 450/29/2 451/28/2 452/27/2 453/26/2 454/25/2 455/24/2 456/23/2 457/22/2 458/21/2 459/20/2 460/19/2 461/18/2 462/17/2 463/16/2 464/15/2 465/14/2 466/13/2 467/12/2 468/11/2 469/10/2 470/9/2 346/8/2 345/7/2 347/6/2 348/5/2 

f 342/139/69 341/142/69 387/141/69 428/138/69 

v 148.085 52.1735 -5.32907e-15
v 142.378 57.8806 -2.66454e-15
v 142.434 57.9469 -2.66454e-15
v 142.51 58.0502 -2.66454e-15
v 142.617 58.225 -2.66454e-15
v 142.737 58.4732 -2.66454e-15
v 142.854 58.7968 -2.22045e-15
v 142.952 59.1978 -2.22045e-15
v 143.014 59.6784 -1.77636e-15
v 143.023 60.2404 -1.77636e-15
v 142.968 60.7176 -1.33227e-15
v 142.823 61.1682 -1.33227e-15
v 142.584 61.6204 -8.88178e-16
v 142.253 62.0519 -8.88178e-16
v 141.828 62.4406 -8.88178e-16
v 141.312 62.7643 -4.44089e-16
v 140.705 63.0009 -4.44089e-16
v 140.006 63.1283 -4.44089e-16
v 139.273 63.1275 -4.44089e-16
v 138.627 63.0093 -4.44089e-16
v 138.056 62.7895 -4.44089e-16
v 137.563 62.4826 -8.88178e-16
v 137.153 62.1027 -8.88178e-16
v 136.831 61.6642 -8.88178e-16
v 136.6 61.1815 -1.33227e-15
v 136.464 60.6688 -1.33227e-15
v 136.426 60.1427 -1.77636e-15
v 136.458 59.6513 -1.77636e-15
v 136.534 59.213 -2.22045e-15
v 136.64 58.8317 -2.22045e-15
v 136.76 58.5111 -2.22045e-15
v 136.879 58.2551 -2.66454e-15
v 136.983 58.0675 -2.66454e-15
v 137.056 57.9522 -2.66454e-15
f 350/136/2 471/135/2 472/134/2 473/133/2 474/132/2 475/131/2 476/130/2 477/129/2 478/128/2 479/127/2 480/126/2 481/125/2 482/124/2 483/123/2 484/122/2 485/121/2 486/120/2 487/119/2 488/118/2 489/117/2 490/116/2 491/115/2 492/114/2 493/113/2 494/112/2 495/111/2 496/110/2 497/109/2 498/108/2 499/107/2 500/106/2 501/105/2 502/104/2 503/103/2 504/102/2 388/101/2 386/92/2 387/93/2 428/94/2 348/5/2 

f 349/140/69 385/142/69 471/141/69 350/137/69 

f 385/400/6 384/399/6 472/398/6 471/397/6 

vn 0.760661 -0.649149 -2.8828e-16
vn 0.783693 -0.621148 -2.75845e-16
f 384/404/82 383/403/83 473/402/83 472/401/82 

vn 0.830744 -0.556654 -2.47204e-16
f 383/408/83 382/407/84 474/406/84 473/405/83 

vn 0.878161 -0.478365 -2.12437e-16
f 382/412/84 381/411/85 475/410/85 474/409/84 

vn 0.921341 -0.388756 -1.72642e-16
f 381/416/85 380/415/86 476/414/86 475/413/85 

vn 0.957231 -0.289323 -1.28485e-16
f 380/420/86 379/419/87 477/418/87 476/417/86 

vn 0.983192 -0.182576 -8.10802e-17
f 379/424/87 378/423/88 478/422/88 477/421/87 

vn 0.997402 -0.0720296 -3.19876e-17
f 378/428/88 377/427/89 479/426/89 478/425/88 

vn 0.998796 0.0490526 2.17837e-17
f 377/432/89 376/431/90 480/430/90 479/429/89 

vn 0.977437 0.211225 9.3803e-17
f 376/436/90 375/435/91 481/434/91 480/433/90 

vn 0.921686 0.387936 1.72278e-16
f 375/440/91 374/439/92 482/438/92 481/437/91 

vn 0.841669 0.539993 2.39805e-16
f 374/444/92 373/443/93 483/442/93 482/441/92 

vn 0.737007 0.675885 3.00153e-16
f 373/448/93 372/447/94 484/446/94 483/445/93 

vn 0.605971 0.795487 3.53267e-16
f 372/452/94 371/451/95 485/450/95 484/449/94 

vn 0.449126 0.893468 3.9678e-16
f 371/456/95 370/455/96 486/454/96 485/453/95 

vn 0.272371 0.962192 4.27299e-16
f 370/460/96 369/459/97 487/458/97 486/457/96 

vn 0.0895188 0.995985 4.42306e-16
f 369/464/97 368/463/98 488/462/98 487/461/97 

vn -0.0908456 0.995865 4.42253e-16
f 368/468/98 367/467/99 489/466/99 488/465/98 

vn -0.270574 0.962699 4.27524e-16
f 367/472/99 366/471/100 490/470/100 489/469/99 

vn -0.445912 0.895077 3.97494e-16
f 366/476/100 365/475/101 491/474/101 490/473/100 

vn -0.607211 0.794541 3.52847e-16
f 365/480/101 364/479/102 492/478/102 491/477/101 

vn -0.746147 0.665781 2.95666e-16
f 364/484/102 363/483/103 493/482/103 492/481/102 

vn -0.857529 0.514435 2.28455e-16
f 363/488/103 362/487/104 494/486/104 493/485/103 

vn -0.938426 0.345481 1.53424e-16
f 362/492/104 361/491/105 495/490/105 494/489/104 

vn -0.986415 0.164271 7.2951e-17
f 361/496/105 360/495/106 496/494/106 495/493/105 

vn -0.999994 0.00336283 1.49339e-18
f 360/500/106 359/499/107 497/498/107 496/497/106 

vn -0.993022 -0.11793 -5.23714e-17
f 359/504/107 358/503/108 498/502/108 497/501/107 

vn -0.975675 -0.219223 -9.73544e-17
f 358/508/108 357/507/109 499/506/109 498/505/108 

vn -0.951074 -0.308964 -1.37207e-16
f 357/512/109 356/511/110 500/510/110 499/509/109 

vn -0.922095 -0.386963 -1.71846e-16
f 356/516/110 355/515/111 501/514/111 500/513/110 

vn -0.891067 -0.453873 -2.0156e-16
f 355/520/111 354/519/112 502/518/112 501/517/111 

vn -0.859791 -0.510645 -2.26772e-16
f 354/524/112 353/523/113 503/522/113 502/521/112 

vn -0.830571 -0.556913 -2.47319e-16
f 353/528/113 352/527/114 504/526/114 503/525/113 

vn -0.816684 -0.577086 -2.56278e-16
f 352/532/114 351/531/115 388/530/115 504/529/114 

f 343/140/69 342/139/69 428/138/69 348/137/69 

f 254/3/69 300/534/69 429/533/69 255/2/69 

f 300/534/69 299/536/69 430/535/69 429/533/69 

f 299/536/69 298/140/69 431/137/69 430/535/69 

f 298/540/77 297/539/77 432/538/77 431/537/77 

f 297/157/76 296/164/76 433/163/76 432/156/76 

f 296/164/76 295/166/76 434/165/76 433/163/76 

f 295/166/76 294/168/76 435/167/76 434/165/76 

f 294/168/76 293/170/76 436/169/76 435/167/76 

f 293/170/76 292/172/76 437/171/76 436/169/76 

f 292/172/76 291/174/76 438/173/76 437/171/76 

f 291/174/76 290/176/76 439/175/76 438/173/76 

f 290/176/76 289/178/76 440/177/76 439/175/76 

f 289/544/31 288/543/31 441/542/31 440/541/31 

f 288/548/30 287/547/30 442/546/30 441/545/30 

f 287/552/29 286/551/29 443/550/29 442/549/29 

f 286/556/28 285/555/28 444/554/28 443/553/28 

f 285/560/27 284/559/27 445/558/27 444/557/27 

f 284/564/26 283/563/26 446/562/26 445/561/26 

f 283/568/25 282/567/25 447/566/25 446/565/25 

f 282/572/24 281/571/24 448/570/24 447/569/24 

f 281/576/23 280/575/23 449/574/23 448/573/23 

f 280/580/77 279/579/77 450/578/77 449/577/77 

f 279/579/77 278/582/77 451/581/77 450/578/77 

f 278/582/77 277/584/77 452/583/77 451/581/77 

f 277/584/78 276/26/78 453/585/78 452/583/78 

f 276/26/79 275/587/79 454/586/79 453/585/79 

f 275/587/80 274/24/80 455/588/80 454/586/80 

f 274/24/81 273/590/81 456/589/81 455/588/81 

f 273/594/18 272/593/18 457/592/18 456/591/18 

f 272/598/17 271/597/17 458/596/17 457/595/17 

f 271/602/16 270/601/16 459/600/16 458/599/16 

f 270/606/15 269/605/15 460/604/15 459/603/15 

f 269/610/14 268/609/14 461/608/14 460/607/14 

f 268/614/13 267/613/13 462/612/13 461/611/13 

f 267/618/12 266/617/12 463/616/12 462/615/12 

f 266/622/11 265/621/11 464/620/11 463/619/11 

f 265/626/10 264/625/10 465/624/10 464/623/10 

f 264/268/69 263/267/69 466/266/69 465/265/69 

f 263/267/69 262/270/69 467/269/69 466/266/69 

f 262/270/69 261/272/69 468/271/69 467/269/69 

f 261/272/69 260/4/69 469/1/69 468/271/69 

f 260/4/69 259/3/69 470/2/69 469/1/69 

f 259/3/69 258/534/69 346/533/69 470/2/69 

g Mesh3 ___258_1 ___259_1 Model

v 57.6647 6.15 -38.7781
vt 0 0.03
v 57.6647 99.2422 -38.7781
vt -1.86091 0.03
v 57.6647 99.2422 -41.7781
vt -1.86091 0
v 57.6647 6.15 -41.7781
vt 0 0
f 505/627/1 506/628/1 507/629/1 508/630/1 

v 89.5871 6.15 -38.7781
vt -0.604455 0
vt -1.24258 0.930922
vt -1.24258 0
f 509/631/2 506/632/2 505/633/2

v 89.5871 99.2422 -38.7781
vt -0.604455 0.930922
f 506/632/2 509/631/2 510/634/2

v 111.7 0.0519458 -38.7781
vt -0.162427 -0.0609805
f 509/631/2 511/635/2 510/634/2

v 89.5871 0.0519458 -38.7781
vt -0.604455 -0.0609805
f 511/635/2 509/631/2 512/636/2

v 89.5871 6.15 -41.7781
v 89.5871 0.0519458 -41.7781
vt 0.1219 0
vt 0.1219 0.03
f 509/627/1 513/630/1 514/637/1 512/638/1 

vt -0.604455 0.03
vt -1.24258 0.03
f 508/633/9 513/631/9 509/639/9 505/640/9 

vt 1.24258 0
vn 0 4.44089e-16 -1
v 89.5871 99.2422 -41.7781
vt 0.604455 0.930922
vt 0.604455 0
f 508/641/116 515/642/116 513/643/116

vt 1.24258 0.930922
f 515/642/116 508/641/116 507/644/116

vt 1.24258 0.03
vn 0 1 4.44089e-16
vt 0.604455 0.03
f 506/645/117 510/646/117 515/643/117 507/641/117 

v 89.5871 102.392 -38.7781
vt -1.92388 0.03
v 89.5871 102.392 -41.7781
vt -1.92388 0
f 515/629/1 510/628/1 516/647/1 517/648/1 

vt -0.604455 0.962422
f 510/634/2 511/635/2 516/649/2

v 111.7 99.2422 -38.7781
vt -0.162427 0.930922
f 516/649/2 511/635/2 518/650/2

v 111.7 6.15 -38.7781
vt -0.162427 0
f 518/650/2 511/635/2 519/651/2

v 111.7 6.15 -41.7781
vt -0.1219 0.03
v 111.7 0.0519458 -41.7781
vt -0.1219 0
f 520/630/8 519/627/8 511/652/8 521/653/8 

v 227.369 6.15 -41.7781
vt 2.1498 0
v 227.369 6.15 -38.7781
vt 2.1498 0.03
vt -0.162427 0.03
f 520/651/9 522/654/9 523/655/9 519/656/9 

vt 0.162427 0
v 145.969 12.5861 -41.7781
vt -0.522625 0.0643614
vt -2.1498 0
f 520/657/116 524/658/116 522/659/116

v 145.969 65.37 -41.7781
vt -0.522625 0.5922
f 524/658/116 520/657/116 525/660/116

v 111.7 99.2422 -41.7781
vt 0.162427 0.930922
f 526/661/116 525/660/116 520/657/116

v 227.369 99.2422 -41.7781
vt -2.1498 0.930922
f 525/660/116 526/661/116 527/662/116

vt 0.162427 0.03
v 227.369 99.2422 -38.7781
vt -2.1498 0.03
f 518/663/117 528/664/117 527/659/117 526/657/117 

v 145.969 65.37 -38.7781
vt 0.522625 0.5922
vt 2.1498 0.930922
f 518/650/2 529/665/2 528/666/2

f 518/650/2 519/651/2 529/665/2

v 145.969 12.5861 -38.7781
vt 0.522625 0.0643614
f 529/665/2 519/651/2 530/667/2

f 523/654/2 530/667/2 519/651/2

v 195.43 12.5861 -38.7781
vt 1.51133 0.0643614
f 530/667/2 523/654/2 531/668/2

v 195.43 65.37 -38.7781
vt 1.51133 0.5922
f 531/668/2 523/654/2 532/669/2

f 532/669/2 523/654/2 528/666/2

v 227.369 102.392 -38.7781
vt 2.1498 0.962422
f 528/666/2 523/654/2 533/670/2

v 249.481 102.392 -38.7781
vt 2.59183 0.962422
f 533/670/2 523/654/2 534/671/2

v 249.481 6.15 -38.7781
vt 2.59183 0
f 534/671/2 523/654/2 535/672/2

v 249.481 0.0519458 -38.7781
vt 2.59183 -0.0609805
f 535/672/2 523/654/2 536/673/2

v 227.369 0.0519458 -38.7781
vt 2.1498 -0.0609805
f 536/673/2 523/654/2 537/674/2

v 227.369 0.0519458 -41.7781
f 523/627/1 522/630/1 538/637/1 537/638/1 

v 249.481 102.392 -41.7781
vt -2.59183 0.962422
vt -2.1498 -0.0609805
f 522/659/116 539/675/116 538/676/116

f 527/662/116 539/675/116 522/659/116

v 227.369 102.392 -41.7781
vt -2.1498 0.962422
f 539/675/116 527/662/116 540/677/116

f 527/629/1 528/628/1 533/647/1 540/648/1 

vt -2.59183 0
vt -2.59183 0.03
f 539/678/117 540/659/117 533/664/117 534/679/117 

v 249.481 99.2422 -38.7781
vt 1.86091 0.03
v 249.481 99.2422 -41.7781
vt 1.86091 0
vt 1.92388 0
vt 1.92388 0.03
f 541/680/8 542/681/8 539/682/8 534/683/8 

v 281.404 99.2422 -41.7781
vt -3.22996 0
v 281.404 99.2422 -38.7781
vt -3.22996 0.03
f 543/684/117 542/678/117 541/679/117 544/685/117 

v 281.404 6.15 -41.7781
vt -2.59183 0.930922
vt -3.22996 0.930922
f 545/684/116 542/686/116 543/687/116

v 249.481 6.15 -41.7781
f 546/678/116 542/686/116 545/684/116

f 546/678/116 539/675/116 542/686/116

f 538/676/116 539/675/116 546/678/116

v 249.481 0.0519458 -41.7781
vt -2.59183 -0.0609805
f 547/688/116 538/676/116 546/678/116

vt 2.59183 0.03
f 538/654/9 547/672/9 536/689/9 537/655/9 

f 546/630/8 535/627/8 536/652/8 547/653/8 

v 281.404 6.15 -38.7781
vt 3.22996 0.03
vt 3.22996 0
f 548/690/9 535/689/9 546/672/9 545/691/9 

vt 2.59183 0.930922
f 548/691/2 541/692/2 535/672/2

vt 3.22996 0.930922
f 541/692/2 548/691/2 544/693/2

f 544/680/8 548/627/8 545/630/8 543/681/8 

f 534/671/2 535/672/2 541/692/2

v 195.43 12.5861 -41.7781
vt -1.51133 0.0643614
f 522/659/116 549/694/116 527/662/116

f 522/659/116 524/658/116 549/694/116

vt -0.522625 0.03
vt -1.51133 0.03
vt -1.51133 0
vt -0.522625 0
f 530/695/117 531/696/117 549/697/117 524/698/117 

vt -0.128658 0.03
vt -1.18381 0.03
v 195.43 65.37 -41.7781
vt -1.18381 0
vt -0.128658 0
f 531/699/1 532/700/1 550/701/1 549/702/1 

vt 1.51133 0.03
vt 0.522625 0.03
vt 0.522625 0
vt 1.51133 0
f 532/703/9 529/704/9 525/705/9 550/706/9 

f 528/666/2 529/665/2 532/669/2

vt 1.18381 0.03
vt 0.128658 0.03
vt 0.128658 0
vt 1.18381 0
f 529/707/8 530/708/8 524/709/8 525/710/8 

vt -1.51133 0.5922
f 525/660/116 527/662/116 550/711/116

f 550/711/116 527/662/116 549/694/116

v 111.7 102.392 -41.7781
v 111.7 102.392 -38.7781
f 518/680/8 526/681/8 551/682/8 552/683/8 

vt 0.604455 -0.0609805
vt 0.162427 0.962422
f 514/712/116 551/713/116 526/661/116

f 513/643/116 551/713/116 514/712/116

f 515/642/116 551/713/116 513/643/116

vt 0.604455 0.962422
f 551/713/116 515/642/116 517/714/116

f 551/657/117 517/643/117 516/646/117 552/663/117 

vt -0.162427 0.962422
f 552/715/2 516/649/2 518/650/2

vt 0.162427 -0.0609805
f 514/712/116 526/661/116 521/716/116

f 521/716/116 526/661/116 520/657/116

f 514/631/9 521/651/9 511/656/9 512/639/9 

g Mesh4 ___258_2 ___260_1 Model

v 57.6647 6.15 -265.256
v 57.6647 99.2422 -265.256
v 57.6647 99.2422 -268.256
v 57.6647 6.15 -268.256
f 553/630/76 554/629/76 555/628/76 556/627/76 

vn 0 -3.33067e-16 1
v 89.5871 99.2422 -265.256
f 554/644/118 553/641/118 557/642/118

v 89.5871 6.15 -265.256
f 558/643/118 557/642/118 553/641/118

v 111.7 102.392 -265.256
f 558/643/118 559/713/118 557/642/118

v 89.5871 0.0519458 -265.256
f 560/712/118 559/713/118 558/643/118

v 111.7 99.2422 -265.256
f 561/661/118 559/713/118 560/712/118

v 111.7 102.392 -268.256
v 111.7 99.2422 -268.256
f 562/683/8 559/682/8 561/681/8 563/680/8 

vn 0 1 3.33067e-16
v 89.5871 102.392 -268.256
v 89.5871 102.392 -265.256
f 562/663/119 564/646/119 565/643/119 559/657/119 

vn 0 3.33067e-16 -1
f 563/650/120 564/649/120 562/715/120

v 111.7 0.0519458 -268.256
f 563/650/120 566/635/120 564/649/120

v 111.7 6.15 -268.256
f 567/651/120 566/635/120 563/650/120

v 111.7 0.0519458 -265.256
v 111.7 6.15 -265.256
f 568/653/8 566/652/8 567/627/8 569/630/8 

v 89.5871 0.0519458 -268.256
vn 0 -1 -3.33067e-16
f 570/639/121 566/656/121 568/651/121 560/631/121 

v 89.5871 6.15 -268.256
f 570/636/120 571/631/120 566/635/120

f 570/638/76 560/637/76 558/630/76 571/627/76 

f 556/640/121 571/639/121 558/631/121 553/633/121 

f 556/633/120 555/632/120 571/631/120

v 89.5871 99.2422 -268.256
f 572/634/120 571/631/120 555/632/120

f 572/634/120 566/635/120 571/631/120

f 564/649/120 566/635/120 572/634/120

f 565/648/76 564/647/76 572/628/76 557/629/76 

f 554/641/119 557/643/119 572/646/119 555/645/119 

f 565/714/118 557/642/118 559/713/118

f 568/716/118 561/661/118 560/712/118

f 569/657/118 561/661/118 568/716/118

v 145.969 65.37 -265.256
f 569/657/118 573/660/118 561/661/118

v 145.969 12.5861 -265.256
f 573/660/118 569/657/118 574/658/118

v 227.369 6.15 -265.256
f 575/659/118 574/658/118 569/657/118

v 195.43 12.5861 -265.256
f 576/694/118 574/658/118 575/659/118

v 195.43 12.5861 -268.256
v 145.969 12.5861 -268.256
f 574/698/119 576/697/119 577/696/119 578/695/119 

v 195.43 65.37 -265.256
v 195.43 65.37 -268.256
f 576/702/76 579/701/76 580/700/76 577/699/76 

v 227.369 99.2422 -265.256
f 576/694/118 581/662/118 579/711/118

f 581/662/118 576/694/118 575/659/118

v 249.481 102.392 -265.256
f 575/659/118 582/675/118 581/662/118

v 227.369 0.0519458 -265.256
f 583/676/118 582/675/118 575/659/118

v 249.481 6.15 -265.256
f 584/678/118 582/675/118 583/676/118

v 249.481 99.2422 -265.256
f 585/686/118 582/675/118 584/678/118

v 249.481 102.392 -268.256
v 249.481 99.2422 -268.256
f 586/683/8 582/682/8 585/681/8 587/680/8 

v 227.369 102.392 -268.256
v 227.369 102.392 -265.256
f 586/679/119 588/664/119 589/659/119 582/678/119 

v 227.369 6.15 -268.256
f 586/671/120 590/654/120 588/670/120

v 249.481 6.15 -268.256
f 591/672/120 590/654/120 586/671/120

v 249.481 0.0519458 -268.256
f 592/673/120 590/654/120 591/672/120

v 227.369 0.0519458 -268.256
f 593/674/120 590/654/120 592/673/120

f 593/638/76 583/637/76 575/630/76 590/627/76 

v 249.481 0.0519458 -265.256
f 593/655/121 592/689/121 594/672/121 583/654/121 

f 594/653/8 592/652/8 591/627/8 584/630/8 

v 281.404 6.15 -265.256
v 281.404 6.15 -268.256
f 595/691/121 584/672/121 591/689/121 596/690/121 

f 595/684/118 585/686/118 584/678/118

v 281.404 99.2422 -265.256
f 597/687/118 585/686/118 595/684/118

v 281.404 99.2422 -268.256
f 598/685/119 587/679/119 585/678/119 597/684/119 

f 598/693/120 596/691/120 587/692/120

f 597/681/8 595/630/8 596/627/8 598/680/8 

f 591/672/120 587/692/120 596/691/120

f 587/692/120 591/672/120 586/671/120

f 584/678/118 583/676/118 594/688/118

f 567/656/121 590/655/121 575/654/121 569/651/121 

f 567/651/120 578/667/120 590/654/120

v 145.969 65.37 -268.256
f 578/667/120 567/651/120 599/665/120

f 599/665/120 567/651/120 563/650/120

v 227.369 99.2422 -268.256
f 600/666/120 599/665/120 563/650/120

f 580/669/120 599/665/120 600/666/120

f 579/706/121 573/705/121 599/704/121 580/703/121 

f 579/711/118 581/662/118 573/660/118

f 581/662/118 561/661/118 573/660/118

f 561/657/119 581/659/119 600/664/119 563/663/119 

f 589/648/76 588/647/76 600/628/76 581/629/76 

f 588/670/120 590/654/120 600/666/120

f 600/666/120 590/654/120 580/669/120

f 580/669/120 590/654/120 577/668/120

f 577/668/120 590/654/120 578/667/120

f 589/677/118 581/662/118 582/675/118

f 573/710/8 574/709/8 578/708/8 599/707/8 

g Mesh5 ___261_1 ___262_1 Model

v 281.404 6.15 -265.517
vn 3.88578e-16 -2.46519e-32 -1
v 281.404 99.2422 -265.517
v 284.404 99.2422 -265.517
v 284.404 6.15 -265.517
f 601/630/122 602/629/122 603/628/122 604/627/122 

v 281.404 0.0519458 -233.595
vn -1 4.44089e-16 -3.88578e-16
v 281.404 0.0519458 -211.482
v 281.404 6.15 -211.482
v 281.404 6.15 -95.813
v 281.404 0.0519458 -95.813
v 281.404 0.0519458 -73.7005
v 281.404 6.15 -73.7005
v 281.404 6.15 -41.7781
v 281.404 99.2422 -41.7781
v 281.404 99.2422 -73.7005
v 281.404 102.392 -73.7005
v 281.404 102.392 -95.813
v 281.404 99.2422 -95.813
v 281.404 99.2422 -211.482
v 281.404 102.392 -211.482
v 281.404 102.392 -233.595
v 281.404 99.2422 -233.595
v 281.404 6.15 -233.595
f 605/712/123 606/716/123 607/657/123 608/659/123 609/676/123 610/688/123 611/678/123 612/684/123 613/687/123 614/686/123 615/675/123 616/677/123 617/662/123 618/661/123 619/713/123 620/714/123 621/642/123 602/644/123 601/641/123 622/643/123 

v 284.404 0.0519458 -233.595
vn -4.44089e-16 -1 -1.47911e-31
v 284.404 0.0519458 -211.482
f 623/639/124 624/656/124 606/651/124 605/631/124 

vn 1 -4.44089e-16 3.88578e-16
v 284.404 99.2422 -233.595
v 284.404 102.392 -233.595
v 284.404 102.392 -211.482
v 284.404 99.2422 -211.482
v 284.404 99.2422 -95.813
v 284.404 102.392 -95.813
v 284.404 102.392 -73.7005
v 284.404 99.2422 -73.7005
v 284.404 99.2422 -41.7781
v 284.404 6.15 -41.7781
v 284.404 6.15 -73.7005
v 284.404 0.0519458 -73.7005
v 284.404 0.0519458 -95.813
v 284.404 6.15 -95.813
v 284.404 6.15 -211.482
v 284.404 6.15 -233.595
f 603/632/125 625/634/125 626/649/125 627/715/125 628/650/125 629/666/125 630/670/125 631/671/125 632/692/125 633/693/125 634/691/125 635/672/125 636/673/125 637/674/125 638/654/125 639/651/125 624/635/125 623/636/125 640/631/125 604/633/125 

vn 4.44089e-16 1 1.47911e-31
f 602/641/126 621/643/126 625/646/126 603/645/126 

f 620/648/122 626/647/122 625/628/122 621/629/122 

f 627/663/126 626/646/126 620/643/126 619/657/126 

vn -3.88578e-16 2.46519e-32 1
f 627/683/127 619/682/127 618/681/127 628/680/127 

f 618/657/126 617/659/126 629/664/126 628/663/126 

f 616/648/122 630/647/122 629/628/122 617/629/122 

f 631/679/126 630/664/126 616/659/126 615/678/126 

f 631/683/127 615/682/127 614/681/127 632/680/127 

f 633/685/126 632/679/126 614/678/126 613/684/126 

f 613/681/127 612/630/127 634/627/127 633/680/127 

f 612/691/124 611/672/124 635/689/124 634/690/124 

f 610/653/127 636/652/127 635/627/127 611/630/127 

f 637/655/124 636/689/124 610/672/124 609/654/124 

f 637/638/122 609/637/122 608/630/122 638/627/122 

f 639/656/124 638/655/124 608/654/124 607/651/124 

f 606/653/127 624/652/127 639/627/127 607/630/127 

f 623/638/122 605/637/122 622/630/122 640/627/122 

f 604/640/124 640/639/124 622/631/124 601/633/124 

g Mesh6 ___261_2 ___262_2 Model

v 54.6647 6.15 -265.517
v 54.6647 99.2422 -265.517
v 57.6647 99.2422 -265.517
v 57.6647 6.15 -265.517
f 641/627/122 642/628/122 643/629/122 644/630/122 

v 54.6647 6.15 -233.595
v 54.6647 0.0519458 -233.595
v 54.6647 0.0519458 -211.482
v 54.6647 6.15 -211.482
v 54.6647 6.15 -95.813
v 54.6647 0.0519458 -95.813
v 54.6647 0.0519458 -73.7005
v 54.6647 6.15 -73.7005
v 54.6647 6.15 -41.7781
v 54.6647 99.2422 -41.7781
v 54.6647 99.2422 -73.7005
v 54.6647 102.392 -73.7005
v 54.6647 102.392 -95.813
v 54.6647 99.2422 -95.813
v 54.6647 99.2422 -211.482
v 54.6647 102.392 -211.482
v 54.6647 102.392 -233.595
v 54.6647 99.2422 -233.595
f 641/633/123 645/631/123 646/636/123 647/635/123 648/651/123 649/654/123 650/674/123 651/673/123 652/672/123 653/691/123 654/693/123 655/692/123 656/671/123 657/670/123 658/666/123 659/650/123 660/715/123 661/649/123 662/634/123 642/632/123 

v 57.6647 6.15 -233.595
f 644/633/124 663/631/124 645/639/124 641/640/124 

v 57.6647 99.2422 -233.595
v 57.6647 102.392 -233.595
v 57.6647 102.392 -211.482
v 57.6647 99.2422 -211.482
v 57.6647 99.2422 -95.813
v 57.6647 102.392 -95.813
v 57.6647 102.392 -73.7005
v 57.6647 99.2422 -73.7005
v 57.6647 99.2422 -41.7781
v 57.6647 6.15 -41.7781
v 57.6647 6.15 -73.7005
v 57.6647 0.0519458 -73.7005
v 57.6647 0.0519458 -95.813
v 57.6647 6.15 -95.813
v 57.6647 6.15 -211.482
v 57.6647 0.0519458 -211.482
v 57.6647 0.0519458 -233.595
f 663/643/125 644/641/125 643/644/125 664/642/125 665/714/125 666/713/125 667/661/125 668/662/125 669/677/125 670/675/125 671/686/125 672/687/125 673/684/125 674/678/125 675/688/125 676/676/125 677/659/125 678/657/125 679/716/125 680/712/125 

f 642/645/126 662/646/126 664/643/126 643/641/126 

f 664/629/122 662/628/122 661/647/122 665/648/122 

f 666/657/126 665/643/126 661/646/126 660/663/126 

f 659/680/127 667/681/127 666/682/127 660/683/127 

f 659/663/126 658/664/126 668/659/126 667/657/126 

f 668/629/122 658/628/122 657/647/122 669/648/122 

f 670/678/126 669/659/126 657/664/126 656/679/126 

f 655/680/127 671/681/127 670/682/127 656/683/127 

f 672/684/126 671/678/126 655/679/126 654/685/126 

f 654/680/127 653/627/127 673/630/127 672/681/127 

f 653/690/124 652/689/124 674/672/124 673/691/124 

f 674/630/127 652/627/127 651/652/127 675/653/127 

f 676/654/124 675/672/124 651/689/124 650/655/124 

f 649/627/122 677/630/122 676/637/122 650/638/122 

f 678/651/124 677/654/124 649/655/124 648/656/124 

f 678/630/127 648/627/127 647/652/127 679/653/127 

f 680/631/124 679/651/124 647/656/124 646/639/124 

f 645/627/122 663/630/122 680/637/122 646/638/122 

