# Alias OBJ Model File
# Exported from SketchUp, (c) 2000-2012 Trimble Navigation Limited
# File units = millimeters

mtllib 4.mtl

g Mesh1 ___463_1 Model

usemtl _
v 0.151652 2.57019 -8.17124e-14
vt -0.0513782 0.02
vn -1 0 0
v 0.151652 56.9494 -0
vt -1.13842 0.02
v 0.151652 56.9494 -2
vt -1.13842 2.25597e-16
v 0.151652 2.57019 -2
vt -0.0513782 0
f 1/1/1 2/2/1 3/3/1 4/4/1 

v 83.3845 3.60132e-09 -8.4599e-14
vt 1.66686 3.60135e-11
vn -1.50442e-18 -1.15435e-15 1
v 83.3845 2.57019 -8.17124e-14
vt 1.66686 0.0257019
v 83.3685 22.4072 -6.03961e-14
vt 1.66654 0.224072
v 100.68 22.4072 -8.28226e-14
vt 2.01259 0.224072
v 100.664 2.57019 -8.17124e-14
vt 2.01227 0.0257019
v 100.664 2.69131e-09 -8.4599e-14
vt 2.01227 2.69133e-11
v 118.258 2.69131e-09 -8.4599e-14
vt 2.36397 2.69133e-11
v 118.258 2.57019 -8.17124e-14
vt 2.36397 0.0257019
v 155.8 2.57019 -8.17124e-14
vt 3.11445 0.0257019
v 155.8 2.79129e-10 -8.4599e-14
vt 3.11445 2.79154e-12
v 173.334 2.79129e-10 -8.4599e-14
vt 3.46494 2.79154e-12
v 173.334 2.57019 -8.17124e-14
vt 3.46494 0.0257019
v 183.897 2.57019 -8.17124e-14
vt 3.6761 0.0257019
v 183.897 56.9494 -0
vt 3.6761 0.569494
v 149.435 56.9494 -0
vt 2.98721 0.569494
v 149.435 59.5386 -1.9984e-14
vt 2.98721 0.595386
v 131.851 59.5386 -1.9984e-14
vt 2.63571 0.595386
v 131.851 56.9494 -2.30926e-14
vt 2.63571 0.569494
v 52.197 56.9494 -2.30926e-14
vt 1.04342 0.569494
v 52.197 59.5386 -4.26326e-14
vt 1.04342 0.595386
v 34.6131 59.5386 -1.9984e-14
vt 0.691916 0.595386
v 34.6131 56.9494 -0
vt 0.691916 0.569494
vt 0.00303152 0.569494
vt 0.00303152 0.0257019
v 10.7145 2.57019 -8.17124e-14
vt 0.214184 0.0257019
v 10.7145 3.60132e-09 -8.4599e-14
vt 0.214184 3.60135e-11
v 28.2966 3.60132e-09 -8.4599e-14
vt 0.56565 3.60135e-11
v 28.2966 2.57019 -8.17124e-14
vt 0.56565 0.0257019
v 65.7906 2.57019 -8.17124e-14
vt 1.31515 0.0257019
v 65.7906 3.60132e-09 -8.4599e-14
vt 1.31515 3.60135e-11
f 5/5/2 6/6/2 7/7/2 8/8/2 9/9/2 10/10/2 11/11/2 12/12/2 13/13/2 14/14/2 15/15/2 16/16/2 17/17/2 18/18/2 19/19/2 20/20/2 21/21/2 22/22/2 23/23/2 24/24/2 25/25/2 26/26/2 2/27/2 1/28/2 27/29/2 28/30/2 29/31/2 30/32/2 31/33/2 32/34/2 

v 83.3845 3.60132e-09 -2
vt 7.19909e-11 -6.38486e-16
vn 1 0 7.65714e-16
v 83.3845 2.57019 -2
vt 0.0513782 -6.38486e-16
vt 0.0513782 0.02
vt 7.19909e-11 0.02
f 33/35/3 34/36/3 6/37/3 5/38/3 

v 183.897 56.9494 -2
vt -3.6761 0.569494
vn -2.76787e-17 1.0751e-15 -1
v 183.897 2.57019 -2
vt -3.6761 0.0257019
v 173.334 2.57019 -2
vt -3.46494 0.0257019
v 173.334 2.79132e-10 -2
vt -3.46494 2.79154e-12
v 155.8 2.79132e-10 -2
vt -3.11445 2.79154e-12
v 155.8 2.57019 -2
vt -3.11445 0.0257019
v 118.258 2.57019 -2
vt -2.36397 0.0257019
v 118.258 2.69131e-09 -2
vt -2.36397 2.69133e-11
v 100.664 2.69131e-09 -2
vt -2.01227 2.69133e-11
v 100.664 2.57019 -2
vt -2.01227 0.0257019
v 100.68 22.4072 -2
vt -2.01259 0.224072
v 83.3685 22.4072 -2
vt -1.66654 0.224072
vt -1.66686 0.0257019
vt -1.66686 3.60135e-11
v 65.7906 3.60132e-09 -2
vt -1.31515 3.60135e-11
v 65.7906 2.57019 -2
vt -1.31515 0.0257019
v 28.2966 2.57019 -2
vt -0.56565 0.0257019
v 28.2966 3.60132e-09 -2
vt -0.56565 3.60135e-11
v 10.7145 3.60132e-09 -2
vt -0.214184 3.60135e-11
v 10.7145 2.57019 -2
vt -0.214184 0.0257019
vt -0.00303152 0.0257019
vt -0.00303152 0.569494
v 34.6131 56.9494 -2
vt -0.691916 0.569494
v 34.6131 59.5386 -2
vt -0.691916 0.595386
v 52.197 59.5386 -2
vt -1.04342 0.595386
v 52.197 56.9494 -2
vt -1.04342 0.569494
v 131.851 56.9494 -2
vt -2.63571 0.569494
v 131.851 59.5386 -2
vt -2.63571 0.595386
v 149.435 59.5386 -2
vt -2.98721 0.595386
v 149.435 56.9494 -2
vt -2.98721 0.569494
f 35/39/4 36/40/4 37/41/4 38/42/4 39/43/4 40/44/4 41/45/4 42/46/4 43/47/4 44/48/4 45/49/4 46/50/4 34/51/4 33/52/4 47/53/4 48/54/4 49/55/4 50/56/4 51/57/4 52/58/4 4/59/4 3/60/4 53/61/4 54/62/4 55/63/4 56/64/4 57/65/4 58/66/4 59/67/4 60/68/4 

vt 1.13842 0.02
vn 1 0 -0
vt 0.0513782 0
vt 1.13842 0
f 18/69/5 17/37/5 36/70/5 35/71/5 

vt 3.6761 0.02
vn 0 -1 -1.08247e-15
vt 3.46494 0.02
vt 3.46494 0
vt 3.6761 0
f 17/72/6 16/73/6 37/74/6 36/75/6 

vt 5.58029e-12 0.02
vt 5.58029e-12 0
f 37/70/5 16/37/5 15/76/5 38/77/5 

vt 3.11445 0
vt 3.11445 0.02
f 39/78/6 38/74/6 15/73/6 14/79/6 

vt -5.58029e-12 0
vt -5.58029e-12 0.02
f 13/1/1 40/4/1 39/80/1 14/81/1 

vt 2.36397 0.02
vt 2.36397 0
f 13/79/6 12/82/6 41/83/6 40/78/6 

vt 5.37997e-11 0.02
vt 5.37997e-11 0
f 41/70/5 12/37/5 11/84/5 42/85/5 

vt 2.01227 0
vt 2.01227 0.02
f 43/86/6 42/83/6 11/82/6 10/87/6 

vn -1 0 -7.65714e-16
vt -0.0513782 -7.70797e-16
vt -5.37997e-11 -7.70797e-16
vt -5.37997e-11 0.02
f 9/1/7 44/88/7 43/89/7 10/90/7 

vt -0.0529997 0.02
vn -1 0.000805846 -7.65724e-16
vt -0.449542 0.02
vt -0.449542 -7.71669e-16
vt -0.0529997 -7.71669e-16
f 9/91/8 8/92/8 45/93/8 44/94/8 

vt 2.01259 0.02
vn -3.05614e-31 -1 -5.68627e-16
vt 1.66654 0.02
vt 1.66654 3.40735e-16
vt 2.01259 1.15137e-16
f 8/95/9 7/96/9 46/97/9 45/98/9 

vt 0.446577 0.02
vn 1 0.000805846 7.65683e-16
vt 0.0500349 0.02
vt 0.0500349 -6.37749e-16
vt 0.446577 -4.12152e-16
f 7/99/10 6/100/10 34/101/10 46/102/10 

vt -3.6761 0
vn 0 1 1.08247e-15
vt -2.98721 2.25597e-16
vt -2.98721 0.02
vt -3.6761 0.02
f 35/103/11 60/104/11 19/105/11 18/106/11 

vt 1.13842 2.25597e-16
vt 1.19018 0
vt 1.19018 0.02
f 19/69/5 60/107/5 59/108/5 20/109/5 

vt -2.98721 0
vt -2.63571 -2.25597e-16
vt -2.63571 0.02
f 59/110/11 58/111/11 21/112/11 20/105/11 

vt -1.13842 0
vt -1.19018 0.02
vt -1.19018 -2.25597e-16
f 57/113/1 22/2/1 21/114/1 58/115/1 

vt -2.63571 0
vt -1.04342 0
vt -1.04342 0.02
f 57/116/11 56/117/11 23/118/11 22/112/11 

vt 1.19018 -2.25597e-16
f 23/69/5 56/71/5 55/119/5 24/109/5 

vt -1.04342 -2.25597e-16
vt -0.691916 0
vt -0.691916 0.02
f 55/120/11 54/121/11 25/122/11 24/118/11 

vt -1.19018 0
f 53/3/1 26/2/1 25/114/1 54/123/1 

vt -0.00303152 0.02
vt -0.691916 2.25597e-16
vt -0.00303152 2.25597e-16
f 2/124/11 26/122/11 53/125/11 3/126/11 

vt 1.31515 0
vt 1.66686 0
vt 1.66686 0.02
vt 1.31515 0.02
f 47/127/6 33/128/6 5/129/6 32/130/6 

vt -7.19909e-11 0
vt -7.19909e-11 0.02
f 31/1/1 48/4/1 47/131/1 32/132/1 

vt 0.56565 0.02
vt 0.56565 0
f 31/130/6 30/133/6 49/134/6 48/127/6 

vt 7.19909e-11 0
f 49/70/5 30/37/5 29/38/5 50/135/5 

vt 0.214184 0
vt 0.214184 0.02
f 51/136/6 50/134/6 29/133/6 28/137/6 

f 27/1/1 52/4/1 51/131/1 28/132/1 

vt 0.00303152 0
vt 0.00303152 0.02
f 4/138/6 52/136/6 27/137/6 1/139/6 

g Mesh2 ___462_1 Model

v 181.897 56.9494 -18.5097
vt -1.13841 -8.81121e-48
vn 1.66533e-16 4.93038e-32 1
v 183.897 56.9494 -18.5097
vt -1.13841 0.02
v 183.897 59.5386 -18.5097
vt -1.19017 0.02
v 181.897 59.5386 -18.5097
vt -1.19017 -8.81121e-48
f 61/140/12 62/141/12 63/142/12 64/143/12 

v 183.897 56.9494 -2
vt -4.61215e-11 0.02
vn 1.08247e-15 1 -2.29571e-31
vt -0.33003 0.02
vt -0.33003 0
v 181.897 56.9494 -2
vt -4.61215e-11 0
f 65/144/13 62/145/13 61/146/13 66/147/13 

v 183.897 0.00017357 -36.1036
vt 0.681731 5.09351e-12
v 183.897 2.57019 -36.1036
vt 0.681731 0.0257002
v 183.897 22.4074 -36.0876
vt 0.681411 0.224072
v 183.897 22.4074 -53.3942
vt 1.02737 0.224072
v 183.897 2.57019 -53.3782
vt 1.02705 0.0257002
v 183.897 0.00017357 -53.3782
vt 1.02705 1.99787e-12
v 183.897 0.00017357 -70.9534
vt 1.37838 1.99787e-12
v 183.897 2.57019 -70.9534
vt 1.37838 0.0257002
v 183.897 2.57019 -87.4818
vt 1.70878 0.0257002
v 183.897 56.9494 -87.4818
vt 1.70878 0.569492
v 183.897 56.9494 -70.9721
vt 1.37875 0.569492
v 183.897 59.5386 -70.9721
vt 1.37875 0.595385
v 183.897 59.5386 -53.3782
vt 1.02705 0.595385
v 183.897 56.9494 -53.3782
vt 1.02705 0.569492
v 183.897 56.9494 -36.1036
vt 0.681731 0.569492
v 183.897 59.5386 -36.1036
vt 0.681731 0.595385
vt 0.33003 0.595385
vt 0.33003 0.569492
vt 4.61215e-11 0.569492
v 183.897 2.57019 -2
vt 4.61215e-11 0.0257002
v 183.897 2.57019 -18.5097
vt 0.33003 0.0257002
v 183.897 0.00017357 -18.5097
vt 0.33003 5.09351e-12
f 67/148/5 68/149/5 69/150/5 70/151/5 71/152/5 72/153/5 73/154/5 74/155/5 75/156/5 76/157/5 77/158/5 78/159/5 79/160/5 80/161/5 81/162/5 82/163/5 63/164/5 62/165/5 65/166/5 83/167/5 84/168/5 85/169/5 

v 181.897 0.00017357 -36.1036
vt 1.0182e-11 -5.67939e-17
vn 0 2.75846e-47 -1
v 181.897 2.57019 -36.1036
vt 0.0513747 -5.67939e-17
vt 0.0513747 0.02
vt 1.0182e-11 0.02
f 86/170/14 87/171/14 68/172/14 67/173/14 

v 181.897 56.9494 -87.4818
vt -1.70878 0.569492
vn -1 0 -0
v 181.897 2.57019 -87.4818
vt -1.70878 0.0257002
v 181.897 2.57019 -70.9534
vt -1.37838 0.0257002
v 181.897 0.00017357 -70.9534
vt -1.37838 1.99789e-12
v 181.897 0.00017357 -53.3782
vt -1.02705 1.99789e-12
v 181.897 2.57019 -53.3782
vt -1.02705 0.0257002
v 181.897 22.4074 -53.3942
vt -1.02737 0.224072
v 181.897 22.4074 -36.0876
vt -0.681411 0.224072
vt -0.681731 0.0257002
vt -0.681731 5.09354e-12
v 181.897 0.00017357 -18.5097
vt -0.33003 5.09354e-12
v 181.897 2.57019 -18.5097
vt -0.33003 0.0257002
v 181.897 2.57019 -2
vt -4.61215e-11 0.0257002
vt -4.61215e-11 0.569492
vt -0.33003 0.569492
vt -0.33003 0.595385
v 181.897 59.5386 -36.1036
vt -0.681731 0.595385
v 181.897 56.9494 -36.1036
vt -0.681731 0.569492
v 181.897 56.9494 -53.3782
vt -1.02705 0.569492
v 181.897 59.5386 -53.3782
vt -1.02705 0.595385
v 181.897 59.5386 -70.9721
vt -1.37875 0.595385
v 181.897 56.9494 -70.9721
vt -1.37875 0.569492
f 88/174/15 89/175/15 90/176/15 91/177/15 92/178/15 93/179/15 94/180/15 95/181/15 87/182/15 86/183/15 96/184/15 97/185/15 98/186/15 66/187/15 61/188/15 64/189/15 99/190/15 100/191/15 101/192/15 102/193/15 103/194/15 104/195/15 

vt 1.13841 0.02
vn -1.66533e-16 -4.93038e-32 -1
vt 0.0513747 -4.56214e-47
vt 1.13841 -4.56214e-47
f 76/196/16 75/172/16 89/197/16 88/198/16 

vt 1.70878 0.02
vn -1.08247e-15 -1 2.29571e-31
vt 1.37838 0.02
vt 1.37838 0
vt 1.70878 0
f 75/199/17 74/200/17 90/201/17 89/202/17 

vt 0.0513747 -3.68003e-47
vt 3.99378e-12 0.02
vt 3.99378e-12 -3.68003e-47
f 90/203/16 74/172/16 73/204/16 91/205/16 

vt 1.02705 0
vt 1.02705 0.02
f 92/206/17 91/201/17 73/200/17 72/207/17 

vt -0.0513747 0.02
vn 0 -2.75846e-47 1
vt -0.0513747 -8.55619e-17
vt -3.99378e-12 -8.55619e-17
vt -3.99378e-12 0.02
f 71/208/18 93/209/18 92/210/18 72/211/18 

vt -0.0522023 0.02
vn 1.37447e-19 0.000805839 1
vt -0.448748 0.02
vt -0.448748 7.13318e-15
vt -0.0522023 -8.5936e-17
f 71/212/19 70/213/19 94/214/19 93/215/19 

vt 1.02737 0.02
vn 0 -1 2.75846e-47
vt 0.681411 0.02
vt 0.681411 7.46167e-15
vt 1.02737 7.46167e-15
f 70/216/20 69/217/20 95/218/20 94/219/20 

vt 0.447371 0.02
vn -1.35856e-19 0.000805839 -1
vt 0.0508253 0.02
vt 0.0508253 -5.64535e-17
vt 0.447371 7.16266e-15
f 69/220/21 68/221/21 87/222/21 95/223/21 

vt -1.70878 0
vt -1.37875 0
vt -1.37875 0.02
vt -1.70878 0.02
f 88/224/13 104/225/13 77/226/13 76/227/13 

vt 1.13841 -3.68102e-47
vt 1.19017 -3.68102e-47
vt 1.19017 0.02
f 77/196/16 104/228/16 103/229/16 78/230/16 

vt -1.02705 0
vt -1.02705 0.02
f 103/225/13 102/231/13 79/232/13 78/226/13 

vt -1.13841 -2.74204e-47
vt -1.19017 -2.74204e-47
f 101/233/12 80/141/12 79/142/12 102/234/12 

vt -0.681731 0
vt -0.681731 0.02
f 101/231/13 100/235/13 81/236/13 80/232/13 

vt 1.13841 -1.8201e-47
vt 1.19017 -1.8201e-47
f 81/196/16 100/237/16 99/238/16 82/230/16 

f 99/235/13 64/146/13 63/145/13 82/236/13 

vt 0.33003 0
vt 0.681731 0
vt 0.681731 0.02
vt 0.33003 0.02
f 96/239/17 86/240/17 67/241/17 85/242/17 

vt -0.0513747 -8.81121e-48
vt -1.0182e-11 -8.81121e-48
vt -1.0182e-11 0.02
f 84/208/12 97/243/12 96/244/12 85/245/12 

vt 4.61215e-11 0
vt 4.61215e-11 0.02
f 98/246/17 97/239/17 84/242/17 83/247/17 

vt -1.13841 -1.23136e-57
vt -0.0513747 -1.23136e-57
f 83/208/12 65/141/12 66/248/12 98/249/12 

g Mesh3 ___463_2 Model

v 183.897 2.57019 -89.4818
vn 1 0 -7.65714e-16
v 183.897 56.9494 -89.4818
v 183.897 56.9494 -87.4818
v 183.897 2.57019 -87.4818
f 105/1/22 106/2/22 107/3/22 108/4/22 

v 100.664 4.19681e-09 -89.4818
vn -7.64209e-16 -1.15435e-15 -1
v 100.664 2.57019 -89.4818
v 100.68 22.4072 -89.4818
v 83.3685 22.4072 -89.4818
v 83.3845 2.57019 -89.4818
v 83.3845 3.28679e-09 -89.4818
v 65.7906 3.28679e-09 -89.4818
v 65.7906 2.57019 -89.4818
v 28.2482 2.57019 -89.4818
v 28.2482 8.74616e-10 -89.4818
v 10.7145 8.74616e-10 -89.4818
v 10.7145 2.57019 -89.4818
v 0.151652 2.57019 -89.4818
v 0.151652 56.9494 -89.4818
v 34.6131 56.9494 -89.4818
v 34.6131 59.5386 -89.4818
v 52.197 59.5386 -89.4818
v 52.197 56.9494 -89.4818
v 131.851 56.9494 -89.4818
v 131.851 59.5386 -89.4818
v 149.435 59.5386 -89.4818
v 149.435 56.9494 -89.4818
v 173.334 2.57019 -89.4818
v 173.334 4.19681e-09 -89.4818
v 155.752 4.19681e-09 -89.4818
v 155.752 2.57019 -89.4818
v 118.258 2.57019 -89.4818
v 118.258 4.19681e-09 -89.4818
f 109/5/23 110/6/23 111/7/23 112/8/23 113/9/23 114/10/23 115/11/23 116/12/23 117/13/23 118/14/23 119/15/23 120/16/23 121/17/23 122/18/23 123/19/23 124/20/23 125/21/23 126/22/23 127/23/23 128/24/23 129/25/23 130/26/23 106/27/23 105/28/23 131/29/23 132/30/23 133/31/23 134/32/23 135/33/23 136/34/23 

v 100.664 4.19681e-09 -87.4818
v 100.664 2.57019 -87.4818
f 137/35/15 138/36/15 110/37/15 109/38/15 

v 0.151652 56.9494 -87.4818
vn 7.93392e-16 1.0751e-15 1
v 0.151652 2.57019 -87.4818
v 10.7145 2.57019 -87.4818
v 10.7145 8.74618e-10 -87.4818
v 28.2482 8.74618e-10 -87.4818
v 28.2482 2.57019 -87.4818
v 65.7906 2.57019 -87.4818
v 65.7906 3.2868e-09 -87.4818
v 83.3845 3.2868e-09 -87.4818
v 83.3845 2.57019 -87.4818
v 83.3685 22.4072 -87.4818
v 100.68 22.4072 -87.4818
v 118.258 4.19681e-09 -87.4818
v 118.258 2.57019 -87.4818
v 155.752 2.57019 -87.4818
v 155.752 4.19681e-09 -87.4818
v 173.334 4.19681e-09 -87.4818
v 173.334 2.57019 -87.4818
v 149.435 56.9494 -87.4818
v 149.435 59.5386 -87.4818
v 131.851 59.5386 -87.4818
v 131.851 56.9494 -87.4818
v 52.197 56.9494 -87.4818
v 52.197 59.5386 -87.4818
v 34.6131 59.5386 -87.4818
v 34.6131 56.9494 -87.4818
f 139/39/24 140/40/24 141/41/24 142/42/24 143/43/24 144/44/24 145/45/24 146/46/24 147/47/24 148/48/24 149/49/24 150/50/24 138/51/24 137/52/24 151/53/24 152/54/24 153/55/24 154/56/24 155/57/24 156/58/24 108/59/24 107/60/24 157/61/24 158/62/24 159/63/24 160/64/24 161/65/24 162/66/24 163/67/24 164/68/24 

vn -1 0 7.65714e-16
f 122/69/25 121/37/25 140/70/25 139/71/25 

vn 8.2886e-31 -1 1.08247e-15
f 121/72/26 120/73/26 141/74/26 140/75/26 

f 141/70/25 120/37/25 119/76/25 142/77/25 

f 143/78/26 142/74/26 119/73/26 118/79/26 

f 117/1/22 144/4/22 143/80/22 118/81/22 

f 117/79/26 116/82/26 145/83/26 144/78/26 

f 145/70/25 116/37/25 115/84/25 146/85/25 

f 147/86/26 146/83/26 115/82/26 114/87/26 

f 113/1/5 148/88/5 147/89/5 114/90/5 

vn 1 0.000805846 1.01912e-20
f 113/91/27 112/92/27 149/93/27 148/94/27 

vn 7.41019e-31 -1 5.68627e-16
f 112/95/28 111/96/28 150/97/28 149/98/28 

vn -1 0.000805846 3.0573e-20
f 111/99/29 110/100/29 138/101/29 150/102/29 

vn -8.2886e-31 1 -1.08247e-15
f 139/103/30 164/104/30 123/105/30 122/106/30 

f 123/69/25 164/107/25 163/108/25 124/109/25 

f 163/110/30 162/111/30 125/112/30 124/105/30 

f 161/113/22 126/2/22 125/114/22 162/115/22 

f 161/116/30 160/117/30 127/118/30 126/112/30 

f 127/69/25 160/71/25 159/119/25 128/109/25 

f 159/120/30 158/121/30 129/122/30 128/118/30 

f 157/3/22 130/2/22 129/114/22 158/123/22 

f 106/124/30 130/122/30 157/125/30 107/126/30 

f 151/127/26 137/128/26 109/129/26 136/130/26 

f 135/1/22 152/4/22 151/131/22 136/132/22 

f 135/130/26 134/133/26 153/134/26 152/127/26 

f 153/70/25 134/37/25 133/38/25 154/135/25 

f 155/136/26 154/134/26 133/133/26 132/137/26 

f 131/1/22 156/4/22 155/131/22 132/132/22 

f 108/138/26 156/136/26 131/137/26 105/139/26 

g Mesh4 ___462_2 Model

v 2.15165 56.9494 -70.9721
vn -9.32247e-16 4.93038e-32 -1
v 0.151652 56.9494 -70.9721
v 0.151652 59.5386 -70.9721
v 2.15165 59.5386 -70.9721
f 165/140/31 166/141/31 167/142/31 168/143/31 

v 0.151652 56.9494 -87.4818
vn -1.08247e-15 1 1.05843e-30
v 2.15165 56.9494 -87.4818
f 169/144/32 166/145/32 165/146/32 170/147/32 

v 0.151652 0.000173571 -53.3782
v 0.151652 2.57019 -53.3782
v 0.151652 22.4074 -53.3942
v 0.151652 22.4074 -36.0876
v 0.151652 2.57019 -36.1036
v 0.151652 0.00017357 -36.1036
v 0.151652 0.00017357 -18.5284
v 0.151652 2.57019 -18.5284
v 0.151652 2.57019 -2
v 0.151652 56.9494 -2
v 0.151652 56.9494 -18.5097
v 0.151652 59.5386 -18.5097
v 0.151652 59.5386 -36.1036
v 0.151652 56.9494 -36.1036
v 0.151652 56.9494 -53.3782
v 0.151652 59.5386 -53.3782
v 0.151652 2.57019 -87.4818
v 0.151652 2.57019 -70.9721
v 0.151652 0.000173571 -70.9721
f 171/148/25 172/149/25 173/150/25 174/151/25 175/152/25 176/153/25 177/154/25 178/155/25 179/156/25 180/157/25 181/158/25 182/159/25 183/160/25 184/161/25 185/162/25 186/163/25 167/164/25 166/165/25 169/166/25 187/167/25 188/168/25 189/169/25 

v 2.15165 0.000173571 -53.3782
vn 7.65714e-16 2.75846e-47 1
v 2.15165 2.57019 -53.3782
f 190/170/33 191/171/33 172/172/33 171/173/33 

v 2.15165 56.9494 -2
v 2.15165 2.57019 -2
v 2.15165 2.57019 -18.5284
v 2.15165 0.00017357 -18.5284
v 2.15165 0.00017357 -36.1036
v 2.15165 2.57019 -36.1036
v 2.15165 22.4074 -36.0876
v 2.15165 22.4074 -53.3942
v 2.15165 0.000173571 -70.9721
v 2.15165 2.57019 -70.9721
v 2.15165 2.57019 -87.4818
v 2.15165 59.5386 -53.3782
v 2.15165 56.9494 -53.3782
v 2.15165 56.9494 -36.1036
v 2.15165 59.5386 -36.1036
v 2.15165 59.5386 -18.5097
v 2.15165 56.9494 -18.5097
f 192/174/22 193/175/22 194/176/22 195/177/22 196/178/22 197/179/22 198/180/22 199/181/22 191/182/22 190/183/22 200/184/22 201/185/22 202/186/22 170/187/22 165/188/22 168/189/22 203/190/22 204/191/22 205/192/22 206/193/22 207/194/22 208/195/22 

vn 9.32247e-16 -4.93038e-32 1
f 180/196/34 179/172/34 193/197/34 192/198/34 

vn 1.08247e-15 -1 -1.05843e-30
f 179/199/35 178/200/35 194/201/35 193/202/35 

f 194/203/34 178/172/34 177/204/34 195/205/34 

f 196/206/35 195/201/35 177/200/35 176/207/35 

vn -7.65714e-16 -2.75846e-47 -1
f 175/208/36 197/209/36 196/210/36 176/211/36 

vn -7.65851e-16 0.000805839 -1
f 175/212/37 174/213/37 198/214/37 197/215/37 

vn 0 -1 -0
f 174/216/38 173/217/38 199/218/38 198/219/38 

vn 7.65849e-16 0.000805839 1
f 173/220/39 172/221/39 191/222/39 199/223/39 

f 192/224/32 208/225/32 181/226/32 180/227/32 

f 181/196/34 208/228/34 207/229/34 182/230/34 

f 207/225/32 206/231/32 183/232/32 182/226/32 

f 205/233/31 184/141/31 183/142/31 206/234/31 

f 205/231/32 204/235/32 185/236/32 184/232/32 

f 185/196/34 204/237/34 203/238/34 186/230/34 

f 203/235/32 168/146/32 167/145/32 186/236/32 

f 200/239/35 190/240/35 171/241/35 189/242/35 

f 188/208/31 201/243/31 200/244/31 189/245/31 

f 202/246/35 201/239/35 188/242/35 187/247/35 

f 187/208/31 169/141/31 170/248/31 202/249/31 

