# Alias OBJ Model File
# Exported from SketchUp, (c) 2000-2012 Trimble Navigation Limited
# File units = millimeters

mtllib 7.mtl

g Mesh1 ___470_1 Model

usemtl _
v 165.35 2.56998 -99.7817
vt 0.468477 0
vn -3.40045e-31 -1 4.44089e-16
v 127.867 2.56998 -99.7817
vt 1.21775 0
v 127.867 2.56998 -101.782
vt 1.21775 0.02
v 165.35 2.56998 -101.782
vt 0.468477 0.02
f 1/1/1 2/2/1 3/3/1 4/4/1 

v 79.2268 57.9756 -99.7817
vt -2.19007 0.579756
vn -7.65714e-16 4.44089e-16 1
v 55.7194 57.9756 -99.7817
vt -2.65998 0.579756
v 55.7194 52.2574 -99.7817
vt -2.65998 0.522574
v 53.8594 52.2574 -99.7817
vt -2.69717 0.522574
v 53.8594 57.9756 -99.7817
vt -2.69717 0.579756
v 14.5604 57.9756 -99.7817
vt -3.48275 0.579756
v 14.5604 2.56998 -99.7817
vt -3.48275 0.0256998
v 20.3314 2.56998 -99.7817
vt -3.36739 0.0256998
v 20.3314 4.31207e-10 -99.7817
vt -3.36739 4.31207e-12
v 37.9252 4.31207e-10 -99.7817
vt -3.01569 4.31207e-12
v 37.9252 2.56998 -99.7817
vt -3.01569 0.0256998
v 75.4074 2.56998 -99.7817
vt -2.26642 0.0256998
v 75.4074 2.69241e-09 -99.7817
vt -2.26642 2.69241e-11
v 93.0013 2.69241e-09 -99.7817
vt -1.91472 2.69241e-11
v 93.0013 2.56998 -99.7817
vt -1.91472 0.0256998
v 110.273 2.56998 -99.7817
vt -1.56945 0.0256998
v 110.273 3.60505e-09 -99.7817
vt -1.56945 3.60505e-11
v 127.867 3.60505e-09 -99.7817
vt -1.21775 3.60505e-11
vt -1.21775 0.0256998
vt -0.468477 0.0256998
v 165.35 3.60505e-09 -99.7817
vt -0.468477 3.60505e-11
v 182.937 3.60505e-09 -99.7817
vt -0.116895 3.60505e-11
v 182.937 2.56998 -99.7817
vt -0.116895 0.0256998
v 188.714 2.56998 -99.7817
vt -0.00141489 0.0256998
v 188.714 57.9756 -99.7817
vt -0.00141489 0.579756
v 149.415 57.9756 -99.7817
vt -0.787 0.579756
v 149.415 52.2574 -99.7817
vt -0.787 0.522574
v 147.555 52.2574 -99.7817
vt -0.824182 0.522574
v 147.555 57.9756 -99.7817
vt -0.824182 0.579756
v 124.048 57.9756 -99.7817
vt -1.2941 0.579756
v 124.048 52.2574 -99.7817
vt -1.2941 0.522574
v 122.188 52.2574 -99.7817
vt -1.33128 0.522574
v 122.188 57.9756 -99.7817
vt -1.33128 0.579756
v 81.0868 57.9756 -99.7817
vt -2.15289 0.579756
v 81.0868 52.2574 -99.7817
vt -2.15289 0.522574
v 79.2268 52.2574 -99.7817
vt -2.19007 0.522574
f 5/5/2 6/6/2 7/7/2 8/8/2 9/9/2 10/10/2 11/11/2 12/12/2 13/13/2 14/14/2 15/15/2 16/16/2 17/17/2 18/18/2 19/19/2 20/20/2 21/21/2 22/22/2 2/23/2 1/24/2 23/25/2 24/26/2 25/27/2 26/28/2 27/29/2 28/30/2 29/31/2 30/32/2 31/33/2 32/34/2 33/35/2 34/36/2 35/37/2 36/38/2 37/39/2 38/40/2 

v 79.2268 57.9756 -101.782
vt -2.19007 0.02
vn -4.84718e-11 1 -4.44089e-16
v 55.7194 57.9756 -101.782
vt -2.65998 0.02
vt -2.65998 0
vt -2.19007 0
f 39/41/3 40/42/3 6/43/3 5/44/3 

v 14.5604 57.9756 -101.782
vt 3.48275 0.579756
vn 7.65714e-16 -4.44089e-16 -1
v 53.8594 57.9756 -101.782
vt 2.69717 0.579756
v 53.8594 52.2574 -101.782
vt 2.69717 0.522574
v 55.7194 52.2574 -101.782
vt 2.65998 0.522574
vt 2.65998 0.579756
vt 2.19007 0.579756
v 79.2268 52.2574 -101.782
vt 2.19007 0.522574
v 81.0868 52.2574 -101.782
vt 2.15289 0.522574
v 81.0868 57.9756 -101.782
vt 2.15289 0.579756
v 122.188 57.9756 -101.782
vt 1.33128 0.579756
v 122.188 52.2574 -101.782
vt 1.33128 0.522574
v 124.048 52.2574 -101.782
vt 1.2941 0.522574
v 124.048 57.9756 -101.782
vt 1.2941 0.579756
v 147.555 57.9756 -101.782
vt 0.824182 0.579756
v 147.555 52.2574 -101.782
vt 0.824182 0.522574
v 149.415 52.2574 -101.782
vt 0.787 0.522574
v 149.415 57.9756 -101.782
vt 0.787 0.579756
v 188.714 57.9756 -101.782
vt 0.00141489 0.579756
v 188.714 2.56998 -101.782
vt 0.00141489 0.0256998
v 182.937 2.56998 -101.782
vt 0.116895 0.0256998
v 182.937 3.60504e-09 -101.782
vt 0.116895 3.60505e-11
v 165.35 3.60504e-09 -101.782
vt 0.468477 3.60505e-11
vt 0.468477 0.0256998
vt 1.21775 0.0256998
v 127.867 3.60504e-09 -101.782
vt 1.21775 3.60505e-11
v 110.273 3.60504e-09 -101.782
vt 1.56945 3.60505e-11
v 110.273 2.56998 -101.782
vt 1.56945 0.0256998
v 93.0013 2.56998 -101.782
vt 1.91472 0.0256998
v 93.0013 2.69241e-09 -101.782
vt 1.91472 2.69241e-11
v 75.4074 2.69241e-09 -101.782
vt 2.26642 2.69241e-11
v 75.4074 2.56998 -101.782
vt 2.26642 0.0256998
v 37.9252 2.56998 -101.782
vt 3.01569 0.0256998
v 37.9252 4.31206e-10 -101.782
vt 3.01569 4.31207e-12
v 20.3314 4.31206e-10 -101.782
vt 3.36739 4.31207e-12
v 20.3314 2.56998 -101.782
vt 3.36739 0.0256998
v 14.5604 2.56998 -101.782
vt 3.48275 0.0256998
f 41/45/4 42/46/4 43/47/4 44/48/4 40/49/4 39/50/4 45/51/4 46/52/4 47/53/4 48/54/4 49/55/4 50/56/4 51/57/4 52/58/4 53/59/4 54/60/4 55/61/4 56/62/4 57/63/4 58/64/4 59/65/4 60/66/4 4/67/4 3/68/4 61/69/4 62/70/4 63/71/4 64/72/4 65/73/4 66/74/4 67/75/4 68/76/4 69/77/4 70/78/4 71/79/4 72/80/4 

vt -3.48275 0
vn -4.48888e-11 1 -4.44089e-16
vt -2.69717 0
vt -2.69717 0.02
vt -3.48275 0.02
f 10/81/5 9/82/5 42/83/5 41/84/5 

vt -1.04462 0.02
vn 1 0 7.65714e-16
vt -1.15893 0.02
vt -1.15893 0
vt -1.04462 0
f 43/85/6 42/86/6 9/87/6 8/88/6 

vn 3.40045e-31 1 -4.44089e-16
f 44/42/7 43/83/7 8/82/7 7/43/7 

vt 1.15893 0.02
vn -1 0 -7.65714e-16
vt 1.04462 0.02
vt 1.04462 0
vt 1.15893 0
f 40/89/8 44/90/8 7/91/8 6/92/8 

vt 0.051374 0.02
vt 0.051374 0
f 41/89/8 72/93/8 11/94/8 10/92/8 

vt 3.48275 0.02
vt 3.36739 0.02
vt 3.36739 0
vt 3.48275 0
f 72/95/1 71/96/1 12/97/1 11/98/1 

vt 8.61982e-12 0.02
vt 8.61982e-12 0
f 12/94/8 71/93/8 70/99/8 13/100/8 

vt 3.01569 0
vt 3.01569 0.02
f 14/101/1 13/97/1 70/96/1 69/102/1 

vt -0.051374 0.02
vt -0.051374 0
vt -8.61982e-12 0
vt -8.61982e-12 0.02
f 68/103/6 15/104/6 14/105/6 69/106/6 

vt 2.26642 0
vt 2.26642 0.02
f 16/107/1 15/101/1 68/102/1 67/108/1 

vt 5.38214e-11 0.02
vt 5.38214e-11 0
f 16/94/8 67/93/8 66/109/8 17/110/8 

vt 1.91472 0
vt 1.91472 0.02
f 18/111/1 17/107/1 66/108/1 65/112/1 

vt -5.38214e-11 0
vt -5.38214e-11 0.02
f 64/103/6 19/104/6 18/113/6 65/114/6 

vt 1.56945 0
vt 1.56945 0.02
f 20/115/1 19/111/1 64/112/1 63/116/1 

vt 7.20649e-11 0.02
vt 7.20649e-11 0
f 20/94/8 63/93/8 62/117/8 21/118/8 

f 22/2/1 21/115/1 62/116/1 61/3/1 

vt -7.20649e-11 0
vt -7.20649e-11 0.02
f 3/103/6 2/104/6 22/119/6 61/120/6 

f 45/85/6 39/86/6 5/87/6 38/88/6 

vt -2.15289 0.02
vt -2.15289 0
f 46/121/7 45/41/7 38/44/7 37/122/7 

f 47/89/8 46/90/8 37/91/8 36/92/8 

vt -1.33128 0.02
vn -2.44527e-11 1 -4.44089e-16
vt -1.33128 0
f 48/123/9 47/121/9 36/122/9 35/124/9 

f 49/85/6 48/86/6 35/87/6 34/88/6 

vt -1.2941 0.02
vt -1.2941 0
f 50/125/7 49/123/7 34/124/7 33/126/7 

f 51/89/8 50/90/8 33/91/8 32/92/8 

vt -0.824182 0.02
vt -0.824182 0
f 52/127/7 51/125/7 32/126/7 31/128/7 

f 53/85/6 52/86/6 31/87/6 30/88/6 

vt -0.787 0.02
vt -0.787 0
f 54/129/7 53/127/7 30/128/7 29/130/7 

f 55/89/8 54/90/8 29/91/8 28/92/8 

vn 9.94573e-11 1 -4.44089e-16
vt -0.00141489 0
vt -0.00141489 0.02
f 55/129/10 28/130/10 27/131/10 56/132/10 

f 57/103/6 56/86/6 27/87/6 26/104/6 

vt 0.00141489 0
vt 0.116895 0
vt 0.116895 0.02
vt 0.00141489 0.02
f 26/133/1 25/134/1 58/135/1 57/136/1 

f 58/103/6 25/104/6 24/119/6 59/120/6 

f 24/134/1 23/1/1 60/4/1 59/135/1 

f 1/94/8 4/93/8 60/117/8 23/118/8 

g Mesh2 ___472_1 Model

v 16.5604 0.0157657 -49.3754
vt 1.00833 0
vn 3.88578e-16 -1 2.14339e-31
v 16.5604 0.0157657 -31.7816
vt 1.36003 0
v 14.5604 0.0157657 -31.7816
vt 1.36003 0.02
v 14.5604 0.0157657 -49.3754
vt 1.00833 0.02
f 73/137/11 74/138/11 75/139/11 76/140/11 

v 16.5604 2.58573 -99.7817
vt -0.000707282 0.0256996
vn 1 3.88578e-16 9.32247e-16
v 16.5604 57.9756 -99.7817
vt -0.000707282 0.579598
v 16.5604 57.9756 -78.4248
vt -0.42763 0.579598
v 16.5604 52.2574 -78.4248
vt -0.42763 0.522416
v 16.5604 52.2574 -76.5648
vt -0.464812 0.522416
v 16.5604 57.9756 -76.5648
vt -0.464812 0.579598
v 16.5604 57.9756 -39.4449
vt -1.20684 0.579598
v 16.5604 52.2574 -39.4449
vt -1.20684 0.522416
v 16.5604 52.2574 -37.5849
vt -1.24402 0.522416
v 16.5604 57.9756 -37.5849
vt -1.24402 0.579598
v 16.5604 57.9756 -16.2281
vt -1.67094 0.579598
v 16.5604 2.58573 -16.2281
vt -1.67094 0.0256996
v 16.5604 2.58573 -31.7816
vt -1.36003 0.0256996
vt -1.36003 2.80553e-12
vt -1.00833 2.80553e-12
v 16.5604 2.58573 -49.3754
vt -1.00833 0.0256996
v 16.5604 2.58573 -66.6204
vt -0.663601 0.0256996
v 16.5604 0.0157657 -66.6204
vt -0.663601 1.13196e-11
v 16.5604 0.0157657 -84.2281
vt -0.311623 1.13196e-11
v 16.5604 2.58573 -84.2281
vt -0.311623 0.0256996
f 77/141/12 78/142/12 79/143/12 80/144/12 81/145/12 82/146/12 83/147/12 84/148/12 85/149/12 86/150/12 87/151/12 88/152/12 89/153/12 74/154/12 73/155/12 90/156/12 91/157/12 92/158/12 93/159/12 94/160/12 

v 14.5604 2.58573 -99.7817
vt -0.0513735 0.02
vn 9.32247e-16 1.47911e-31 -1
v 14.5604 57.9756 -99.7817
vt -1.15862 0.02
vt -1.15862 0
vt -0.0513735 0
f 95/161/13 96/162/13 78/163/13 77/164/13 

v 14.5604 57.9756 -16.2281
vt 1.67094 0.579598
vn -1 -3.88578e-16 -9.32247e-16
v 14.5604 57.9756 -37.5849
vt 1.24402 0.579598
v 14.5604 52.2574 -37.5849
vt 1.24402 0.522416
v 14.5604 52.2574 -39.4449
vt 1.20684 0.522416
v 14.5604 57.9756 -39.4449
vt 1.20684 0.579598
v 14.5604 57.9756 -76.5648
vt 0.464812 0.579598
v 14.5604 52.2574 -76.5648
vt 0.464812 0.522416
v 14.5604 52.2574 -78.4248
vt 0.42763 0.522416
v 14.5604 57.9756 -78.4248
vt 0.42763 0.579598
vt 0.000707282 0.579598
vt 0.000707282 0.0256996
v 14.5604 2.58573 -84.2281
vt 0.311623 0.0256996
v 14.5604 0.0157657 -84.2281
vt 0.311623 1.13196e-11
v 14.5604 0.0157657 -66.6204
vt 0.663601 1.13196e-11
v 14.5604 2.58573 -66.6204
vt 0.663601 0.0256996
v 14.5604 2.58573 -49.3754
vt 1.00833 0.0256996
vt 1.00833 2.80553e-12
vt 1.36003 2.80553e-12
v 14.5604 2.58573 -31.7816
vt 1.36003 0.0256996
v 14.5604 2.58573 -16.2281
vt 1.67094 0.0256996
f 97/165/14 98/166/14 99/167/14 100/168/14 101/169/14 102/170/14 103/171/14 104/172/14 105/173/14 96/174/14 95/175/14 106/176/14 107/177/14 108/178/14 109/179/14 110/180/14 76/181/14 75/182/14 111/183/14 112/184/14 

vt -1.67094 0
vn -3.88578e-16 1 4.49318e-11
vt -1.24402 0
vt -1.24402 0.02
vt -1.67094 0.02
f 87/185/15 86/186/15 98/187/15 97/188/15 

vt -1.04431 0.02
vn 9.32247e-16 4.4313e-11 -1
vt -1.04431 0
f 99/189/16 98/162/16 86/163/16 85/190/16 

vt -1.20684 0.02
vn -3.88578e-16 1 4.4319e-11
vt -1.20684 0
f 100/191/17 99/187/17 85/186/17 84/192/17 

vt 1.15862 0.02
vn -9.32247e-16 -4.4313e-11 1
vt 1.04431 0.02
vt 1.04431 0
vt 1.15862 0
f 101/193/18 100/194/18 84/195/18 83/196/18 

vn -3.88578e-16 1 2.24814e-11
vt -0.464812 0
vt -0.464812 0.02
f 101/191/19 83/192/19 82/197/19 102/198/19 

f 103/189/13 102/162/13 82/163/13 81/190/13 

vt -0.42763 0.02
vn -3.88578e-16 1 -2.14339e-31
vt -0.42763 0
f 104/199/20 103/198/20 81/197/20 80/200/20 

vn -9.32247e-16 -1.47911e-31 1
f 105/193/21 104/194/21 80/195/21 79/196/21 

vn -3.88578e-16 1 -8.78661e-11
vt -0.000707282 0
vt -0.000707282 0.02
f 105/199/22 79/200/22 78/201/22 96/202/22 

vt 0.0513735 0.02
vt 0.0513735 0
f 97/193/21 112/203/21 88/204/21 87/196/21 

vt 1.67094 0.02
vt 1.67094 0
f 112/205/11 111/139/11 89/138/11 88/206/11 

vt 5.60825e-12 0.02
vt 5.60825e-12 0
f 89/204/21 111/203/21 75/207/21 74/208/21 

vt 0.000707282 0
vt 0.311623 0
vt 0.311623 0.02
vt 0.000707282 0.02
f 77/209/11 94/210/11 106/211/11 95/212/11 

vt -2.26278e-11 0
vt -2.26278e-11 0.02
f 106/161/13 94/164/13 93/213/13 107/214/13 

vt 0.663601 0
vt 0.663601 0.02
f 93/210/11 92/215/11 108/216/11 107/211/11 

vt 2.26278e-11 0.02
vt 2.26278e-11 0
f 91/204/21 109/203/21 108/217/21 92/218/21 

f 91/215/11 90/137/11 110/140/11 109/216/11 

vt -5.60825e-12 0
vt -5.60825e-12 0.02
f 110/161/13 90/164/13 73/219/13 76/220/13 

g Mesh3 ___470_2 Model

v 37.9252 2.56998 -16.2281
vn 0 -1 -4.44089e-16
v 75.4074 2.56998 -16.2281
v 75.4074 2.56998 -14.2281
v 37.9252 2.56998 -14.2281
f 113/1/23 114/2/23 115/3/23 116/4/23 

v 124.048 57.9756 -16.2281
vn 0 4.44089e-16 -1
v 147.555 57.9756 -16.2281
v 147.555 52.2574 -16.2281
v 149.415 52.2574 -16.2281
v 149.415 57.9756 -16.2281
v 188.714 57.9756 -16.2281
v 188.714 2.56998 -16.2281
v 182.943 2.56998 -16.2281
v 182.943 4.31207e-10 -16.2281
v 165.35 4.31207e-10 -16.2281
v 165.35 2.56998 -16.2281
v 127.867 2.56998 -16.2281
v 127.867 2.69241e-09 -16.2281
v 110.273 2.69241e-09 -16.2281
v 110.273 2.56998 -16.2281
v 93.0013 2.56998 -16.2281
v 93.0013 3.60505e-09 -16.2281
v 75.4074 3.60505e-09 -16.2281
v 37.9252 3.60505e-09 -16.2281
v 20.3373 3.60505e-09 -16.2281
v 20.3373 2.56998 -16.2281
v 14.5604 2.56998 -16.2281
v 14.5604 57.9756 -16.2281
v 53.8594 57.9756 -16.2281
v 53.8594 52.2574 -16.2281
v 55.7194 52.2574 -16.2281
v 55.7194 57.9756 -16.2281
v 79.2268 57.9756 -16.2281
v 79.2268 52.2574 -16.2281
v 81.0868 52.2574 -16.2281
v 81.0868 57.9756 -16.2281
v 122.188 57.9756 -16.2281
v 122.188 52.2574 -16.2281
v 124.048 52.2574 -16.2281
f 117/5/24 118/6/24 119/7/24 120/8/24 121/9/24 122/10/24 123/11/24 124/12/24 125/13/24 126/14/24 127/15/24 128/16/24 129/17/24 130/18/24 131/19/24 132/20/24 133/21/24 134/22/24 114/23/24 113/24/24 135/25/24 136/26/24 137/27/24 138/28/24 139/29/24 140/30/24 141/31/24 142/32/24 143/33/24 144/34/24 145/35/24 146/36/24 147/37/24 148/38/24 149/39/24 150/40/24 

v 124.048 57.9756 -14.2281
vn 4.84718e-11 1 4.44089e-16
v 147.555 57.9756 -14.2281
f 151/41/25 152/42/25 118/43/25 117/44/25 

v 188.714 57.9756 -14.2281
vn 0 -4.44089e-16 1
v 149.415 57.9756 -14.2281
v 149.415 52.2574 -14.2281
v 147.555 52.2574 -14.2281
v 124.048 52.2574 -14.2281
v 122.188 52.2574 -14.2281
v 122.188 57.9756 -14.2281
v 81.0868 57.9756 -14.2281
v 81.0868 52.2574 -14.2281
v 79.2268 52.2574 -14.2281
v 79.2268 57.9756 -14.2281
v 55.7194 57.9756 -14.2281
v 55.7194 52.2574 -14.2281
v 53.8594 52.2574 -14.2281
v 53.8594 57.9756 -14.2281
v 14.5604 57.9756 -14.2281
v 14.5604 2.56998 -14.2281
v 20.3373 2.56998 -14.2281
v 20.3373 3.60504e-09 -14.2281
v 37.9252 3.60504e-09 -14.2281
v 75.4074 3.60504e-09 -14.2281
v 93.0013 3.60504e-09 -14.2281
v 93.0013 2.56998 -14.2281
v 110.273 2.56998 -14.2281
v 110.273 2.69241e-09 -14.2281
v 127.867 2.69241e-09 -14.2281
v 127.867 2.56998 -14.2281
v 165.35 2.56998 -14.2281
v 165.35 4.31206e-10 -14.2281
v 182.943 4.31206e-10 -14.2281
v 182.943 2.56998 -14.2281
v 188.714 2.56998 -14.2281
f 153/45/26 154/46/26 155/47/26 156/48/26 152/49/26 151/50/26 157/51/26 158/52/26 159/53/26 160/54/26 161/55/26 162/56/26 163/57/26 164/58/26 165/59/26 166/60/26 167/61/26 168/62/26 169/63/26 170/64/26 171/65/26 172/66/26 116/67/26 115/68/26 173/69/26 174/70/26 175/71/26 176/72/26 177/73/26 178/74/26 179/75/26 180/76/26 181/77/26 182/78/26 183/79/26 184/80/26 

vn 4.48888e-11 1 4.44089e-16
f 122/81/27 121/82/27 154/83/27 153/84/27 

vn -1 0 0
f 155/85/28 154/86/28 121/87/28 120/88/28 

vn 0 1 4.44089e-16
f 156/42/29 155/83/29 120/82/29 119/43/29 

vn 1 0 -0
f 152/89/30 156/90/30 119/91/30 118/92/30 

f 153/89/30 184/93/30 123/94/30 122/92/30 

f 184/95/23 183/96/23 124/97/23 123/98/23 

f 124/94/30 183/93/30 182/99/30 125/100/30 

f 126/101/23 125/97/23 182/96/23 181/102/23 

f 180/103/28 127/104/28 126/105/28 181/106/28 

f 128/107/23 127/101/23 180/102/23 179/108/23 

f 128/94/30 179/93/30 178/109/30 129/110/30 

f 130/111/23 129/107/23 178/108/23 177/112/23 

f 176/103/28 131/104/28 130/113/28 177/114/28 

f 132/115/23 131/111/23 176/112/23 175/116/23 

f 132/94/30 175/93/30 174/117/30 133/118/30 

f 134/2/23 133/115/23 174/116/23 173/3/23 

f 115/103/28 114/104/28 134/119/28 173/120/28 

f 157/85/28 151/86/28 117/87/28 150/88/28 

f 158/121/29 157/41/29 150/44/29 149/122/29 

f 159/89/30 158/90/30 149/91/30 148/92/30 

vn 2.44527e-11 1 4.44089e-16
f 160/123/31 159/121/31 148/122/31 147/124/31 

f 161/85/28 160/86/28 147/87/28 146/88/28 

f 162/125/29 161/123/29 146/124/29 145/126/29 

f 163/89/30 162/90/30 145/91/30 144/92/30 

f 164/127/29 163/125/29 144/126/29 143/128/29 

f 165/85/28 164/86/28 143/87/28 142/88/28 

f 166/129/29 165/127/29 142/128/29 141/130/29 

f 167/89/30 166/90/30 141/91/30 140/92/30 

vn -9.94573e-11 1 4.44089e-16
f 167/129/32 140/130/32 139/131/32 168/132/32 

f 169/103/28 168/86/28 139/87/28 138/104/28 

f 138/133/23 137/134/23 170/135/23 169/136/23 

f 170/103/28 137/104/28 136/119/28 171/120/28 

f 136/134/23 135/1/23 172/4/23 171/135/23 

f 113/94/30 116/93/30 172/117/30 135/118/30 

g Mesh4 ___471_1 Model

v 191.132 2.56998 -116.267
vt -3.82073 0.02
vn -1.34627e-15 0 -1
v 199.281 2.56998 -116.267
vt -3.98362 0.02
vn 0.0494482 0 -0.998777
v 199.281 0.569983 -116.267
vt -3.98362 0
v 191.132 0.569983 -116.267
vt -3.82073 0
f 185/221/33 186/222/34 187/223/34 188/224/33 

vt 3.98362 1.16267
vn 0 1 -0
vt 3.82073 1.16267
v 169.601 2.56998 -116.267
vt 3.39032 1.16267
v 139.056 2.56998 -116.267
vt 2.77973 1.16267
v 103.868 2.56998 -116.267
vt 2.07632 1.16267
v 68.4069 2.56998 -116.267
vt 1.36745 1.16267
v 37.0427 2.56998 -116.267
vt 0.740484 1.16267
v 14.1455 2.56998 -116.267
vt 0.282769 1.16267
v 4.08532 2.56998 -116.267
vt 0.0816656 1.16267
v 3.25965 2.56998 -116.207
vt 0.0651604 1.16207
v 2.52111 2.56998 -116.001
vt 0.0503971 1.16001
v 1.84851 2.56998 -115.663
vt 0.0369518 1.15663
v 1.25701 2.56998 -115.208
vt 0.0251275 1.15208
v 0.761744 2.56998 -114.651
vt 0.0152273 1.14651
v 0.377883 2.56998 -114.007
vt 0.00755388 1.14007
v 0.120577 2.56998 -113.291
vt 0.00241033 1.13291
v 0.00498094 2.56998 -112.519
vt 9.9569e-05 1.12519
v 0 2.56998 -109.719
vt 0 1.09719
v 0 2.56998 -99.4025
vt 0 0.994025
v 0 2.56998 -83.479
vt 0 0.83479
v 0 2.56998 -64.3734
vt 0 0.643734
v 0 2.56998 -44.5101
vt 0 0.445101
v 0 2.56998 -26.3136
vt 0 0.263136
v 0 2.56998 -12.2085
vt 0 0.122085
v 0 2.56998 -4.61928
vt 0 0.0461928
v 0.0307609 2.56998 -3.45281
vt 0.00061491 0.0345281
v 0.201274 2.56998 -2.70016
vt 0.00402347 0.0270016
v 0.507814 2.56998 -2.00965
vt 0.0101512 0.0200965
v 0.935226 2.56998 -1.39645
vt 0.0186952 0.0139645
v 1.46836 2.56998 -0.875707
vt 0.0293524 0.00875707
v 2.09205 2.56998 -0.462575
vt 0.0418201 0.00462575
v 2.79115 2.56998 -0.17221
vt 0.0557951 0.0017221
v 3.55051 2.56998 -0.0197659
vt 0.0709747 0.000197659
v 6.07617 2.56998 -0
vt 0.121463 0
v 21.4624 2.56998 -9.02389e-14
vt 0.429032 9.02389e-16
v 48.0468 2.56998 -0
vt 0.960455 0
v 81.4594 2.56998 -0
vt 1.62837 0
v 117.33 2.56998 -0
vt 2.34543 0
v 151.289 2.56998 -0
vt 3.02427 0
v 178.966 2.56998 -0
vt 3.57753 0
v 195.991 2.56998 -0
vt 3.91786 0
v 199.58 2.56998 -0.0111627
vt 3.9896 0.000111627
v 200.345 2.56998 -0.145301
vt 4.00491 0.00145301
v 201.053 2.56998 -0.419255
vt 4.01905 0.00419255
v 201.687 2.56998 -0.81787
vt 4.03172 0.0081787
v 202.232 2.56998 -1.32599
vt 4.04262 0.0132599
v 202.674 2.56998 -1.92846
vt 4.05145 0.0192846
v 202.996 2.56998 -2.61014
vt 4.05789 0.0261014
v 203.184 2.56998 -3.35585
vt 4.06166 0.0335585
v 203.229 2.56998 -4.24953
vt 4.06254 0.0424953
v 203.229 2.56998 -10.8538
vt 4.06254 0.108538
v 203.229 2.56998 -24.277
vt 4.06254 0.24277
v 203.229 2.56998 -42.0946
vt 4.06254 0.420946
v 203.229 2.56998 -61.8822
vt 4.06254 0.618822
v 203.229 2.56998 -81.2151
vt 4.06254 0.812151
v 203.229 2.56998 -97.6689
vt 4.06254 0.976689
v 203.229 2.56998 -108.819
vt 4.06254 1.08819
v 203.227 2.56998 -112.419
vt 4.06251 1.12419
v 203.131 2.56998 -113.197
vt 4.06058 1.13197
v 202.89 2.56998 -113.921
vt 4.05577 1.13921
v 202.521 2.56998 -114.575
vt 4.0484 1.14575
v 202.039 2.56998 -115.143
vt 4.03876 1.15143
v 201.459 2.56998 -115.612
vt 4.02716 1.15612
v 200.795 2.56998 -115.966
vt 4.0139 1.15966
v 200.064 2.56998 -116.189
vt 3.99929 1.16189
f 186/225/35 185/226/35 189/227/35 190/228/35 191/229/35 192/230/35 193/231/35 194/232/35 195/233/35 196/234/35 197/235/35 198/236/35 199/237/35 200/238/35 201/239/35 202/240/35 203/241/35 204/242/35 205/243/35 206/244/35 207/245/35 208/246/35 209/247/35 210/248/35 211/249/35 212/250/35 213/251/35 214/252/35 215/253/35 216/254/35 217/255/35 218/256/35 219/257/35 220/258/35 221/259/35 222/260/35 223/261/35 224/262/35 225/263/35 226/264/35 227/265/35 228/266/35 229/267/35 230/268/35 231/269/35 232/270/35 233/271/35 234/272/35 235/273/35 236/274/35 237/275/35 238/276/35 239/277/35 240/278/35 241/279/35 242/280/35 243/281/35 244/282/35 245/283/35 246/284/35 247/285/35 248/286/35 249/287/35 250/288/35 251/289/35 

vt -3.39032 0.02
vn 1.23669e-15 0 -1
v 169.601 0.569983 -116.267
vt -3.39032 0
f 189/290/36 185/221/33 188/224/33 252/291/36 

vt -3.82073 1.16267
vn 0 -1 -0
vt -3.98362 1.16267
v 200.064 0.569983 -116.189
vt -3.99929 1.16189
v 200.795 0.569983 -115.966
vt -4.0139 1.15966
v 201.459 0.569983 -115.612
vt -4.02716 1.15612
v 202.039 0.569983 -115.143
vt -4.03876 1.15143
v 202.521 0.569983 -114.575
vt -4.0484 1.14575
v 202.89 0.569983 -113.921
vt -4.05577 1.13921
v 203.131 0.569983 -113.197
vt -4.06058 1.13197
v 203.227 0.569983 -112.419
vt -4.06251 1.12419
v 203.229 0.569983 -108.819
vt -4.06254 1.08819
v 203.229 0.569983 -97.6689
vt -4.06254 0.976689
v 203.229 0.569983 -81.2151
vt -4.06254 0.812151
v 203.229 0.569983 -61.8822
vt -4.06254 0.618822
v 203.229 0.569983 -42.0946
vt -4.06254 0.420946
v 203.229 0.569983 -24.277
vt -4.06254 0.24277
v 203.229 0.569983 -10.8538
vt -4.06254 0.108538
v 203.229 0.569983 -4.24953
vt -4.06254 0.0424953
v 203.184 0.569983 -3.35585
vt -4.06166 0.0335585
v 202.996 0.569983 -2.61014
vt -4.05789 0.0261014
v 202.674 0.569983 -1.92846
vt -4.05145 0.0192846
v 202.232 0.569983 -1.32599
vt -4.04262 0.0132599
v 201.687 0.569983 -0.81787
vt -4.03172 0.0081787
v 201.053 0.569983 -0.419255
vt -4.01905 0.00419255
v 200.345 0.569983 -0.145301
vt -4.00491 0.00145301
v 199.58 0.569983 -0.0111627
vt -3.9896 0.000111627
v 195.991 0.569983 -0
vt -3.91786 0
v 178.966 0.569983 -0
vt -3.57753 0
v 151.289 0.569983 -0
vt -3.02427 0
v 117.33 0.569983 -0
vt -2.34543 0
v 81.4594 0.569983 -0
vt -1.62837 0
v 48.0468 0.569983 -0
vt -0.960455 0
v 21.4624 0.569983 -9.02389e-14
vt -0.429032 9.02389e-16
v 6.07617 0.569983 -0
vt -0.121463 0
v 3.55051 0.569983 -0.0197659
vt -0.0709747 0.000197659
v 2.79115 0.569983 -0.17221
vt -0.0557951 0.0017221
v 2.09205 0.569983 -0.462575
vt -0.0418201 0.00462575
v 1.46836 0.569983 -0.875707
vt -0.0293524 0.00875707
v 0.935226 0.569983 -1.39645
vt -0.0186952 0.0139645
v 0.507814 0.569983 -2.00965
vt -0.0101512 0.0200965
v 0.201274 0.569983 -2.70016
vt -0.00402347 0.0270016
v 0.0307609 0.569983 -3.45281
vt -0.00061491 0.0345281
v 0 0.569983 -4.61928
v 0 0.569983 -12.2085
v 0 0.569983 -26.3136
v 0 0.569983 -44.5101
v 0 0.569983 -64.3734
v 0 0.569983 -83.479
v 0 0.569983 -99.4025
v 0 0.569983 -109.719
v 0.00498094 0.569983 -112.519
vt -9.9569e-05 1.12519
v 0.120577 0.569983 -113.291
vt -0.00241033 1.13291
v 0.377883 0.569983 -114.007
vt -0.00755388 1.14007
v 0.761744 0.569983 -114.651
vt -0.0152273 1.14651
v 1.25701 0.569983 -115.208
vt -0.0251275 1.15208
v 1.84851 0.569983 -115.663
vt -0.0369518 1.15663
v 2.52111 0.569983 -116.001
vt -0.0503971 1.16001
v 3.25965 0.569983 -116.207
vt -0.0651604 1.16207
v 4.08532 0.569983 -116.267
vt -0.0816656 1.16267
v 14.1455 0.569983 -116.267
vt -0.282769 1.16267
v 37.0427 0.569983 -116.267
vt -0.740484 1.16267
v 68.4069 0.569983 -116.267
vt -1.36745 1.16267
v 103.868 0.569983 -116.267
vt -2.07632 1.16267
v 139.056 0.569983 -116.267
vt -2.77973 1.16267
vt -3.39032 1.16267
f 188/292/37 187/293/37 253/294/37 254/295/37 255/296/37 256/297/37 257/298/37 258/299/37 259/300/37 260/301/37 261/302/37 262/303/37 263/304/37 264/305/37 265/306/37 266/307/37 267/308/37 268/309/37 269/310/37 270/311/37 271/312/37 272/313/37 273/314/37 274/315/37 275/316/37 276/317/37 277/318/37 278/319/37 279/320/37 280/321/37 281/322/37 282/323/37 283/324/37 284/325/37 285/326/37 286/327/37 287/328/37 288/329/37 289/330/37 290/331/37 291/332/37 292/333/37 293/249/37 294/248/37 295/247/37 296/246/37 297/245/37 298/244/37 299/243/37 300/242/37 301/334/37 302/335/37 303/336/37 304/337/37 305/338/37 306/339/37 307/340/37 308/341/37 309/342/37 310/343/37 311/344/37 312/345/37 313/346/37 314/347/37 252/348/37 

vt -3.73457 0.02
vt -3.75031 0.02
vn 0.196394 0 -0.980525
vt -3.75031 0
vt -3.73457 0
f 186/349/34 251/350/38 253/351/38 187/352/34 

vt -3.14643 0.02
vt -3.16171 0.02
vn 0.383075 0 -0.923717
vt -3.16171 0
vt -3.14643 0
f 251/353/38 250/354/39 254/355/39 253/356/38 

vt -2.4513 0.02
vt -2.46633 0.02
vn 0.551936 0 -0.833887
vt -2.46633 0
vt -2.4513 0
f 250/357/39 249/358/40 255/359/40 254/360/39 

vt -1.68019 0.02
vt -1.69511 0.02
vn 0.698732 0 -0.715384
vt -1.69511 0
vt -1.68019 0
f 249/361/40 248/362/41 256/363/41 255/364/40 

vt -0.855525 0.02
vt -0.870431 0.02
vn 0.820563 0 -0.571556
vt -0.870431 0
vt -0.855525 0
f 248/365/41 247/366/42 257/367/42 256/368/41 

vt 0.00529382 0.02
vt -0.00971135 0.02
vn 0.914198 0 -0.405268
vt -0.00971135 0
vt 0.00529382 0
f 247/369/42 246/370/43 258/371/43 257/372/42 

vt 0.882056 0.02
vt 0.866816 0.02
vn 0.975389 0 -0.22049
vt 0.866816 0
vt 0.882056 0
f 246/373/43 245/374/44 259/375/44 258/376/43 

vt 1.74408 0.02
vt 1.72841 0.02
vn 0.998074 0 -0.0620336
vt 1.72841 0
vt 1.74408 0
f 245/377/44 244/378/45 260/379/45 259/380/44 

vt 2.24585 0.02
vt 2.17388 0.02
vn 1 0 -0.000173626
vt 2.17388 0
vt 2.24585 0
f 244/381/45 243/382/46 261/383/46 260/384/45 

vt 2.1753 0.02
vt 1.9524 0.02
vt 1.9524 0
vt 2.1753 0
f 243/385/46 242/386/30 262/387/30 261/388/46 

vt 1.62349 0.02
vt 1.62349 0
f 242/386/30 241/389/30 263/390/30 262/387/30 

vt 1.23702 0.02
vt 1.23702 0
f 241/389/30 240/391/30 264/392/30 263/390/30 

vt 0.841471 0.02
vt 0.841471 0
f 240/391/30 239/393/30 265/394/30 264/392/30 

vt 0.485297 0.02
vt 0.485297 0
f 239/393/30 238/395/30 266/396/30 265/394/30 

vt 0.216967 0.02
vt 0.216967 0
f 238/395/30 237/397/30 267/398/30 266/396/30 

vt 0.0849481 0.02
vn 0.999696 0 0.0246608
vt 0.0849481 0
f 237/397/30 236/399/47 268/400/47 267/398/30 

vt 0.285155 0.02
vt 0.267268 0.02
vn 0.989015 0 0.147818
vt 0.267268 0
vt 0.285155 0
f 236/401/47 235/402/48 269/403/48 268/404/47 

vt 1.05966 0.02
vt 1.04429 0.02
vn 0.941199 0 0.337853
vt 1.04429 0
vt 1.05966 0
f 235/405/48 234/406/49 270/407/49 269/408/48 

vt 1.78245 0.02
vt 1.76738 0.02
vn 0.859187 0 0.511661
vt 1.76738 0
vt 1.78245 0
f 234/409/49 233/410/50 271/411/50 270/412/49 

vt 2.42571 0.02
vt 2.41078 0.02
vn 0.747497 0 0.664265
vt 2.41078 0
vt 2.42571 0
f 233/413/50 232/414/51 272/415/51 271/416/50 

vt 2.97563 0.02
vt 2.96073 0.02
vn 0.609735 0 0.792605
vt 2.96073 0
vt 2.97563 0
f 232/417/51 231/418/52 273/419/52 272/420/51 

vt 3.42178 0.02
vt 3.40681 0.02
vn 0.448766 0 0.893649
vt 3.40681 0
vt 3.42178 0
f 231/421/52 230/422/53 274/423/53 273/424/52 

vt 3.75089 0.02
vt 3.73572 0.02
vn 0.268105 0 0.96339
vt 3.73572 0
vt 3.75089 0
f 230/425/53 229/426/54 275/427/54 274/428/53 

vt 3.94535 0.02
vt 3.92981 0.02
vn 0.0881393 0 0.996108
vt 3.92981 0
vt 3.94535 0
f 229/429/54 228/430/55 276/431/55 275/432/54 

vt 3.98958 0.02
vt 3.91784 0.02
vn 0.00155523 0 0.999999
vt 3.91784 0
vt 3.98958 0
f 228/433/55 227/434/56 277/435/56 276/436/55 

vt 3.91786 0.02
vt 3.57753 0.02
vn 0 0 1
f 227/437/56 226/438/57 278/264/57 277/265/56 

vt 3.02427 0.02
f 226/438/57 225/439/57 279/263/57 278/264/57 

vt 2.34543 0.02
f 225/439/57 224/440/57 280/262/57 279/263/57 

vt 1.62837 0.02
f 224/440/57 223/441/57 281/261/57 280/262/57 

vt 0.960455 0.02
vn -1.69721e-15 0 1
f 223/441/57 222/442/58 282/260/58 281/261/57 

vt 0.429032 0.02
vn 1.23525e-15 0 1
vt 0.429032 0
f 222/442/58 221/443/59 283/444/59 282/260/58 

vt 0.121463 0.02
vn -0.00391293 0 0.999992
f 221/443/59 220/445/60 284/258/60 283/444/59 

vt 0.121459 0.02
vt 0.0709694 0.02
vn -0.102792 0 0.994703
vt 0.0709694 0
vt 0.121459 0
f 220/446/60 219/447/61 285/448/61 284/449/60 

vt 0.0695085 0.02
vt 0.0540261 0.02
vn -0.291592 0 0.956543
vt 0.0540261 0
vt 0.0695085 0
f 219/450/61 218/451/62 286/452/62 285/453/61 

vt 0.050207 0.02
vt 0.0350745 0.02
vn -0.470053 0 0.882638
vt 0.0350745 0
vt 0.050207 0
f 218/454/62 217/455/63 287/456/63 286/457/62 

vt 0.0297585 0.02
vt 0.0148038 0.02
vn -0.628282 0 0.777986
vt 0.0148038 0
vt 0.0297585 0
f 217/458/63 216/459/64 288/460/64 287/461/63 

vt 0.00876594 0.02
vt -0.00613167 0.02
vn -0.762948 0 0.64646
vt -0.00613167 0
vt 0.00876594 0
f 216/462/64 215/463/65 289/464/65 288/465/64 

vt -0.0122107 0.02
vt -0.0271524 0.02
vn -0.871148 0 0.49102
vt -0.0271524 0
vt -0.0122107 0
f 215/466/65 214/467/66 290/468/66 289/469/65 

vt -0.0325986 0.02
vt -0.0477008 0.02
vn -0.949143 0 0.314846
vt -0.0477008 0
vt -0.0325986 0
f 214/470/66 213/471/67 291/472/67 290/473/66 

vt -0.0517532 0.02
vt -0.06718 0.02
vn -0.99225 0 0.124255
vt -0.06718 0
vt -0.0517532 0
f 213/474/67 212/475/68 292/476/68 291/477/67 

vt -0.0689815 0.02
vt -0.0923074 0.02
vn -0.999913 0 0.013182
vt -0.0923074 0
vt -0.0689815 0
f 212/478/68 211/479/69 293/480/69 292/481/68 

vt -0.0923395 0.02
vt -0.244048 0.02
vn -1 0 -0
vt -0.244048 0
vt -0.0923395 0
f 211/482/69 210/483/70 294/484/70 293/485/69 

vt -0.526009 0.02
vt -0.526009 0
f 210/483/70 209/486/70 295/487/70 294/484/70 

vt -0.889756 0.02
vt -0.889756 0
f 209/486/70 208/488/70 296/489/70 295/487/70 

vt -1.28682 0.02
vt -1.28682 0
f 208/488/70 207/490/70 297/491/70 296/489/70 

vt -1.66875 0.02
vt -1.66875 0
f 207/490/70 206/492/70 298/493/70 297/491/70 

vt -1.98706 0.02
vt -1.98706 0
f 206/492/70 205/494/70 299/495/70 298/493/70 

vt -2.19329 0.02
vn -1 0 -0.000889522
vt -2.19329 0
f 205/494/70 204/496/71 300/497/71 299/495/70 

vt -2.19328 0.02
vt -2.24925 0.02
vn -0.997174 0 -0.0751295
vt -2.24925 0
vt -2.19328 0
f 204/498/71 203/499/72 301/500/72 300/501/71 

vt -2.22448 0.02
vt -2.24008 0.02
vn -0.969675 0 -0.244399
vt -2.24008 0
vt -2.22448 0
f 203/502/72 202/503/73 302/504/73 301/505/72 

vt -2.13192 0.02
vt -2.14712 0.02
vn -0.904172 0 -0.427168
vt -2.14712 0
vt -2.13192 0
f 202/506/73 201/507/74 303/508/74 302/509/73 

vt -1.96146 0.02
vt -1.97645 0.02
vn -0.8068 0 -0.590825
vt -1.97645 0
vt -1.96146 0
f 201/510/74 200/511/75 304/512/75 303/513/74 

vt -1.72311 0.02
vt -1.73801 0.02
vn -0.68169 0 -0.731641
vt -1.73801 0
vt -1.72311 0
f 200/514/75 199/515/76 305/516/76 304/517/75 

vt -1.42458 0.02
vt -1.4395 0.02
vn -0.531969 0 -0.846764
vt -1.4395 0
vt -1.42458 0
f 199/518/76 198/519/77 306/520/77 305/521/76 

vt -1.07163 0.02
vt -1.08668 0.02
vn -0.3606 0 -0.932721
vt -1.08668 0
vt -1.07163 0
f 198/522/77 197/523/78 307/524/78 306/525/77 

vt -0.671397 0.02
vt -0.686724 0.02
vn -0.171277 0 -0.985223
vt -0.686724 0
vt -0.671397 0
f 197/526/78 196/527/79 308/528/79 307/529/78 

vt -0.232817 0.02
vt -0.249365 0.02
vn -0.0361467 0 -0.999346
vt -0.249365 0
vt -0.232817 0
f 196/530/79 195/531/80 309/532/80 308/533/79 

vt -0.0816656 0.02
vt -0.282769 0.02
vn 2.51442e-15 0 -1
vt -0.282769 0
vt -0.0816656 0
f 195/534/80 194/535/81 310/536/81 309/537/80 

vt -0.740484 0.02
vn -3.40909e-15 0 -1
vt -0.740484 0
f 194/535/81 193/538/82 311/539/82 310/536/81 

vt -1.36745 0.02
vn -1.66202e-16 0 -1
vt -1.36745 0
f 193/538/82 192/540/83 312/541/83 311/539/82 

vt -2.07632 0.02
vn 2.55461e-15 0 -1
vt -2.07632 0
f 192/540/83 191/542/84 313/543/84 312/541/83 

vt -2.77973 0.02
vn -1.67207e-15 0 -1
vt -2.77973 0
f 191/542/84 190/544/85 314/545/85 313/543/84 

f 190/544/85 189/290/36 252/291/36 314/545/85 

g Mesh5 ___472_2 Model

v 186.714 0.0157657 -66.6343
vn -3.88578e-16 -1 8.32002e-32
v 186.714 0.0157657 -84.2281
v 188.714 0.0157657 -84.2281
v 188.714 0.0157657 -66.6343
f 315/137/86 316/138/86 317/139/86 318/140/86 

v 186.714 2.58573 -16.2281
vn -1 3.88578e-16 -1.66533e-16
v 186.714 57.9756 -16.2281
v 186.714 57.9756 -37.5849
v 186.714 52.2574 -37.5849
v 186.714 52.2574 -39.4449
v 186.714 57.9756 -39.4449
v 186.714 57.9756 -76.5648
v 186.714 52.2574 -76.5648
v 186.714 52.2574 -78.4248
v 186.714 57.9756 -78.4248
v 186.714 57.9756 -99.7817
v 186.714 2.58573 -99.7817
v 186.714 2.58573 -84.2281
v 186.714 2.58573 -66.6343
v 186.714 2.58573 -49.3893
v 186.714 0.0157657 -49.3893
v 186.714 0.0157657 -31.7816
v 186.714 2.58573 -31.7816
f 319/141/87 320/142/87 321/143/87 322/144/87 323/145/87 324/146/87 325/147/87 326/148/87 327/149/87 328/150/87 329/151/87 330/152/87 331/153/87 316/154/87 315/155/87 332/156/87 333/157/87 334/158/87 335/159/87 336/160/87 

v 188.714 2.58573 -16.2281
vn -1.66533e-16 1.47911e-31 1
v 188.714 57.9756 -16.2281
f 337/161/88 338/162/88 320/163/88 319/164/88 

v 188.714 57.9756 -99.7817
vn 1 -3.88578e-16 1.66533e-16
v 188.714 57.9756 -78.4248
v 188.714 52.2574 -78.4248
v 188.714 52.2574 -76.5648
v 188.714 57.9756 -76.5648
v 188.714 57.9756 -39.4449
v 188.714 52.2574 -39.4449
v 188.714 52.2574 -37.5849
v 188.714 57.9756 -37.5849
v 188.714 2.58573 -31.7816
v 188.714 0.0157657 -31.7816
v 188.714 0.0157657 -49.3893
v 188.714 2.58573 -49.3893
v 188.714 2.58573 -66.6343
v 188.714 2.58573 -84.2281
v 188.714 2.58573 -99.7817
f 339/165/89 340/166/89 341/167/89 342/168/89 343/169/89 344/170/89 345/171/89 346/172/89 347/173/89 338/174/89 337/175/89 348/176/89 349/177/89 350/178/89 351/179/89 352/180/89 318/181/89 317/182/89 353/183/89 354/184/89 

vn 3.88578e-16 1 -4.49318e-11
f 329/185/90 328/186/90 340/187/90 339/188/90 

vn -1.66533e-16 4.4313e-11 1
f 341/189/91 340/162/91 328/163/91 327/190/91 

vn 3.88578e-16 1 -4.4319e-11
f 342/191/92 341/187/92 327/186/92 326/192/92 

vn 1.66533e-16 -4.4313e-11 -1
f 343/193/93 342/194/93 326/195/93 325/196/93 

vn 3.88578e-16 1 -2.24814e-11
f 343/191/94 325/192/94 324/197/94 344/198/94 

f 345/189/88 344/162/88 324/163/88 323/190/88 

vn 3.88578e-16 1 -8.32002e-32
f 346/199/95 345/198/95 323/197/95 322/200/95 

vn 1.66533e-16 -1.47911e-31 -1
f 347/193/96 346/194/96 322/195/96 321/196/96 

vn 3.88578e-16 1 8.78661e-11
f 347/199/97 321/200/97 320/201/97 338/202/97 

f 339/193/96 354/203/96 330/204/96 329/196/96 

f 354/205/86 353/139/86 331/138/86 330/206/86 

f 331/204/96 353/203/96 317/207/96 316/208/96 

f 319/209/86 336/210/86 348/211/86 337/212/86 

f 348/161/88 336/164/88 335/213/88 349/214/88 

f 335/210/86 334/215/86 350/216/86 349/211/86 

f 333/204/96 351/203/96 350/217/96 334/218/96 

f 333/215/86 332/137/86 352/140/86 351/216/86 

f 352/161/88 332/164/88 315/219/88 318/220/88 

