# Alias OBJ Model File
# Exported from SketchUp, (c) 2000-2012 Trimble Navigation Limited
# File units = millimeters

mtllib 10.mtl

g Mesh1 ___575_1 Model

usemtl _
v 138.8 2.13163e-14 -1.77818
vt -2.73404 0.794034
vn 8.32899e-12 -0.823074 -0.567935
v 2.02999 1.13924e-09 -1.77818
vt 0 0.794034
v 70.4142 45.0959 -67.133
vt -1.367 9.31442e-07
f 1/1/1 2/2/1 3/3/1

vt 0 0
vn -2.67369e-11 -0.567935 0.823074
vt -2.73404 0
v 138.8 2.46922 -0.0743782
vt -2.73404 0.03
v 2.02999 2.46922 -0.0743782
vt 0 0.03
f 2/4/2 1/5/2 4/6/2 5/7/2 

vt 2.98689 0
vn 0.757716 0.370625 -0.537125
vt 0.892084 0
v 70.4142 47.5651 -65.4292
vt 0.892084 0.03
vt 2.98689 0.03
f 1/8/3 3/9/3 6/10/3 4/11/3 

vt 0.892066 0
vn -0.757726 0.370619 -0.537116
vt -1.20272 0
vt -1.20272 0.03
vt 0.892066 0.03
f 3/12/4 2/13/4 5/14/4 6/15/4 

vt 2.73404 0.794034
vn -8.32899e-12 0.823074 0.567935
vt 1.367 9.31442e-07
f 4/16/5 6/17/5 5/2/5

g Mesh2 ___575_2 Model

v 139.911 1.18721 -139.155
vn -0.567935 -0.823074 -8.32878e-12
v 139.911 1.18721 -2.38458
v 74.5561 46.2831 -70.7688
f 7/1/6 8/2/6 9/3/6

vn 0.823074 -0.567935 2.67366e-11
v 141.615 3.65643 -139.155
v 141.615 3.65643 -2.38458
f 8/4/7 7/5/7 10/6/7 11/7/7 

vn -0.537125 0.370625 -0.757716
v 76.2599 48.7523 -70.7688
f 7/8/8 9/9/8 12/10/8 10/11/8 

vn -0.537116 0.370619 0.757726
f 9/12/9 8/13/9 11/14/9 12/15/9 

vn 0.567935 0.823074 8.32878e-12
f 10/16/10 12/17/10 11/2/10

g Mesh3 ___575_3 Model

v 67.133 46.2831 -70.7688
vn 0.567935 -0.823074 -8.32921e-12
v 1.77818 1.18721 -2.38458
v 1.77818 1.18721 -139.155
f 13/3/11 14/2/11 15/1/11

v 65.4292 48.7523 -70.7688
vn 0.537116 0.370619 0.757726
v 0.0743782 3.65643 -2.38458
f 16/15/12 17/14/12 14/13/12 13/12/12 

vn -0.567935 0.823074 8.32921e-12
v 0.0743782 3.65643 -139.155
f 17/2/13 16/17/13 18/16/13

vn 0.537125 0.370625 -0.757716
f 18/11/14 16/10/14 13/9/14 15/8/14 

vn -0.823074 -0.567935 2.67372e-11
f 17/7/15 18/6/15 15/5/15 14/4/15 

g Mesh4 ___575_4 Model

v 70.4142 45.0959 -74.5561
vn 8.32899e-12 -0.823074 0.567935
v 2.02999 1.13931e-09 -139.911
v 138.8 8.52651e-14 -139.911
f 19/3/16 20/2/16 21/1/16

v 70.4142 47.5651 -76.2599
vn -0.757726 0.370619 0.537116
v 2.02999 2.46922 -141.615
f 22/15/17 23/14/17 20/13/17 19/12/17 

vn -8.32899e-12 0.823074 -0.567935
v 138.8 2.46922 -141.615
f 23/2/18 22/17/18 24/16/18

vn 0.757716 0.370625 0.537125
f 24/11/19 22/10/19 19/9/19 21/8/19 

vn -2.67369e-11 -0.567935 -0.823074
f 23/7/20 24/6/20 21/5/20 20/4/20 

