# Alias OBJ Model File
# Exported from SketchUp, (c) 2000-2012 Trimble Navigation Limited
# File units = millimeters

mtllib 8.mtl

g Mesh1 ___585_1 Model

usemtl _
v 28.7816 43.3265 8.88178e-15
vt 0 0.105404
vn 0 -3.33067e-16 1
v 28.7816 32.7861 5.32907e-15
vt 0 0
v 74.0447 32.7861 5.32907e-15
vt 0.90481 0
v 74.0447 43.3265 8.88178e-15
vt 0.90481 0.105404
f 1/1/1 2/2/1 3/3/1 4/4/1 

vt 0 0.03
vn -1 0 0
vt -0.210703 0.03
v 28.7816 43.3265 -3
vt -0.210703 0
v 28.7816 32.7861 -3
f 2/5/2 1/6/2 5/7/2 6/2/2 

vn 0 1 3.33067e-16
vt -0.90481 0.03
v 74.0447 43.3265 -3
vt -0.90481 0
f 1/5/3 4/8/3 7/9/3 5/2/3 

vt 0.210703 0.03
vn 1 0 -0
v 74.0447 32.7861 -3
vt 0.210703 0
f 4/10/4 3/5/4 8/2/4 7/11/4 

vt 0.90481 0.03
vn 0 -1 -3.33067e-16
f 3/12/5 2/5/5 6/2/5 8/3/5 

vn 0 3.33067e-16 -1
vt -0.90481 0.105404
f 6/2/6 5/1/6 7/13/6 8/9/6 

g Mesh2 ___562_1 Model

v 100.809 3.21762 -103.809
vt -1.9552 0
vn 6.18873e-31 -1 3.88578e-16
v 84.2439 3.21762 -103.809
vt -1.62406 0
v 84.2439 3.21762 -106.809
vt -1.62406 0.03
v 100.809 3.21762 -106.809
vt -1.9552 0.03
f 9/14/7 10/15/7 11/16/7 12/17/7 

v 3 54.0655 -103.809
vt 0 4.51195e-16
vn 1.59266e-15 3.91948e-16 1
v 3 3.21762 -103.809
vt 0 0.508479
v 19.5649 3.21762 -103.809
vt -0.331132 0.508479
v 19.5649 9.23706e-14 -103.809
vt -0.331132 0.540655
v 39.3437 9.23706e-14 -103.809
vt -0.726511 0.540655
v 39.3437 3.21762 -103.809
vt -0.726511 0.508479
v 64.465 3.21762 -103.809
vt -1.22869 0.508479
v 64.465 2.27374e-13 -103.809
vt -1.22869 0.540655
v 84.2439 2.27374e-13 -103.809
vt -1.62406 0.540655
vt -1.62406 0.508479
vt -1.9552 0.508479
v 100.809 54.0655 -103.809
vt -1.9552 4.51195e-16
v 53.3544 54.0655 -103.809
vt -1.00658 4.51195e-16
v 53.3544 47.3093 -103.809
vt -1.00658 0.0675626
v 50.4544 47.3093 -103.809
vt -0.948613 0.0675626
v 50.4544 54.0655 -103.809
vt -0.948613 4.51195e-16
f 13/18/8 14/19/8 15/20/8 16/21/8 17/22/8 18/23/8 19/24/8 20/25/8 21/26/8 10/27/8 9/28/8 22/29/8 23/30/8 24/31/8 25/32/8 26/33/8 

v 3 54.0655 -106.809
vt -9.01938e-16 0.03
vn -1 -0 1.59266e-15
v 3 3.21762 -106.809
vt -1.01645 0.03
vt -1.01645 0
vt -9.01938e-16 0
f 27/34/9 28/35/9 14/36/9 13/37/9 

vn -1.59266e-15 -3.88578e-16 -1
v 50.4544 54.0655 -106.809
vt 0.948613 4.51195e-16
v 50.4544 47.3093 -106.809
vt 0.948613 0.0675626
v 53.3544 47.3093 -106.809
vt 1.00658 0.0675626
v 53.3544 54.0655 -106.809
vt 1.00658 4.51195e-16
v 100.809 54.0655 -106.809
vt 1.9552 4.51195e-16
vt 1.9552 0.508479
vt 1.62406 0.508479
v 84.2439 2.27374e-13 -106.809
vt 1.62406 0.540655
v 64.465 2.27374e-13 -106.809
vt 1.22869 0.540655
v 64.465 3.21762 -106.809
vt 1.22869 0.508479
v 39.3437 3.21762 -106.809
vt 0.726511 0.508479
v 39.3437 9.23706e-14 -106.809
vt 0.726511 0.540655
v 19.5649 9.23706e-14 -106.809
vt 0.331132 0.540655
v 19.5649 3.21762 -106.809
vt 0.331132 0.508479
f 27/18/10 29/38/10 30/39/10 31/40/10 32/41/10 33/42/10 12/43/10 11/44/10 34/45/10 35/46/10 36/47/10 37/48/10 38/49/10 39/50/10 40/51/10 28/19/10 

vn -6.18873e-31 1 -3.88578e-16
vt 0.948613 3.52496e-18
vt 0.948613 0.03
f 13/2/11 26/52/11 29/53/11 27/5/11 

vt 0.135058 0.03
vn 1 0 -1.59266e-15
vt 9.01938e-16 0.03
vt 9.01938e-16 3.52496e-18
vt 0.135058 3.52496e-18
f 30/54/12 29/55/12 26/56/12 25/57/12 

vt 1.00658 0.03
vt 1.00658 3.52496e-18
f 31/58/11 30/53/11 25/52/11 24/59/11 

vt -0.135058 0.03
vt -0.135058 3.52496e-18
vt -9.01938e-16 3.52496e-18
f 32/34/9 31/60/9 24/61/9 23/62/9 

vt 1.9552 0
vt 1.9552 0.03
f 32/58/11 23/59/11 22/63/11 33/64/11 

vt 1.01645 0.03
vt 9.01938e-16 0
vt 1.01645 0
f 12/65/12 33/55/12 22/66/12 9/67/12 

vt 1.08077 0
vt 1.08077 0.03
f 11/65/12 10/67/12 21/68/12 34/69/12 

vt -1.22869 0
vt -1.22869 0.03
f 21/15/7 20/70/7 35/71/7 34/16/7 

vt -1.08077 0.03
vt -1.08077 0
f 19/36/9 36/35/9 35/72/9 20/73/9 

vt -0.726511 0
vt -0.726511 0.03
f 19/70/7 18/74/7 37/75/7 36/71/7 

f 37/65/12 18/67/12 17/68/12 38/69/12 

vt -0.331132 0
vt -0.331132 0.03
f 17/74/7 16/76/7 39/77/7 38/75/7 

f 15/36/9 40/35/9 39/72/9 16/73/9 

f 28/5/7 40/77/7 15/76/7 14/2/7 

g Mesh3 ___562_2 Model

v 100.809 3.21762 -6
vn -3.88578e-16 -1 4.70103e-31
v 100.809 3.21762 -22.5649
v 103.809 3.21762 -22.5649
v 103.809 3.21762 -6
f 41/14/13 42/15/13 43/16/13 44/17/13 

v 100.809 54.0655 -103.809
vn -1 3.91948e-16 1.2098e-15
v 100.809 3.21762 -103.809
v 100.809 3.21762 -87.2439
v 100.809 1.84741e-13 -87.2439
v 100.809 1.84741e-13 -67.465
v 100.809 3.21762 -67.465
v 100.809 3.21762 -42.3437
v 100.809 3.19744e-13 -42.3437
v 100.809 3.19744e-13 -22.5649
v 100.809 54.0655 -6
v 100.809 54.0655 -53.4544
v 100.809 47.3093 -53.4544
v 100.809 47.3093 -56.3544
v 100.809 54.0655 -56.3544
f 45/18/14 46/19/14 47/20/14 48/21/14 49/22/14 50/23/14 51/24/14 52/25/14 53/26/14 42/27/14 41/28/14 54/29/14 55/30/14 56/31/14 57/32/14 58/33/14 

v 103.809 54.0655 -103.809
vn -1.2098e-15 -0 -1
v 103.809 3.21762 -103.809
f 59/34/15 60/35/15 46/36/15 45/37/15 

vn 1 -3.88578e-16 -1.2098e-15
v 103.809 54.0655 -56.3544
v 103.809 47.3093 -56.3544
v 103.809 47.3093 -53.4544
v 103.809 54.0655 -53.4544
v 103.809 54.0655 -6
v 103.809 3.19744e-13 -22.5649
v 103.809 3.19744e-13 -42.3437
v 103.809 3.21762 -42.3437
v 103.809 3.21762 -67.465
v 103.809 1.84741e-13 -67.465
v 103.809 1.84741e-13 -87.2439
v 103.809 3.21762 -87.2439
f 59/18/16 61/38/16 62/39/16 63/40/16 64/41/16 65/42/16 44/43/16 43/44/16 66/45/16 67/46/16 68/47/16 69/48/16 70/49/16 71/50/16 72/51/16 60/19/16 

vn 3.88578e-16 1 -4.70103e-31
f 45/2/17 58/52/17 61/53/17 59/5/17 

vn 1.2098e-15 0 1
f 62/54/18 61/55/18 58/56/18 57/57/18 

f 63/58/17 62/53/17 57/52/17 56/59/17 

f 64/34/15 63/60/15 56/61/15 55/62/15 

f 64/58/17 55/59/17 54/63/17 65/64/17 

f 44/65/18 65/55/18 54/66/18 41/67/18 

f 43/65/18 42/67/18 53/68/18 66/69/18 

f 53/15/13 52/70/13 67/71/13 66/16/13 

f 51/36/15 68/35/15 67/72/15 52/73/15 

f 51/70/13 50/74/13 69/75/13 68/71/13 

f 69/65/18 50/67/18 49/68/18 70/69/18 

f 49/74/13 48/76/13 71/77/13 70/75/13 

f 47/36/15 72/35/15 71/72/15 48/73/15 

f 60/5/13 72/77/13 47/76/13 46/2/13 

g Mesh4 ___562_3 Model

v 3 3.21762 -6
vn -3.21333e-31 -1 -3.88578e-16
v 19.5649 3.21762 -6
v 19.5649 3.21762 -3
v 3 3.21762 -3
f 73/14/19 74/15/19 75/16/19 76/17/19 

v 100.809 54.0655 -6
vn -8.26946e-16 3.91948e-16 -1
v 100.809 3.21762 -6
v 84.2439 3.21762 -6
v 84.2439 1.84741e-13 -6
v 64.465 1.84741e-13 -6
v 64.465 3.21762 -6
v 39.3437 3.21762 -6
v 39.3437 3.19744e-13 -6
v 19.5649 3.19744e-13 -6
v 3 54.0655 -6
v 50.4544 54.0655 -6
v 50.4544 47.3093 -6
v 53.3544 47.3093 -6
v 53.3544 54.0655 -6
f 77/18/20 78/19/20 79/20/20 80/21/20 81/22/20 82/23/20 83/24/20 84/25/20 85/26/20 74/27/20 73/28/20 86/29/20 87/30/20 88/31/20 89/32/20 90/33/20 

v 100.809 54.0655 -3
vn 1 -0 -8.26946e-16
v 100.809 3.21762 -3
f 91/34/21 92/35/21 78/36/21 77/37/21 

vn 8.26946e-16 -3.88578e-16 1
v 53.3544 54.0655 -3
v 53.3544 47.3093 -3
v 50.4544 47.3093 -3
v 50.4544 54.0655 -3
v 3 54.0655 -3
v 19.5649 3.19744e-13 -3
v 39.3437 3.19744e-13 -3
v 39.3437 3.21762 -3
v 64.465 3.21762 -3
v 64.465 1.84741e-13 -3
v 84.2439 1.84741e-13 -3
v 84.2439 3.21762 -3
f 91/18/22 93/38/22 94/39/22 95/40/22 96/41/22 97/42/22 76/43/22 75/44/22 98/45/22 99/46/22 100/47/22 101/48/22 102/49/22 103/50/22 104/51/22 92/19/22 

vn 3.21333e-31 1 3.88578e-16
f 77/2/23 90/52/23 93/53/23 91/5/23 

vn -1 0 8.26946e-16
f 94/54/24 93/55/24 90/56/24 89/57/24 

f 95/58/23 94/53/23 89/52/23 88/59/23 

f 96/34/21 95/60/21 88/61/21 87/62/21 

f 96/58/23 87/59/23 86/63/23 97/64/23 

f 76/65/24 97/55/24 86/66/24 73/67/24 

f 75/65/24 74/67/24 85/68/24 98/69/24 

f 85/15/19 84/70/19 99/71/19 98/16/19 

f 83/36/21 100/35/21 99/72/21 84/73/21 

f 83/70/19 82/74/19 101/75/19 100/71/19 

f 101/65/24 82/67/24 81/68/24 102/69/24 

f 81/74/19 80/76/19 103/77/19 102/75/19 

f 79/36/21 104/35/21 103/72/21 80/73/21 

f 92/5/19 104/77/19 79/76/19 78/2/19 

g Mesh5 ___562_4 Model

v 3 3.21762 -103.809
vn 3.88578e-16 -1 -1.72563e-31
v 3 3.21762 -87.2439
v 2.30926e-14 3.21762 -87.2439
v 1.59872e-14 3.21762 -103.809
f 105/14/25 106/15/25 107/16/25 108/17/25 

v 3 54.0655 -6
vn 1 3.91948e-16 -4.44089e-16
v 3 3.21762 -6
v 3 3.21762 -22.5649
v 3 1.84741e-13 -22.5649
v 3 1.84741e-13 -42.3437
v 3 3.21762 -42.3437
v 3 3.21762 -67.465
v 3 3.19744e-13 -67.465
v 3 3.19744e-13 -87.2439
v 3 54.0655 -103.809
v 3 54.0655 -56.3544
v 3 47.3093 -56.3544
v 3 47.3093 -53.4544
v 3 54.0655 -53.4544
f 109/18/26 110/19/26 111/20/26 112/21/26 113/22/26 114/23/26 115/24/26 116/25/26 117/26/26 106/27/26 105/28/26 118/29/26 119/30/26 120/31/26 121/32/26 122/33/26 

v 3.95239e-14 54.0655 -6
vn 4.44089e-16 -0 1
v 5.90639e-14 3.21762 -6
f 123/34/27 124/35/27 110/36/27 109/37/27 

vn -1 -3.88578e-16 4.44089e-16
v 1.86517e-14 54.0655 -53.4544
v 2.08722e-14 47.3093 -53.4544
v 1.9984e-14 47.3093 -56.3544
v 1.73195e-14 54.0655 -56.3544
v -3.9968e-15 54.0655 -103.809
v 2.44249e-14 3.19744e-13 -87.2439
v 3.33067e-14 3.19744e-13 -67.465
v 3.19744e-14 3.21762 -67.465
v 4.30767e-14 3.21762 -42.3437
v 4.44089e-14 1.84741e-13 -42.3437
v 5.32907e-14 1.84741e-13 -22.5649
v 5.19584e-14 3.21762 -22.5649
f 123/18/28 125/38/28 126/39/28 127/40/28 128/41/28 129/42/28 108/43/28 107/44/28 130/45/28 131/46/28 132/47/28 133/48/28 134/49/28 135/50/28 136/51/28 124/19/28 

vn -3.88578e-16 1 1.72563e-31
f 109/2/29 122/52/29 125/53/29 123/5/29 

vn -4.44089e-16 0 -1
f 126/54/30 125/55/30 122/56/30 121/57/30 

f 127/58/29 126/53/29 121/52/29 120/59/29 

f 128/34/27 127/60/27 120/61/27 119/62/27 

f 128/58/29 119/59/29 118/63/29 129/64/29 

f 108/65/30 129/55/30 118/66/30 105/67/30 

f 107/65/30 106/67/30 117/68/30 130/69/30 

f 117/15/25 116/70/25 131/71/25 130/16/25 

f 115/36/27 132/35/27 131/72/27 116/73/27 

f 115/70/25 114/74/25 133/75/25 132/71/25 

f 133/65/30 114/67/30 113/68/30 134/69/30 

f 113/74/25 112/76/25 135/77/25 134/75/25 

f 111/36/27 136/35/27 135/72/27 112/73/27 

f 124/5/25 136/77/25 111/76/25 110/2/25 

