# Alias OBJ Model File
# Exported from SketchUp, (c) 2000-2012 Trimble Navigation Limited
# File units = millimeters

mtllib 6.mtl

g Mesh1 ___65_1 Model

usemtl _
v 4.94303e-16 2.71682 -143.297
vt 0 0
vn 1.64768e-16 0.905606 -0.42412
v 1.17848e-14 35.1014 -74.1475
vt 0 0.763571
v 387.297 35.1014 -74.1475
vt 7.74207 0.763571
v 387.297 2.71682 -143.297
vt 7.74207 0
f 1/1/1 2/2/1 3/3/1 4/4/1 

v 0 4.40343e-10 -142.025
vn -1 2.11927e-16 6.40259e-17
v 1.12905e-14 32.3846 -72.8752
vt -1.52638 0
vt -1.52638 0.03
vt 0 0.03
f 5/1/2 6/5/2 2/6/2 1/7/2 

vn -1.64768e-16 -0.905606 0.42412
v 387.297 4.40261e-10 -142.025
vt -7.74207 0
v 387.297 32.3846 -72.8752
vt -7.74207 0.763571
f 6/2/3 5/1/3 7/8/3 8/9/3 

vn -1.47865e-16 -0.42412 -0.905606
vt 7.74207 0.03
f 7/4/4 5/1/4 1/7/4 4/10/4 

vt 1.52638 0
vn 1 -2.11927e-16 -6.40259e-17
vt 1.52638 0.03
f 8/11/5 7/1/5 4/7/5 3/12/5 

vn 1.47865e-16 0.42412 0.905606
vt -7.74207 0.03
f 6/1/6 8/8/6 3/13/6 2/7/6 

g Mesh2 ___65_2 Model

v 387.297 2.71682 -2.22045e-15
vn 1.64768e-16 0.905606 0.42412
v 387.297 35.1014 -69.1494
v 1.17848e-14 35.1014 -69.1494
v 4.94303e-16 2.71682 -2.70894e-14
f 9/4/7 10/3/7 11/2/7 12/1/7 

vn 1 -2.11927e-16 6.40259e-17
v 387.297 8.16028e-15 -1.27236
v 387.297 32.3846 -70.4218
f 10/12/8 9/7/8 13/1/8 14/11/8 

vn -1.47865e-16 -0.42412 0.905606
v 0 9.02389e-14 -1.27236
f 9/10/9 12/7/9 15/1/9 13/4/9 

vn -1 2.11927e-16 -6.40259e-17
v 1.12905e-14 32.3846 -70.4218
f 12/7/10 11/6/10 16/5/10 15/1/10 

vn 1.47865e-16 0.42412 -0.905606
f 11/7/11 10/13/11 14/8/11 16/1/11 

vn -1.64768e-16 -0.905606 -0.42412
f 14/9/12 13/8/12 15/1/12 16/2/12 

