# Alias OBJ Model File
# Exported from SketchUp, (c) 2000-2012 Trimble Navigation Limited
# File units = millimeters

mtllib 2.mtl

g Mesh1 ___218_1 ___219_1 Model

usemtl _
v 2 2.30566 -2.01787
vt 0 0
vn 3.88578e-16 2.46519e-32 1
v 2 73.7825 -2.01787
vt -1.42882 0
v 5.58427e-10 73.7825 -2.01787
vt -1.42882 0.02
v 5.58399e-10 2.30566 -2.01787
vt 2.81856e-17 0.02
f 1/1/1 2/2/1 3/3/1 4/4/1 

v 2 76.0825 -63.0481
vt -1.21999 0.737769
vn 1 -3.18213e-15 -7.72361e-16
v 2 76.0825 -38.6723
vt -0.732723 0.737769
v 2 73.7825 -38.6723
vt -0.732723 0.714769
v 2 73.7825 -7.40301
vt -0.107649 0.714769
v 2 51.8759 -7.40301
vt -0.107649 0.495703
v 2 51.8759 -5.52997
vt -0.070207 0.495703
v 2 73.7825 -5.52997
vt -0.070207 0.714769
vt 0 0.714769
v 2 2.30566 -23.2082
vt -0.423594 2.27185e-31
v 2 8.44878e-10 -23.2082
vt -0.423594 -0.0230566
v 2 8.44878e-10 -35.3677
vt -0.666664 -0.0230566
v 2 2.30566 -35.3677
vt -0.666664 3.5755e-31
v 2 2.30566 -66.5192
vt -1.28938 6.9153e-31
v 2 2.63345e-12 -66.5192
vt -1.28938 -0.0230566
v 2 2.63345e-12 -78.6719
vt -1.53231 -0.0230566
v 2 2.30566 -78.6719
vt -1.53231 8.21821e-31
v 2 2.30566 -99.6892
vt -1.95245 1.04715e-30
v 2 73.7825 -99.6892
vt -1.95245 0.714769
v 2 73.7825 -96.403
vt -1.88676 0.714769
v 2 51.8759 -96.403
vt -1.88676 0.495703
v 2 51.8759 -94.53
vt -1.84932 0.495703
v 2 73.7825 -94.53
vt -1.84932 0.714769
v 2 73.7825 -63.0481
vt -1.21999 0.714769
f 5/5/2 6/6/2 7/7/2 8/8/2 9/9/2 10/10/2 11/11/2 2/12/2 1/1/2 12/13/2 13/14/2 14/15/2 15/16/2 16/17/2 17/18/2 18/19/2 19/20/2 20/21/2 21/22/2 22/23/2 23/24/2 24/25/2 25/26/2 26/27/2 

v 5.58404e-10 76.0825 -63.0481
vt -1.21999 0.02
vn 3.88578e-16 1 -1.75645e-31
v 5.58414e-10 76.0825 -38.6723
vt -0.732723 0.02
vt -0.732723 0
vt -1.21999 0
f 27/28/3 28/29/3 6/30/3 5/31/3 

v 5.58361e-10 2.30566 -99.6892
vt 1.95245 -2.18714e-17
vn -1 7.77156e-16 7.77156e-16
v 5.5837e-10 2.30566 -78.6719
vt 1.53231 -2.18714e-17
v 5.58369e-10 2.63434e-12 -78.6719
vt 1.53231 -0.0230566
v 5.58373e-10 2.63434e-12 -66.5192
vt 1.28938 -0.0230566
v 5.58374e-10 2.30566 -66.5192
vt 1.28938 -2.18714e-17
v 5.58386e-10 2.30566 -35.3677
vt 0.666664 -2.18714e-17
v 5.58386e-10 8.44879e-10 -35.3677
vt 0.666664 -0.0230566
v 5.5839e-10 8.44879e-10 -23.2082
vt 0.423594 -0.0230566
v 5.58391e-10 2.30566 -23.2082
vt 0.423594 -2.18714e-17
vt 1.55354e-17 -2.18714e-17
vt 1.55354e-17 0.714769
v 5.58426e-10 73.7825 -5.52997
vt 0.070207 0.714769
v 5.58417e-10 51.8759 -5.52997
vt 0.070207 0.495703
v 5.58416e-10 51.8759 -7.40301
vt 0.107649 0.495703
v 5.58425e-10 73.7825 -7.40301
vt 0.107649 0.714769
v 5.58413e-10 73.7825 -38.6723
vt 0.732723 0.714769
vt 0.732723 0.737769
vt 1.21999 0.737769
v 5.58403e-10 73.7825 -63.0481
vt 1.21999 0.714769
v 5.58391e-10 73.7825 -94.53
vt 1.84932 0.714769
v 5.58383e-10 51.8759 -94.53
vt 1.84932 0.495703
v 5.58382e-10 51.8759 -96.403
vt 1.88676 0.495703
v 5.5839e-10 73.7825 -96.403
vt 1.88676 0.714769
v 5.58389e-10 73.7825 -99.6892
vt 1.95245 0.714769
f 29/32/4 30/33/4 31/34/4 32/35/4 33/36/4 34/37/4 35/38/4 36/39/4 37/40/4 4/41/4 3/42/4 38/43/4 39/44/4 40/45/4 41/46/4 42/47/4 28/48/4 27/49/4 43/50/4 44/51/4 45/52/4 46/53/4 47/54/4 48/55/4 

vt 1.95245 0
vn -3.88578e-16 -1 1.75645e-31
vt 1.53231 0
vt 1.53231 0.02
vt 1.95245 0.02
f 20/56/5 19/57/5 30/58/5 29/59/5 

vt -0.0460901 -7.34283e-48
vn -3.88578e-16 -2.46519e-32 -1
vt -0.0460901 0.02
vt -2.81856e-17 0.02
vt 0 -7.34283e-48
f 18/60/6 31/61/6 30/62/6 19/63/6 

vt 1.28938 0.02
vt 1.28938 0
f 32/64/5 31/58/5 18/57/5 17/65/5 

vt 0.0460901 0.02
vt 0.0460901 -6.17871e-48
vt 0 -6.17871e-48
f 32/66/1 17/67/1 16/68/1 33/4/1 

vt 0.666664 0.02
vt 0.666664 0
f 34/69/5 33/64/5 16/65/5 15/70/5 

vt -0.0460901 -3.19465e-48
vt 0 -3.19465e-48
f 14/71/6 35/61/6 34/62/6 15/72/6 

vt 0.423594 0.02
vt 0.423594 0
f 36/73/5 35/69/5 14/70/5 13/74/5 

vt 0.0460901 -2.02986e-48
vt 0 -2.02986e-48
f 36/66/1 13/75/1 12/76/1 37/4/1 

vt 0 0.02
f 4/77/5 37/73/5 12/74/5 1/1/5 

vt 1.42882 -9.35612e-48
vt 0 -9.35612e-48
vt 1.42882 0.02
f 21/78/6 20/79/6 29/62/6 48/80/6 

vt -1.95245 0.02
vn 7.77156e-16 1 -3.01986e-31
vt -1.88676 0.02
vt -1.88676 -3.33181e-15
vt -1.95245 2.77743e-16
f 48/81/7 47/82/7 22/83/7 21/84/7 

vt -0.990909 -3.97632e-15
vn 7.77156e-16 -3.01986e-31 1
vt -1.42882 -3.97632e-15
vt -0.990909 0.02
f 23/85/8 22/86/8 47/3/8 46/87/8 

vt -1.84932 -3.41694e-15
vt -1.88676 -3.41694e-15
vt -1.84932 0.02
f 24/88/7 23/89/7 46/82/7 45/90/7 

vt 1.42882 -3.96904e-15
vn -7.77156e-16 3.01986e-31 -1
vt 0.990909 -3.96904e-15
vt 0.990909 0.02
f 25/91/9 24/92/9 45/93/9 44/80/9 

vt -1.21999 2.77743e-16
vt -1.84932 -3.33181e-15
f 26/94/7 25/95/7 44/90/7 43/28/7 

vt 1.4748 0.02
vt 1.4748 -5.8462e-48
vt 1.42882 -5.8462e-48
f 27/96/6 5/97/6 26/98/6 43/80/6 

vt 4.58897e-15 2.77743e-16
vn 7.77156e-16 1 -3.21171e-15
vt -0.070207 -3.33181e-15
vt -0.070207 0.02
vt 4.58897e-15 0.02
f 2/99/10 11/100/10 38/101/10 3/102/10 

vt 1.42882 -3.6232e-15
vt 0.990909 -3.6232e-15
f 11/103/9 10/104/9 39/93/9 38/80/9 

vt -0.070207 -3.41694e-15
vt -0.107649 -3.41694e-15
vt -0.107649 0.02
f 10/105/7 9/106/7 40/107/7 39/101/7 

vt -0.990909 -3.63048e-15
vt -1.42882 -3.63048e-15
f 9/108/8 8/109/8 41/3/8 40/87/8 

vn 7.77156e-16 1 3.60733e-16
vt -0.107649 -3.33181e-15
vt -0.732723 2.77743e-16
f 42/29/11 41/107/11 8/110/11 7/111/11 

vt -1.4748 -3.5112e-48
vt -1.4748 0.02
vt -1.42882 -3.5112e-48
f 6/112/1 28/113/1 42/3/1 7/114/1 

g Mesh2 ___215_1 ___216_1 Model

v 192.348 2.3059 -101.554
vn 1 0 -4.44089e-16
v 192.348 73.7825 -101.554
v 192.348 73.7825 -99.5539
v 192.348 2.3059 -99.5539
f 49/77/12 50/3/12 51/2/12 52/1/12 

v 5.58771e-10 73.7825 -101.554
vt 3.05494 0.714767
vn -1.99192e-05 -6.55966e-06 -1
v 7.13169 73.7825 -101.553
vt 2.91238 0.714767
v 7.13169 51.8782 -101.553
vt 2.91238 0.495723
v 9.00481 51.8782 -101.553
vt 2.87494 0.495723
v 9.00481 73.7825 -101.553
vt 2.87494 0.714767
v 32.8904 73.7825 -101.554
vt 2.39746 0.714767
v 32.8904 75.7825 -101.554
vt 2.39746 0.734767
v 57.2662 75.7825 -101.554
vt 1.91019 0.734767
v 57.2662 73.7825 -101.554
vt 1.91019 0.714767
v 63.5433 73.7825 -101.554
vt 1.78471 0.714767
v 63.5433 51.8782 -101.554
vt 1.78471 0.495723
v 65.4164 51.8782 -101.554
vt 1.74727 0.495723
v 65.4164 73.7825 -101.554
vt 1.74727 0.714767
v 126.923 73.7825 -101.554
vt 0.517754 0.714767
v 126.923 51.8782 -101.554
vt 0.517754 0.495723
v 128.796 51.8782 -101.554
vt 0.480311 0.495723
v 128.796 73.7825 -101.554
vt 0.480311 0.714767
v 135.175 73.7825 -101.554
vt 0.352795 0.714767
v 135.175 76.0825 -101.554
vt 0.352795 0.737767
v 159.551 76.0825 -101.554
vt -0.134476 0.737767
v 159.551 73.7825 -101.554
vt -0.134476 0.714767
v 183.305 73.7849 -101.554
vt -0.609333 0.71479
v 183.334 51.8312 -101.572
vt -0.609911 0.495253
v 185.236 51.8321 -101.572
vt -0.647934 0.495262
v 185.208 73.7858 -101.554
vt -0.647356 0.714799
vt -0.790094 0.714767
vt -0.790094 1.31141e-07
v 172.581 2.3059 -101.554
vt -0.394948 1.31167e-07
v 172.581 0.00590018 -101.554
vt -0.394948 -0.0229999
v 160.421 0.00590018 -101.554
vt -0.151878 -0.0229999
v 160.421 2.3059 -101.554
vt -0.151878 1.31183e-07
v 127.212 2.3059 -101.554
vt 0.51198 1.31227e-07
v 127.212 0.00590018 -101.554
vt 0.51198 -0.0229999
v 115.052 0.00590018 -101.554
vt 0.75505 -0.0229999
v 115.052 2.3059 -101.554
vt 0.75505 1.31242e-07
v 77.3492 2.3059 -101.554
vt 1.50873 1.31292e-07
v 77.3492 0.00590018 -101.554
vt 1.50873 -0.0229999
v 65.1896 0.00590018 -101.554
vt 1.7518 -0.0229999
v 65.1896 2.3059 -101.554
vt 1.7518 1.31308e-07
v 31.9801 2.3059 -101.554
vt 2.41566 1.31351e-07
v 31.9801 0.00590017 -101.554
vt 2.41566 -0.0229999
v 19.8205 0.00590017 -101.554
vt 2.65873 -0.0229999
v 19.8205 2.3059 -101.554
vt 2.65873 1.31367e-07
v 5.58771e-10 2.3059 -101.554
vt 3.05494 1.31393e-07
f 53/115/13 54/116/13 55/117/13 56/118/13 57/119/13 58/120/13 59/121/13 60/122/13 61/123/13 62/124/13 63/125/13 64/126/13 65/127/13 66/128/13 67/129/13 68/130/13 69/131/13 70/132/13 71/133/13 72/134/13 73/135/13 74/136/13 75/137/13 76/138/13 77/139/13 50/140/13 49/141/13 78/142/13 79/143/13 80/144/13 81/145/13 82/146/13 83/147/13 84/148/13 85/149/13 86/150/13 87/151/13 88/152/13 89/153/13 90/154/13 91/155/13 92/156/13 93/157/13 94/158/13 

v 5.58771e-10 73.7825 -99.5539
vt -3.05494 2.77743e-16
vn 0 1 -0
v 7.13173 73.7825 -99.553
vt -2.91238 -9.10682e-06
vt -2.91238 0.0199909
vt -3.05494 0.02
f 95/159/14 96/160/14 54/161/14 53/162/14 

v 32.8904 73.7825 -99.5539
vt -2.39746 0.714766
vn 2.1176e-05 1.07728e-05 1
v 9.00485 73.7825 -99.553
vt -2.87494 0.714766
v 9.00485 51.8782 -99.553
vt -2.87494 0.495723
v 7.13173 51.8782 -99.553
vt -2.91238 0.495723
vt -2.91238 0.714766
vt -3.05494 0.714766
v 5.58771e-10 2.3059 -99.5539
vt -3.05494 3.48628e-10
v 19.8205 2.3059 -99.5539
vt -2.65873 3.03413e-10
v 19.8205 0.00590017 -99.5539
vt -2.65873 -0.023
v 31.9801 0.00590017 -99.5539
vt -2.41566 -0.023
v 31.9801 2.3059 -99.5539
vt -2.41566 2.75674e-10
v 65.1896 2.3059 -99.5539
vt -1.7518 1.99915e-10
v 65.1896 0.00590018 -99.5539
vt -1.7518 -0.023
v 77.3492 0.00590018 -99.5539
vt -1.50873 -0.023
v 77.3492 2.3059 -99.5539
vt -1.50873 1.72176e-10
v 115.052 2.3059 -99.5539
vt -0.755051 8.6166e-11
v 115.052 0.00590018 -99.5539
vt -0.755051 -0.023
v 127.212 0.00590018 -99.5539
vt -0.511981 -0.023
v 127.212 2.3059 -99.5539
vt -0.511981 5.8427e-11
v 160.421 2.3059 -99.5539
vt 0.151877 -1.73321e-11
v 160.421 0.00590018 -99.5539
vt 0.151877 -0.023
v 172.581 0.00590018 -99.5539
vt 0.394947 -0.023
v 172.581 2.3059 -99.5539
vt 0.394947 -4.50712e-11
vt 0.790093 -9.0165e-11
vt 0.790093 0.714766
v 185.208 73.7858 -99.5539
vt 0.647356 0.714799
v 185.236 51.8321 -99.5718
vt 0.647934 0.495262
v 183.334 51.828 -99.5718
vt 0.60991 0.495221
v 183.305 73.7817 -99.5539
vt 0.609333 0.714758
v 159.551 73.7825 -99.5539
vt 0.134476 0.714766
v 159.551 76.0825 -99.5539
vt 0.134476 0.737766
v 135.175 76.0825 -99.5539
vt -0.352796 0.737766
v 135.175 73.7825 -99.5539
vt -0.352796 0.714766
v 128.796 73.7825 -99.5559
vt -0.480312 0.714766
v 128.796 51.8782 -99.5559
vt -0.480312 0.495723
v 126.923 51.8782 -99.5559
vt -0.517755 0.495723
v 126.923 73.7825 -99.5559
vt -0.517755 0.714766
v 65.4164 73.7825 -99.5541
vt -1.74727 0.714766
v 65.4164 51.8782 -99.5541
vt -1.74727 0.495723
v 63.5433 51.8782 -99.5541
vt -1.78471 0.495723
v 63.5433 73.7825 -99.5541
vt -1.78471 0.714766
v 57.2662 73.7825 -99.5539
vt -1.91019 0.714766
v 57.2662 75.7825 -99.5539
vt -1.91019 0.734766
v 32.8904 75.7825 -99.5539
vt -2.39746 0.734766
f 97/163/15 98/164/15 99/165/15 100/166/15 96/167/15 95/168/15 101/169/15 102/170/15 103/171/15 104/172/15 105/173/15 106/174/15 107/175/15 108/176/15 109/177/15 110/178/15 111/179/15 112/180/15 113/181/15 114/182/15 115/183/15 116/184/15 117/185/15 52/186/15 51/187/15 118/188/15 119/189/15 120/190/15 121/191/15 122/192/15 123/193/15 124/194/15 125/195/15 126/196/15 127/197/15 128/198/15 129/199/15 130/200/15 131/201/15 132/202/15 133/203/15 134/204/15 135/205/15 136/206/15 

vt -2.39746 0.02
vt -2.87494 0.0199913
vt -2.87494 -8.73511e-06
vt -2.39746 2.77743e-16
f 58/207/14 57/208/14 98/209/14 97/210/14 

vt 1.42882 0.0200198
vn -1 0 1.98441e-05
vt 0.99095 0.0200198
vt 0.99095 1.98043e-05
vt 1.42882 1.98043e-05
f 57/211/16 56/212/16 99/213/16 98/214/16 

vn 6.41326e-38 1 -0
f 56/208/17 55/161/17 100/160/17 99/209/17 

vt -0.99095 0.0200198
vn 1 0 -1.98441e-05
vt -1.42882 0.0200198
vt -1.42882 1.98043e-05
vt -0.99095 1.98043e-05
f 55/215/18 54/216/18 96/217/18 100/218/18 

vn -1 0 4.44089e-16
vt 1.42882 0
vt 1.4688 0
vt 1.4688 0.02
f 58/80/19 97/219/19 136/220/19 59/221/19 

vt -2.39746 0
vn -1.72563e-31 1 -3.88578e-16
vt -1.91019 0
vt -1.91019 0.02
f 136/222/20 135/223/20 60/224/20 59/207/20 

vt -1.4688 0.02
vt -1.4688 0
f 134/2/12 61/3/12 60/225/12 135/226/12 

vt -1.78471 1.81976e-06
vt -1.78471 0.0199989
vt -1.91019 2.77743e-16
f 133/227/14 62/228/14 61/224/14 134/229/14 

vt -1.42882 0.0200248
vn 1 1.8956e-36 -2.89903e-05
vt -1.42882 2.77023e-05
vt -0.99095 2.77023e-05
vt -0.99095 0.0200248
f 62/230/21 133/231/21 132/232/21 63/233/21 

vt -1.74727 2.36279e-06
vt -1.74727 0.0199995
f 132/227/14 131/234/14 64/235/14 63/228/14 

vt 1.42882 2.77023e-05
vn -1 -1.8956e-36 2.89903e-05
vt 1.42882 0.0200248
vt 0.99095 0.0200248
vt 0.99095 2.77023e-05
f 130/236/22 65/237/22 64/238/22 131/239/22 

vt -0.517755 0.02
vn 1.88905e-16 1 -2.74057e-21
vt -0.517755 2.01937e-05
f 66/240/23 65/235/23 130/234/23 129/241/23 

vt -0.99095 0.02
vt -1.42882 2.01937e-05
vt -0.99095 2.01937e-05
f 67/242/12 66/3/12 129/243/12 128/244/12 

vt -0.480312 0.02
vt -0.480312 2.01937e-05
f 68/245/14 67/240/14 128/241/14 127/246/14 

vt 0.99095 0.02
vt 0.99095 2.01937e-05
vt 1.42882 2.01937e-05
f 69/80/19 68/247/19 127/248/19 126/249/19 

vt -0.352796 0.02
vn -1.76829e-15 1 1.11807e-30
vt -0.352796 2.77743e-16
f 70/250/24 69/245/24 126/246/24 125/251/24 

vt 1.4748 0
f 70/80/19 125/219/19 124/252/19 71/96/19 

vt -0.352796 0
vt 0.134476 0
vt 0.134476 0.02
f 124/253/20 123/254/20 72/255/20 71/250/20 

vt -1.4748 0
f 122/2/12 73/3/12 72/113/12 123/256/12 

vt 0.134521 0.000581751
vn -3.16016e-05 1 0.000813906
vt 0.609378 0.000581752
vt 0.609378 0.0205818
vt 0.134521 0.0205817
f 122/257/25 121/258/25 74/259/25 73/260/25 

f 73/260/25 122/257/25 121/258/25 74/259/25 

f 73/260/25 122/257/25 121/258/25 74/259/25 

vt -1.42806 0.0200007
vn 0.999999 0.00131692 2.14371e-06
vt -1.428 6.69737e-07
vt -0.989142 0.000179352
vt -0.989207 0.0201794
f 74/261/26 121/262/26 120/263/26 75/264/26 

vt 0.649237 0.0205814
vn -0.00131693 0.999999 0.000813905
vt 0.611214 0.0205815
vt 0.611214 0.000581432
vt 0.649237 0.000581431
f 76/265/27 75/266/27 120/267/27 119/268/27 

f 119/268/27 76/265/27 75/266/27 120/267/27 

vt 1.42803 1.662e-19
vn -0.999999 -0.00131693 4.44089e-16
vt 1.42803 0.02
vt 0.989174 0.0201787
vt 0.989174 0.000178683
f 118/269/28 77/270/28 76/271/28 119/272/28 

vt 0.789442 0.02
vn 0.000455941 1 -2.07617e-19
vt 0.646704 0.02
vt 0.646704 2.77809e-16
vt 0.789442 2.77809e-16
f 50/273/29 77/274/29 118/275/29 51/276/29 

f 119/268/27 76/265/27 75/266/27 120/267/27 

f 53/80/19 94/77/19 101/1/19 95/219/19 

vt 3.05494 0.02
vn 1.72563e-31 -1 3.88578e-16
vt 2.65873 0.02
vt 2.65873 0
vt 3.05494 0
f 94/277/30 93/278/30 102/279/30 101/280/30 

vt -0.045977 0.02
vt -0.045977 0
f 102/1/19 93/77/19 92/281/19 103/282/19 

vt 2.41566 0
vt 2.41566 0.02
f 104/283/30 103/279/30 92/278/30 91/284/30 

vt 0.045977 0
vt 0.045977 0.02
f 90/77/12 105/1/12 104/285/12 91/286/12 

vt 1.7518 0.02
vt 1.7518 0
f 90/284/30 89/287/30 106/288/30 105/283/30 

f 106/1/19 89/77/19 88/281/19 107/282/19 

vt 1.50873 0
vt 1.50873 0.02
f 108/289/30 107/288/30 88/287/30 87/290/30 

f 86/77/12 109/1/12 108/285/12 87/286/12 

vt 0.755051 0.02
vt 0.755051 0
f 86/290/30 85/291/30 110/292/30 109/289/30 

f 110/1/19 85/77/19 84/281/19 111/282/19 

vt 0.511981 0
vt 0.511981 0.02
f 112/293/30 111/292/30 84/291/30 83/294/30 

f 82/77/12 113/1/12 112/285/12 83/286/12 

vt -0.151877 0.02
vt -0.151877 0
f 82/294/30 81/295/30 114/296/30 113/293/30 

f 114/1/19 81/77/19 80/281/19 115/282/19 

vt -0.394947 0
vt -0.394947 0.02
f 116/297/30 115/296/30 80/295/30 79/298/30 

f 78/77/12 117/1/12 116/285/12 79/286/12 

vt -0.790093 0
vt -0.790093 0.02
f 52/299/30 117/297/30 78/298/30 49/300/30 

g Mesh3 ___215_2 ___217_1 Model

v 5.58757e-10 2.3059 -0.0178697
vn -1 0 0
v 5.58757e-10 73.7825 -0.0178697
v 5.58757e-10 73.7825 -2.01787
v 5.58757e-10 2.3059 -2.01787
f 137/77/31 138/3/31 139/2/31 140/1/31 

v 192.348 73.7825 -0.0178697
vn 1.99192e-05 -6.55966e-06 1
v 185.216 73.7825 -0.0187804
v 185.216 51.8782 -0.0187804
v 183.343 51.8782 -0.0187432
v 183.343 73.7825 -0.0187432
v 159.458 73.7825 -0.0178697
v 159.458 75.7825 -0.0178697
v 135.082 75.7825 -0.0178697
v 135.082 73.7825 -0.0178697
v 128.805 73.7825 -0.017976
v 128.805 51.8782 -0.017976
v 126.932 51.8782 -0.0179217
v 126.932 73.7825 -0.0179217
v 65.4251 73.7825 -0.0178697
v 65.4251 51.8782 -0.0178697
v 63.552 51.8782 -0.0178697
v 63.552 73.7825 -0.0178697
v 57.1731 73.7825 -0.0178697
v 57.1731 76.0825 -0.0178697
v 32.7973 76.0825 -0.0178697
v 32.7973 73.7825 -0.0178697
v 9.04256 73.7849 -0.0178683
v 9.01365 51.8312 1.9984e-14
v 7.11154 51.8321 -1.42779e-06
v 7.14045 73.7858 -0.0178697
v 19.7672 2.3059 -0.0178697
v 19.7672 0.00590018 -0.0178697
v 31.9268 0.00590018 -0.0178697
v 31.9268 2.3059 -0.0178697
v 65.1363 2.3059 -0.0178697
v 65.1363 0.00590018 -0.0178697
v 77.2959 0.00590018 -0.0178697
v 77.2959 2.3059 -0.0178697
v 114.999 2.3059 -0.0178697
v 114.999 0.00590018 -0.0178697
v 127.158 0.00590018 -0.0178697
v 127.158 2.3059 -0.0178697
v 160.368 2.3059 -0.0178697
v 160.368 0.00590017 -0.0178697
v 172.527 0.00590017 -0.0178697
v 172.527 2.3059 -0.0178697
v 192.348 2.3059 -0.0178697
f 141/115/32 142/116/32 143/117/32 144/118/32 145/119/32 146/120/32 147/121/32 148/122/32 149/123/32 150/124/32 151/125/32 152/126/32 153/127/32 154/128/32 155/129/32 156/130/32 157/131/32 158/132/32 159/133/32 160/134/32 161/135/32 162/136/32 163/137/32 164/138/32 165/139/32 138/140/32 137/141/32 166/142/32 167/143/32 168/144/32 169/145/32 170/146/32 171/147/32 172/148/32 173/149/32 174/150/32 175/151/32 176/152/32 177/153/32 178/154/32 179/155/32 180/156/32 181/157/32 182/158/32 

v 192.348 73.7825 -2.01787
v 185.216 73.7825 -2.01878
f 183/159/14 184/160/14 142/161/14 141/162/14 

v 159.458 73.7825 -2.01787
vn -2.1176e-05 1.07728e-05 -1
v 183.343 73.7825 -2.01874
v 183.343 51.8782 -2.01874
v 185.216 51.8782 -2.01878
v 192.348 2.3059 -2.01787
v 172.527 2.3059 -2.01787
v 172.527 0.00590017 -2.01787
v 160.368 0.00590017 -2.01787
v 160.368 2.3059 -2.01787
v 127.158 2.3059 -2.01787
v 127.158 0.00590018 -2.01787
v 114.999 0.00590018 -2.01787
v 114.999 2.3059 -2.01787
v 77.2959 2.3059 -2.01787
v 77.2959 0.00590018 -2.01787
v 65.1363 0.00590018 -2.01787
v 65.1363 2.3059 -2.01787
v 31.9268 2.3059 -2.01787
v 31.9268 0.00590018 -2.01787
v 19.7672 0.00590018 -2.01787
v 19.7672 2.3059 -2.01787
v 7.14045 73.7858 -2.01787
v 7.11154 51.8321 -2
v 9.01365 51.828 -2
v 9.04256 73.7817 -2.01787
v 32.7973 73.7825 -2.01787
v 32.7973 76.0825 -2.01787
v 57.1731 76.0825 -2.01787
v 57.1731 73.7825 -2.01787
v 63.552 73.7825 -2.01585
v 63.552 51.8782 -2.01585
v 65.4251 51.8782 -2.01585
v 65.4251 73.7825 -2.01585
v 126.932 73.7825 -2.01763
v 126.932 51.8782 -2.01763
v 128.805 51.8782 -2.01769
v 128.805 73.7825 -2.01769
v 135.082 73.7825 -2.01787
v 135.082 75.7825 -2.01787
v 159.458 75.7825 -2.01787
f 185/163/33 186/164/33 187/165/33 188/166/33 184/167/33 183/168/33 189/169/33 190/170/33 191/171/33 192/172/33 193/173/33 194/174/33 195/175/33 196/176/33 197/177/33 198/178/33 199/179/33 200/180/33 201/181/33 202/182/33 203/183/33 204/184/33 205/185/33 140/186/33 139/187/33 206/188/33 207/189/33 208/190/33 209/191/33 210/192/33 211/193/33 212/194/33 213/195/33 214/196/33 215/197/33 216/198/33 217/199/33 218/200/33 219/201/33 220/202/33 221/203/33 222/204/33 223/205/33 224/206/33 

f 146/207/14 145/208/14 186/209/14 185/210/14 

f 145/211/18 144/212/18 187/213/18 186/214/18 

vn -6.41326e-38 1 -0
f 144/208/34 143/161/34 188/160/34 187/209/34 

f 143/215/16 142/216/16 184/217/16 188/218/16 

vn 1 0 -0
f 146/80/35 185/219/35 224/220/35 147/221/35 

vn 0 1 3.88578e-16
f 224/222/36 223/223/36 148/224/36 147/207/36 

f 222/2/31 149/3/31 148/225/31 223/226/31 

f 221/227/14 150/228/14 149/224/14 222/229/14 

vn -1 1.8956e-36 2.89903e-05
f 150/230/37 221/231/37 220/232/37 151/233/37 

f 220/227/14 219/234/14 152/235/14 151/228/14 

vn 1 -1.8956e-36 -2.89903e-05
f 218/236/38 153/237/38 152/238/38 219/239/38 

vn -1.88905e-16 1 2.74057e-21
f 154/240/39 153/235/39 218/234/39 217/241/39 

f 155/242/31 154/3/31 217/243/31 216/244/31 

f 156/245/14 155/240/14 216/241/14 215/246/14 

f 157/80/35 156/247/35 215/248/35 214/249/35 

vn 1.76829e-15 1 -3.10575e-31
f 158/250/40 157/245/40 214/246/40 213/251/40 

f 158/80/35 213/219/35 212/252/35 159/96/35 

f 212/253/36 211/254/36 160/255/36 159/250/36 

f 210/2/31 161/3/31 160/113/31 211/256/31 

vn 3.16016e-05 1 -0.000813906
f 210/257/41 209/258/41 162/259/41 161/260/41 

f 161/260/41 210/257/41 209/258/41 162/259/41 

f 161/260/41 210/257/41 209/258/41 162/259/41 

vn -0.999999 0.00131692 -2.14371e-06
f 162/261/42 209/262/42 208/263/42 163/264/42 

vn 0.00131693 0.999999 -0.000813905
f 164/265/43 163/266/43 208/267/43 207/268/43 

f 207/268/43 164/265/43 163/266/43 208/267/43 

vn 0.999999 -0.00131693 6.06592e-35
f 206/269/44 165/270/44 164/271/44 207/272/44 

vn -0.000455941 1 5.1382e-21
f 138/273/45 165/274/45 206/275/45 139/276/45 

f 207/268/43 164/265/43 163/266/43 208/267/43 

f 141/80/35 182/77/35 189/1/35 183/219/35 

vn 0 -1 -3.88578e-16
f 182/277/46 181/278/46 190/279/46 189/280/46 

f 190/1/35 181/77/35 180/281/35 191/282/35 

f 192/283/46 191/279/46 180/278/46 179/284/46 

f 178/77/31 193/1/31 192/285/31 179/286/31 

f 178/284/46 177/287/46 194/288/46 193/283/46 

f 194/1/35 177/77/35 176/281/35 195/282/35 

f 196/289/46 195/288/46 176/287/46 175/290/46 

f 174/77/31 197/1/31 196/285/31 175/286/31 

f 174/290/46 173/291/46 198/292/46 197/289/46 

f 198/1/35 173/77/35 172/281/35 199/282/35 

f 200/293/46 199/292/46 172/291/46 171/294/46 

f 170/77/31 201/1/31 200/285/31 171/286/31 

f 170/294/46 169/295/46 202/296/46 201/293/46 

f 202/1/35 169/77/35 168/281/35 203/282/35 

f 204/297/46 203/296/46 168/295/46 167/298/46 

f 166/77/31 205/1/31 204/285/31 167/286/31 

f 140/299/46 205/297/46 166/298/46 137/300/46 

g Mesh4 ___218_2 ___219_2 Model

v 192.348 2.30566 -2.01787
v 192.348 73.7825 -2.01787
v 190.348 73.7825 -2.01787
v 190.348 2.30566 -2.01787
f 225/4/1 226/3/1 227/2/1 228/1/1 

v 192.348 73.7825 -99.6892
vn 1 9.44148e-30 -1.05596e-30
v 192.348 73.7825 -96.403
v 192.348 51.8759 -96.403
v 192.348 51.8759 -94.53
v 192.348 73.7825 -94.53
v 192.348 73.7825 -63.0481
v 192.348 76.0825 -63.0481
v 192.348 76.0825 -38.6723
v 192.348 73.7825 -38.6723
v 192.348 73.7825 -7.40301
v 192.348 51.8759 -7.40301
v 192.348 51.8759 -5.52997
v 192.348 73.7825 -5.52997
v 192.348 2.30566 -23.2082
v 192.348 8.44787e-10 -23.2082
v 192.348 8.44787e-10 -35.3677
v 192.348 2.30566 -35.3677
v 192.348 2.30566 -66.5192
v 192.348 2.54241e-12 -66.5192
v 192.348 2.54241e-12 -78.6719
v 192.348 2.30566 -78.6719
v 192.348 2.30566 -99.6892
f 229/55/47 230/54/47 231/53/47 232/52/47 233/51/47 234/50/47 235/49/47 236/48/47 237/47/47 238/46/47 239/45/47 240/44/47 241/43/47 226/42/47 225/41/47 242/40/47 243/39/47 244/38/47 245/37/47 246/36/47 247/35/47 248/34/47 249/33/47 250/32/47 

v 190.348 73.7825 -99.6892
v 190.348 73.7825 -96.403
f 251/84/14 252/83/14 230/82/14 229/81/14 

v 190.348 73.7825 -63.0481
vn -1 -2.40498e-15 4.79544e-18
v 190.348 73.7825 -94.53
v 190.348 51.8759 -94.53
v 190.348 51.8759 -96.403
v 190.348 2.30566 -99.6892
v 190.348 2.30566 -78.6719
v 190.348 2.5433e-12 -78.6719
v 190.348 2.5433e-12 -66.5192
v 190.348 2.30566 -66.5192
v 190.348 2.30566 -35.3677
v 190.348 8.44788e-10 -35.3677
v 190.348 8.44788e-10 -23.2082
v 190.348 2.30566 -23.2082
v 190.348 73.7825 -5.52997
v 190.348 51.8759 -5.52997
v 190.348 51.8759 -7.40301
v 190.348 73.7825 -7.40301
v 190.348 73.7825 -38.6723
v 190.348 76.0825 -38.6723
v 190.348 76.0825 -63.0481
f 253/27/48 254/26/48 255/25/48 256/24/48 252/23/48 251/22/48 257/21/48 258/20/48 259/19/48 260/18/48 261/17/48 262/16/48 263/15/48 264/14/48 265/13/48 228/1/48 227/12/48 266/11/48 267/10/48 268/9/48 269/8/48 270/7/48 271/6/48 272/5/48 

f 234/28/14 233/90/14 254/95/14 253/94/14 

vn 0 0 -1
f 233/80/49 232/93/49 255/92/49 254/91/49 

f 232/90/14 231/82/14 256/89/14 255/88/14 

vn 0 0 1
f 231/87/50 230/3/50 252/86/50 256/85/50 

f 234/80/6 253/98/6 272/97/6 235/96/6 

f 272/31/3 271/30/3 236/29/3 235/28/3 

f 270/114/1 237/3/1 236/113/1 271/112/1 

vn 1.2423e-31 1 3.60733e-16
f 270/111/51 269/110/51 238/107/51 237/29/51 

f 239/87/50 238/3/50 269/109/50 268/108/50 

f 240/101/14 239/107/14 268/106/14 267/105/14 

f 241/80/49 240/93/49 267/104/49 266/103/49 

vn 1.2423e-31 1 -3.21171e-15
f 226/102/52 241/101/52 266/100/52 227/99/52 

f 229/80/6 250/62/6 257/79/6 251/78/6 

f 250/59/5 249/58/5 258/57/5 257/56/5 

f 258/63/6 249/62/6 248/61/6 259/60/6 

f 260/65/5 259/57/5 248/58/5 247/64/5 

f 246/4/1 261/68/1 260/67/1 247/66/1 

f 262/70/5 261/65/5 246/64/5 245/69/5 

f 262/72/6 245/62/6 244/61/6 263/71/6 

f 264/74/5 263/70/5 244/69/5 243/73/5 

f 242/4/1 265/76/1 264/75/1 243/66/1 

f 228/1/5 265/74/5 242/73/5 225/77/5 

