# Alias OBJ Model File
# Exported from SketchUp, (c) 2000-2012 Trimble Navigation Limited
# File units = millimeters

mtllib 1.mtl

g Mesh1 ___131_1 ___136_1 Model

usemtl _
v 217.736 3.3 -29.7866
vt -1.77531 0
vn 0 0 -1
v 128.927 3.3 -29.7866
vt 0 0
v 128.927 6.3 -29.7866
vt 0 0.03
v 217.736 6.3 -29.7866
vt -1.77531 0.03
f 1/1/1 2/2/1 3/3/1 4/4/1 

v 217.736 3.3 -2.29216e-09
vn 0 -1 -0
v 128.927 3.3 -2.29216e-09
vt 0 0.297866
vt -1.77531 0.297866
f 5/1/2 6/2/2 2/5/2 1/6/2 

vn 0 0 1
vt 1.77531 0
v 217.736 6.3 -2.29216e-09
vt 1.77531 0.03
v 128.927 6.3 -2.29216e-09
f 6/2/3 5/7/3 7/8/3 8/3/3 

vn 1 0 -0
vt 0.595433 0
vt 0.595433 0.03
f 5/2/4 1/9/4 4/10/4 7/3/4 

vn 0 1 -0
vt 1.77531 0.297866
f 8/2/5 7/7/5 4/11/5 3/5/5 

vt -0.595433 0
vn -1 0 -0
vt -0.595433 0.03
f 2/12/6 6/2/6 8/3/6 3/13/6 

g Mesh2 ___135_1 ___136_1 Model

v 128.927 15.3 -29.7866
vt 0 0.0914539
v 217.736 15.3 -29.7866
vt -1.77531 0.0914539
v 217.736 15.3 -20.6412
v 128.927 15.3 -20.6412
f 9/14/2 10/15/2 11/1/2 12/2/2 

v 128.927 18.3 -29.7866
v 217.736 18.3 -29.7866
f 10/1/1 9/2/1 13/3/1 14/4/1 

vt -0.182816 0
v 128.927 18.3 -20.6412
vt -0.182816 0.03
f 9/16/6 12/2/6 15/3/6 13/17/6 

v 217.736 18.3 -20.6412
f 12/2/3 11/7/3 16/8/3 15/3/3 

vt 0.182816 0
vt 0.182816 0.03
f 11/2/4 10/18/4 14/19/4 16/3/4 

vt 1.77531 0.0914539
f 14/20/5 13/14/5 15/2/5 16/7/5 

g Mesh3 ___133_1 ___136_1 Model

v 128.927 9.3 -10.0128
v 128.927 9.3 -29.7866
vt 0 0.197738
v 217.736 9.3 -29.7866
vt -1.77531 0.197738
v 217.736 9.3 -10.0128
f 17/2/2 18/21/2 19/22/2 20/1/2 

vt -0.395277 0
v 128.927 12.3 -10.0128
v 128.927 12.3 -29.7866
vt -0.395277 0.03
f 18/23/6 17/2/6 21/3/6 22/24/6 

v 217.736 12.3 -10.0128
f 17/2/3 20/7/3 23/8/3 21/3/3 

vt 0.395277 0
v 217.736 12.3 -29.7866
vt 0.395277 0.03
f 20/2/4 19/25/4 24/26/4 23/3/4 

f 19/1/1 18/2/1 22/3/1 24/4/1 

vt 1.77531 0.197738
f 22/21/5 21/2/5 23/7/5 24/27/5 

g Mesh4 ___132_1 ___136_1 Model

v 128.927 6.3 -4.69862
vt -5.7724e-14 0
vt 0 0.250879
v 217.736 6.3 -29.7866
vt -1.77531 0.250879
v 217.736 6.3 -4.69862
f 25/28/2 3/29/2 26/30/2 27/1/2 

vt -0.501508 0
vn -1 0 1.15101e-13
vt 6.64409e-27 0
v 128.927 9.3 -4.69862
vt 6.64409e-27 0.03
vt -0.501508 0.03
f 3/31/7 25/32/7 28/33/7 18/34/7 

vt 5.7724e-14 0
v 217.736 9.3 -4.69862
vt 5.7724e-14 0.03
f 25/35/3 27/7/3 29/8/3 28/36/3 

vt 2.0434e-13 0
vn 1 0 1.15101e-13
vt 0.501508 0
vt 0.501508 0.03
vt 2.0434e-13 0.03
f 27/37/8 26/38/8 19/39/8 29/40/8 

f 26/1/1 3/2/1 18/3/1 19/4/1 

vt 1.77531 0.250879
f 18/29/5 28/35/5 29/7/5 19/41/5 

g Mesh5 ___134_1 ___136_1 Model

v 128.927 12.3 -15.327
vt 0 0.144596
vt -1.77531 0.144596
v 217.736 12.3 -15.327
f 30/2/2 22/42/2 24/43/2 31/1/2 

vt -0.289047 0
v 128.927 15.3 -15.327
vt -0.289047 0.03
f 22/44/6 30/2/6 32/3/6 9/45/6 

v 217.736 15.3 -15.327
f 30/2/3 31/7/3 33/8/3 32/3/3 

vt 0.289047 0
vt 0.289047 0.03
f 31/2/4 24/46/4 10/47/4 33/3/4 

f 24/1/1 22/2/1 9/3/1 10/4/1 

vt 1.77531 0.144596
f 9/42/5 32/2/5 33/7/5 10/48/5 

g Mesh6 ___125_1 Model

v 346.953 3.3 -28.6426
vt 6.93559 0.286426
vn 4.64528e-34 1 -6.14758e-33
v 346.953 3.3 -257.634
vt 6.93559 2.57634
v 0 3.3 -257.634
vt -2.78577e-35 2.57634
v 0 3.3 -28.6426
vt -2.78577e-35 0.286426
v 122.406 3.3 -28.6426
vt 2.4469 0.286426
v 122.406 3.3 -2.29216e-09
vt 2.4469 2.29216e-11
v 224.547 3.3 -2.29216e-09
vt 4.48869 2.29216e-11
v 224.547 3.3 -28.6426
vt 4.48869 0.286426
f 34/49/9 35/50/9 36/51/9 37/52/9 38/53/9 39/54/9 40/55/9 41/56/9 

vt 5.1501 0.03
vt 0.572565 0.03
v 346.953 0.3 -28.6426
vt 0.572565 0
v 346.953 0.3 -257.634
vt 5.1501 0
f 35/57/4 34/58/4 42/59/4 43/60/4 

vt 6.93559 0.03
vt 4.48869 0.03
v 224.547 0.3 -28.6426
vt 4.48869 0
vt 6.93559 0
f 34/61/3 41/62/3 44/63/3 42/64/3 

vt 4.58203e-11 0.03
v 224.547 0.3 -2.29216e-09
vt 4.58203e-11 0
f 44/59/4 41/58/4 40/65/4 45/66/4 

v 122.406 0.3 -2.29216e-09
vt 2.4469 0
vt 2.4469 0.03
f 46/67/3 45/63/3 40/62/3 39/68/3 

vt -6.93559 2.57634
vt -6.93559 0.286426
vt -4.48869 0.286426
vt -4.48869 2.29216e-11
vt -2.4469 2.29216e-11
v 122.406 0.3 -28.6426
vt -2.4469 0.286426
v 0 0.3 -28.6426
vt 0 0.286426
v 0 0.3 -257.634
vt 0 2.57634
f 43/69/2 42/70/2 44/71/2 45/72/2 46/73/2 47/74/2 48/75/2 49/76/2 

vt -0.572565 0.03
vt -0.572565 0
vt -4.58203e-11 0
vt -4.58203e-11 0.03
f 38/77/6 47/78/6 46/79/6 39/80/6 

f 48/2/3 47/67/3 38/68/3 37/3/3 

vt -5.1501 0.03
vt -5.1501 0
f 37/77/6 36/81/6 49/82/6 48/78/6 

vt -6.93559 0.03
vt -6.93559 0
f 36/3/1 35/83/1 43/84/1 49/2/1 

g Mesh7 ___130_1 Model

v 125.927 3.3 -10.8101
vt 0.065967 0.03
vn -4.16334e-16 -2.03378e-31 1
v 125.927 3.22612 -10.8101
vt 0.0644901 0.03
v 128.927 3.22612 -10.8101
vt 0.0644901 0
v 128.927 3.3 -10.8101
vt 0.065967 0
f 50/85/10 51/86/10 52/87/10 53/88/10 

v 125.927 1.50068 -10.8101
vt 0.465466 0.0150068
vn -1 -4.996e-16 -4.16334e-16
v 125.927 1.60202 -10.8101
vt 0.465466 0.0160202
v 125.927 1.81713 -10.8101
vt 0.465466 0.0181713
v 125.927 2.10678 -10.8101
vt 0.465466 0.0210678
v 125.927 2.43172 -10.8101
vt 0.465466 0.0243172
v 125.927 2.75275 -10.8101
vt 0.465466 0.0275275
v 125.927 3.03063 -10.8101
vt 0.465466 0.0303063
vt 0.465466 0.0322612
vt 0.465466 0.033
v 125.927 3.3 -2.29219e-09
vt 0.68156 0.033
v 125.927 13.0127 -2.29219e-09
vt 0.68156 0.130127
v 125.927 27.9194 -20.3126
vt 0.275511 0.279194
v 125.927 27.9194 -28.6426
vt 0.108995 0.279194
v 125.927 18.3 -28.6426
vt 0.108995 0.183
v 125.927 18.3 -34.095
vt 0 0.183
v 125.927 3.3 -34.095
vt 0 0.033
v 125.927 3.3 -25.4016
vt 0.173782 0.033
v 125.927 3.22612 -25.4016
vt 0.173782 0.0322612
v 125.927 3.03063 -25.4016
vt 0.173782 0.0303063
v 125.927 2.75275 -25.4016
vt 0.173782 0.0275275
v 125.927 2.43172 -25.4016
vt 0.173782 0.0243172
v 125.927 2.10678 -25.4016
vt 0.173782 0.0210678
v 125.927 1.81713 -25.4016
vt 0.173782 0.0181713
v 125.927 1.60202 -25.4016
vt 0.173782 0.0160202
v 125.927 1.50068 -25.4016
vt 0.173782 0.0150068
v 125.927 1.2604 -25.3829
vt 0.174155 0.012604
v 125.927 0.980943 -25.3101
vt 0.175611 0.00980943
v 125.927 0.725524 -25.1875
vt 0.178061 0.00725524
v 125.927 0.499735 -25.0208
vt 0.181394 0.00499735
v 125.927 0.309169 -24.8155
vt 0.185499 0.00309169
v 125.927 0.159418 -24.5771
vt 0.190263 0.00159418
v 125.927 0.0560731 -24.3114
vt 0.195574 0.000560731
v 125.927 0.00472654 -24.0239
vt 0.201321 4.72651e-05
v 125.927 2.33038e-08 -23.7269
vt 0.207259 0
v 125.927 2.33039e-08 -22.7519
vt 0.22675 1.80478e-15
v 125.927 2.33039e-08 -21.1458
vt 0.258854 1.80478e-15
v 125.927 2.3304e-08 -19.1612
vt 0.298526 2.70717e-15
v 125.927 2.33039e-08 -17.0505
vt 0.340721 1.80478e-15
v 125.927 2.3304e-08 -15.0659
vt 0.380393 2.70717e-15
v 125.927 2.33039e-08 -13.4598
vt 0.412497 1.80478e-15
v 125.927 2.33039e-08 -12.4848
vt 0.431989 1.80478e-15
v 125.927 0.00472654 -12.1878
vt 0.437926 4.72651e-05
v 125.927 0.0560731 -11.9003
vt 0.443674 0.000560731
v 125.927 0.159418 -11.6346
vt 0.448985 0.00159418
v 125.927 0.309169 -11.3962
vt 0.453749 0.00309169
v 125.927 0.499735 -11.1909
vt 0.457853 0.00499735
v 125.927 0.725524 -11.0242
vt 0.461187 0.00725524
v 125.927 0.980943 -10.9016
vt 0.463637 0.00980943
v 125.927 1.2604 -10.8288
vt 0.465093 0.012604
f 54/89/11 55/90/11 56/91/11 57/92/11 58/93/11 59/94/11 60/95/11 51/96/11 50/97/11 61/98/11 62/99/11 63/100/11 64/101/11 65/102/11 66/103/11 67/104/11 68/105/11 69/106/11 70/107/11 71/108/11 72/109/11 73/110/11 74/111/11 75/112/11 76/113/11 77/114/11 78/115/11 79/116/11 80/117/11 81/118/11 82/119/11 83/120/11 84/121/11 85/122/11 86/123/11 87/124/11 88/125/11 89/126/11 90/127/11 91/128/11 92/129/11 93/130/11 94/131/11 95/132/11 96/133/11 97/134/11 98/135/11 99/136/11 100/137/11 

vt 0.0320245 0.03
vt 0.0299986 0.03
v 128.927 1.50068 -10.8101
vt 0.0299986 0
v 128.927 1.60202 -10.8101
vt 0.0320245 0
f 55/138/10 54/139/10 101/140/10 102/141/10 

vt 0.065962 0.03
vn -3.76385e-16 -0.0774567 0.996996
vt 0.0611443 0.03
v 128.927 1.2604 -10.8288
vt 0.0611443 0
vt 0.065962 0
f 54/142/12 100/143/12 103/144/12 101/145/12 

vt 0.141653 0.03
vn -2.76909e-16 -0.252146 0.967689
vt 0.13588 0.03
v 128.927 0.980943 -10.9016
vt 0.13588 0
vt 0.141653 0
f 100/146/13 99/147/13 104/148/13 103/149/13 

vt 0.218279 0.03
vn -1.59187e-16 -0.432666 0.901554
vt 0.212615 0.03
v 128.927 0.725524 -11.0242
vt 0.212615 0
vt 0.218279 0
f 99/150/14 98/151/14 105/152/14 104/153/14 

vt 0.285644 0.03
vn -3.8106e-17 -0.594071 0.804413
vt 0.280033 0.03
v 128.927 0.499735 -11.1909
vt 0.280033 0
vt 0.285644 0
f 98/154/15 97/155/15 106/156/15 105/157/15 

vt 0.342384 0.03
vn 8.29677e-17 -0.732961 0.680271
vt 0.336784 0.03
v 128.927 0.309169 -11.3962
vt 0.336784 0
vt 0.342384 0
f 97/158/16 96/159/16 107/160/16 106/161/16 

vt 0.387481 0.03
vn 2.01502e-16 -0.846708 0.532058
vt 0.381855 0.03
v 128.927 0.159418 -11.6346
vt 0.381855 0
vt 0.387481 0
f 96/162/17 95/163/17 108/164/17 107/165/17 

vt 0.419603 0.03
vn 3.14704e-16 -0.931987 0.362492
vt 0.413904 0.03
v 128.927 0.0560731 -11.9003
vt 0.413904 0
vt 0.419603 0
f 95/166/18 94/167/18 109/168/18 108/169/18 

vt 0.43696 0.03
vn 4.18623e-16 -0.984424 0.17581
vt 0.431122 0.03
v 128.927 0.00472654 -12.1878
vt 0.431122 0
vt 0.43696 0
f 94/170/19 93/171/19 110/172/19 109/173/19 

vt 0.437872 0.03
vn 4.92913e-16 -0.999873 0.0159106
vt 0.431934 0.03
v 128.927 2.33039e-08 -12.4848
vt 0.431934 0
vt 0.437872 0
f 93/174/20 92/175/20 111/176/20 110/177/20 

vt 0.431989 0.03
vn 4.996e-16 -1 4.62223e-33
vt 0.412497 0.03
v 128.927 2.33039e-08 -13.4598
vt 0.412497 0
vt 0.431989 0
f 92/178/21 91/179/21 112/180/21 111/181/21 

vn 4.996e-16 -1 -5.61881e-14
vt 0.380393 0.03
v 128.927 2.3304e-08 -15.0659
vt 0.380393 0
f 91/179/22 90/182/22 113/183/22 112/180/22 

vn 4.996e-16 -1 4.54697e-14
vt 0.340721 0.03
v 128.927 2.33039e-08 -17.0505
vt 0.340721 0
f 90/182/23 89/184/23 114/185/23 113/183/23 

vn 4.996e-16 -1 -4.27513e-14
vt 0.298526 0.03
v 128.927 2.3304e-08 -19.1612
vt 0.298526 0
f 89/184/24 88/186/24 115/187/24 114/185/24 

vt 0.258854 0.03
v 128.927 2.33039e-08 -21.1458
vt 0.258854 0
f 88/186/23 87/188/23 116/189/23 115/187/23 

vt 0.22675 0.03
v 128.927 2.33039e-08 -22.7519
vt 0.22675 0
f 87/188/21 86/190/21 117/191/21 116/189/21 

vn 4.996e-16 -1 1.85096e-13
vt 0.207259 0.03
v 128.927 2.33038e-08 -23.7269
f 86/190/25 85/192/25 118/122/25 117/191/25 

vt 0.207233 0.03
vn 5.06161e-16 -0.999873 -0.0159106
vt 0.201294 0.03
v 128.927 0.00472654 -24.0239
vt 0.201294 0
vt 0.207233 0
f 85/193/26 84/194/26 119/195/26 118/196/26 

vt 0.198169 0.03
vn 5.65014e-16 -0.984424 -0.17581
vt 0.192331 0.03
v 128.927 0.0560731 -24.3114
vt 0.192331 0
vt 0.198169 0
f 84/197/27 83/198/27 120/199/27 119/200/27 

vt 0.181866 0.03
vn 6.16539e-16 -0.931987 -0.362492
vt 0.176167 0.03
v 128.927 0.159418 -24.5771
vt 0.176167 0
vt 0.181866 0
f 83/201/28 82/202/28 121/203/28 120/204/28 

vt 0.159401 0.03
vn 6.44529e-16 -0.846708 -0.532058
vt 0.153775 0.03
v 128.927 0.309169 -24.8155
vt 0.153775 0
vt 0.159401 0
f 82/205/29 81/206/29 122/207/29 121/208/29 

vt 0.131759 0.03
vn 6.49407e-16 -0.732961 -0.680271
vt 0.126159 0.03
v 128.927 0.499735 -25.0208
vt 0.126159 0
vt 0.131759 0
f 81/209/30 80/210/30 123/211/30 122/212/30 

vt 0.0997252 0.03
vn 6.31702e-16 -0.594071 -0.804413
vt 0.0941143 0.03
v 128.927 0.725524 -25.1875
vt 0.0941143 0
vt 0.0997252 0
f 80/213/31 79/214/31 124/215/31 123/216/31 

vt 0.0639655 0.03
vn 5.91507e-16 -0.432666 -0.901554
vt 0.0583021 0.03
v 128.927 0.980943 -25.3101
vt 0.0583021 0
vt 0.0639655 0
f 79/217/32 78/218/32 125/219/32 124/220/32 

vt 0.025304 0.03
vn 5.28854e-16 -0.252146 -0.967689
vt 0.0195311 0.03
v 128.927 1.2604 -25.3829
vt 0.0195311 0
vt 0.025304 0
f 78/221/33 77/222/33 126/223/33 125/224/33 

vt -0.0116302 0.03
vn 4.5378e-16 -0.0774567 -0.996996
vt -0.0164479 0.03
v 128.927 1.50068 -25.4016
vt -0.0164479 0
vt -0.0116302 0
f 77/225/34 76/226/34 127/227/34 126/228/34 

vt -0.0299986 0.03
vn 4.16334e-16 2.03378e-31 -1
vt -0.0320245 0.03
v 128.927 1.60202 -25.4016
vt -0.0320245 0
vt -0.0299986 0
f 76/229/35 75/230/35 128/231/35 127/232/35 

vt -0.0363245 0.03
v 128.927 1.81713 -25.4016
vt -0.0363245 0
f 75/230/35 74/233/35 129/234/35 128/231/35 

vt -0.0421144 0.03
v 128.927 2.10678 -25.4016
vt -0.0421144 0
f 74/233/35 73/235/35 130/236/35 129/234/35 

vt -0.0486102 0.03
v 128.927 2.43172 -25.4016
vt -0.0486102 0
f 73/235/35 72/237/35 131/238/35 130/236/35 

vt -0.0550275 0.03
v 128.927 2.75275 -25.4016
vt -0.0550275 0
f 72/237/35 71/239/35 132/240/35 131/238/35 

vt -0.0605822 0.03
v 128.927 3.03063 -25.4016
vt -0.0605822 0
f 71/239/35 70/241/35 133/242/35 132/240/35 

vt -0.0644901 0.03
v 128.927 3.22612 -25.4016
vt -0.0644901 0
f 70/241/35 69/243/35 134/244/35 133/242/35 

vt -0.065967 0.03
v 128.927 3.3 -25.4016
vt -0.065967 0
f 69/243/35 68/245/35 135/246/35 134/244/35 

vt 0.173782 0.03
vn 4.996e-16 -1 1.03801e-14
vt 6.84745e-16 0.03
v 128.927 3.3 -34.095
vt 6.84745e-16 0
vt 0.173782 0
f 68/247/36 67/248/36 136/249/36 135/250/36 

vt -0.365817 0.03
v 128.927 18.3 -34.095
vt -0.365817 0
f 67/245/35 66/251/35 137/252/35 136/246/35 

vt -1.81629e-14 0.03
vn -4.996e-16 1 -4.96502e-14
vt -0.108995 0.03
v 128.927 18.3 -28.6426
vt -0.108995 0
vt -1.81629e-14 0
f 66/253/37 65/254/37 138/255/37 137/256/37 

vt -0.558109 0.03
v 128.927 27.9194 -28.6426
vt -0.558109 0
f 65/251/35 64/257/35 139/258/35 138/252/35 

vn -4.996e-16 1 -4.62223e-33
vt -0.275511 0.03
v 128.927 27.9194 -20.3126
vt -0.275511 0
f 64/254/38 63/259/38 140/260/38 139/255/38 

vt 0.108084 0.03
vn -6.49099e-16 0.8062 0.591643
vt -0.395573 0.03
v 128.927 13.0127 -2.29219e-09
vt -0.395573 0
vt 0.108084 0
f 63/261/39 62/262/39 141/263/39 140/264/39 

vt 0.260123 0.03
v 128.927 3.3 -2.29219e-09
vt 0.260123 0
f 62/265/10 61/85/10 142/88/10 141/266/10 

vt 0.68156 0.03
vn 4.996e-16 -1 -8.34764e-15
vt 0.465466 0.03
vt 0.465466 0
vt 0.68156 0
f 61/267/40 50/268/40 53/269/40 142/270/40 

vt -0.465466 0.0160202
vn 1 4.996e-16 4.16334e-16
vt -0.465466 0.0150068
vt -0.465093 0.012604
vt -0.463637 0.00980943
vt -0.461187 0.00725524
vt -0.457853 0.00499735
vt -0.453749 0.00309169
vt -0.448985 0.00159418
vt -0.443674 0.000560731
vt -0.437926 4.72651e-05
vt -0.431989 1.80478e-15
vt -0.412497 1.80478e-15
vt -0.380393 2.70717e-15
vt -0.340721 1.80478e-15
vt -0.298526 2.70717e-15
vt -0.258854 1.80478e-15
vt -0.22675 1.80478e-15
vt -0.207259 0
vt -0.201321 4.72651e-05
vt -0.195574 0.000560731
vt -0.190263 0.00159418
vt -0.185499 0.00309169
vt -0.181394 0.00499735
vt -0.178061 0.00725524
vt -0.175611 0.00980943
vt -0.174155 0.012604
vt -0.173782 0.0150068
vt -0.173782 0.0160202
vt -0.173782 0.0181713
vt -0.173782 0.0210678
vt -0.173782 0.0243172
vt -0.173782 0.0275275
vt -0.173782 0.0303063
vt -0.173782 0.0322612
vt -0.173782 0.033
vt -0.108995 0.183
vt -0.108995 0.279194
vt -0.275511 0.279194
vt -0.68156 0.130127
vt -0.68156 0.033
vt -0.465466 0.033
vt -0.465466 0.0322612
v 128.927 3.03063 -10.8101
vt -0.465466 0.0303063
v 128.927 2.75275 -10.8101
vt -0.465466 0.0275275
v 128.927 2.43172 -10.8101
vt -0.465466 0.0243172
v 128.927 2.10678 -10.8101
vt -0.465466 0.0210678
v 128.927 1.81713 -10.8101
vt -0.465466 0.0181713
f 102/271/41 101/272/41 103/273/41 104/274/41 105/275/41 106/276/41 107/277/41 108/278/41 109/279/41 110/280/41 111/281/41 112/282/41 113/283/41 114/284/41 115/285/41 116/286/41 117/287/41 118/288/41 119/289/41 120/290/41 121/291/41 122/292/41 123/293/41 124/294/41 125/295/41 126/296/41 127/297/41 128/298/41 129/299/41 130/300/41 131/301/41 132/302/41 133/303/41 134/304/41 135/305/41 136/104/41 137/103/41 138/306/41 139/307/41 140/308/41 141/309/41 142/310/41 53/311/41 52/312/41 143/313/41 144/314/41 145/315/41 146/316/41 147/317/41 

vt 0.0605822 0.03
vt 0.0605822 0
f 51/86/10 60/318/10 143/319/10 52/87/10 

vt 0.0550275 0.03
vt 0.0550275 0
f 60/318/10 59/320/10 144/321/10 143/319/10 

vt 0.0486102 0.03
vt 0.0486102 0
f 59/320/10 58/322/10 145/323/10 144/321/10 

vt 0.0421144 0.03
vt 0.0421144 0
f 58/322/10 57/324/10 146/325/10 145/323/10 

vt 0.0363245 0.03
vt 0.0363245 0
f 57/324/10 56/326/10 147/327/10 146/325/10 

f 56/326/10 55/138/10 102/141/10 147/327/10 

g Mesh8 ___123_1 ___124_1 Model

v 291.591 18.3 -34.3413
vt 0.660206 0.15
vn -4.4889e-11 2.22045e-16 1
v 291.591 21.6 -34.3413
vt 0.660206 0.183
v 263.354 21.6 -34.3413
vt 1.22467 0.183
v 263.354 18.3 -34.3413
vt 1.22467 0.15
v 187.627 18.3 -34.3413
vt 2.73845 0.15
v 187.627 21.6 -34.3413
vt 2.73845 0.183
v 159.39 21.6 -34.3413
vt 3.30292 0.183
v 159.39 18.3 -34.3413
vt 3.30292 0.15
v 83.6624 18.3 -34.3413
vt 4.8167 0.15
v 83.6624 21.6 -34.3413
vt 4.8167 0.183
v 55.4252 21.6 -34.3413
vt 5.38116 0.183
v 55.4252 18.3 -34.3413
vt 5.38116 0.15
v 4.81759 18.3 -34.3413
vt 6.39281 0.15
v 4.81759 3.3 -34.3413
vt 6.39281 0
v 55.4252 3.3 -34.3413
vt 5.38116 0
v 55.4252 1.86259e-08 -34.3413
vt 5.38116 -0.033
v 83.6624 1.73584e-08 -34.3413
vt 4.8167 -0.033
v 83.6624 3.3 -34.3413
vt 4.8167 0
v 159.405 3.3 -34.3413
vt 3.30261 0
v 159.405 1.82005e-08 -34.3413
vt 3.30261 -0.033
v 187.627 1.69336e-08 -34.3413
vt 2.73845 -0.033
v 187.627 3.3 -34.3413
vt 2.73845 0
v 263.354 3.3 -34.3413
vt 1.22467 0
v 263.354 1.35343e-08 -34.3413
vt 1.22467 -0.033
v 291.591 1.22667e-08 -34.3413
vt 0.660206 -0.033
v 291.591 3.3 -34.3413
vt 0.660206 0
v 342.199 3.3 -34.3413
vt -0.35144 0
v 342.199 18.3 -34.3413
vt -0.35144 0.15
f 148/328/42 149/329/42 150/330/42 151/331/42 152/332/42 153/333/42 154/334/42 155/335/42 156/336/42 157/337/42 158/338/42 159/339/42 160/340/42 161/341/42 162/342/42 163/343/42 164/344/42 165/345/42 166/346/42 167/347/42 168/348/42 169/349/42 170/350/42 171/351/42 172/352/42 173/353/42 174/354/42 175/355/42 

v 291.591 21.6 -37.3413
vn 1 -4.48894e-11 4.4889e-11
vt -0.29985 0.03
v 291.591 18.3 -37.3413
vt -0.29985 0
f 176/252/43 149/251/43 148/356/43 177/357/43 

vt -1.22467 0.03
vn 4.48894e-11 1 -2.22043e-16
vt -0.660206 0.03
vt -0.660206 0
v 263.354 21.6 -37.3413
vt -1.22467 0
f 150/358/44 149/359/44 176/360/44 178/361/44 

v 291.591 3.3 -37.3413
vn 4.4889e-11 -2.22045e-16 -1
v 291.591 1.22667e-08 -37.3413
vt -0.660206 -0.033
v 263.354 1.35343e-08 -37.3413
vt -1.22467 -0.033
v 263.354 3.3 -37.3413
v 187.627 3.3 -37.3413
vt -2.73845 0
v 187.627 1.69336e-08 -37.3413
vt -2.73845 -0.033
v 159.405 1.82005e-08 -37.3413
vt -3.30261 -0.033
v 159.405 3.3 -37.3413
vt -3.30261 0
v 83.6624 3.3 -37.3413
vt -4.8167 0
v 83.6624 1.73584e-08 -37.3413
vt -4.8167 -0.033
v 55.4252 1.86259e-08 -37.3413
vt -5.38116 -0.033
v 55.4252 3.3 -37.3413
vt -5.38116 0
v 4.81759 3.3 -37.3413
vt -6.39281 0
v 4.81759 18.3 -37.3413
vt -6.39281 0.15
v 55.4252 18.3 -37.3413
vt -5.38116 0.15
v 55.4252 21.6 -37.3413
vt -5.38116 0.183
v 83.6624 21.6 -37.3413
vt -4.8167 0.183
v 83.6624 18.3 -37.3413
vt -4.8167 0.15
v 159.39 18.3 -37.3413
vt -3.30292 0.15
v 159.39 21.6 -37.3413
vt -3.30292 0.183
v 187.627 21.6 -37.3413
vt -2.73845 0.183
v 187.627 18.3 -37.3413
vt -2.73845 0.15
v 263.354 18.3 -37.3413
vt -1.22467 0.15
vt -1.22467 0.183
vt -0.660206 0.183
vt -0.660206 0.15
v 342.199 18.3 -37.3413
vt 0.35144 0.15
v 342.199 3.3 -37.3413
vt 0.35144 0
f 179/360/45 180/362/45 181/363/45 182/361/45 183/364/45 184/365/45 185/366/45 186/367/45 187/368/45 188/369/45 189/370/45 190/371/45 191/372/45 192/373/45 193/374/45 194/375/45 195/376/45 196/377/45 197/378/45 198/379/45 199/380/45 200/381/45 201/382/45 178/383/45 176/384/45 177/385/45 202/386/45 203/387/45 

f 172/85/43 180/88/43 179/2/43 173/3/43 

vt 0.660206 0.03
vn -4.48894e-11 -1 2.22043e-16
vt 1.22467 0.03
f 172/388/46 171/389/46 181/350/46 180/353/46 

vn -1 4.48894e-11 -4.4889e-11
f 181/246/47 171/245/47 170/3/47 182/2/47 

vt 2.73845 0.03
f 170/389/46 169/390/46 183/349/46 182/350/46 

f 168/85/43 184/88/43 183/2/43 169/3/43 

vt 3.30261 0.03
f 168/390/46 167/391/46 185/346/46 184/349/46 

f 185/246/47 167/245/47 166/3/47 186/2/47 

vt 4.8167 0.03
f 166/391/46 165/392/46 187/345/46 186/346/46 

f 164/85/43 188/88/43 187/2/43 165/3/43 

vt 5.38116 0.03
f 164/392/46 163/393/46 189/342/46 188/345/46 

f 189/246/47 163/245/47 162/3/47 190/2/47 

vt 6.39281 0.03
f 191/341/46 190/342/46 162/393/46 161/394/46 

vt 0.29985 0
vt 0.29985 0.03
f 192/395/47 191/2/47 161/3/47 160/396/47 

vt -6.39281 0.03
vt -5.38116 0.03
f 160/397/44 159/398/44 193/371/44 192/372/44 

vt 0.365817 0.03
vt 0.365817 0
f 158/399/47 194/400/47 193/395/47 159/396/47 

vt -4.8167 0.03
f 158/398/44 157/401/44 195/368/44 194/371/44 

f 195/252/43 157/251/43 156/356/43 196/357/43 

vt -3.30292 0
vt -3.30292 0.03
f 197/402/44 196/368/44 156/401/44 155/403/44 

f 154/399/47 198/400/47 197/395/47 155/396/47 

vt -2.73845 0.03
f 154/403/44 153/404/44 199/364/44 198/402/44 

f 199/252/43 153/251/43 152/356/43 200/357/43 

f 201/361/44 200/364/44 152/404/44 151/358/44 

f 150/399/47 178/400/47 201/395/47 151/396/47 

vt -0.35144 0.03
f 174/405/46 173/388/46 179/353/46 203/354/46 

f 203/2/43 202/357/43 175/356/43 174/3/43 

vt 0.35144 0.03
f 202/387/44 177/360/44 148/359/44 175/406/44 

g Mesh9 ___122_1 Model

v 4.81759 3.3 -116.063
vt -1.57611 0.03
vn 2.22045e-16 -1 1.36517e-22
v 4.81759 3.3 -170.477
vt -2.66384 0.03
v 7.81759 3.3 -170.477
vt -2.66384 0
v 7.81759 3.3 -116.063
vt -1.57611 0
f 204/407/48 205/408/48 206/409/48 207/410/48 

v 4.81759 18.3 -249.322
vt 0.365817 2.12104
vn -1 -2.22045e-16 -4.48899e-11
v 4.81759 3.3 -249.322
vt 0.065967 2.12104
v 4.81759 3.3 -198.715
vt 0.065967 1.61496
v 4.81759 1.75628e-08 -198.715
vt 4.83439e-11 1.61496
v 4.81759 1.75628e-08 -170.477
vt 4.83439e-11 1.33259
vt 0.065967 1.33259
vt 0.065967 0.788448
v 4.81759 1.56006e-08 -116.063
vt 9.1204e-12 0.788448
v 4.81759 1.56006e-08 -87.8261
vt 9.1204e-12 0.506076
v 4.81759 3.3 -87.8261
vt 0.065967 0.506076
v 4.81759 3.3 -37.2186
vt 0.065967 6.73634e-12
v 4.81759 18.3 -37.2186
vt 0.365817 6.73634e-12
v 4.81759 18.3 -87.8261
vt 0.365817 0.506076
v 4.81759 21.6 -87.8261
vt 0.431784 0.506076
v 4.81759 21.6 -116.063
vt 0.431784 0.788448
v 4.81759 18.3 -116.063
vt 0.365817 0.788448
v 4.81759 18.3 -170.477
vt 0.365817 1.33259
v 4.81759 21.6 -170.477
vt 0.431784 1.33259
v 4.81759 21.6 -198.715
vt 0.431784 1.61496
v 4.81759 18.3 -198.715
vt 0.365817 1.61496
f 208/411/49 209/412/49 210/413/49 211/414/49 212/415/49 205/416/49 204/417/49 213/418/49 214/419/49 215/420/49 216/421/49 217/422/49 218/423/49 219/424/49 220/425/49 221/426/49 222/427/49 223/428/49 224/429/49 225/430/49 

vn 4.48899e-11 -1.36507e-22 -1
v 7.81759 18.3 -249.322
v 7.81759 3.3 -249.322
f 209/245/50 208/251/50 226/252/50 227/246/50 

vt 4.23995 0.03
vn -2.22045e-16 1 -1.36517e-22
vt 3.2283 0.03
v 7.81759 18.3 -198.715
vt 3.2283 0
vt 4.23995 0
f 208/431/51 225/432/51 228/433/51 226/434/51 

vt -0.431784 0.03
v 7.81759 21.6 -198.715
vt -0.431784 0
f 228/252/50 225/251/50 224/435/50 229/436/50 

v 7.81759 21.6 -170.477
vt 2.66384 0
vt 2.66384 0.03
f 230/437/51 229/433/51 224/432/51 223/438/51 

vt -0.065967 2.12104
vn 1 2.22045e-16 4.48899e-11
vt -0.365817 2.12104
vt -0.365817 1.61496
vt -0.431784 1.61496
vt -0.431784 1.33259
v 7.81759 18.3 -170.477
vt -0.365817 1.33259
v 7.81759 18.3 -116.063
vt -0.365817 0.788448
v 7.81759 21.6 -116.063
vt -0.431784 0.788448
v 7.81759 21.6 -87.8261
vt -0.431784 0.506076
v 7.81759 18.3 -87.8261
vt -0.365817 0.506076
v 7.81759 18.3 -37.2186
vt -0.365817 6.73634e-12
v 7.81759 3.3 -37.2186
vt -0.065967 6.73634e-12
v 7.81759 3.3 -87.8261
vt -0.065967 0.506076
v 7.81759 1.56006e-08 -87.8261
vt -9.1204e-12 0.506076
v 7.81759 1.56006e-08 -116.063
vt -9.1204e-12 0.788448
vt -0.065967 0.788448
vt -0.065967 1.33259
v 7.81759 1.75628e-08 -170.477
vt -4.83439e-11 1.33259
v 7.81759 1.75628e-08 -198.715
vt -4.83439e-11 1.61496
v 7.81759 3.3 -198.715
vt -0.065967 1.61496
f 227/439/52 226/440/52 228/441/52 229/442/52 230/443/52 231/444/52 232/445/52 233/446/52 234/447/52 235/448/52 236/449/52 237/450/52 238/451/52 239/452/52 240/453/52 207/454/52 206/455/52 241/456/52 242/457/52 243/458/52 

vn -4.48899e-11 1.36507e-22 1
vt 0.431784 0
vt 0.431784 0.03
f 222/399/53 231/400/53 230/459/53 223/460/53 

vt 1.57611 0
vt 1.57611 0.03
f 232/461/51 231/437/51 222/438/51 221/462/51 

f 232/252/50 221/251/50 220/435/50 233/436/50 

vt 1.01165 0
vt 1.01165 0.03
f 234/463/51 233/461/51 220/462/51 219/464/51 

f 218/399/53 235/400/53 234/459/53 219/460/53 

vt 1.34659e-11 0
vt 1.34659e-11 0.03
f 236/465/51 235/463/51 218/464/51 217/466/51 

f 217/399/53 216/85/53 237/88/53 236/400/53 

vt -1.34659e-11 0.03
vt -1.01165 0.03
vt -1.01165 0
vt -1.34659e-11 0
f 216/467/48 215/468/48 238/469/48 237/470/48 

vt 9.1204e-12 0.03
vt 9.1204e-12 0
f 238/88/53 215/85/53 214/471/53 239/472/53 

f 240/410/48 239/469/48 214/468/48 213/407/48 

vt -9.1204e-12 0
vt -9.1204e-12 0.03
f 204/245/50 207/246/50 240/473/50 213/474/50 

vt 4.83439e-11 0.03
vt 4.83439e-11 0
f 206/88/53 205/85/53 212/475/53 241/476/53 

vt -3.2283 0.03
vt -3.2283 0
f 212/408/48 211/477/48 242/478/48 241/409/48 

vt -4.83439e-11 0
vt -4.83439e-11 0.03
f 210/245/50 243/246/50 242/479/50 211/480/50 

vt -4.23995 0
vt -4.23995 0.03
f 227/481/48 243/478/48 210/477/48 209/482/48 

g Mesh10 ___130_2 Model

v 218.027 3.3 -10.8101
v 218.027 3.22612 -10.8101
v 221.027 3.22612 -10.8101
v 221.027 3.3 -10.8101
f 244/88/10 245/87/10 246/86/10 247/85/10 

v 218.027 1.81713 -10.8101
v 218.027 2.10678 -10.8101
v 218.027 2.43172 -10.8101
v 218.027 2.75275 -10.8101
v 218.027 3.03063 -10.8101
v 218.027 3.3 -2.29219e-09
v 218.027 13.0127 -2.29219e-09
v 218.027 27.9194 -20.3126
v 218.027 27.9194 -28.6426
v 218.027 18.3 -28.6426
v 218.027 18.3 -34.095
v 218.027 3.3 -34.095
v 218.027 3.3 -25.4016
v 218.027 3.22612 -25.4016
v 218.027 3.03063 -25.4016
v 218.027 2.75275 -25.4016
v 218.027 2.43172 -25.4016
v 218.027 2.10678 -25.4016
v 218.027 1.81713 -25.4016
v 218.027 1.60202 -25.4016
v 218.027 1.50068 -25.4016
v 218.027 1.2604 -25.3829
v 218.027 0.980943 -25.3101
v 218.027 0.725524 -25.1875
v 218.027 0.499735 -25.0208
v 218.027 0.309169 -24.8155
v 218.027 0.159418 -24.5771
v 218.027 0.0560731 -24.3114
v 218.027 0.00472654 -24.0239
v 218.027 2.33038e-08 -23.7269
v 218.027 2.33039e-08 -22.7519
v 218.027 2.33039e-08 -21.1458
v 218.027 2.3304e-08 -19.1612
v 218.027 2.33039e-08 -17.0505
v 218.027 2.3304e-08 -15.0659
v 218.027 2.33039e-08 -13.4598
v 218.027 2.33039e-08 -12.4848
v 218.027 0.00472654 -12.1878
v 218.027 0.0560731 -11.9003
v 218.027 0.159418 -11.6346
v 218.027 0.309169 -11.3962
v 218.027 0.499735 -11.1909
v 218.027 0.725524 -11.0242
v 218.027 0.980943 -10.9016
v 218.027 1.2604 -10.8288
v 218.027 1.50068 -10.8101
v 218.027 1.60202 -10.8101
f 248/317/11 249/316/11 250/315/11 251/314/11 252/313/11 245/312/11 244/311/11 253/310/11 254/309/11 255/308/11 256/307/11 257/306/11 258/103/11 259/104/11 260/305/11 261/304/11 262/303/11 263/302/11 264/301/11 265/300/11 266/299/11 267/298/11 268/297/11 269/296/11 270/295/11 271/294/11 272/293/11 273/292/11 274/291/11 275/290/11 276/289/11 277/288/11 278/287/11 279/286/11 280/285/11 281/284/11 282/283/11 283/282/11 284/281/11 285/280/11 286/279/11 287/278/11 288/277/11 289/276/11 290/275/11 291/274/11 292/273/11 293/272/11 294/271/11 

v 221.027 1.81713 -10.8101
v 221.027 2.10678 -10.8101
f 249/325/10 248/327/10 295/326/10 296/324/10 

v 221.027 1.60202 -10.8101
f 248/327/10 294/141/10 297/138/10 295/326/10 

v 221.027 1.50068 -10.8101
f 294/141/10 293/140/10 298/139/10 297/138/10 

v 221.027 1.2604 -10.8288
f 293/145/12 292/144/12 299/143/12 298/142/12 

v 221.027 0.980943 -10.9016
f 292/149/13 291/148/13 300/147/13 299/146/13 

v 221.027 0.725524 -11.0242
f 291/153/14 290/152/14 301/151/14 300/150/14 

v 221.027 0.499735 -11.1909
f 290/157/15 289/156/15 302/155/15 301/154/15 

v 221.027 0.309169 -11.3962
f 289/161/16 288/160/16 303/159/16 302/158/16 

v 221.027 0.159418 -11.6346
f 288/165/17 287/164/17 304/163/17 303/162/17 

v 221.027 0.0560731 -11.9003
f 287/169/18 286/168/18 305/167/18 304/166/18 

v 221.027 0.00472654 -12.1878
f 286/173/19 285/172/19 306/171/19 305/170/19 

v 221.027 2.33039e-08 -12.4848
f 285/177/20 284/176/20 307/175/20 306/174/20 

v 221.027 2.33039e-08 -13.4598
f 284/181/21 283/180/21 308/179/21 307/178/21 

v 221.027 2.3304e-08 -15.0659
f 283/180/22 282/183/22 309/182/22 308/179/22 

v 221.027 2.33039e-08 -17.0505
f 282/183/23 281/185/23 310/184/23 309/182/23 

v 221.027 2.3304e-08 -19.1612
f 281/185/24 280/187/24 311/186/24 310/184/24 

v 221.027 2.33039e-08 -21.1458
f 280/187/23 279/189/23 312/188/23 311/186/23 

v 221.027 2.33039e-08 -22.7519
f 279/189/21 278/191/21 313/190/21 312/188/21 

v 221.027 2.33038e-08 -23.7269
f 278/191/25 277/122/25 314/192/25 313/190/25 

v 221.027 0.00472654 -24.0239
f 277/196/26 276/195/26 315/194/26 314/193/26 

v 221.027 0.0560731 -24.3114
f 276/200/27 275/199/27 316/198/27 315/197/27 

v 221.027 0.159418 -24.5771
f 275/204/28 274/203/28 317/202/28 316/201/28 

v 221.027 0.309169 -24.8155
f 274/208/29 273/207/29 318/206/29 317/205/29 

v 221.027 0.499735 -25.0208
f 273/212/30 272/211/30 319/210/30 318/209/30 

v 221.027 0.725524 -25.1875
f 272/216/31 271/215/31 320/214/31 319/213/31 

v 221.027 0.980943 -25.3101
f 271/220/32 270/219/32 321/218/32 320/217/32 

v 221.027 1.2604 -25.3829
f 270/224/33 269/223/33 322/222/33 321/221/33 

v 221.027 1.50068 -25.4016
f 269/228/34 268/227/34 323/226/34 322/225/34 

v 221.027 1.60202 -25.4016
f 268/232/35 267/231/35 324/230/35 323/229/35 

v 221.027 1.81713 -25.4016
f 267/231/35 266/234/35 325/233/35 324/230/35 

v 221.027 2.10678 -25.4016
f 266/234/35 265/236/35 326/235/35 325/233/35 

v 221.027 2.43172 -25.4016
f 265/236/35 264/238/35 327/237/35 326/235/35 

v 221.027 2.75275 -25.4016
f 264/238/35 263/240/35 328/239/35 327/237/35 

v 221.027 3.03063 -25.4016
f 263/240/35 262/242/35 329/241/35 328/239/35 

v 221.027 3.22612 -25.4016
f 262/242/35 261/244/35 330/243/35 329/241/35 

v 221.027 3.3 -25.4016
f 261/244/35 260/246/35 331/245/35 330/243/35 

v 221.027 3.3 -34.095
f 260/250/36 259/249/36 332/248/36 331/247/36 

v 221.027 18.3 -34.095
f 259/246/35 258/252/35 333/251/35 332/245/35 

v 221.027 18.3 -28.6426
f 258/256/37 257/255/37 334/254/37 333/253/37 

v 221.027 27.9194 -28.6426
f 257/252/35 256/258/35 335/257/35 334/251/35 

v 221.027 27.9194 -20.3126
f 256/255/38 255/260/38 336/259/38 335/254/38 

v 221.027 13.0127 -2.29219e-09
f 255/264/39 254/263/39 337/262/39 336/261/39 

v 221.027 3.3 -2.29219e-09
f 254/266/10 253/88/10 338/85/10 337/265/10 

f 253/270/40 244/269/40 247/268/40 338/267/40 

v 221.027 3.03063 -10.8101
v 221.027 2.75275 -10.8101
v 221.027 2.43172 -10.8101
f 299/137/41 300/136/41 301/135/41 302/134/41 303/133/41 304/132/41 305/131/41 306/130/41 307/129/41 308/128/41 309/127/41 310/126/41 311/125/41 312/124/41 313/123/41 314/122/41 315/121/41 316/120/41 317/119/41 318/118/41 319/117/41 320/116/41 321/115/41 322/114/41 323/113/41 324/112/41 325/111/41 326/110/41 327/109/41 328/108/41 329/107/41 330/106/41 331/105/41 332/104/41 333/103/41 334/102/41 335/101/41 336/100/41 337/99/41 338/98/41 247/97/41 246/96/41 339/95/41 340/94/41 341/93/41 296/92/41 295/91/41 297/90/41 298/89/41 

f 245/87/10 252/319/10 339/318/10 246/86/10 

f 252/319/10 251/321/10 340/320/10 339/318/10 

f 251/321/10 250/323/10 341/322/10 340/320/10 

f 250/323/10 249/325/10 296/324/10 341/322/10 

g Mesh11 ___123_2 ___124_2 Model

v 342.199 18.3 -252.322
v 342.199 3.3 -252.322
v 291.591 3.3 -252.322
v 291.591 1.22666e-08 -252.322
v 263.354 1.35342e-08 -252.322
v 263.354 3.3 -252.322
v 187.627 3.3 -252.322
v 187.627 1.69335e-08 -252.322
v 159.405 1.82004e-08 -252.322
v 159.405 3.3 -252.322
v 83.6624 3.3 -252.322
v 83.6624 1.73583e-08 -252.322
v 55.4252 1.86258e-08 -252.322
v 55.4252 3.3 -252.322
v 4.81759 3.3 -252.322
v 4.81759 18.3 -252.322
v 55.4252 18.3 -252.322
v 55.4252 21.6 -252.322
v 83.6624 21.6 -252.322
v 83.6624 18.3 -252.322
v 159.39 18.3 -252.322
v 159.39 21.6 -252.322
v 187.627 21.6 -252.322
v 187.627 18.3 -252.322
v 263.354 18.3 -252.322
v 263.354 21.6 -252.322
v 291.591 21.6 -252.322
v 291.591 18.3 -252.322
f 342/355/45 343/354/45 344/353/45 345/352/45 346/351/45 347/350/45 348/349/45 349/348/45 350/347/45 351/346/45 352/345/45 353/344/45 354/343/45 355/342/45 356/341/45 357/340/45 358/339/45 359/338/45 360/337/45 361/336/45 362/335/45 363/334/45 364/333/45 365/332/45 366/331/45 367/330/45 368/329/45 369/328/45 

v 342.199 18.3 -249.322
v 342.199 3.3 -249.322
f 343/3/43 342/356/43 370/357/43 371/2/43 

v 291.591 18.3 -249.322
f 342/406/44 369/359/44 372/360/44 370/387/44 

v 291.591 21.6 -249.322
f 372/357/43 369/356/43 368/251/43 373/252/43 

v 263.354 21.6 -249.322
f 374/361/44 373/360/44 368/359/44 367/358/44 

v 263.354 18.3 -249.322
v 187.627 18.3 -249.322
v 187.627 21.6 -249.322
v 159.39 21.6 -249.322
v 159.39 18.3 -249.322
v 83.6624 18.3 -249.322
v 83.6624 21.6 -249.322
v 55.4252 21.6 -249.322
v 55.4252 18.3 -249.322
v 4.81759 18.3 -249.322
v 4.81759 3.3 -249.322
v 55.4252 3.3 -249.322
v 55.4252 1.86258e-08 -249.322
v 83.6624 1.73583e-08 -249.322
v 83.6624 3.3 -249.322
v 159.405 3.3 -249.322
v 159.405 1.82004e-08 -249.322
v 187.627 1.69335e-08 -249.322
v 187.627 3.3 -249.322
v 263.354 3.3 -249.322
v 263.354 1.35342e-08 -249.322
v 291.591 1.22666e-08 -249.322
v 291.591 3.3 -249.322
f 371/387/42 370/386/42 372/385/42 373/384/42 374/383/42 375/382/42 376/381/42 377/380/42 378/379/42 379/378/42 380/377/42 381/376/42 382/375/42 383/374/42 384/373/42 385/372/42 386/371/42 387/370/42 388/369/42 389/368/42 390/367/42 391/366/42 392/365/42 393/364/42 394/361/42 395/363/42 396/362/42 397/360/42 

f 366/396/47 375/395/47 374/400/47 367/399/47 

f 366/358/44 365/404/44 376/364/44 375/361/44 

f 376/357/43 365/356/43 364/251/43 377/252/43 

f 378/402/44 377/364/44 364/404/44 363/403/44 

f 362/396/47 379/395/47 378/400/47 363/399/47 

f 362/403/44 361/401/44 380/368/44 379/402/44 

f 380/357/43 361/356/43 360/251/43 381/252/43 

f 382/371/44 381/368/44 360/401/44 359/398/44 

f 358/396/47 383/395/47 382/400/47 359/399/47 

f 384/372/44 383/371/44 358/398/44 357/397/44 

f 357/396/47 356/3/47 385/2/47 384/395/47 

f 356/394/46 355/393/46 386/342/46 385/341/46 

f 386/2/47 355/3/47 354/245/47 387/246/47 

f 388/345/46 387/342/46 354/393/46 353/392/46 

f 352/3/43 389/2/43 388/88/43 353/85/43 

f 390/346/46 389/345/46 352/392/46 351/391/46 

f 390/2/47 351/3/47 350/245/47 391/246/47 

f 392/349/46 391/346/46 350/391/46 349/390/46 

f 348/3/43 393/2/43 392/88/43 349/85/43 

f 394/350/46 393/349/46 348/390/46 347/389/46 

f 394/2/47 347/3/47 346/245/47 395/246/47 

f 396/353/46 395/350/46 346/389/46 345/388/46 

f 344/3/43 397/2/43 396/88/43 345/85/43 

f 371/354/46 397/353/46 344/388/46 343/405/46 

g Mesh12 ___122_2 Model

v 339.199 3.3 -116.063
v 339.199 3.3 -170.477
v 342.199 3.3 -170.477
v 342.199 3.3 -116.063
f 398/410/48 399/409/48 400/408/48 401/407/48 

v 339.199 3.3 -198.715
v 339.199 2.41787e-09 -198.715
v 339.199 2.41787e-09 -170.477
v 339.199 4.55718e-10 -116.063
v 339.199 4.55718e-10 -87.8261
v 339.199 3.3 -87.8261
v 339.199 3.3 -37.2186
v 339.199 18.3 -37.2186
v 339.199 18.3 -87.8261
v 339.199 21.6 -87.8261
v 339.199 21.6 -116.063
v 339.199 18.3 -116.063
v 339.199 18.3 -170.477
v 339.199 21.6 -170.477
v 339.199 21.6 -198.715
v 339.199 18.3 -198.715
v 339.199 18.3 -249.322
v 339.199 3.3 -249.322
f 402/458/49 403/457/49 404/456/49 399/455/49 398/454/49 405/453/49 406/452/49 407/451/49 408/450/49 409/449/49 410/448/49 411/447/49 412/446/49 413/445/49 414/444/49 415/443/49 416/442/49 417/441/49 418/440/49 419/439/49 

v 342.199 2.41787e-09 -198.715
v 342.199 3.3 -198.715
f 420/480/50 403/479/50 402/246/50 421/245/50 

v 342.199 2.41787e-09 -170.477
f 404/409/48 403/478/48 420/477/48 422/408/48 

v 342.199 18.3 -198.715
vn 1 2.22044e-16 4.48899e-11
v 342.199 21.6 -198.715
v 342.199 21.6 -170.477
v 342.199 18.3 -170.477
v 342.199 18.3 -116.063
v 342.199 21.6 -116.063
v 342.199 21.6 -87.8261
v 342.199 18.3 -87.8261
v 342.199 18.3 -37.2186
v 342.199 3.3 -37.2186
v 342.199 3.3 -87.8261
v 342.199 4.55719e-10 -87.8261
v 342.199 4.55719e-10 -116.063
v 342.199 3.3 -249.322
v 342.199 18.3 -249.322
f 423/430/54 424/429/54 425/428/54 426/427/54 427/426/54 428/425/54 429/424/54 430/423/54 431/422/54 432/421/54 433/420/54 434/419/54 435/418/54 401/417/54 400/416/54 422/415/54 420/414/54 421/413/54 436/412/54 437/411/54 

f 416/436/50 424/435/50 423/251/50 417/252/50 

f 425/438/51 424/432/51 416/433/51 415/437/51 

f 425/460/53 415/459/53 414/400/53 426/399/53 

f 427/462/51 426/438/51 414/437/51 413/461/51 

f 412/436/50 428/435/50 427/251/50 413/252/50 

f 429/464/51 428/462/51 412/461/51 411/463/51 

f 429/460/53 411/459/53 410/400/53 430/399/53 

f 431/466/51 430/464/51 410/463/51 409/465/51 

f 409/400/53 408/88/53 432/85/53 431/399/53 

f 408/470/48 407/469/48 433/468/48 432/467/48 

f 406/472/53 434/471/53 433/85/53 407/88/53 

f 435/407/48 434/468/48 406/469/48 405/410/48 

f 435/474/50 405/473/50 398/246/50 401/245/50 

f 418/434/51 417/433/51 423/432/51 437/431/51 

f 419/246/50 418/252/50 437/251/50 436/245/50 

f 436/482/48 421/477/48 402/478/48 419/481/48 

f 404/476/53 422/475/53 400/85/53 399/88/53 

