# Alias OBJ Model File
# Exported from SketchUp, (c) 2000-2012 Trimble Navigation Limited
# File units = millimeters

mtllib 1.mtl

g Mesh1 ___501_1 Model

usemtl _1
v 380 15 -277
vt 0 1.12799e-16
vn 1 6.66134e-16 -7.65714e-16
v 380 7.5 -277
vt 0 0.075
v 380 7.5 -280
vt -0.05997 0.075
v 380 15 -280
vt -0.05997 1.12799e-16
f 1/1/1 2/2/1 3/3/1 4/4/1 

v 103 3.25073e-13 -277
vt 5.53723 0.15
vn 4.06785e-16 1.29122e-14 1
v 188.5 1.22569e-13 -277
vt 3.82808 0.15
v 188.5 7.5 -277
vt 3.82808 0.075
v 191.5 7.5 -277
vt 3.76812 0.075
v 191.5 1.19016e-13 -277
vt 3.76812 0.15
v 277 4.40536e-13 -277
vt 2.05897 0.15
v 277 7.5 -277
vt 2.05897 0.075
v 280 7.5 -277
vt 1.999 0.075
v 280 4.36984e-13 -277
vt 1.999 0.15
v 377 2.43361e-13 -277
vt 0.05997 0.15
v 377 7.5 -277
vt 0.05997 0.075
v 5.11591e-13 15 -277
vt 7.5962 5.63993e-17
v 5.11591e-13 7.5 -277
vt 7.5962 0.075
v 3 7.5 -277
vt 7.53623 0.075
v 3 0 -277
vt 7.53623 0.15
v 100 3.23297e-13 -277
vt 5.5972 0.15
v 100 7.5 -277
vt 5.5972 0.075
v 103 7.5 -277
vt 5.53723 0.075
f 5/5/2 6/6/2 7/7/2 8/8/2 9/9/2 10/10/2 11/11/2 12/12/2 13/13/2 14/14/2 15/15/2 2/2/2 1/1/2 16/16/2 17/17/2 18/18/2 19/19/2 20/20/2 21/21/2 22/22/2 

v 103 3.25073e-13 -280
vt 5.53723 0.03
vn -2.36822e-15 -1 4.87364e-31
v 188.5 1.22569e-13 -280
vt 3.82808 0.03
vt 3.82808 3.60956e-15
vt 5.53723 -3.60956e-15
f 23/23/3 24/24/3 6/25/3 5/26/3 

v 5.11591e-13 15 -280
vt -7.5962 -4.85034e-16
vn -1.19043e-15 -1.80478e-14 -1
vt 2.54701e-17 -4.28635e-16
vt 2.54701e-17 0.075
v 377 7.5 -280
v 377 2.43361e-13 -280
vt -0.05997 0.15
v 280 4.36984e-13 -280
vt -1.999 0.15
v 280 7.5 -280
vt -1.999 0.075
v 277 7.5 -280
vt -2.05897 0.075
v 277 4.40536e-13 -280
vt -2.05897 0.15
v 191.5 1.19016e-13 -280
vt -3.76812 0.15
v 191.5 7.5 -280
vt -3.76812 0.075
v 188.5 7.5 -280
vt -3.82808 0.075
vt -3.82808 0.15
vt -5.53723 0.15
v 103 7.5 -280
vt -5.53723 0.075
v 100 7.5 -280
vt -5.5972 0.075
v 100 3.23297e-13 -280
vt -5.5972 0.15
v 3 0 -280
vt -7.53623 0.15
v 3 7.5 -280
vt -7.53623 0.075
v 5.11591e-13 7.5 -280
vt -7.5962 0.075
f 25/27/4 4/28/4 3/29/4 26/3/4 27/30/4 28/31/4 29/32/4 30/33/4 31/34/4 32/35/4 33/36/4 34/37/4 24/38/4 23/39/4 35/40/4 36/41/4 37/42/4 38/43/4 39/44/4 40/45/4 

vt -7.5962 0
vn -6.3645e-16 1 2.2379e-31
vt 6.69325e-33 0
vt 6.69325e-33 0.03
vt -7.5962 0.03
f 16/46/5 1/47/5 4/48/5 25/49/5 

vt 0.05997 5.63993e-17
vn -1 -6.66134e-16 3.82857e-16
vt -2.90826e-15 0.075
vt -2.90826e-15 5.63993e-17
f 25/50/6 40/15/6 17/51/6 16/52/6 

vt 7.5962 -3.94115e-47
vn 6.66134e-16 -1 -2.46519e-31
vt 7.5962 0.03
vt 7.53623 0.03
vt 7.53623 6.41186e-30
f 17/53/7 40/54/7 39/55/7 18/56/7 

vt -2.8853e-15 0.15
vt -2.8853e-15 0.075
f 19/57/6 18/58/6 39/15/6 38/14/6 

vn 3.34074e-15 -1 -5.12547e-30
vt 5.5972 0.03
vt 5.5972 -3.60956e-15
vt 7.53623 5.98722e-30
f 38/55/8 37/59/8 20/60/8 19/61/8 

vt 9.35843e-15 0.15
vn 1 6.66134e-16 -3.82857e-16
vt 9.35843e-15 0.075
f 20/62/9 37/30/9 36/3/9 21/63/9 

f 36/59/7 35/23/7 22/26/7 21/60/7 

vt -9.33547e-15 0.15
vt -9.33547e-15 0.075
f 23/14/6 5/64/6 22/65/6 35/15/6 

vt 0 0
vt 0.05997 6.41186e-30
vt 0.05997 0.03
vt 0 0.03
f 2/66/7 15/67/7 26/68/7 3/69/7 

vt 2.29599e-17 0.15
vt 2.29599e-17 0.075
f 14/70/9 27/30/9 26/3/9 15/71/9 

vt 1.999 -9.02389e-15
vn -2.00847e-15 -1 -1.44364e-31
vt 1.999 0.03
vt 0.05997 6.11999e-30
f 13/72/10 28/73/10 27/68/10 14/74/10 

vt -3.77179e-15 0.15
vn -1 -3.6741e-15 7.90277e-15
vt -3.77179e-15 0.075
f 13/75/11 12/76/11 29/15/11 28/14/11 

vt 2.05897 0.03
vt 2.05897 -9.02389e-15
f 30/77/7 29/73/7 12/72/7 11/78/7 

vt -1.21395e-14 0.15
vn 1 6.66134e-16 -1.54227e-14
vt -1.21395e-14 0.075
f 10/79/12 31/30/12 30/3/12 11/80/12 

vt 3.76812 3.60956e-15
vn 3.70048e-15 -1 -2.23723e-29
vt 3.76812 0.03
f 9/81/13 32/82/13 31/77/13 10/78/13 

vt 5.77286e-15 0.15
vt 5.77286e-15 0.075
f 9/83/6 8/84/6 33/15/6 32/14/6 

f 34/24/7 33/82/7 8/81/7 7/25/7 

vt -5.7499e-15 0.15
vt -5.7499e-15 0.075
f 6/85/9 24/30/9 34/3/9 7/86/9 

g Mesh2 ___501_2 Model

v 100 2.67897e-13 -380
vn 3.82857e-16 0 -1
v 100 7.5 -380
v 103 7.5 -380
v 103 2.67897e-13 -380
f 41/1/14 42/2/14 43/3/14 44/4/14 

v 100 15 -103
vn -1 -1.29122e-14 -2.39277e-17
v 100 15 -188.5
v 100 7.5 -188.5
v 100 7.5 -191.5
v 100 15 -191.5
v 100 15 -277
v 100 7.5 -277
v 100 7.5 -280
v 100 15 -280
v 100 15 -377
v 100 7.5 -377
v 100 2.62257e-13 -1.59162e-12
v 100 7.5 -1.59162e-12
v 100 7.5 -3
v 100 15 -3
v 100 15 -100
v 100 7.5 -100
v 100 7.5 -103
f 45/5/15 46/6/15 47/7/15 48/8/15 49/9/15 50/10/15 51/11/15 52/12/15 53/13/15 54/14/15 55/15/15 42/2/15 41/1/15 56/16/15 57/17/15 58/18/15 59/19/15 60/20/15 61/21/15 62/22/15 

v 103 15 -103
vn 4.27838e-31 1 3.03435e-15
v 103 15 -188.5
f 63/23/16 64/24/16 46/25/16 45/26/16 

v 103 2.62257e-13 -1.59162e-12
vn 1 1.80478e-14 8.07571e-16
v 103 7.5 -377
v 103 15 -377
v 103 15 -280
v 103 7.5 -280
v 103 7.5 -277
v 103 15 -277
v 103 15 -191.5
v 103 7.5 -191.5
v 103 7.5 -188.5
v 103 7.5 -103
v 103 7.5 -100
v 103 15 -100
v 103 15 -3
v 103 7.5 -3
v 103 7.5 -1.59162e-12
f 65/27/17 44/28/17 43/29/17 66/3/17 67/30/17 68/31/17 69/32/17 70/33/17 71/34/17 72/35/17 73/36/17 74/37/17 64/38/17 63/39/17 75/40/17 76/41/17 77/42/17 78/43/17 79/44/17 80/45/17 

vn 1.13647e-32 -1 -2.96839e-17
f 56/46/18 41/47/18 44/48/18 65/49/18 

vn 3.35421e-30 1.38051e-30 1
f 65/50/19 80/15/19 57/51/19 56/52/19 

vn -3.04951e-48 1 1.38051e-30
f 57/53/20 80/54/20 79/55/20 58/56/20 

vn 3.35421e-30 -1.38051e-30 1
f 59/57/21 58/58/21 79/15/21 78/14/21 

vn 3.85495e-30 1 -2.67461e-15
f 78/55/22 77/59/22 60/60/22 59/61/22 

vn 0 0 -1
f 60/62/23 77/30/23 76/3/23 61/63/23 

vn 0 1 -0
f 76/59/24 75/23/24 62/26/24 61/60/24 

vn 0 0 1
f 63/14/25 45/64/25 62/65/25 75/15/25 

f 42/66/24 55/67/24 66/68/24 43/69/24 

f 54/70/23 67/30/23 66/3/23 55/71/23 

vn 9.21837e-31 1 2.67461e-15
f 53/72/26 68/73/26 67/68/26 54/74/26 

vn -7.51991e-15 3.00796e-15 1
f 53/75/27 52/76/27 69/15/27 68/14/27 

f 70/77/24 69/73/24 52/72/24 51/78/24 

vn 1.50398e-14 0 -1
f 50/79/28 71/30/28 70/3/28 51/80/28 

vn 2.09641e-29 1 -3.03435e-15
f 49/81/29 72/82/29 71/77/29 50/78/29 

f 49/83/25 48/84/25 73/15/25 72/14/25 

f 74/24/24 73/82/24 48/81/24 47/25/24 

f 46/85/23 64/30/23 74/3/23 47/86/23 

g Mesh3 ___501_3 Model

v 277 2.62257e-13 -380
v 277 7.5 -380
v 280 7.5 -380
v 280 2.62257e-13 -380
f 81/1/14 82/2/14 83/3/14 84/4/14 

v 277 15 -103
v 277 15 -188.5
v 277 7.5 -188.5
v 277 7.5 -191.5
v 277 15 -191.5
v 277 15 -277
v 277 7.5 -277
v 277 7.5 -280
v 277 15 -280
v 277 15 -377
v 277 7.5 -377
v 277 2.56617e-13 -1.59162e-12
v 277 7.5 -1.59162e-12
v 277 7.5 -3
v 277 15 -3
v 277 15 -100
v 277 7.5 -100
v 277 7.5 -103
f 85/5/15 86/6/15 87/7/15 88/8/15 89/9/15 90/10/15 91/11/15 92/12/15 93/13/15 94/14/15 95/15/15 82/2/15 81/1/15 96/16/15 97/17/15 98/18/15 99/19/15 100/20/15 101/21/15 102/22/15 

v 280 15 -103
v 280 15 -188.5
f 103/23/16 104/24/16 86/25/16 85/26/16 

v 280 2.56617e-13 -1.59162e-12
v 280 7.5 -377
v 280 15 -377
v 280 15 -280
v 280 7.5 -280
v 280 7.5 -277
v 280 15 -277
v 280 15 -191.5
v 280 7.5 -191.5
v 280 7.5 -188.5
v 280 7.5 -103
v 280 7.5 -100
v 280 15 -100
v 280 15 -3
v 280 7.5 -3
v 280 7.5 -1.59162e-12
f 105/27/17 84/28/17 83/29/17 106/3/17 107/30/17 108/31/17 109/32/17 110/33/17 111/34/17 112/35/17 113/36/17 114/37/17 104/38/17 103/39/17 115/40/17 116/41/17 117/42/17 118/43/17 119/44/17 120/45/17 

f 96/46/18 81/47/18 84/48/18 105/49/18 

f 105/50/19 120/15/19 97/51/19 96/52/19 

f 97/53/20 120/54/20 119/55/20 98/56/20 

f 99/57/21 98/58/21 119/15/21 118/14/21 

f 118/55/22 117/59/22 100/60/22 99/61/22 

f 100/62/23 117/30/23 116/3/23 101/63/23 

f 116/59/24 115/23/24 102/26/24 101/60/24 

f 103/14/25 85/64/25 102/65/25 115/15/25 

f 82/66/24 95/67/24 106/68/24 83/69/24 

f 94/70/23 107/30/23 106/3/23 95/71/23 

f 93/72/26 108/73/26 107/68/26 94/74/26 

f 93/75/27 92/76/27 109/15/27 108/14/27 

f 110/77/24 109/73/24 92/72/24 91/78/24 

f 90/79/28 111/30/28 110/3/28 91/80/28 

f 89/81/29 112/82/29 111/77/29 90/78/29 

f 89/83/25 88/84/25 113/15/25 112/14/25 

f 114/24/24 113/82/24 88/81/24 87/25/24 

f 86/85/23 104/30/23 114/3/23 87/86/23 

g Mesh4 ___501_4 Model

v 9.02389e-13 2.67897e-13 -380
v 9.02389e-13 7.5 -380
v 3 7.5 -380
v 3 2.67897e-13 -380
f 121/1/14 122/2/14 123/3/14 124/4/14 

v 4.35382e-13 15 -103
v 1.19003e-12 15 -188.5
v 1.19003e-12 7.5 -188.5
v 1.19118e-12 7.5 -191.5
v 1.19118e-12 15 -191.5
v -3.94343e-14 15 -277
v -3.94343e-14 7.5 -277
v -3.82857e-14 7.5 -280
v -3.82857e-14 15 -280
v 9.01241e-13 15 -377
v 9.01241e-13 7.5 -377
v 7.56904e-13 2.62257e-13 -1.59162e-12
v 7.56904e-13 7.5 -1.59162e-12
v 7.58052e-13 7.5 -3
v 7.58052e-13 15 -3
v 4.34234e-13 15 -100
v 4.34234e-13 7.5 -100
v 4.35382e-13 7.5 -103
f 125/5/15 126/6/15 127/7/15 128/8/15 129/9/15 130/10/15 131/11/15 132/12/15 133/13/15 134/14/15 135/15/15 122/2/15 121/1/15 136/16/15 137/17/15 138/18/15 139/19/15 140/20/15 141/21/15 142/22/15 

v 3 15 -103
v 3 15 -188.5
f 143/23/16 144/24/16 126/25/16 125/26/16 

v 3 2.62257e-13 -1.59162e-12
v 3 7.5 -377
v 3 15 -377
v 3 15 -280
v 3 7.5 -280
v 3 7.5 -277
v 3 15 -277
v 3 15 -191.5
v 3 7.5 -191.5
v 3 7.5 -188.5
v 3 7.5 -103
v 3 7.5 -100
v 3 15 -100
v 3 15 -3
v 3 7.5 -3
v 3 7.5 -1.59162e-12
f 145/27/17 124/28/17 123/29/17 146/3/17 147/30/17 148/31/17 149/32/17 150/33/17 151/34/17 152/35/17 153/36/17 154/37/17 144/38/17 143/39/17 155/40/17 156/41/17 157/42/17 158/43/17 159/44/17 160/45/17 

f 136/46/18 121/47/18 124/48/18 145/49/18 

f 145/50/19 160/15/19 137/51/19 136/52/19 

f 137/53/20 160/54/20 159/55/20 138/56/20 

f 139/57/21 138/58/21 159/15/21 158/14/21 

f 158/55/22 157/59/22 140/60/22 139/61/22 

f 140/62/23 157/30/23 156/3/23 141/63/23 

f 156/59/24 155/23/24 142/26/24 141/60/24 

f 143/14/25 125/64/25 142/65/25 155/15/25 

f 122/66/24 135/67/24 146/68/24 123/69/24 

f 134/70/23 147/30/23 146/3/23 135/71/23 

f 133/72/26 148/73/26 147/68/26 134/74/26 

f 133/75/27 132/76/27 149/15/27 148/14/27 

f 150/77/24 149/73/24 132/72/24 131/78/24 

f 130/79/28 151/30/28 150/3/28 131/80/28 

f 129/81/29 152/82/29 151/77/29 130/78/29 

f 129/83/25 128/84/25 153/15/25 152/14/25 

f 154/24/24 153/82/24 128/81/24 127/25/24 

f 126/85/23 144/30/23 154/3/23 127/86/23 

g Mesh5 ___501_5 Model

v 380 15 -188.5
v 380 7.5 -188.5
v 380 7.5 -191.5
v 380 15 -191.5
f 161/1/1 162/2/1 163/3/1 164/4/1 

v 103 5.84421e-13 -188.5
v 188.5 3.81917e-13 -188.5
v 188.5 7.5 -188.5
v 191.5 7.5 -188.5
v 191.5 3.78364e-13 -188.5
v 277 6.99885e-13 -188.5
v 277 7.5 -188.5
v 280 7.5 -188.5
v 280 6.96332e-13 -188.5
v 377 5.02709e-13 -188.5
v 377 7.5 -188.5
v 1.25056e-12 15 -188.5
v 1.25056e-12 7.5 -188.5
v 3 7.5 -188.5
v 3 2.59348e-13 -188.5
v 100 5.82645e-13 -188.5
v 100 7.5 -188.5
v 103 7.5 -188.5
f 165/5/2 166/6/2 167/7/2 168/8/2 169/9/2 170/10/2 171/11/2 172/12/2 173/13/2 174/14/2 175/15/2 162/2/2 161/1/2 176/16/2 177/17/2 178/18/2 179/19/2 180/20/2 181/21/2 182/22/2 

v 103 5.84421e-13 -191.5
v 188.5 3.81917e-13 -191.5
f 183/23/3 184/24/3 166/25/3 165/26/3 

v 1.25056e-12 15 -191.5
v 377 7.5 -191.5
v 377 5.02709e-13 -191.5
v 280 6.96332e-13 -191.5
v 280 7.5 -191.5
v 277 7.5 -191.5
v 277 6.99885e-13 -191.5
v 191.5 3.78364e-13 -191.5
v 191.5 7.5 -191.5
v 188.5 7.5 -191.5
v 103 7.5 -191.5
v 100 7.5 -191.5
v 100 5.82645e-13 -191.5
v 3 2.59348e-13 -191.5
v 3 7.5 -191.5
v 1.25056e-12 7.5 -191.5
f 185/27/4 164/28/4 163/29/4 186/3/4 187/30/4 188/31/4 189/32/4 190/33/4 191/34/4 192/35/4 193/36/4 194/37/4 184/38/4 183/39/4 195/40/4 196/41/4 197/42/4 198/43/4 199/44/4 200/45/4 

f 176/46/5 161/47/5 164/48/5 185/49/5 

f 185/50/6 200/15/6 177/51/6 176/52/6 

f 177/53/7 200/54/7 199/55/7 178/56/7 

f 179/57/6 178/58/6 199/15/6 198/14/6 

f 198/55/8 197/59/8 180/60/8 179/61/8 

f 180/62/9 197/30/9 196/3/9 181/63/9 

f 196/59/7 195/23/7 182/26/7 181/60/7 

f 183/14/6 165/64/6 182/65/6 195/15/6 

f 162/66/7 175/67/7 186/68/7 163/69/7 

f 174/70/9 187/30/9 186/3/9 175/71/9 

f 173/72/10 188/73/10 187/68/10 174/74/10 

f 173/75/11 172/76/11 189/15/11 188/14/11 

f 190/77/7 189/73/7 172/72/7 171/78/7 

f 170/79/12 191/30/12 190/3/12 171/80/12 

f 169/81/13 192/82/13 191/77/13 170/78/13 

f 169/83/6 168/84/6 193/15/6 192/14/6 

f 194/24/7 193/82/7 168/81/7 167/25/7 

f 166/85/9 184/30/9 194/3/9 167/86/9 

g Mesh6 ___501_6 Model

v 377 2.62257e-13 -380
v 377 7.5 -380
v 380 7.5 -380
v 380 2.62257e-13 -380
f 201/1/14 202/2/14 203/3/14 204/4/14 

v 377 15 -103
v 377 15 -188.5
v 377 7.5 -188.5
v 377 7.5 -191.5
v 377 15 -191.5
v 377 15 -277
v 377 7.5 -277
v 377 7.5 -280
v 377 15 -280
v 377 15 -377
v 377 7.5 -377
v 377 2.56617e-13 -1.59162e-12
v 377 7.5 -1.59162e-12
v 377 7.5 -3
v 377 15 -3
v 377 15 -100
v 377 7.5 -100
v 377 7.5 -103
f 205/5/15 206/6/15 207/7/15 208/8/15 209/9/15 210/10/15 211/11/15 212/12/15 213/13/15 214/14/15 215/15/15 202/2/15 201/1/15 216/16/15 217/17/15 218/18/15 219/19/15 220/20/15 221/21/15 222/22/15 

v 380 15 -103
v 380 15 -188.5
f 223/23/16 224/24/16 206/25/16 205/26/16 

v 380 2.56617e-13 -1.59162e-12
v 380 7.5 -377
v 380 15 -377
v 380 15 -280
v 380 7.5 -280
v 380 7.5 -277
v 380 15 -277
v 380 15 -191.5
v 380 7.5 -191.5
v 380 7.5 -188.5
v 380 7.5 -103
v 380 7.5 -100
v 380 15 -100
v 380 15 -3
v 380 7.5 -3
v 380 7.5 -1.59162e-12
f 225/27/17 204/28/17 203/29/17 226/3/17 227/30/17 228/31/17 229/32/17 230/33/17 231/34/17 232/35/17 233/36/17 234/37/17 224/38/17 223/39/17 235/40/17 236/41/17 237/42/17 238/43/17 239/44/17 240/45/17 

f 216/46/18 201/47/18 204/48/18 225/49/18 

f 225/50/19 240/15/19 217/51/19 216/52/19 

f 217/53/20 240/54/20 239/55/20 218/56/20 

f 219/57/21 218/58/21 239/15/21 238/14/21 

f 238/55/22 237/59/22 220/60/22 219/61/22 

f 220/62/23 237/30/23 236/3/23 221/63/23 

f 236/59/24 235/23/24 222/26/24 221/60/24 

f 223/14/25 205/64/25 222/65/25 235/15/25 

f 202/66/24 215/67/24 226/68/24 203/69/24 

f 214/70/23 227/30/23 226/3/23 215/71/23 

f 213/72/26 228/73/26 227/68/26 214/74/26 

f 213/75/27 212/76/27 229/15/27 228/14/27 

f 230/77/24 229/73/24 212/72/24 211/78/24 

f 210/79/28 231/30/28 230/3/28 211/80/28 

f 209/81/29 232/82/29 231/77/29 210/78/29 

f 209/83/25 208/84/25 233/15/25 232/14/25 

f 234/24/24 233/82/24 208/81/24 207/25/24 

f 206/85/23 224/30/23 234/3/23 207/86/23 

g Mesh7 ___501_7 Model

v 380 15 -1.08287e-12
v 380 7.5 -1.08287e-12
v 380 7.5 -3
v 380 15 -3
f 241/1/1 242/2/1 243/3/1 244/4/1 

v 103 3.25073e-13 -5.09809e-13
v 188.5 1.22569e-13 -1.29719e-12
v 188.5 7.5 -1.29719e-12
v 191.5 7.5 -1.29949e-12
v 191.5 1.19016e-13 -1.29949e-12
v 277 4.40536e-13 -1.01609e-13
v 277 7.5 -1.01609e-13
v 280 7.5 -1.03906e-13
v 280 4.36984e-13 -1.03906e-13
v 377 2.43361e-13 -1.08057e-12
v 377 7.5 -1.08057e-12
v 5.11591e-13 15 -7.91896e-13
v 5.11591e-13 7.5 -7.91896e-13
v 3 7.5 -7.94193e-13
v 3 0 -7.94193e-13
v 100 3.23297e-13 -5.07512e-13
v 100 7.5 -5.07512e-13
v 103 7.5 -5.09809e-13
f 245/5/2 246/6/2 247/7/2 248/8/2 249/9/2 250/10/2 251/11/2 252/12/2 253/13/2 254/14/2 255/15/2 242/2/2 241/1/2 256/16/2 257/17/2 258/18/2 259/19/2 260/20/2 261/21/2 262/22/2 

v 103 3.25073e-13 -3
v 188.5 1.22569e-13 -3
f 263/23/3 264/24/3 246/25/3 245/26/3 

v 5.11591e-13 15 -3
v 377 7.5 -3
v 377 2.43361e-13 -3
v 280 4.36984e-13 -3
v 280 7.5 -3
v 277 7.5 -3
v 277 4.40536e-13 -3
v 191.5 1.19016e-13 -3
v 191.5 7.5 -3
v 188.5 7.5 -3
v 103 7.5 -3
v 100 7.5 -3
v 100 3.23297e-13 -3
v 3 0 -3
v 3 7.5 -3
v 5.11591e-13 7.5 -3
f 265/27/4 244/28/4 243/29/4 266/3/4 267/30/4 268/31/4 269/32/4 270/33/4 271/34/4 272/35/4 273/36/4 274/37/4 264/38/4 263/39/4 275/40/4 276/41/4 277/42/4 278/43/4 279/44/4 280/45/4 

f 256/46/5 241/47/5 244/48/5 265/49/5 

f 265/50/6 280/15/6 257/51/6 256/52/6 

f 257/53/7 280/54/7 279/55/7 258/56/7 

f 259/57/6 258/58/6 279/15/6 278/14/6 

f 278/55/8 277/59/8 260/60/8 259/61/8 

f 260/62/9 277/30/9 276/3/9 261/63/9 

f 276/59/7 275/23/7 262/26/7 261/60/7 

f 263/14/6 245/64/6 262/65/6 275/15/6 

f 242/66/7 255/67/7 266/68/7 243/69/7 

f 254/70/9 267/30/9 266/3/9 255/71/9 

f 253/72/10 268/73/10 267/68/10 254/74/10 

f 253/75/11 252/76/11 269/15/11 268/14/11 

f 270/77/7 269/73/7 252/72/7 251/78/7 

f 250/79/12 271/30/12 270/3/12 251/80/12 

f 249/81/13 272/82/13 271/77/13 250/78/13 

f 249/83/6 248/84/6 273/15/6 272/14/6 

f 274/24/7 273/82/7 248/81/7 247/25/7 

f 246/85/9 264/30/9 274/3/9 247/86/9 

g Mesh8 ___501_8 Model

v 380 15 -377
v 380 7.5 -377
v 380 7.5 -380
v 380 15 -380
f 281/1/1 282/2/1 283/3/1 284/4/1 

v 103 3.25073e-13 -377
v 188.5 1.22569e-13 -377
v 188.5 7.5 -377
v 191.5 7.5 -377
v 191.5 1.19016e-13 -377
v 277 4.40536e-13 -377
v 277 7.5 -377
v 280 7.5 -377
v 280 4.36984e-13 -377
v 377 2.43361e-13 -377
v 377 7.5 -377
v 5.11591e-13 15 -377
v 5.11591e-13 7.5 -377
v 3 7.5 -377
v 3 0 -377
v 100 3.23297e-13 -377
v 100 7.5 -377
v 103 7.5 -377
f 285/5/2 286/6/2 287/7/2 288/8/2 289/9/2 290/10/2 291/11/2 292/12/2 293/13/2 294/14/2 295/15/2 282/2/2 281/1/2 296/16/2 297/17/2 298/18/2 299/19/2 300/20/2 301/21/2 302/22/2 

v 103 3.25073e-13 -380
v 188.5 1.22569e-13 -380
f 303/23/3 304/24/3 286/25/3 285/26/3 

v 5.11591e-13 15 -380
v 377 7.5 -380
v 377 2.43361e-13 -380
v 280 4.36984e-13 -380
v 280 7.5 -380
v 277 7.5 -380
v 277 4.40536e-13 -380
v 191.5 1.19016e-13 -380
v 191.5 7.5 -380
v 188.5 7.5 -380
v 103 7.5 -380
v 100 7.5 -380
v 100 3.23297e-13 -380
v 3 0 -380
v 3 7.5 -380
v 5.11591e-13 7.5 -380
f 305/27/4 284/28/4 283/29/4 306/3/4 307/30/4 308/31/4 309/32/4 310/33/4 311/34/4 312/35/4 313/36/4 314/37/4 304/38/4 303/39/4 315/40/4 316/41/4 317/42/4 318/43/4 319/44/4 320/45/4 

f 296/46/5 281/47/5 284/48/5 305/49/5 

f 305/50/6 320/15/6 297/51/6 296/52/6 

f 297/53/7 320/54/7 319/55/7 298/56/7 

f 299/57/6 298/58/6 319/15/6 318/14/6 

f 318/55/8 317/59/8 300/60/8 299/61/8 

f 300/62/9 317/30/9 316/3/9 301/63/9 

f 316/59/7 315/23/7 302/26/7 301/60/7 

f 303/14/6 285/64/6 302/65/6 315/15/6 

f 282/66/7 295/67/7 306/68/7 283/69/7 

f 294/70/9 307/30/9 306/3/9 295/71/9 

f 293/72/10 308/73/10 307/68/10 294/74/10 

f 293/75/11 292/76/11 309/15/11 308/14/11 

f 310/77/7 309/73/7 292/72/7 291/78/7 

f 290/79/12 311/30/12 310/3/12 291/80/12 

f 289/81/13 312/82/13 311/77/13 290/78/13 

f 289/83/6 288/84/6 313/15/6 312/14/6 

f 314/24/7 313/82/7 288/81/7 287/25/7 

f 286/85/9 304/30/9 314/3/9 287/86/9 

g Mesh9 ___501_9 Model

v 188.5 1.38178e-13 -380
v 188.5 7.5 -380
v 191.5 7.5 -380
v 191.5 1.38178e-13 -380
f 321/1/14 322/2/14 323/3/14 324/4/14 

v 188.5 15 -103
v 188.5 15 -188.5
v 188.5 7.5 -188.5
v 188.5 7.5 -191.5
v 188.5 15 -191.5
v 188.5 15 -277
v 188.5 7.5 -277
v 188.5 7.5 -280
v 188.5 15 -280
v 188.5 15 -377
v 188.5 7.5 -377
v 188.5 1.32538e-13 -1.25056e-12
v 188.5 7.5 -1.25056e-12
v 188.5 7.5 -3
v 188.5 15 -3
v 188.5 15 -100
v 188.5 7.5 -100
v 188.5 7.5 -103
f 325/5/15 326/6/15 327/7/15 328/8/15 329/9/15 330/10/15 331/11/15 332/12/15 333/13/15 334/14/15 335/15/15 322/2/15 321/1/15 336/16/15 337/17/15 338/18/15 339/19/15 340/20/15 341/21/15 342/22/15 

v 191.5 15 -103
v 191.5 15 -188.5
f 343/23/16 344/24/16 326/25/16 325/26/16 

v 191.5 1.32538e-13 -1.25056e-12
v 191.5 7.5 -377
v 191.5 15 -377
v 191.5 15 -280
v 191.5 7.5 -280
v 191.5 7.5 -277
v 191.5 15 -277
v 191.5 15 -191.5
v 191.5 7.5 -191.5
v 191.5 7.5 -188.5
v 191.5 7.5 -103
v 191.5 7.5 -100
v 191.5 15 -100
v 191.5 15 -3
v 191.5 7.5 -3
v 191.5 7.5 -1.25056e-12
f 345/27/17 324/28/17 323/29/17 346/3/17 347/30/17 348/31/17 349/32/17 350/33/17 351/34/17 352/35/17 353/36/17 354/37/17 344/38/17 343/39/17 355/40/17 356/41/17 357/42/17 358/43/17 359/44/17 360/45/17 

f 336/46/18 321/47/18 324/48/18 345/49/18 

f 345/50/19 360/15/19 337/51/19 336/52/19 

f 337/53/20 360/54/20 359/55/20 338/56/20 

f 339/57/21 338/58/21 359/15/21 358/14/21 

f 358/55/22 357/59/22 340/60/22 339/61/22 

f 340/62/23 357/30/23 356/3/23 341/63/23 

f 356/59/24 355/23/24 342/26/24 341/60/24 

f 343/14/25 325/64/25 342/65/25 355/15/25 

f 322/66/24 335/67/24 346/68/24 323/69/24 

f 334/70/23 347/30/23 346/3/23 335/71/23 

f 333/72/26 348/73/26 347/68/26 334/74/26 

f 333/75/27 332/76/27 349/15/27 348/14/27 

f 350/77/24 349/73/24 332/72/24 331/78/24 

f 330/79/28 351/30/28 350/3/28 331/80/28 

f 329/81/29 352/82/29 351/77/29 330/78/29 

f 329/83/25 328/84/25 353/15/25 352/14/25 

f 354/24/24 353/82/24 328/81/24 327/25/24 

f 326/85/23 344/30/23 354/3/23 327/86/23 

g Mesh10 ___505_1 Model

v 348 18 -152.522
vt 6.95652 1.52522
vn 1.11314e-17 1 -1.11314e-17
v 342 18 -227.478
vt 6.83658 2.27478
v 342 18 -152.522
vt 6.83658 1.52522
f 361/87/30 362/88/30 363/89/30

v 348 18 -227.478
vt 6.95652 2.27478
f 362/88/30 361/87/30 364/90/30

v 362 18 -152.522
vt 7.23638 1.52522
f 364/90/30 361/87/30 365/91/30

v 348 18 -149.522
vt 6.95652 1.49522
vn 7.03851e-16 1 5.86796e-16
v 365 18 -149.522
vt 7.29635 1.49522
v 365 18 -152.522
vt 7.29635 1.52522
f 366/92/31 367/93/31 368/94/31 365/91/31 361/87/31 

v 352.375 18 -136.256
vt 7.04398 1.36256
f 366/92/30 369/95/30 367/93/30

v 352.375 18 -126.918
vt 7.04398 1.26918
f 369/95/30 366/92/30 370/96/30

v 342 18 -149.522
vt 6.83658 1.49522
f 371/97/30 370/96/30 366/92/30

v 380 18 -1.80481e-12
vt 7.5962 -5.09243e-32
f 371/97/30 372/98/30 370/96/30

v 337.625 18 -136.256
vt 6.74912 1.36256
f 373/99/30 372/98/30 371/97/30

v 337.625 18 -126.918
vt 6.74912 1.26918
f 374/100/30 372/98/30 373/99/30

v 335.625 18 -126.918
vt 6.70914 1.26918
f 375/101/30 372/98/30 374/100/30

v 325 18 -152.522
vt 6.49675 1.52522
f 376/102/30 372/98/30 375/101/30

v 325 18 -149.522
vt 6.49675 1.49522
f 377/103/30 372/98/30 376/102/30

v 325 18 -125.5
vt 6.49675 1.255
f 378/104/30 372/98/30 377/103/30

v 325 18 -115.5
vt 6.49675 1.155
f 379/105/30 372/98/30 378/104/30

v 325 18 -97.5
vt 6.49675 0.975
f 380/106/30 372/98/30 379/105/30

v 322 18 -97.5
vt 6.43678 0.975
f 381/107/30 372/98/30 380/106/30

v 305.75 18 -97.5
vt 6.11194 0.975
f 382/108/30 372/98/30 381/107/30

v 295.75 18 -97.5
vt 5.91204 0.975
f 383/109/30 372/98/30 382/108/30

v 282.5 18 -82.75
vt 5.64717 0.8275
f 384/110/30 372/98/30 383/109/30

v 282.5 18 -77.75
vt 5.64717 0.7775
f 385/111/30 372/98/30 384/110/30

v 282.5 18 -58
vt 5.64717 0.58
f 386/112/30 372/98/30 385/111/30

v 282.5 18 -55
vt 5.64717 0.55
f 387/113/30 372/98/30 386/112/30

v 257.5 18 -55
vt 5.14743 0.55
f 388/114/30 372/98/30 387/113/30

v 247.5 18 -55
vt 4.94752 0.55
f 389/115/30 372/98/30 388/114/30

v 230.478 18 -43
vt 4.60726 0.43
f 390/116/30 372/98/30 389/115/30

v 230.478 18 -34
vt 4.60726 0.34
f 391/117/30 372/98/30 390/116/30

v 228.478 18 -34
vt 4.56728 0.34
f 392/118/30 372/98/30 391/117/30

v 151.522 17.9997 -43
vt 3.02892 0.43
f 393/119/30 372/98/30 392/118/30

v 151.522 17.9997 -34
vt 3.02892 0.34
f 394/120/30 372/98/30 393/119/30

v 149.522 17.9997 -34
vt 2.98894 0.34
f 395/121/30 372/98/30 394/120/30

v 9.02389e-13 18 -1.94017e-12
vt -6.67553e-19 1.35358e-15
f 395/121/30 396/122/30 372/98/30

v 97.5 18 -55
vt 1.94902 0.55
f 397/123/30 396/122/30 395/121/30

v 25.6249 18 -102.594
vt 0.512241 1.02594
f 398/124/30 396/122/30 397/123/30

v 15 18 -149.522
vt 0.29985 1.49522
f 399/125/30 396/122/30 398/124/30

v 1.08287e-12 18 -380
vt 3.60708e-15 3.8
f 396/122/30 399/125/30 400/126/30

v 15 18 -230.478
vt 0.29985 2.30478
f 401/127/30 400/126/30 399/125/30

v 25.6248 18 -253.082
vt 0.51224 2.53082
f 402/128/30 400/126/30 401/127/30

v 55 18 -282.5
vt 1.09945 2.825
f 403/129/30 400/126/30 402/128/30

v 97.5 18 -325
vt 1.94902 3.25
f 404/130/30 400/126/30 403/129/30

v 149.522 17.9997 -346
vt 2.98894 3.46
f 405/131/30 400/126/30 404/130/30

v 380 18 -380
vt 7.5962 3.8
f 400/126/30 405/131/30 406/132/30

v 151.522 17.9997 -346
vt 3.02892 3.46
f 406/132/30 405/131/30 407/133/30

v 149.522 17.9997 -337
vt 2.98894 3.37
v 151.522 17.9997 -337
vt 3.02892 3.37
f 408/134/24 409/135/24 407/133/24 405/131/24 

v 247.5 18 -325
vt 4.94752 3.25
f 408/134/30 410/136/30 409/135/30

v 132.5 18 -325
vt 2.64867 3.25
f 410/136/30 408/134/30 411/137/30

f 405/131/30 411/137/30 408/134/30

v 122.5 18 -325
vt 2.44877 3.25
f 405/131/30 412/138/30 411/137/30

f 405/131/30 404/130/30 412/138/30

v 97.5 18 -322
vt 1.94902 3.22
v 100.5 18 -322
vt 2.00899 3.22
v 122.5 18 -322
vt 2.44877 3.22
f 412/138/24 404/130/24 413/139/24 414/140/24 415/141/24 

v 84.25 18 -282.5
vt 1.68416 2.825
f 404/130/30 416/142/30 413/139/30

v 74.25 18 -282.5
vt 1.48426 2.825
f 404/130/30 417/143/30 416/142/30

v 58 18 -282.5
vt 1.15942 2.825
f 404/130/30 418/144/30 417/143/30

f 404/130/30 403/129/30 418/144/30

vn -5.67235e-16 1 8.91369e-17
v 55 18 -264.5
vt 1.09945 2.645
v 58 18 -264.5
vt 1.15942 2.645
v 58 18 -279.5
vt 1.15942 2.795
f 403/129/32 419/145/32 420/146/32 421/147/32 418/144/32 

v 44.3752 18 -253.082
vt 0.88706 2.53082
f 403/129/30 422/148/30 419/145/30

v 42.3753 18 -253.082
vt 0.847082 2.53082
f 403/129/30 423/149/30 422/148/30

v 32 18 -230.478
vt 0.63968 2.30478
f 403/129/30 424/150/30 423/149/30

v 27.6247 18 -253.082
vt 0.552218 2.53082
f 403/129/30 425/151/30 424/150/30

f 403/129/30 402/128/30 425/151/30

v 25.6248 18 -243.744
vt 0.51224 2.43744
v 27.6247 18 -243.744
vt 0.552218 2.43744
f 402/128/24 426/152/24 427/153/24 425/151/24 

f 402/128/30 401/127/30 426/152/30

f 424/150/30 426/152/30 401/127/30

f 426/152/30 424/150/30 427/153/30

f 427/153/30 424/150/30 425/151/30

v 15 18 -227.478
vt 0.29985 2.27478
vn -9.36442e-16 1 -2.13892e-15
v 18 18 -227.478
vt 0.35982 2.27478
v 32 18 -227.478
vt 0.63968 2.27478
f 428/154/33 429/155/33 430/156/33 424/150/33 401/127/33 

v 15 18 -197.478
vt 0.29985 1.97478
v 18 18 -197.478
vt 0.35982 1.97478
f 428/154/24 431/157/24 432/158/24 429/155/24 

f 401/127/30 431/157/30 428/154/30

v 15 18 -182.522
vt 0.29985 1.82522
f 401/127/30 433/159/30 431/157/30

v 15 18 -152.522
vt 0.29985 1.52522
f 401/127/30 434/160/30 433/159/30

f 401/127/30 399/125/30 434/160/30

v 27.6246 18 -149.522
vt 0.552216 1.49522
vn -8.5652e-16 1 -1.9288e-15
v 32 18 -149.522
vt 0.63968 1.49522
v 32 18 -152.522
vt 0.63968 1.52522
v 18 18 -152.522
vt 0.35982 1.52522
v 25.6249 18 -149.522
vt 0.512241 1.49522
f 435/161/34 436/162/34 437/163/34 438/164/34 434/160/34 399/125/34 439/165/34 

v 27.6247 18 -136.256
vt 0.552218 1.36256
f 436/162/30 435/161/30 440/166/30

vn -2.40875e-10 1 -1.39477e-10
v 25.6248 18 -136.256
vt 0.51224 1.36256
f 439/165/35 441/167/35 440/166/35 435/161/35 

f 399/125/30 441/167/30 439/165/30

v 25.6248 18 -126.918
vt 0.51224 1.26918
f 441/167/30 399/125/30 442/168/30

f 399/125/30 398/124/30 442/168/30

v 27.6246 18 -102.594
vt 0.552216 1.02594
vn -1.21039e-09 1 -3.6513e-12
v 27.6247 18 -126.918
vt 0.552218 1.26918
f 443/169/36 444/170/36 442/168/36 398/124/36 

v 55 18 -97.5
vt 1.09945 0.975
f 443/169/30 445/171/30 444/170/30

f 443/169/30 397/123/30 445/171/30

f 398/124/30 397/123/30 443/169/30

v 58 18 -97.5
vt 1.15942 0.975
f 445/171/30 397/123/30 446/172/30

v 74.25 18 -97.5
vt 1.48426 0.975
f 446/172/30 397/123/30 447/173/30

v 84.25 18 -97.5
vt 1.68416 0.975
f 447/173/30 397/123/30 448/174/30

v 97.5 18 -58
vt 1.94902 0.58
f 449/175/30 448/174/30 397/123/30

v 97.5 18 -97.5
vt 1.94903 0.975
f 448/174/30 449/175/30 450/176/30

v 97.5 18 -82.75
vt 1.94903 0.8275
f 450/176/30 449/175/30 451/177/30

v 97.5 18 -77.75
vt 1.94903 0.7775
f 451/177/30 449/175/30 452/178/30

v 100.5 18 -58
vt 2.00899 0.58
vn -4.41275e-29 1 5.71132e-16
v 100.5 18 -77.75
vt 2.00899 0.7775
f 453/179/37 454/180/37 452/178/37 449/175/37 

v 279.5 18 -97.5
vt 5.5872 0.975
vn 3.68727e-17 1 1.17244e-16
v 279.5 18 -100.5
vt 5.5872 1.005
v 100.5 18 -100.5
vt 2.009 1.005
v 100.5 18 -97.5
vt 2.00899 0.975
v 100.5 18 -82.75
vt 2.00899 0.8275
v 122.5 18 -58
vt 2.44877 0.58
v 132.5 18 -58
vt 2.64867 0.58
v 247.5 18 -58
vt 4.94752 0.58
v 257.5 18 -58
vt 5.14743 0.58
v 279.5 18 -58
vt 5.5872 0.58
v 279.5 18 -77.75
vt 5.58721 0.7775
v 279.5 18 -82.75
vt 5.58721 0.8275
f 455/181/38 456/182/38 457/183/38 458/184/38 459/185/38 454/180/38 453/179/38 460/186/38 461/187/38 462/188/38 463/189/38 464/190/38 465/191/38 466/192/38 

vn 6.84362e-17 1 -4.34764e-15
v 282.5 18 -97.5
vt 5.64717 0.975
v 295.75 18 -100.5
vt 5.91204 1.005
f 455/181/39 467/193/39 383/109/39 468/194/39 456/182/39 

vn -8.03083e-31 1 2.86776e-15
f 455/181/40 466/192/40 384/110/40 467/193/40 

vn 4.69994e-16 1 2.81997e-16
f 385/111/41 384/110/41 466/192/41 465/191/41 

vn 4.22995e-15 1 -1.64201e-15
f 386/112/42 385/111/42 465/191/42 464/190/42 

vn -2.08531e-16 1 2.28652e-15
f 386/112/43 464/190/43 463/189/43 388/114/43 387/113/43 

f 463/189/24 462/188/24 389/115/24 388/114/24 

v 132.5 18 -55
vt 2.64867 0.55
f 462/188/24 461/187/24 469/195/24 389/115/24 

v 122.5 18 -55
vt 2.44877 0.55
f 461/187/24 460/186/24 470/196/24 469/195/24 

f 397/123/24 470/196/24 460/186/24 453/179/24 449/175/24 

f 397/123/30 395/121/30 470/196/30

f 470/196/30 395/121/30 469/195/30

v 149.522 17.9997 -43
vt 2.98894 0.43
f 471/197/30 469/195/30 395/121/30

f 469/195/30 471/197/30 389/115/30

f 389/115/30 471/197/30 393/119/30

f 393/119/24 471/197/24 395/121/24 394/120/24 

v 228.478 18 -43
vt 4.56728 0.43
f 389/115/30 393/119/30 472/198/30

f 472/198/30 393/119/30 392/118/30

f 391/117/24 390/116/24 472/198/24 392/118/24 

f 389/115/30 472/198/30 390/116/30

f 383/109/30 467/193/30 384/110/30

vn 1.40998e-16 1 4.69994e-16
v 305.75 18 -100.5
vt 6.11194 1.005
f 383/109/44 382/108/44 473/199/44 468/194/44 

v 322 18 -100.5
vt 6.43678 1.005
vn 6.07377e-16 1 4.69994e-16
f 474/200/45 473/199/45 382/108/45 381/107/45 

v 305.75 18 -279.5
vt 6.11194 2.795
vn 7.4351e-19 1 -1.51125e-18
f 475/201/46 473/199/46 474/200/46

v 295.75 18 -279.5
vt 5.91204 2.795
f 476/202/46 473/199/46 475/201/46

f 476/202/46 468/194/46 473/199/46

v 295.226 18 -233.635
vt 5.90156 2.33635
f 476/202/46 477/203/46 468/194/46

v 292.226 18 -233.635
vt 5.84159 2.33635
f 476/202/46 478/204/46 477/203/46

v 279.5 18 -279.5
vt 5.5872 2.795
f 479/205/46 478/204/46 476/202/46

v 292.226 18 -146.365
vt 5.84159 1.46365
f 478/204/46 479/205/46 480/206/46

f 479/205/46 468/194/46 480/206/46

f 479/205/46 456/182/46 468/194/46

v 231.875 18 -253.5
vt 4.63518 2.535
f 479/205/46 481/207/46 456/182/46

v 228.875 18 -253.5
vt 4.57521 2.535
f 479/205/46 482/208/46 481/207/46

v 151.125 18 -253.5
vt 3.02099 2.535
f 479/205/46 483/209/46 482/208/46

v 148.125 18 -253.5
vt 2.96102 2.535
f 479/205/46 484/210/46 483/209/46

v 100.5 18 -279.5
vt 2.009 2.795
f 485/211/46 484/210/46 479/205/46

v 148.125 18 -126.5
vt 2.96102 1.265
f 484/210/46 485/211/46 486/212/46

f 485/211/46 457/183/46 486/212/46

v 87.7743 18 -233.635
vt 1.75461 2.33635
f 485/211/46 487/213/46 457/183/46

v 84.7743 18 -233.635
vt 1.69464 2.33635
f 485/211/46 488/214/46 487/213/46

v 84.25 18 -279.5
vt 1.68416 2.795
f 489/215/46 488/214/46 485/211/46

v 84.7743 18 -146.365
vt 1.69464 1.46365
f 488/214/46 489/215/46 490/216/46

v 84.25 18 -100.5
vt 1.68416 1.005
f 489/215/46 491/217/46 490/216/46

v 74.25 18 -279.5
vt 1.48426 2.795
f 492/218/46 491/217/46 489/215/46

v 74.25 18 -100.5
vt 1.48426 1.005
f 492/218/46 493/219/46 491/217/46

f 421/147/46 493/219/46 492/218/46

v 58 18 -100.5
vt 1.15942 1.005
f 421/147/46 494/220/46 493/219/46

f 420/146/46 494/220/46 421/147/46

v 58 18 -254.5
vt 1.15942 2.545
f 495/221/46 494/220/46 420/146/46

v 58 18 -125.5
vt 1.15942 1.255
f 496/222/46 494/220/46 495/221/46

v 58 18 -115.5
vt 1.15942 1.155
f 494/220/46 496/222/46 497/223/46

v 55 18 -125.5
vt 1.09945 1.255
v 55 18 -115.5
vt 1.09945 1.155
f 497/223/24 496/222/24 498/224/24 499/225/24 

vn 1.56665e-15 1 -4.65025e-17
v 55 18 -254.5
vt 1.09945 2.545
v 55 18 -230.478
vt 1.09945 2.30478
v 55 18 -227.478
vt 1.09945 2.27478
v 55 18 -152.522
vt 1.09945 1.52522
v 55 18 -149.522
vt 1.09945 1.49522
f 496/222/47 495/221/47 500/226/47 501/227/47 502/228/47 503/229/47 504/230/47 498/224/47 

f 419/145/24 500/226/24 495/221/24 420/146/24 

f 419/145/30 501/227/30 500/226/30

f 419/145/30 422/148/30 501/227/30

v 44.3752 18 -243.744
vt 0.88706 2.43744
f 505/231/30 501/227/30 422/148/30

v 42.3753 18 -243.744
vt 0.847082 2.43744
f 506/232/30 501/227/30 505/231/30

v 38 18 -230.478
vt 0.75962 2.30478
f 501/227/30 506/232/30 507/233/30

f 423/149/30 507/233/30 506/232/30

f 423/149/30 424/150/30 507/233/30

vn -4.69994e-16 1 -9.39989e-16
v 38 18 -227.478
vt 0.75962 2.27478
f 507/233/48 424/150/48 430/156/48 508/234/48 

vn -2.1692e-16 1 -9.31268e-17
v 18 18 -182.522
vt 0.35982 1.82522
v 38 18 -152.522
vt 0.75962 1.52522
f 430/156/49 429/155/49 432/158/49 509/235/49 438/164/49 437/163/49 510/236/49 503/229/49 502/228/49 508/234/49 

f 509/235/24 432/158/24 431/157/24 433/159/24 

f 438/164/24 509/235/24 433/159/24 434/160/24 

vn -4.69994e-16 1 9.39989e-16
v 38 18 -149.522
vt 0.75962 1.49522
f 510/236/50 437/163/50 436/162/50 511/237/50 

v 42.3753 18 -126.918
vt 0.847082 1.26918
f 436/162/30 512/238/30 511/237/30

f 436/162/30 445/171/30 512/238/30

f 440/166/30 445/171/30 436/162/30

f 444/170/30 445/171/30 440/166/30

vn -2.40847e-10 1 -5.15839e-11
f 444/170/51 440/166/51 441/167/51 442/168/51 

v 44.3752 18 -126.918
vt 0.88706 1.26918
f 512/238/30 445/171/30 513/239/30

v 44.3752 18 -136.256
vt 0.88706 1.36256
f 513/239/30 445/171/30 514/240/30

f 514/240/30 445/171/30 499/225/30

vn -5.67235e-16 1 -8.91369e-17
f 494/220/52 497/223/52 499/225/52 445/171/52 446/172/52 

vn -6.07377e-16 1 4.69994e-16
f 446/172/53 447/173/53 493/219/53 494/220/53 

vn -1.40998e-16 1 4.69994e-16
f 447/173/54 448/174/54 491/217/54 493/219/54 

vn -6.84362e-17 1 -4.34764e-15
f 457/183/55 491/217/55 448/174/55 450/176/55 458/184/55 

f 490/216/46 491/217/46 457/183/46

v 87.7743 18 -146.365
vt 1.75461 1.46365
f 490/216/46 457/183/46 515/241/46

v 87.7743 18 -153.365
vt 1.75461 1.53365
f 515/241/46 457/183/46 516/242/46

v 87.7743 18 -226.635
vt 1.75461 2.26635
f 516/242/46 457/183/46 517/243/46

f 517/243/46 457/183/46 487/213/46

v 84.7743 18 -226.635
vt 1.69464 2.26635
f 517/243/24 487/213/24 488/214/24 518/244/24 

v 84.7743 18 -153.365
vt 1.69464 1.53365
f 488/214/46 519/245/46 518/244/46

f 488/214/46 490/216/46 519/245/46

f 515/241/24 516/242/24 519/245/24 490/216/24 

f 516/242/46 518/244/46 519/245/46

f 518/244/46 516/242/46 517/243/46

vn 4.69994e-16 1 6.69145e-16
f 450/176/56 451/177/56 459/185/56 458/184/56 

f 454/180/41 459/185/41 451/177/41 452/178/41 

f 504/230/30 514/240/30 499/225/30

v 42.3753 18 -136.256
vt 0.847082 1.36256
f 504/230/30 520/246/30 514/240/30

f 511/237/30 520/246/30 504/230/30

f 520/246/30 511/237/30 512/238/30

f 520/246/24 512/238/24 513/239/24 514/240/24 

vn 4.97641e-16 1 4.69994e-15
f 503/229/57 510/236/57 511/237/57 504/230/57 

f 504/230/30 499/225/30 498/224/30

vn 1.32704e-15 1 2.28691e-31
f 501/227/58 507/233/58 508/234/58 502/228/58 

vn 2.40847e-10 1 5.15839e-11
f 506/232/59 505/231/59 422/148/59 423/149/59 

vn -6.07377e-16 1 -4.69994e-16
f 417/143/60 418/144/60 421/147/60 492/218/60 

vn -1.40998e-16 1 -4.69994e-16
f 416/142/61 417/143/61 492/218/61 489/215/61 

vn -6.84362e-17 1 4.34764e-15
v 100.5 18 -282.5
vt 2.00899 2.825
v 97.5 18 -282.5
vt 1.94903 2.825
f 489/215/62 485/211/62 521/247/62 522/248/62 416/142/62 

vn 5.372e-17 1 -1.17244e-16
v 279.5 18 -282.5
vt 5.5872 2.825
v 279.5 18 -297.25
vt 5.58721 2.9725
v 279.5 18 -302.25
vt 5.58721 3.0225
v 279.5 18 -322
vt 5.5872 3.22
v 257.5 18 -322
vt 5.14743 3.22
v 247.5 18 -322
vt 4.94752 3.22
v 132.5 18 -322
vt 2.64867 3.22
v 100.5 18 -302.25
vt 2.00899 3.0225
v 100.5 18 -297.25
vt 2.00899 2.9725
f 521/247/63 485/211/63 479/205/63 523/249/63 524/250/63 525/251/63 526/252/63 527/253/63 528/254/63 529/255/63 415/141/63 414/140/63 530/256/63 531/257/63 

v 282.5 18 -282.5
vt 5.64717 2.825
vn -1.11417e-16 1 4.2934e-15
v 295.75 18 -282.5
vt 5.91204 2.825
f 532/258/64 523/249/64 479/205/64 476/202/64 533/259/64 

vn -8.02728e-31 1 -2.86776e-15
v 282.5 18 -297.25
vt 5.64717 2.9725
f 524/250/65 523/249/65 532/258/65 534/260/65 

f 533/259/30 534/260/30 532/258/30

v 282.5 18 -302.25
vt 5.64717 3.0225
f 534/260/30 533/259/30 535/261/30

f 406/132/30 535/261/30 533/259/30

v 282.5 18 -325
vt 5.64717 3.25
f 406/132/30 536/262/30 535/261/30

v 257.5 18 -325
vt 5.14743 3.25
f 406/132/30 537/263/30 536/262/30

f 406/132/30 410/136/30 537/263/30

v 230.478 18 -346
vt 4.60726 3.46
f 406/132/30 538/264/30 410/136/30

v 228.478 18 -346
vt 4.56728 3.46
f 406/132/30 539/265/30 538/264/30

f 406/132/30 407/133/30 539/265/30

v 228.478 18 -337
vt 4.56728 3.37
f 539/265/30 407/133/30 540/266/30

f 407/133/30 410/136/30 540/266/30

f 409/135/30 410/136/30 407/133/30

v 230.478 18 -337
vt 4.60726 3.37
f 540/266/30 410/136/30 541/267/30

f 541/267/30 410/136/30 538/264/30

f 541/267/24 538/264/24 539/265/24 540/266/24 

f 528/254/24 527/253/24 537/263/24 410/136/24 

vn -2.08531e-16 1 -2.28652e-15
v 282.5 18 -322
vt 5.64717 3.22
f 526/252/66 542/268/66 536/262/66 537/263/66 527/253/66 

vn 4.22995e-15 1 1.64201e-15
f 535/261/67 542/268/67 526/252/67 525/251/67 

f 535/261/30 536/262/30 542/268/30

vn 4.69994e-16 1 -2.81997e-16
f 534/260/68 535/261/68 525/251/68 524/250/68 

f 529/255/24 528/254/24 410/136/24 411/137/24 

f 415/141/24 529/255/24 411/137/24 412/138/24 

v 305.75 18 -282.5
vt 6.11194 2.825
f 406/132/30 533/259/30 543/269/30

vn 1.40998e-16 1 -4.69994e-16
f 543/269/69 533/259/69 476/202/69 475/201/69 

vn 6.07377e-16 1 -4.69994e-16
v 322 18 -279.5
vt 6.43678 2.795
v 322 18 -282.5
vt 6.43678 2.825
f 475/201/70 544/270/70 545/271/70 543/269/70 

f 475/201/46 474/200/46 544/270/46

v 322 18 -115.5
vt 6.43678 1.155
f 544/270/46 474/200/46 546/272/46

vn 5.67235e-16 1 -8.91369e-17
f 546/272/71 474/200/71 381/107/71 380/106/71 379/105/71 

v 322 18 -125.5
vt 6.43678 1.255
f 547/273/24 546/272/24 379/105/24 378/104/24 

v 322 18 -264.5
vt 6.43678 2.645
f 548/274/46 546/272/46 547/273/46

f 544/270/46 546/272/46 548/274/46

v 325 18 -264.5
vt 6.49675 2.645
vn 5.67235e-16 1 8.91369e-17
v 325 18 -282.5
vt 6.49675 2.825
f 549/275/72 550/276/72 545/271/72 544/270/72 548/274/72 

f 406/132/30 550/276/30 549/275/30

f 406/132/30 545/271/30 550/276/30

f 406/132/30 543/269/30 545/271/30

v 335.625 18 -253.082
vt 6.70914 2.53082
f 406/132/30 549/275/30 551/277/30

f 551/277/30 549/275/30 375/101/30

v 325 18 -254.5
vt 6.49675 2.545
f 552/278/30 375/101/30 549/275/30

v 325 18 -230.478
vt 6.49675 2.30478
f 553/279/30 375/101/30 552/278/30

v 325 18 -227.478
vt 6.49675 2.27478
f 554/280/30 375/101/30 553/279/30

f 376/102/30 375/101/30 554/280/30

v 322 18 -254.5
vt 6.43678 2.545
vn -1.56665e-15 1 -4.65025e-17
f 555/281/73 547/273/73 378/104/73 377/103/73 376/102/73 554/280/73 553/279/73 552/278/73 

f 548/274/46 547/273/46 555/281/46

f 552/278/24 549/275/24 548/274/24 555/281/24 

vn -4.97641e-16 1 4.69994e-15
f 363/89/74 376/102/74 377/103/74 371/97/74 

v 362 18 -227.478
vt 7.23638 2.27478
vn 2.1692e-16 1 -9.31268e-17
v 362 18 -182.522
vt 7.23638 1.82522
v 362 18 -197.478
vt 7.23638 1.97478
f 556/282/75 364/90/75 362/88/75 554/280/75 376/102/75 363/89/75 361/87/75 365/91/75 557/283/75 558/284/75 

vn 9.36442e-16 1 -2.13892e-15
v 365 18 -227.478
vt 7.29635 2.27478
v 365 18 -230.478
vt 7.29635 2.30478
v 348 18 -230.478
vt 6.95652 2.30478
f 556/282/76 559/285/76 560/286/76 561/287/76 364/90/76 

f 406/132/30 556/282/30 559/285/30

v 354.375 18 -253.082
vt 7.08396 2.53082
f 406/132/30 562/288/30 556/282/30

v 352.375 18 -253.082
vt 7.04398 2.53082
f 406/132/30 563/289/30 562/288/30

v 342 18 -230.478
vt 6.83658 2.30478
f 406/132/30 564/290/30 563/289/30

v 337.625 18 -253.082
vt 6.74912 2.53082
f 406/132/30 565/291/30 564/290/30

f 406/132/30 551/277/30 565/291/30

v 337.625 18 -243.744
vt 6.74912 2.43744
v 335.625 18 -243.744
vt 6.70914 2.43744
f 566/292/24 565/291/24 551/277/24 567/293/24 

f 566/292/30 371/97/30 565/291/30

f 373/99/30 371/97/30 566/292/30

f 567/293/30 373/99/30 566/292/30

v 335.625 18 -136.256
vt 6.70914 1.36256
f 373/99/30 567/293/30 568/294/30

f 551/277/30 568/294/30 567/293/30

f 551/277/30 375/101/30 568/294/30

f 373/99/24 568/294/24 375/101/24 374/100/24 

f 564/290/30 565/291/30 371/97/30

f 564/290/30 371/97/30 363/89/30

vn 4.69994e-16 1 9.39989e-16
f 361/87/77 363/89/77 371/97/77 366/92/77 

f 564/290/30 363/89/30 362/88/30

vn 4.69994e-16 1 -9.39989e-16
f 561/287/78 564/290/78 362/88/78 364/90/78 

f 563/289/30 564/290/30 561/287/30

v 352.375 18 -243.744
vt 7.04398 2.43744
f 563/289/30 561/287/30 569/295/30

f 561/287/30 365/91/30 569/295/30

f 364/90/30 365/91/30 561/287/30

v 354.375 18 -243.744
vt 7.08396 2.43744
f 569/295/30 365/91/30 570/296/30

f 570/296/30 365/91/30 562/288/30

f 556/282/30 562/288/30 365/91/30

f 556/282/30 365/91/30 557/283/30

f 368/94/30 557/283/30 365/91/30

v 365 18 -182.522
vt 7.29635 1.82522
f 557/283/30 368/94/30 571/297/30

f 368/94/30 372/98/30 571/297/30

f 367/93/30 372/98/30 368/94/30

v 354.375 18 -136.256
vt 7.08396 1.36256
f 572/298/30 372/98/30 367/93/30

v 354.375 18 -126.918
vt 7.08396 1.26918
f 573/299/30 372/98/30 572/298/30

f 370/96/30 372/98/30 573/299/30

f 369/95/24 370/96/24 573/299/24 572/298/24 

f 367/93/30 369/95/30 572/298/30

v 365 18 -197.478
vt 7.29635 1.97478
f 571/297/30 372/98/30 574/300/30

f 574/300/30 372/98/30 559/285/30

f 406/132/30 559/285/30 372/98/30

vn 1 -1.11314e-17 3.56206e-16
vt 2.70648e-15 0.03
v 380 15 -1.80478e-12
vt 2.70581e-15 4.22995e-17
v 380 15 -380
vt 7.5962 4.22995e-17
f 406/54/79 372/301/79 575/302/79 576/303/79 

vn -3.56206e-16 1.11314e-17 1
vt -9.64066e-31 0.03
v 9.02389e-13 15 -1.94014e-12
vt -9.63828e-31 8.4599e-17
vt 7.5962 1.50673e-32
f 372/54/80 396/304/80 577/305/80 575/306/80 

vt -2.70648e-15 0.03
vn -1 1.11314e-17 -3.56206e-16
v 1.08287e-12 15 -380
vt -7.5962 5.02245e-33
vt -2.70581e-15 8.4599e-17
f 396/307/81 400/49/81 578/308/81 577/309/81 

vt -9.01938e-16 0.03
vn 3.56206e-16 -1.11314e-17 -1
vt -7.5962 4.22995e-17
vt -9.01938e-16 4.22995e-17
f 400/310/82 406/49/82 576/311/82 578/312/82 

vt -3.60775e-15 3.8
vn -1.11314e-17 -1 1.11314e-17
vt -7.5962 3.8
vt -7.5962 -4.70855e-34
vt 1.88248e-33 1.35358e-15
f 578/313/83 576/314/83 575/315/83 577/316/83 

f 574/300/24 559/285/24 556/282/24 558/284/24 

f 556/282/30 557/283/30 558/284/30

f 558/284/24 557/283/24 571/297/24 574/300/24 

f 557/283/24 365/91/24 368/94/24 571/297/24 

f 562/288/24 563/289/24 569/295/24 570/296/24 

vn -1.32704e-15 1 2.28691e-31
f 564/290/84 553/279/84 554/280/84 362/88/84 

vn -4.41269e-29 1 -5.71132e-16
v 97.5 18 -302.25
vt 1.94903 3.0225
f 530/256/85 414/140/85 413/139/85 579/317/85 

v 97.5 18 -297.25
vt 1.94903 2.9725
f 579/317/30 413/139/30 580/318/30

f 413/139/30 522/248/30 580/318/30

f 522/248/30 413/139/30 416/142/30

vn 4.69994e-16 1 -6.69145e-16
f 580/318/86 522/248/86 521/247/86 531/257/86 

f 531/257/68 530/256/68 579/317/68 580/318/68 

f 486/212/46 457/183/46 456/182/46

v 151.125 18 -126.5
vt 3.02099 1.265
f 486/212/46 456/182/46 581/319/46

v 151.125 18 -133.5
vt 3.02099 1.335
f 581/319/46 456/182/46 582/320/46

v 228.875 18 -126.5
vt 4.57521 1.265
f 582/320/46 456/182/46 583/321/46

v 231.875 18 -126.5
vt 4.63518 1.265
f 583/321/46 456/182/46 584/322/46

v 231.875 18 -133.5
vt 4.63518 1.335
f 584/322/46 456/182/46 585/323/46

v 231.875 18 -246.5
vt 4.63518 2.465
f 585/323/46 456/182/46 586/324/46

f 586/324/46 456/182/46 481/207/46

v 228.875 18 -246.5
vt 4.57521 2.465
f 482/208/24 587/325/24 586/324/24 481/207/24 

v 228.875 18 -133.5
vt 4.57521 1.335
f 482/208/46 588/326/46 587/325/46

f 482/208/46 583/321/46 588/326/46

f 482/208/46 483/209/46 583/321/46

v 151.125 18 -246.5
vt 3.02099 2.465
f 589/327/46 583/321/46 483/209/46

f 582/320/46 583/321/46 589/327/46

v 148.125 18 -246.5
vt 2.96102 2.465
f 590/328/46 582/320/46 589/327/46

v 148.125 18 -133.5
vt 2.96102 1.335
f 582/320/46 590/328/46 591/329/46

f 484/210/46 591/329/46 590/328/46

f 484/210/46 486/212/46 591/329/46

f 581/319/24 582/320/24 591/329/24 486/212/24 

f 589/327/24 483/209/24 484/210/24 590/328/24 

f 588/326/24 583/321/24 584/322/24 585/323/24 

f 585/323/46 587/325/46 588/326/46

f 587/325/46 585/323/46 586/324/46

v 295.226 18 -146.365
vt 5.90156 1.46365
f 480/206/46 468/194/46 592/330/46

v 295.226 18 -153.365
vt 5.90156 1.53365
f 592/330/46 468/194/46 593/331/46

v 295.226 18 -226.635
vt 5.90156 2.26635
f 593/331/46 468/194/46 594/332/46

f 594/332/46 468/194/46 477/203/46

v 292.226 18 -226.635
vt 5.84159 2.26635
f 478/204/24 595/333/24 594/332/24 477/203/24 

v 292.226 18 -153.365
vt 5.84159 1.53365
f 478/204/46 596/334/46 595/333/46

f 478/204/46 480/206/46 596/334/46

f 596/334/24 480/206/24 592/330/24 593/331/24 

f 593/331/46 595/333/46 596/334/46

f 595/333/46 593/331/46 594/332/46

g Mesh11 ___501_10 Model

v 380 15 -100
v 380 7.5 -100
v 380 7.5 -103
v 380 15 -103
f 597/1/1 598/2/1 599/3/1 600/4/1 

v 103 3.25073e-13 -100
v 188.5 1.22569e-13 -100
v 188.5 7.5 -100
v 191.5 7.5 -100
v 191.5 1.19016e-13 -100
v 277 4.40536e-13 -100
v 277 7.5 -100
v 280 7.5 -100
v 280 4.36984e-13 -100
v 377 2.43361e-13 -100
v 377 7.5 -100
v 5.11591e-13 15 -100
v 5.11591e-13 7.5 -100
v 3 7.5 -100
v 3 0 -100
v 100 3.23297e-13 -100
v 100 7.5 -100
v 103 7.5 -100
f 601/5/2 602/6/2 603/7/2 604/8/2 605/9/2 606/10/2 607/11/2 608/12/2 609/13/2 610/14/2 611/15/2 598/2/2 597/1/2 612/16/2 613/17/2 614/18/2 615/19/2 616/20/2 617/21/2 618/22/2 

v 103 3.25073e-13 -103
v 188.5 1.22569e-13 -103
f 619/23/3 620/24/3 602/25/3 601/26/3 

v 5.11591e-13 15 -103
v 377 7.5 -103
v 377 2.43361e-13 -103
v 280 4.36984e-13 -103
v 280 7.5 -103
v 277 7.5 -103
v 277 4.40536e-13 -103
v 191.5 1.19016e-13 -103
v 191.5 7.5 -103
v 188.5 7.5 -103
v 103 7.5 -103
v 100 7.5 -103
v 100 3.23297e-13 -103
v 3 0 -103
v 3 7.5 -103
v 5.11591e-13 7.5 -103
f 621/27/4 600/28/4 599/29/4 622/3/4 623/30/4 624/31/4 625/32/4 626/33/4 627/34/4 628/35/4 629/36/4 630/37/4 620/38/4 619/39/4 631/40/4 632/41/4 633/42/4 634/43/4 635/44/4 636/45/4 

f 612/46/5 597/47/5 600/48/5 621/49/5 

f 621/50/6 636/15/6 613/51/6 612/52/6 

f 613/53/7 636/54/7 635/55/7 614/56/7 

f 615/57/6 614/58/6 635/15/6 634/14/6 

f 634/55/8 633/59/8 616/60/8 615/61/8 

f 616/62/9 633/30/9 632/3/9 617/63/9 

f 632/59/7 631/23/7 618/26/7 617/60/7 

f 619/14/6 601/64/6 618/65/6 631/15/6 

f 598/66/7 611/67/7 622/68/7 599/69/7 

f 610/70/9 623/30/9 622/3/9 611/71/9 

f 609/72/10 624/73/10 623/68/10 610/74/10 

f 609/75/11 608/76/11 625/15/11 624/14/11 

f 626/77/7 625/73/7 608/72/7 607/78/7 

f 606/79/12 627/30/12 626/3/12 607/80/12 

f 605/81/13 628/82/13 627/77/13 606/78/13 

f 605/83/6 604/84/6 629/15/6 628/14/6 

f 630/24/7 629/82/7 604/81/7 603/25/7 

f 602/85/9 620/30/9 630/3/9 603/86/9 

